<svg width="250" height="400" viewBox="0 0 250 400" fill="none" xmlns="http://www.w3.org/2000/svg">
<rect width="250" height="400" fill="#E8BAC9"/>
<path d="M124.916 361.24C102.582 361.24 83.1148 356.864 66.5152 348.111C49.9156 339.057 36.9377 326.683 27.5815 310.988C18.5272 294.992 14 276.582 14 255.757V249.872H42.0685V254.399C42.0685 281.562 49.7646 301.934 65.157 315.516C80.5494 329.097 100.318 335.888 124.463 335.888C150.419 335.888 170.64 328.493 185.127 313.705C199.916 298.916 207.31 278.393 207.31 252.135V248.513C207.31 223.463 200.218 203.544 186.032 188.755C172.149 173.966 153.739 166.572 130.801 166.572C117.521 166.572 106.505 168.835 97.7526 173.362C89.0001 177.588 82.0585 182.869 76.9277 189.207C72.0987 195.244 68.1751 201.129 65.157 206.863H23.5071V38H228.135V63.3522H51.5755V186.038H57.0081C60.328 179.097 65.157 172.306 71.4951 165.666C77.8331 159.026 86.2838 153.443 96.8472 148.916C107.712 144.389 121.143 142.125 137.139 142.125C155.55 142.125 172.149 146.501 186.938 155.254C201.727 163.704 213.497 175.928 222.25 191.924C231.002 207.618 235.379 226.33 235.379 248.061V252.588C235.379 273.715 230.851 292.427 221.797 308.725C213.045 325.023 200.369 337.85 183.769 347.206C167.471 356.562 147.853 361.24 124.916 361.24Z" fill="white" fill-opacity="0.5"/>
</svg>
