<svg width="250" height="400" viewBox="0 0 250 400" fill="none" xmlns="http://www.w3.org/2000/svg">
<rect width="250" height="400" fill="#E8BAC9"/>
<path d="M124.783 361.24C104.358 361.24 85.8577 357.096 69.2813 348.808C53.0009 340.519 39.9766 328.531 30.2084 312.843C20.7361 297.154 16 278.358 16 256.453V146.783C16 124.286 20.2921 105.046 28.8763 89.0613C37.7565 72.7809 50.3368 60.2005 66.6172 51.3203C82.8977 42.4401 102.582 38 125.671 38C148.463 38 167.704 42.1441 183.392 50.4323C199.081 58.7205 210.921 69.8208 218.913 83.7331C226.905 97.6455 230.901 113.334 230.901 130.798H203.373C203.373 110.374 196.712 93.9454 183.392 81.5131C170.368 69.0808 151.127 62.8646 125.671 62.8646C99.6221 62.8646 79.3456 70.1168 64.8412 84.6212C50.6329 98.8295 43.5287 118.514 43.5287 143.675V191.184H48.8568C54.4809 181.12 63.8052 171.943 76.8295 163.655C90.1498 155.071 108.354 150.779 131.443 150.779C150.683 150.779 168 155.071 183.392 163.655C198.785 171.943 210.921 183.784 219.801 199.176C228.977 214.272 233.565 232.329 233.565 253.345V258.673C233.565 279.69 228.681 297.894 218.913 313.287C209.441 328.679 196.416 340.519 179.84 348.808C163.56 357.096 145.207 361.24 124.783 361.24ZM124.783 336.375C148.759 336.375 168.296 329.419 183.392 315.507C198.489 301.594 206.037 282.502 206.037 258.229V254.677C206.037 238.397 202.485 224.337 195.38 212.496C188.572 200.656 179.1 191.48 166.964 184.968C154.827 178.159 140.767 174.755 124.783 174.755C108.798 174.755 94.7379 178.159 82.6016 184.968C70.4653 191.48 60.8451 200.656 53.7409 212.496C46.9328 224.337 43.5287 238.397 43.5287 254.677V258.229C43.5287 282.502 51.0769 301.594 66.1732 315.507C81.2696 329.419 100.806 336.375 124.783 336.375Z" fill="white" fill-opacity="0.5"/>
</svg>
