<svg width="250" height="400" viewBox="0 0 250 400" fill="none" xmlns="http://www.w3.org/2000/svg">
<rect width="250" height="400" fill="#E8BAC9"/>
<path d="M13 361.24V330.002C13 307.367 17.0745 289.56 25.2234 276.582C33.3723 263.302 44.6902 252.739 59.1771 244.892C73.9659 237.045 91.32 230.103 111.24 224.067L133.875 216.823C148.664 212.296 161.642 206.863 172.809 200.525C184.278 193.886 193.181 185.435 199.519 175.173C205.857 164.912 209.026 151.934 209.026 136.24V134.429C209.026 112.397 201.33 95.0424 185.938 82.3663C170.847 69.6902 151.531 63.3521 127.99 63.3521C102.94 63.3521 82.4166 70.1429 66.4206 83.7244C50.4246 97.0041 42.4266 117.376 42.4266 144.841V150.727H15.2636V144.841C15.2636 121.904 20.0926 102.588 29.7505 86.8935C39.4085 70.8974 52.6882 58.825 69.5896 50.6761C86.7929 42.2254 106.26 38 127.99 38C149.721 38 168.735 42.0744 185.032 50.2234C201.632 58.0705 214.459 69.2375 223.513 83.7244C232.568 97.9096 237.095 114.509 237.095 133.523V137.598C237.095 158.121 233.02 175.022 224.872 188.302C217.024 201.28 205.857 211.994 191.371 220.445C176.884 228.594 159.831 235.837 140.213 242.175L117.578 248.966C101.28 254.097 87.3965 259.53 75.9277 265.264C64.7606 270.697 56.159 278.091 50.1228 287.447C44.0866 296.501 41.0685 309.178 41.0685 325.475V335.888H234.379V361.24H13Z" fill="white" fill-opacity="0.5"/>
</svg>
