<svg width="250" height="400" viewBox="0 0 250 400" fill="none" xmlns="http://www.w3.org/2000/svg">
<rect width="250" height="400" fill="#E8BAC9"/>
<path d="M127.537 361.239C105.505 361.239 85.7364 357.014 68.2314 348.563C51.0282 340.113 37.4467 327.889 27.4869 311.893C17.829 295.596 13 275.978 13 253.04V244.439H41.0684V253.493C41.0684 279.147 49.0664 299.368 65.0624 314.157C81.0583 328.644 101.883 335.887 127.537 335.887C153.493 335.887 173.714 328.946 188.201 315.062C202.688 301.179 209.932 283.674 209.932 262.547V259.831C209.932 244.137 206.159 231.461 198.614 221.803C191.37 212.145 181.41 205.052 168.734 200.525C156.36 195.696 142.628 193.282 127.537 193.282H80.9074V155.254L209.479 67.8793V63.3521H20.2435V38H237.547V78.7445L110.334 165.213V169.74H135.233C154.851 169.74 172.356 173.211 187.748 180.153C203.141 186.793 215.364 196.753 224.418 210.032C233.473 223.01 238 239.308 238 258.926V263.453C238 283.07 233.473 300.274 224.418 315.062C215.364 329.549 202.537 340.867 185.938 349.016C169.338 357.165 149.871 361.239 127.537 361.239Z" fill="white" fill-opacity="0.5"/>
</svg>
