<svg width="250" height="400" viewBox="0 0 250 400" fill="none" xmlns="http://www.w3.org/2000/svg">
<rect width="250" height="400" fill="#E8BAC9"/>
<path d="M127.272 358.647C105.421 358.647 85.7854 354.495 68.3642 346.19C51.2382 337.886 37.6555 325.874 27.6161 310.155C17.872 294.435 13 275.454 13 253.21V244.757H48.876V252.765C48.876 275.602 56.1102 293.546 70.5787 306.596C85.0472 319.646 103.945 326.171 127.272 326.171C150.894 326.171 169.201 320.09 182.193 307.93C195.48 295.474 202.124 279.903 202.124 261.217V257.658C202.124 244.015 198.876 233.042 192.38 224.737C185.884 216.136 177.026 209.908 165.805 206.052C154.88 201.9 142.774 199.824 129.486 199.824H78.9941V154.89L197.252 78.8151V73.4765H20.5295V41H235.343V91.2719L119.742 166.012V171.351H141.888C159.309 171.351 175.254 174.613 189.722 181.138C204.486 187.367 216.15 196.858 224.713 209.611C233.571 222.068 238 237.787 238 256.769V261.662C238 281.237 233.423 298.291 224.27 312.824C215.116 327.357 202.272 338.627 185.736 346.635C169.201 354.643 149.713 358.647 127.272 358.647Z" fill="white" fill-opacity="0.5"/>
</svg>
