<svg width="45" height="45" viewBox="0 0 45 45" fill="none" xmlns="http://www.w3.org/2000/svg">
<rect width="45" height="45" rx="22.5" fill="#FF8CA0"/>
<path d="M26.5613 32.0452C26.8425 31.7639 27.0005 31.3824 27.0005 30.9847C27.0005 30.5869 26.8425 30.2055 26.5613 29.9242L19.1363 22.4992L26.5613 15.0742C26.8345 14.7913 26.9857 14.4124 26.9823 14.0191C26.9789 13.6258 26.8211 13.2496 26.543 12.9715C26.2649 12.6934 25.8887 12.5356 25.4954 12.5322C25.1021 12.5288 24.7232 12.68 24.4403 12.9532L15.9548 21.4387C15.6736 21.72 15.5156 22.1014 15.5156 22.4992C15.5156 22.8969 15.6736 23.2784 15.9548 23.5597L24.4403 32.0452C24.7216 32.3264 25.1031 32.4844 25.5008 32.4844C25.8986 32.4844 26.28 32.3264 26.5613 32.0452Z" fill="#F2F2F2"/>
</svg>
