<svg width="45" height="45" viewBox="0 0 45 45" fill="none" xmlns="http://www.w3.org/2000/svg">
<rect x="45" y="45" width="45" height="45" rx="22.5" transform="rotate(-180 45 45)" fill="#FF8CA0"/>
<path d="M18.4387 12.9548C18.1575 13.2361 17.9995 13.6176 17.9995 14.0153C17.9995 14.4131 18.1575 14.7945 18.4387 15.0758L25.8637 22.5008L18.4387 29.9258C18.1655 30.2087 18.0143 30.5876 18.0177 30.9809C18.0211 31.3742 18.1789 31.7504 18.457 32.0285C18.7351 32.3066 19.1113 32.4644 19.5046 32.4678C19.8979 32.4712 20.2768 32.32 20.5597 32.0468L29.0452 23.5613C29.3264 23.28 29.4844 22.8986 29.4844 22.5008C29.4844 22.1031 29.3264 21.7216 29.0452 21.4403L20.5597 12.9548C20.2784 12.6736 19.8969 12.5156 19.4992 12.5156C19.1014 12.5156 18.72 12.6736 18.4387 12.9548Z" fill="#F2F2F2"/>
</svg>
