<svg width="200" height="200" viewBox="0 0 200 200" fill="none" xmlns="http://www.w3.org/2000/svg">
<path fill-rule="evenodd" clip-rule="evenodd" d="M99.9972 174.395C141.086 174.395 174.395 141.086 174.395 99.9972C174.395 58.9084 141.086 25.5993 99.9972 25.5993C58.9084 25.5993 25.5993 58.9084 25.5993 99.9972C25.5993 141.086 58.9084 174.395 99.9972 174.395ZM99.9972 199.994C155.224 199.994 199.994 155.224 199.994 99.9972C199.994 44.7703 155.224 0 99.9972 0C44.7703 0 0 44.7703 0 99.9972C0 155.224 44.7703 199.994 99.9972 199.994Z" fill="#7DA7B3"/>
<mask id="path-2-inside-1_573_333" fill="white">
<path fill-rule="evenodd" clip-rule="evenodd" d="M91.3828 199.625C94.2232 199.868 97.0975 199.991 100.001 199.991C155.228 199.991 199.998 155.221 199.998 99.9941C199.998 45.034 155.659 0.429854 100.801 0V25.6004C141.521 26.0294 174.399 59.1722 174.399 99.9941C174.399 141.083 141.089 174.392 100.001 174.392C97.9232 174.392 95.8656 174.307 93.8312 174.14L91.3828 199.625Z"/>
</mask>
<path fill-rule="evenodd" clip-rule="evenodd" d="M91.3828 199.625C94.2232 199.868 97.0975 199.991 100.001 199.991C155.228 199.991 199.998 155.221 199.998 99.9941C199.998 45.034 155.659 0.429854 100.801 0V25.6004C141.521 26.0294 174.399 59.1722 174.399 99.9941C174.399 141.083 141.089 174.392 100.001 174.392C97.9232 174.392 95.8656 174.307 93.8312 174.14L91.3828 199.625Z" fill="#F2F2F2"/>
<path d="M91.3828 199.625L89.392 199.434L89.1987 201.446L91.2127 201.618L91.3828 199.625ZM100.801 0L100.816 -1.99994L98.8006 -2.01573V0H100.801ZM100.801 25.6004H98.8006V27.5794L100.78 27.6003L100.801 25.6004ZM93.8312 174.14L93.9948 172.147L92.029 171.985L91.8403 173.949L93.8312 174.14ZM91.2127 201.618C94.1096 201.865 97.0406 201.991 100.001 201.991V197.991C97.1543 197.991 94.3368 197.87 91.5529 197.632L91.2127 201.618ZM100.001 201.991C156.332 201.991 201.998 156.326 201.998 99.9941H197.998C197.998 154.116 154.123 197.991 100.001 197.991V201.991ZM201.998 99.9941C201.998 43.9347 156.773 -1.56148 100.816 -1.99994L100.785 1.99994C154.546 2.42119 197.998 46.1334 197.998 99.9941H201.998ZM98.8006 0V25.6004H102.801V0H98.8006ZM176.399 99.9941C176.399 58.0747 142.637 24.041 100.822 23.6005L100.78 27.6003C140.405 28.0177 172.399 60.2697 172.399 99.9941H176.399ZM100.001 176.392C142.194 176.392 176.399 142.187 176.399 99.9941H172.399C172.399 139.978 139.985 172.392 100.001 172.392V176.392ZM93.6675 176.133C95.7563 176.305 97.8685 176.392 100.001 176.392V172.392C97.9778 172.392 95.9748 172.309 93.9948 172.147L93.6675 176.133ZM91.8403 173.949L89.392 199.434L93.3736 199.816L95.822 174.331L91.8403 173.949Z" fill="#7DA7B3" mask="url(#path-2-inside-1_573_333)"/>
<path d="M75.088 112.48C73.9253 112.48 72.832 112.24 71.808 111.76C70.7947 111.28 69.92 110.613 69.184 109.76C68.448 108.907 67.92 107.915 67.6 106.784L71.792 105.664C71.9307 106.208 72.176 106.677 72.528 107.072C72.8907 107.467 73.3067 107.776 73.776 108C74.256 108.213 74.7467 108.32 75.248 108.32C75.9093 108.32 76.512 108.16 77.056 107.84C77.6107 107.52 78.048 107.088 78.368 106.544C78.6987 106 78.864 105.397 78.864 104.736C78.864 104.075 78.6987 103.472 78.368 102.928C78.048 102.384 77.6107 101.952 77.056 101.632C76.512 101.312 75.9093 101.152 75.248 101.152C74.4373 101.152 73.776 101.291 73.264 101.568C72.752 101.835 72.368 102.091 72.112 102.336L68.432 101.216L69.136 88.96H81.712V93.024H71.536L73.072 91.584L72.592 99.488L71.856 98.592C72.432 98.1227 73.088 97.7813 73.824 97.568C74.56 97.3547 75.248 97.248 75.888 97.248C77.3387 97.248 78.6133 97.5733 79.712 98.224C80.8213 98.864 81.6853 99.7493 82.304 100.88C82.9333 102 83.248 103.285 83.248 104.736C83.248 106.187 82.8693 107.499 82.112 108.672C81.3547 109.835 80.3573 110.763 79.12 111.456C77.8827 112.139 76.5387 112.48 75.088 112.48ZM95.1158 112.48C93.5904 112.48 92.2198 112.123 91.0038 111.408C89.7984 110.693 88.8438 109.701 88.1398 108.432C87.4358 107.152 87.0838 105.675 87.0838 104V97.312C87.0838 95.4987 87.4358 93.936 88.1398 92.624C88.8438 91.3013 89.8358 90.288 91.1158 89.584C92.3958 88.8693 93.8998 88.512 95.6278 88.512C96.7478 88.512 97.8144 88.6773 98.8278 89.008C99.8411 89.3387 100.769 89.8987 101.612 90.688L98.5078 93.792C98.1238 93.408 97.6811 93.1093 97.1798 92.896C96.6784 92.6827 96.1611 92.576 95.6278 92.576C94.7958 92.576 94.0704 92.7733 93.4518 93.168C92.8438 93.552 92.3691 94.0587 92.0278 94.688C91.6971 95.3067 91.5318 95.968 91.5318 96.672V100.096L90.7958 99.296C91.4571 98.624 92.2198 98.112 93.0838 97.76C93.9584 97.3973 94.8598 97.216 95.7878 97.216C97.2384 97.216 98.5131 97.5413 99.6118 98.192C100.721 98.8427 101.585 99.7333 102.204 100.864C102.833 101.995 103.148 103.285 103.148 104.736C103.148 106.187 102.78 107.499 102.044 108.672C101.308 109.835 100.332 110.763 99.1158 111.456C97.8998 112.139 96.5664 112.48 95.1158 112.48ZM95.1158 108.32C95.7771 108.32 96.3798 108.16 96.9238 107.84C97.4784 107.52 97.9158 107.088 98.2358 106.544C98.5664 106 98.7318 105.397 98.7318 104.736C98.7318 104.075 98.5718 103.472 98.2518 102.928C97.9318 102.373 97.4998 101.936 96.9558 101.616C96.4118 101.285 95.8091 101.12 95.1478 101.12C94.4864 101.12 93.8784 101.285 93.3238 101.616C92.7798 101.936 92.3424 102.373 92.0118 102.928C91.6918 103.472 91.5318 104.075 91.5318 104.736C91.5318 105.376 91.6918 105.968 92.0118 106.512C92.3318 107.056 92.7638 107.493 93.3078 107.824C93.8518 108.155 94.4544 108.32 95.1158 108.32ZM109.87 112L107.63 109.76L128.446 88.96L130.686 91.216L109.87 112ZM125.886 112.48C124.83 112.48 123.865 112.224 122.99 111.712C122.126 111.189 121.433 110.496 120.91 109.632C120.387 108.757 120.126 107.787 120.126 106.72C120.126 105.675 120.393 104.715 120.926 103.84C121.459 102.965 122.163 102.267 123.038 101.744C123.913 101.221 124.862 100.96 125.886 100.96C126.942 100.96 127.907 101.221 128.782 101.744C129.657 102.256 130.35 102.949 130.862 103.824C131.385 104.688 131.646 105.653 131.646 106.72C131.646 107.787 131.385 108.757 130.862 109.632C130.35 110.496 129.657 111.189 128.782 111.712C127.907 112.224 126.942 112.48 125.886 112.48ZM125.886 109.584C126.409 109.584 126.883 109.456 127.31 109.2C127.747 108.933 128.094 108.581 128.35 108.144C128.617 107.707 128.75 107.232 128.75 106.72C128.75 106.208 128.617 105.733 128.35 105.296C128.094 104.859 127.747 104.512 127.31 104.256C126.883 103.989 126.409 103.856 125.886 103.856C125.374 103.856 124.899 103.989 124.462 104.256C124.035 104.512 123.689 104.859 123.422 105.296C123.166 105.733 123.038 106.208 123.038 106.72C123.038 107.232 123.166 107.707 123.422 108.144C123.689 108.581 124.035 108.933 124.462 109.2C124.899 109.456 125.374 109.584 125.886 109.584ZM112.43 100C111.374 100 110.409 99.744 109.534 99.232C108.659 98.7093 107.961 98.016 107.438 97.152C106.926 96.2773 106.67 95.3067 106.67 94.24C106.67 93.1947 106.937 92.2347 107.47 91.36C108.003 90.4853 108.707 89.7867 109.582 89.264C110.457 88.7413 111.406 88.48 112.43 88.48C113.486 88.48 114.446 88.7413 115.31 89.264C116.185 89.776 116.883 90.4693 117.406 91.344C117.929 92.208 118.19 93.1733 118.19 94.24C118.19 95.3067 117.929 96.2773 117.406 97.152C116.883 98.016 116.185 98.7093 115.31 99.232C114.446 99.744 113.486 100 112.43 100ZM112.43 97.104C112.942 97.104 113.417 96.976 113.854 96.72C114.291 96.4533 114.638 96.1013 114.894 95.664C115.161 95.2267 115.294 94.752 115.294 94.24C115.294 93.728 115.161 93.2533 114.894 92.816C114.638 92.3787 114.291 92.032 113.854 91.776C113.417 91.5093 112.942 91.376 112.43 91.376C111.918 91.376 111.443 91.5093 111.006 91.776C110.579 92.032 110.233 92.3787 109.966 92.816C109.699 93.2533 109.566 93.728 109.566 94.24C109.566 94.752 109.699 95.2267 109.966 95.664C110.233 96.1013 110.579 96.4533 111.006 96.72C111.433 96.976 111.907 97.104 112.43 97.104Z" fill="#284F59"/>
</svg>
