<svg width="200" height="200" viewBox="0 0 200 200" fill="none" xmlns="http://www.w3.org/2000/svg">
<path fill-rule="evenodd" clip-rule="evenodd" d="M99.9972 174.395C141.086 174.395 174.395 141.086 174.395 99.9972C174.395 58.9084 141.086 25.5993 99.9972 25.5993C58.9084 25.5993 25.5993 58.9084 25.5993 99.9972C25.5993 141.086 58.9084 174.395 99.9972 174.395ZM99.9972 199.994C155.224 199.994 199.994 155.224 199.994 99.9972C199.994 44.7703 155.224 0 99.9972 0C44.7703 0 0 44.7703 0 99.9972C0 155.224 44.7703 199.994 99.9972 199.994Z" fill="#7DA7B3"/>
<mask id="path-2-inside-1_760_345" fill="white">
<path fill-rule="evenodd" clip-rule="evenodd" d="M1.21852 84.3376C0.416435 89.4386 0 94.6677 0 99.9941C0 155.221 44.7703 199.991 99.9972 199.991C155.224 199.991 199.994 155.221 199.994 99.9941C199.994 45.034 155.656 0.429846 100.797 0V25.6004C141.518 26.0294 174.395 59.1722 174.395 99.9941C174.395 141.083 141.086 174.392 99.9972 174.392C58.9084 174.392 25.5993 141.083 25.5993 99.9941C25.5993 96.158 25.8896 92.3897 26.4495 88.71L1.21852 84.3376Z"/>
</mask>
<path fill-rule="evenodd" clip-rule="evenodd" d="M1.21852 84.3376C0.416435 89.4386 0 94.6677 0 99.9941C0 155.221 44.7703 199.991 99.9972 199.991C155.224 199.991 199.994 155.221 199.994 99.9941C199.994 45.034 155.656 0.429846 100.797 0V25.6004C141.518 26.0294 174.395 59.1722 174.395 99.9941C174.395 141.083 141.086 174.392 99.9972 174.392C58.9084 174.392 25.5993 141.083 25.5993 99.9941C25.5993 96.158 25.8896 92.3897 26.4495 88.71L1.21852 84.3376Z" fill="#F2F2F2"/>
<path d="M1.21852 84.3376L1.56002 82.367L-0.441646 82.0201L-0.757202 84.0269L1.21852 84.3376ZM100.797 0L100.813 -1.99994L98.7972 -2.01573V0H100.797ZM100.797 25.6004H98.7972V27.5794L100.776 27.6003L100.797 25.6004ZM26.4495 88.71L28.4267 89.0108L28.7215 87.0739L26.791 86.7394L26.4495 88.71ZM-0.757202 84.0269C-1.57539 89.2304 -2 94.5633 -2 99.9941H2C2 94.7721 2.40826 89.6469 3.19425 84.6483L-0.757202 84.0269ZM-2 99.9941C-2 156.326 43.6657 201.991 99.9972 201.991V197.991C45.8748 197.991 2 154.116 2 99.9941H-2ZM99.9972 201.991C156.329 201.991 201.994 156.326 201.994 99.9941H197.994C197.994 154.116 154.12 197.991 99.9972 197.991V201.991ZM201.994 99.9941C201.994 43.9347 156.769 -1.56149 100.813 -1.99994L100.782 1.99994C154.543 2.42119 197.994 46.1334 197.994 99.9941H201.994ZM98.7972 0V25.6004H102.797V0H98.7972ZM176.395 99.9941C176.395 58.0747 142.634 24.041 100.818 23.6005L100.776 27.6003C140.401 28.0177 172.395 60.2697 172.395 99.9941H176.395ZM99.9972 176.392C142.191 176.392 176.395 142.187 176.395 99.9941H172.395C172.395 139.978 139.981 172.392 99.9972 172.392V176.392ZM23.5993 99.9941C23.5993 142.187 57.8038 176.392 99.9972 176.392V172.392C60.0129 172.392 27.5993 139.978 27.5993 99.9941H23.5993ZM24.4723 88.4091C23.8973 92.1881 23.5993 96.0569 23.5993 99.9941H27.5993C27.5993 96.259 27.882 92.5913 28.4267 89.0108L24.4723 88.4091ZM26.791 86.7394L1.56002 82.367L0.877023 86.3082L26.108 90.6806L26.791 86.7394Z" fill="#7DA7B3" mask="url(#path-2-inside-1_760_345)"/>
<path d="M70.392 112L78.136 93.056H68.28V88.96H82.808V93.056L75.096 112H70.392ZM94.3583 112.48C92.8009 112.48 91.4143 112.165 90.1983 111.536C88.9929 110.896 88.0436 110.021 87.3503 108.912C86.6676 107.792 86.3263 106.517 86.3263 105.088C86.3263 103.872 86.5983 102.725 87.1423 101.648C87.6969 100.571 88.4916 99.6907 89.5263 99.008L89.4303 100.352C88.6516 99.5947 88.0383 98.7947 87.5903 97.952C87.1529 97.1093 86.9343 96.16 86.9343 95.104C86.9343 93.7707 87.2489 92.608 87.8783 91.616C88.5183 90.624 89.3929 89.856 90.5023 89.312C91.6223 88.7573 92.9076 88.48 94.3583 88.48C95.8089 88.48 97.0889 88.7573 98.1983 89.312C99.3183 89.856 100.193 90.624 100.822 91.616C101.462 92.608 101.782 93.7707 101.782 95.104C101.782 96.16 101.574 97.1093 101.158 97.952C100.742 98.784 100.108 99.5947 99.2543 100.384V99.04C100.268 99.68 101.046 100.544 101.59 101.632C102.145 102.72 102.422 103.872 102.422 105.088C102.422 106.517 102.076 107.792 101.382 108.912C100.689 110.021 99.7343 110.896 98.5183 111.536C97.3023 112.165 95.9156 112.48 94.3583 112.48ZM94.3583 108.384C95.3823 108.384 96.2143 108.107 96.8543 107.552C97.4943 106.997 97.8143 106.176 97.8143 105.088C97.8143 104.011 97.4943 103.189 96.8543 102.624C96.2143 102.048 95.3823 101.76 94.3583 101.76C93.3343 101.76 92.5076 102.048 91.8783 102.624C91.2489 103.189 90.9343 104.011 90.9343 105.088C90.9343 106.176 91.2489 106.997 91.8783 107.552C92.5076 108.107 93.3343 108.384 94.3583 108.384ZM94.3583 97.632C95.1903 97.632 95.8676 97.4293 96.3903 97.024C96.9129 96.608 97.1743 95.968 97.1743 95.104C97.1743 94.24 96.9129 93.6 96.3903 93.184C95.8676 92.7573 95.1903 92.544 94.3583 92.544C93.5263 92.544 92.8489 92.7573 92.3263 93.184C91.8036 93.6 91.5423 94.24 91.5423 95.104C91.5423 95.968 91.8036 96.608 92.3263 97.024C92.8489 97.4293 93.5263 97.632 94.3583 97.632ZM109.464 112L107.224 109.76L128.04 88.96L130.28 91.216L109.464 112ZM125.48 112.48C124.424 112.48 123.458 112.224 122.584 111.712C121.72 111.189 121.026 110.496 120.504 109.632C119.981 108.757 119.72 107.787 119.72 106.72C119.72 105.675 119.986 104.715 120.52 103.84C121.053 102.965 121.757 102.267 122.632 101.744C123.506 101.221 124.456 100.96 125.48 100.96C126.536 100.96 127.501 101.221 128.376 101.744C129.25 102.256 129.944 102.949 130.456 103.824C130.978 104.688 131.24 105.653 131.24 106.72C131.24 107.787 130.978 108.757 130.456 109.632C129.944 110.496 129.25 111.189 128.376 111.712C127.501 112.224 126.536 112.48 125.48 112.48ZM125.48 109.584C126.002 109.584 126.477 109.456 126.904 109.2C127.341 108.933 127.688 108.581 127.944 108.144C128.21 107.707 128.344 107.232 128.344 106.72C128.344 106.208 128.21 105.733 127.944 105.296C127.688 104.859 127.341 104.512 126.904 104.256C126.477 103.989 126.002 103.856 125.48 103.856C124.968 103.856 124.493 103.989 124.056 104.256C123.629 104.512 123.282 104.859 123.016 105.296C122.76 105.733 122.632 106.208 122.632 106.72C122.632 107.232 122.76 107.707 123.016 108.144C123.282 108.581 123.629 108.933 124.056 109.2C124.493 109.456 124.968 109.584 125.48 109.584ZM112.024 100C110.968 100 110.002 99.744 109.128 99.232C108.253 98.7093 107.554 98.016 107.032 97.152C106.52 96.2773 106.264 95.3067 106.264 94.24C106.264 93.1947 106.53 92.2347 107.064 91.36C107.597 90.4853 108.301 89.7867 109.176 89.264C110.05 88.7413 111 88.48 112.024 88.48C113.08 88.48 114.04 88.7413 114.904 89.264C115.778 89.776 116.477 90.4693 117 91.344C117.522 92.208 117.784 93.1733 117.784 94.24C117.784 95.3067 117.522 96.2773 117 97.152C116.477 98.016 115.778 98.7093 114.904 99.232C114.04 99.744 113.08 100 112.024 100ZM112.024 97.104C112.536 97.104 113.01 96.976 113.448 96.72C113.885 96.4533 114.232 96.1013 114.488 95.664C114.754 95.2267 114.888 94.752 114.888 94.24C114.888 93.728 114.754 93.2533 114.488 92.816C114.232 92.3787 113.885 92.032 113.448 91.776C113.01 91.5093 112.536 91.376 112.024 91.376C111.512 91.376 111.037 91.5093 110.6 91.776C110.173 92.032 109.826 92.3787 109.56 92.816C109.293 93.2533 109.16 93.728 109.16 94.24C109.16 94.752 109.293 95.2267 109.56 95.664C109.826 96.1013 110.173 96.4533 110.6 96.72C111.026 96.976 111.501 97.104 112.024 97.104Z" fill="#284F59"/>
</svg>
