<svg width="200" height="200" viewBox="0 0 200 200" fill="none" xmlns="http://www.w3.org/2000/svg">
<path fill-rule="evenodd" clip-rule="evenodd" d="M99.9972 174.395C141.086 174.395 174.395 141.086 174.395 99.9972C174.395 58.9084 141.086 25.5993 99.9972 25.5993C58.9084 25.5993 25.5993 58.9084 25.5993 99.9972C25.5993 141.086 58.9084 174.395 99.9972 174.395ZM99.9972 199.994C155.224 199.994 199.994 155.224 199.994 99.9972C199.994 44.7703 155.224 0 99.9972 0C44.7703 0 0 44.7703 0 99.9972C0 155.224 44.7703 199.994 99.9972 199.994Z" fill="#7DA7B3"/>
<mask id="path-2-inside-1_760_339" fill="white">
<path fill-rule="evenodd" clip-rule="evenodd" d="M100.803 199.988C155.659 199.555 199.994 154.952 199.994 99.9941C199.994 45.034 155.656 0.429814 100.797 0V25.6004C141.517 26.0293 174.395 59.1722 174.395 99.9941C174.395 140.814 141.52 173.956 100.802 174.388L100.803 199.988Z"/>
</mask>
<path fill-rule="evenodd" clip-rule="evenodd" d="M100.803 199.988C155.659 199.555 199.994 154.952 199.994 99.9941C199.994 45.034 155.656 0.429814 100.797 0V25.6004C141.517 26.0293 174.395 59.1722 174.395 99.9941C174.395 140.814 141.52 173.956 100.802 174.388L100.803 199.988Z" fill="#F2F2F2"/>
<path d="M100.803 199.988L98.8035 199.988L98.8036 202.004L100.819 201.988L100.803 199.988ZM100.797 0L100.813 -1.99994L98.7969 -2.01573V0H100.797ZM100.797 25.6004H98.7969V27.5794L100.776 27.6003L100.797 25.6004ZM100.802 174.388L100.781 172.388L98.8016 172.409L98.8018 174.388L100.802 174.388ZM100.819 201.988C156.772 201.546 201.994 156.051 201.994 99.9941H197.994C197.994 153.853 154.546 197.563 100.788 197.988L100.819 201.988ZM201.994 99.9941C201.994 43.9347 156.769 -1.56153 100.813 -1.99994L100.781 1.99994C154.542 2.42115 197.994 46.1333 197.994 99.9941H201.994ZM98.7969 0V25.6004H102.797V0H98.7969ZM176.395 99.9941C176.395 58.0747 142.633 24.041 100.818 23.6005L100.776 27.6003C140.401 28.0177 172.395 60.2697 172.395 99.9941H176.395ZM100.823 176.388C142.636 175.944 176.395 141.912 176.395 99.9941H172.395C172.395 139.717 140.404 171.968 100.781 172.388L100.823 176.388ZM98.8018 174.388L98.8035 199.988L102.803 199.988L102.802 174.388L98.8018 174.388Z" fill="#7DA7B3" mask="url(#path-2-inside-1_760_339)"/>
<path d="M76.088 112.48C74.9253 112.48 73.832 112.24 72.808 111.76C71.7947 111.28 70.92 110.613 70.184 109.76C69.448 108.907 68.92 107.915 68.6 106.784L72.792 105.664C72.9307 106.208 73.176 106.677 73.528 107.072C73.8907 107.467 74.3067 107.776 74.776 108C75.256 108.213 75.7467 108.32 76.248 108.32C76.9093 108.32 77.512 108.16 78.056 107.84C78.6107 107.52 79.048 107.088 79.368 106.544C79.6987 106 79.864 105.397 79.864 104.736C79.864 104.075 79.6987 103.472 79.368 102.928C79.048 102.384 78.6107 101.952 78.056 101.632C77.512 101.312 76.9093 101.152 76.248 101.152C75.4373 101.152 74.776 101.291 74.264 101.568C73.752 101.835 73.368 102.091 73.112 102.336L69.432 101.216L70.136 88.96H82.712V93.024H72.536L74.072 91.584L73.592 99.488L72.856 98.592C73.432 98.1227 74.088 97.7813 74.824 97.568C75.56 97.3547 76.248 97.248 76.888 97.248C78.3387 97.248 79.6133 97.5733 80.712 98.224C81.8213 98.864 82.6853 99.7493 83.304 100.88C83.9333 102 84.248 103.285 84.248 104.736C84.248 106.187 83.8693 107.499 83.112 108.672C82.3547 109.835 81.3573 110.763 80.12 111.456C78.8827 112.139 77.5387 112.48 76.088 112.48ZM96.6278 112.48C94.9211 112.48 93.4278 112.123 92.1478 111.408C90.8678 110.693 89.8704 109.696 89.1558 108.416C88.4411 107.136 88.0838 105.643 88.0838 103.936V97.024C88.0838 95.3173 88.4411 93.824 89.1558 92.544C89.8704 91.264 90.8678 90.2667 92.1478 89.552C93.4278 88.8373 94.9211 88.48 96.6278 88.48C98.3344 88.48 99.8278 88.8373 101.108 89.552C102.388 90.2667 103.385 91.264 104.1 92.544C104.814 93.824 105.172 95.3173 105.172 97.024V103.936C105.172 105.643 104.814 107.136 104.1 108.416C103.385 109.696 102.388 110.693 101.108 111.408C99.8278 112.123 98.3344 112.48 96.6278 112.48ZM96.6278 108.352C97.3958 108.352 98.0891 108.171 98.7078 107.808C99.3264 107.445 99.8171 106.955 100.18 106.336C100.542 105.717 100.724 105.024 100.724 104.256V96.672C100.724 95.904 100.542 95.2107 100.18 94.592C99.8171 93.9733 99.3264 93.4827 98.7078 93.12C98.0891 92.7573 97.3958 92.576 96.6278 92.576C95.8598 92.576 95.1664 92.7573 94.5478 93.12C93.9291 93.4827 93.4384 93.9733 93.0758 94.592C92.7131 95.2107 92.5318 95.904 92.5318 96.672V104.256C92.5318 105.024 92.7131 105.717 93.0758 106.336C93.4384 106.955 93.9291 107.445 94.5478 107.808C95.1664 108.171 95.8598 108.352 96.6278 108.352ZM112.526 112L110.286 109.76L131.102 88.96L133.342 91.216L112.526 112ZM128.542 112.48C127.486 112.48 126.521 112.224 125.646 111.712C124.782 111.189 124.089 110.496 123.566 109.632C123.044 108.757 122.782 107.787 122.782 106.72C122.782 105.675 123.049 104.715 123.582 103.84C124.116 102.965 124.82 102.267 125.694 101.744C126.569 101.221 127.518 100.96 128.542 100.96C129.598 100.96 130.564 101.221 131.438 101.744C132.313 102.256 133.006 102.949 133.518 103.824C134.041 104.688 134.302 105.653 134.302 106.72C134.302 107.787 134.041 108.757 133.518 109.632C133.006 110.496 132.313 111.189 131.438 111.712C130.564 112.224 129.598 112.48 128.542 112.48ZM128.542 109.584C129.065 109.584 129.54 109.456 129.966 109.2C130.404 108.933 130.75 108.581 131.006 108.144C131.273 107.707 131.406 107.232 131.406 106.72C131.406 106.208 131.273 105.733 131.006 105.296C130.75 104.859 130.404 104.512 129.966 104.256C129.54 103.989 129.065 103.856 128.542 103.856C128.03 103.856 127.556 103.989 127.118 104.256C126.692 104.512 126.345 104.859 126.078 105.296C125.822 105.733 125.694 106.208 125.694 106.72C125.694 107.232 125.822 107.707 126.078 108.144C126.345 108.581 126.692 108.933 127.118 109.2C127.556 109.456 128.03 109.584 128.542 109.584ZM115.086 100C114.03 100 113.065 99.744 112.19 99.232C111.316 98.7093 110.617 98.016 110.094 97.152C109.582 96.2773 109.326 95.3067 109.326 94.24C109.326 93.1947 109.593 92.2347 110.126 91.36C110.66 90.4853 111.364 89.7867 112.238 89.264C113.113 88.7413 114.062 88.48 115.086 88.48C116.142 88.48 117.102 88.7413 117.966 89.264C118.841 89.776 119.54 90.4693 120.062 91.344C120.585 92.208 120.846 93.1733 120.846 94.24C120.846 95.3067 120.585 96.2773 120.062 97.152C119.54 98.016 118.841 98.7093 117.966 99.232C117.102 99.744 116.142 100 115.086 100ZM115.086 97.104C115.598 97.104 116.073 96.976 116.51 96.72C116.948 96.4533 117.294 96.1013 117.55 95.664C117.817 95.2267 117.95 94.752 117.95 94.24C117.95 93.728 117.817 93.2533 117.55 92.816C117.294 92.3787 116.948 92.032 116.51 91.776C116.073 91.5093 115.598 91.376 115.086 91.376C114.574 91.376 114.1 91.5093 113.662 91.776C113.236 92.032 112.889 92.3787 112.622 92.816C112.356 93.2533 112.222 93.728 112.222 94.24C112.222 94.752 112.356 95.2267 112.622 95.664C112.889 96.1013 113.236 96.4533 113.662 96.72C114.089 96.976 114.564 97.104 115.086 97.104Z" fill="#284F59"/>
</svg>
