<svg width="200" height="200" viewBox="0 0 200 200" fill="none" xmlns="http://www.w3.org/2000/svg">
<path fill-rule="evenodd" clip-rule="evenodd" d="M99.9972 174.395C141.086 174.395 174.395 141.086 174.395 99.9972C174.395 58.9084 141.086 25.5993 99.9972 25.5993C58.9084 25.5993 25.5993 58.9084 25.5993 99.9972C25.5993 141.086 58.9084 174.395 99.9972 174.395ZM99.9972 199.994C155.224 199.994 199.994 155.224 199.994 99.9972C199.994 44.7703 155.224 0 99.9972 0C44.7703 0 0 44.7703 0 99.9972C0 155.224 44.7703 199.994 99.9972 199.994Z" fill="#7DA7B3"/>
<mask id="path-2-inside-1_578_415" fill="white">
<path fill-rule="evenodd" clip-rule="evenodd" d="M0.930641 113.653C7.5913 162.418 49.4092 199.991 100.003 199.991C155.23 199.991 200 155.221 200 99.9941C200 45.034 155.661 0.429847 100.803 8.54925e-10V25.6004C141.523 26.0294 174.401 59.1722 174.401 99.9941C174.401 141.083 141.092 174.392 100.003 174.392C62.509 174.392 31.4931 146.657 26.3527 110.583L0.930641 113.653Z"/>
</mask>
<path fill-rule="evenodd" clip-rule="evenodd" d="M0.930641 113.653C7.5913 162.418 49.4092 199.991 100.003 199.991C155.23 199.991 200 155.221 200 99.9941C200 45.034 155.661 0.429847 100.803 8.54925e-10V25.6004C141.523 26.0294 174.401 59.1722 174.401 99.9941C174.401 141.083 141.092 174.392 100.003 174.392C62.509 174.392 31.4931 146.657 26.3527 110.583L0.930641 113.653Z" fill="#F2F2F2"/>
<path d="M0.930641 113.653L0.690892 111.668L-1.32587 111.911L-1.05096 113.924L0.930641 113.653ZM100.803 8.54925e-10L100.818 -1.99994L98.8027 -2.01573V8.54925e-10H100.803ZM100.803 25.6004H98.8027V27.5794L100.782 27.6003L100.803 25.6004ZM26.3527 110.583L28.3327 110.301L28.0565 108.363L26.113 108.598L26.3527 110.583ZM-1.05096 113.924C5.74318 163.666 48.3956 201.991 100.003 201.991V197.991C50.4227 197.991 9.43942 161.17 2.91224 113.382L-1.05096 113.924ZM100.003 201.991C156.334 201.991 202 156.326 202 99.9941H198C198 154.116 154.125 197.991 100.003 197.991V201.991ZM202 99.9941C202 43.9347 156.775 -1.56149 100.818 -1.99994L100.787 1.99994C154.548 2.42119 198 46.1334 198 99.9941H202ZM98.8027 8.54925e-10V25.6004H102.803V8.54925e-10H98.8027ZM176.401 99.9941C176.401 58.0747 142.639 24.041 100.824 23.6005L100.782 27.6003C140.407 28.0177 172.401 60.2697 172.401 99.9941H176.401ZM100.003 176.392C142.196 176.392 176.401 142.187 176.401 99.9941H172.401C172.401 139.978 139.987 172.392 100.003 172.392V176.392ZM24.3727 110.866C29.6516 147.91 61.4993 176.392 100.003 176.392V172.392C63.5186 172.392 33.3347 145.403 28.3327 110.301L24.3727 110.866ZM26.113 108.598L0.690892 111.668L1.17039 115.639L26.5924 112.569L26.113 108.598Z" fill="#7DA7B3" mask="url(#path-2-inside-1_578_415)"/>
<path d="M70.392 112L78.136 93.056H68.28V88.96H82.808V93.056L75.096 112H70.392ZM93.3663 112.416C92.2143 112.416 91.1156 112.187 90.0703 111.728C89.0249 111.259 88.1129 110.603 87.3343 109.76C86.5663 108.917 86.0169 107.925 85.6863 106.784L89.9103 105.664C90.1343 106.507 90.5716 107.163 91.2223 107.632C91.8836 108.091 92.5983 108.32 93.3663 108.32C94.0276 108.32 94.6303 108.16 95.1743 107.84C95.7289 107.52 96.1663 107.088 96.4863 106.544C96.8169 106 96.9823 105.397 96.9823 104.736C96.9823 103.744 96.6409 102.896 95.9583 102.192C95.2863 101.477 94.4223 101.12 93.3663 101.12C93.0463 101.12 92.7369 101.168 92.4383 101.264C92.1396 101.349 91.8516 101.472 91.5743 101.632L89.6223 98.208L96.9503 92.128L97.2703 93.056H86.5823V88.96H100.982V93.056L95.2863 98.56L95.2543 97.344C96.5769 97.5467 97.6916 98.0107 98.5983 98.736C99.5156 99.4507 100.209 100.336 100.678 101.392C101.158 102.437 101.398 103.552 101.398 104.736C101.398 106.187 101.03 107.493 100.294 108.656C99.5583 109.808 98.5823 110.725 97.3663 111.408C96.1503 112.08 94.8169 112.416 93.3663 112.416ZM108.433 112L106.193 109.76L127.009 88.96L129.249 91.216L108.433 112ZM124.449 112.48C123.393 112.48 122.427 112.224 121.553 111.712C120.689 111.189 119.995 110.496 119.472 109.632C118.95 108.757 118.689 107.787 118.689 106.72C118.689 105.675 118.955 104.715 119.489 103.84C120.022 102.965 120.726 102.267 121.601 101.744C122.475 101.221 123.425 100.96 124.449 100.96C125.505 100.96 126.47 101.221 127.345 101.744C128.219 102.256 128.913 102.949 129.425 103.824C129.947 104.688 130.209 105.653 130.209 106.72C130.209 107.787 129.947 108.757 129.425 109.632C128.913 110.496 128.219 111.189 127.345 111.712C126.47 112.224 125.505 112.48 124.449 112.48ZM124.449 109.584C124.971 109.584 125.446 109.456 125.873 109.2C126.31 108.933 126.657 108.581 126.913 108.144C127.179 107.707 127.313 107.232 127.313 106.72C127.313 106.208 127.179 105.733 126.913 105.296C126.657 104.859 126.31 104.512 125.873 104.256C125.446 103.989 124.971 103.856 124.449 103.856C123.937 103.856 123.462 103.989 123.025 104.256C122.598 104.512 122.251 104.859 121.985 105.296C121.729 105.733 121.601 106.208 121.601 106.72C121.601 107.232 121.729 107.707 121.985 108.144C122.251 108.581 122.598 108.933 123.025 109.2C123.462 109.456 123.937 109.584 124.449 109.584ZM110.993 100C109.937 100 108.971 99.744 108.097 99.232C107.222 98.7093 106.523 98.016 106.001 97.152C105.489 96.2773 105.233 95.3067 105.233 94.24C105.233 93.1947 105.499 92.2347 106.033 91.36C106.566 90.4853 107.27 89.7867 108.145 89.264C109.019 88.7413 109.969 88.48 110.993 88.48C112.049 88.48 113.009 88.7413 113.873 89.264C114.747 89.776 115.446 90.4693 115.969 91.344C116.491 92.208 116.753 93.1733 116.753 94.24C116.753 95.3067 116.491 96.2773 115.969 97.152C115.446 98.016 114.747 98.7093 113.873 99.232C113.009 99.744 112.049 100 110.993 100ZM110.993 97.104C111.505 97.104 111.979 96.976 112.417 96.72C112.854 96.4533 113.201 96.1013 113.457 95.664C113.723 95.2267 113.857 94.752 113.857 94.24C113.857 93.728 113.723 93.2533 113.457 92.816C113.201 92.3787 112.854 92.032 112.417 91.776C111.979 91.5093 111.505 91.376 110.993 91.376C110.481 91.376 110.006 91.5093 109.569 91.776C109.142 92.032 108.795 92.3787 108.529 92.816C108.262 93.2533 108.129 93.728 108.129 94.24C108.129 94.752 108.262 95.2267 108.529 95.664C108.795 96.1013 109.142 96.4533 109.569 96.72C109.995 96.976 110.47 97.104 110.993 97.104Z" fill="#284F59"/>
</svg>
