<svg width="200" height="200" viewBox="0 0 200 200" fill="none" xmlns="http://www.w3.org/2000/svg">
<path fill-rule="evenodd" clip-rule="evenodd" d="M99.9972 174.395C141.086 174.395 174.395 141.086 174.395 99.9972C174.395 58.9084 141.086 25.5993 99.9972 25.5993C58.9084 25.5993 25.5993 58.9084 25.5993 99.9972C25.5993 141.086 58.9084 174.395 99.9972 174.395ZM99.9972 199.994C155.224 199.994 199.994 155.224 199.994 99.9972C199.994 44.7703 155.224 0 99.9972 0C44.7703 0 0 44.7703 0 99.9972C0 155.224 44.7703 199.994 99.9972 199.994Z" fill="#7DA7B3"/>
<mask id="path-2-inside-1_760_333" fill="white">
<path fill-rule="evenodd" clip-rule="evenodd" d="M0.227254 106.721C3.68715 158.811 47.0354 199.991 100.002 199.991C155.229 199.991 199.999 155.221 199.999 99.9941C199.999 45.034 155.66 0.429846 100.802 -9.31323e-10V25.6004C141.522 26.0294 174.4 59.1722 174.4 99.9941C174.4 141.083 141.091 174.392 100.002 174.392C60.7368 174.392 28.5762 143.974 25.7985 105.417L0.227254 106.721Z"/>
</mask>
<path fill-rule="evenodd" clip-rule="evenodd" d="M0.227254 106.721C3.68715 158.811 47.0354 199.991 100.002 199.991C155.229 199.991 199.999 155.221 199.999 99.9941C199.999 45.034 155.66 0.429846 100.802 -9.31323e-10V25.6004C141.522 26.0294 174.4 59.1722 174.4 99.9941C174.4 141.083 141.091 174.392 100.002 174.392C60.7368 174.392 28.5762 143.974 25.7985 105.417L0.227254 106.721Z" fill="#F2F2F2"/>
<path d="M0.227254 106.721L0.125437 104.723L-1.90296 104.827L-1.76835 106.853L0.227254 106.721ZM100.802 -9.31323e-10L100.817 -1.99994L98.8018 -2.01573V-9.31323e-10H100.802ZM100.802 25.6004H98.8018V27.5794L100.781 27.6003L100.802 25.6004ZM25.7985 105.417L27.7933 105.274L27.6526 103.32L25.6967 103.42L25.7985 105.417ZM-1.76835 106.853C1.76088 159.987 45.9752 201.991 100.002 201.991V197.991C48.0955 197.991 5.61343 157.635 2.22286 106.588L-1.76835 106.853ZM100.002 201.991C156.333 201.991 201.999 156.326 201.999 99.9941H197.999C197.999 154.116 154.124 197.991 100.002 197.991V201.991ZM201.999 99.9941C201.999 43.9347 156.774 -1.56149 100.817 -1.99994L100.786 1.99994C154.547 2.42119 197.999 46.1334 197.999 99.9941H201.999ZM98.8018 -9.31323e-10V25.6004H102.802V-9.31323e-10H98.8018ZM176.4 99.9941C176.4 58.0747 142.638 24.041 100.823 23.6005L100.781 27.6003C140.406 28.0177 172.4 60.2697 172.4 99.9941H176.4ZM100.002 176.392C142.195 176.392 176.4 142.187 176.4 99.9941H172.4C172.4 139.978 139.986 172.392 100.002 172.392V176.392ZM23.8037 105.561C26.6562 145.156 59.6804 176.392 100.002 176.392V172.392C61.7932 172.392 30.4962 142.792 27.7933 105.274L23.8037 105.561ZM25.6967 103.42L0.125437 104.723L0.329071 108.718L25.9003 107.415L25.6967 103.42Z" fill="#7DA7B3" mask="url(#path-2-inside-1_760_333)"/>
<path d="M70.392 112L78.136 93.056H68.28V88.96H82.808V93.056L75.096 112H70.392ZM94.741 112V108.416H84.725V104.352L91.989 88.96H96.981L89.717 104.352H94.741V98.592H99.157V104.352H101.205V108.416H99.157V112H94.741ZM107.933 112L105.693 109.76L126.509 88.96L128.749 91.216L107.933 112ZM123.949 112.48C122.893 112.48 121.927 112.224 121.053 111.712C120.189 111.189 119.495 110.496 118.972 109.632C118.45 108.757 118.189 107.787 118.189 106.72C118.189 105.675 118.455 104.715 118.989 103.84C119.522 102.965 120.226 102.267 121.101 101.744C121.975 101.221 122.925 100.96 123.949 100.96C125.005 100.96 125.97 101.221 126.845 101.744C127.719 102.256 128.413 102.949 128.925 103.824C129.447 104.688 129.709 105.653 129.709 106.72C129.709 107.787 129.447 108.757 128.925 109.632C128.413 110.496 127.719 111.189 126.845 111.712C125.97 112.224 125.005 112.48 123.949 112.48ZM123.949 109.584C124.471 109.584 124.946 109.456 125.373 109.2C125.81 108.933 126.157 108.581 126.413 108.144C126.679 107.707 126.813 107.232 126.813 106.72C126.813 106.208 126.679 105.733 126.413 105.296C126.157 104.859 125.81 104.512 125.373 104.256C124.946 103.989 124.471 103.856 123.949 103.856C123.437 103.856 122.962 103.989 122.525 104.256C122.098 104.512 121.751 104.859 121.485 105.296C121.229 105.733 121.101 106.208 121.101 106.72C121.101 107.232 121.229 107.707 121.485 108.144C121.751 108.581 122.098 108.933 122.525 109.2C122.962 109.456 123.437 109.584 123.949 109.584ZM110.493 100C109.437 100 108.471 99.744 107.597 99.232C106.722 98.7093 106.023 98.016 105.501 97.152C104.989 96.2773 104.733 95.3067 104.733 94.24C104.733 93.1947 104.999 92.2347 105.533 91.36C106.066 90.4853 106.77 89.7867 107.645 89.264C108.519 88.7413 109.469 88.48 110.493 88.48C111.549 88.48 112.509 88.7413 113.373 89.264C114.247 89.776 114.946 90.4693 115.469 91.344C115.991 92.208 116.253 93.1733 116.253 94.24C116.253 95.3067 115.991 96.2773 115.469 97.152C114.946 98.016 114.247 98.7093 113.373 99.232C112.509 99.744 111.549 100 110.493 100ZM110.493 97.104C111.005 97.104 111.479 96.976 111.917 96.72C112.354 96.4533 112.701 96.1013 112.957 95.664C113.223 95.2267 113.357 94.752 113.357 94.24C113.357 93.728 113.223 93.2533 112.957 92.816C112.701 92.3787 112.354 92.032 111.917 91.776C111.479 91.5093 111.005 91.376 110.493 91.376C109.981 91.376 109.506 91.5093 109.069 91.776C108.642 92.032 108.295 92.3787 108.029 92.816C107.762 93.2533 107.629 93.728 107.629 94.24C107.629 94.752 107.762 95.2267 108.029 95.664C108.295 96.1013 108.642 96.4533 109.069 96.72C109.495 96.976 109.97 97.104 110.493 97.104Z" fill="#284F59"/>
</svg>
