<svg width="200" height="200" viewBox="0 0 200 200" fill="none" xmlns="http://www.w3.org/2000/svg">
<path fill-rule="evenodd" clip-rule="evenodd" d="M99.9972 174.395C141.086 174.395 174.395 141.086 174.395 99.9972C174.395 58.9084 141.086 25.5993 99.9972 25.5993C58.9084 25.5993 25.5993 58.9084 25.5993 99.9972C25.5993 141.086 58.9084 174.395 99.9972 174.395ZM99.9972 199.994C155.224 199.994 199.994 155.224 199.994 99.9972C199.994 44.7703 155.224 0 99.9972 0C44.7703 0 0 44.7703 0 99.9972C0 155.224 44.7703 199.994 99.9972 199.994Z" fill="#7DA7B3"/>
<mask id="path-2-inside-1_760_327" fill="white">
<path fill-rule="evenodd" clip-rule="evenodd" d="M3.35744 74.2037C1.1673 82.4315 0 91.0765 0 99.9941C0 155.221 44.7703 199.991 99.9972 199.991C155.224 199.991 199.994 155.221 199.994 99.9941C199.994 45.034 155.656 0.429842 100.797 -8.76753e-10V25.6004C141.517 26.0293 174.395 59.1722 174.395 99.9941C174.395 141.083 141.086 174.392 99.9972 174.392C58.9084 174.392 25.5993 141.083 25.5993 99.9941C25.5993 93.4777 26.4371 87.157 28.0108 81.1338L3.35744 74.2037Z"/>
</mask>
<path fill-rule="evenodd" clip-rule="evenodd" d="M3.35744 74.2037C1.1673 82.4315 0 91.0765 0 99.9941C0 155.221 44.7703 199.991 99.9972 199.991C155.224 199.991 199.994 155.221 199.994 99.9941C199.994 45.034 155.656 0.429842 100.797 -8.76753e-10V25.6004C141.517 26.0293 174.395 59.1722 174.395 99.9941C174.395 141.083 141.086 174.392 99.9972 174.392C58.9084 174.392 25.5993 141.083 25.5993 99.9941C25.5993 93.4777 26.4371 87.157 28.0108 81.1338L3.35744 74.2037Z" fill="#F2F2F2"/>
<path d="M3.35744 74.2037L3.89866 72.2783L1.94638 71.7295L1.42474 73.6892L3.35744 74.2037ZM100.797 -8.76753e-10L100.813 -1.99994L98.7972 -2.01573V-8.76753e-10H100.797ZM100.797 25.6004H98.7972V27.5794L100.776 27.6003L100.797 25.6004ZM28.0108 81.1338L29.9458 81.6393L30.4422 79.7397L28.552 79.2084L28.0108 81.1338ZM1.42474 73.6892C-0.80968 82.0834 -2 90.9013 -2 99.9941H2C2 91.2517 3.14428 82.7797 5.29014 74.7182L1.42474 73.6892ZM-2 99.9941C-2 156.326 43.6657 201.991 99.9972 201.991V197.991C45.8748 197.991 2 154.116 2 99.9941H-2ZM99.9972 201.991C156.329 201.991 201.994 156.326 201.994 99.9941H197.994C197.994 154.116 154.12 197.991 99.9972 197.991V201.991ZM201.994 99.9941C201.994 43.9347 156.769 -1.5615 100.813 -1.99994L100.782 1.99994C154.543 2.42118 197.994 46.1334 197.994 99.9941H201.994ZM98.7972 -8.76753e-10V25.6004H102.797V-8.76753e-10H98.7972ZM176.395 99.9941C176.395 58.0747 142.634 24.041 100.818 23.6005L100.776 27.6003C140.401 28.0177 172.395 60.2697 172.395 99.9941H176.395ZM99.9972 176.392C142.191 176.392 176.395 142.187 176.395 99.9941H172.395C172.395 139.978 139.981 172.392 99.9972 172.392V176.392ZM23.5993 99.9941C23.5993 142.187 57.8038 176.392 99.9972 176.392V172.392C60.0129 172.392 27.5993 139.978 27.5993 99.9941H23.5993ZM26.0757 80.6282C24.4593 86.815 23.5993 93.3056 23.5993 99.9941H27.5993C27.5993 93.6498 28.4149 87.4989 29.9458 81.6393L26.0757 80.6282ZM28.552 79.2084L3.89866 72.2783L2.81621 76.1291L27.4696 83.0591L28.552 79.2084Z" fill="#7DA7B3" mask="url(#path-2-inside-1_760_327)"/>
<path d="M70.392 112L78.136 93.056H68.28V88.96H82.808V93.056L75.096 112H70.392ZM94.0383 88.512C95.5636 88.512 96.9289 88.8693 98.1343 89.584C99.3503 90.2987 100.31 91.296 101.014 92.576C101.718 93.8453 102.07 95.3173 102.07 96.992V103.68C102.07 105.493 101.718 107.061 101.014 108.384C100.31 109.696 99.3183 110.709 98.0383 111.424C96.7583 112.128 95.2543 112.48 93.5263 112.48C92.4063 112.48 91.3396 112.315 90.3263 111.984C89.3236 111.643 88.3956 111.083 87.5423 110.304L90.6463 107.2C91.0303 107.584 91.4729 107.883 91.9743 108.096C92.4863 108.309 93.0036 108.416 93.5263 108.416C94.3583 108.416 95.0783 108.224 95.6863 107.84C96.3049 107.445 96.7796 106.939 97.1103 106.32C97.4516 105.691 97.6223 105.024 97.6223 104.32V100.896L98.3583 101.696C97.7076 102.368 96.9449 102.885 96.0703 103.248C95.1956 103.6 94.2943 103.776 93.3663 103.776C91.9156 103.776 90.6356 103.451 89.5263 102.8C88.4276 102.149 87.5636 101.259 86.9343 100.128C86.3156 98.9973 86.0063 97.7067 86.0063 96.256C86.0063 94.8053 86.3743 93.4987 87.1103 92.336C87.8463 91.1627 88.8223 90.2347 90.0383 89.552C91.2543 88.8587 92.5876 88.512 94.0383 88.512ZM94.0383 92.672C93.3769 92.672 92.7689 92.832 92.2143 93.152C91.6703 93.472 91.2329 93.904 90.9023 94.448C90.5823 94.992 90.4223 95.5947 90.4223 96.256C90.4223 96.9173 90.5823 97.5253 90.9023 98.08C91.2223 98.624 91.6543 99.0613 92.1983 99.392C92.7423 99.712 93.3449 99.872 94.0063 99.872C94.6676 99.872 95.2703 99.712 95.8143 99.392C96.3689 99.0613 96.8063 98.624 97.1263 98.08C97.4569 97.5253 97.6223 96.9173 97.6223 96.256C97.6223 95.616 97.4623 95.024 97.1423 94.48C96.8223 93.936 96.3903 93.4987 95.8463 93.168C95.3023 92.8373 94.6996 92.672 94.0383 92.672ZM109.433 112L107.193 109.76L128.009 88.96L130.249 91.216L109.433 112ZM125.449 112.48C124.393 112.48 123.427 112.224 122.553 111.712C121.689 111.189 120.995 110.496 120.472 109.632C119.95 108.757 119.689 107.787 119.689 106.72C119.689 105.675 119.955 104.715 120.489 103.84C121.022 102.965 121.726 102.267 122.601 101.744C123.475 101.221 124.425 100.96 125.449 100.96C126.505 100.96 127.47 101.221 128.345 101.744C129.219 102.256 129.913 102.949 130.425 103.824C130.947 104.688 131.209 105.653 131.209 106.72C131.209 107.787 130.947 108.757 130.425 109.632C129.913 110.496 129.219 111.189 128.345 111.712C127.47 112.224 126.505 112.48 125.449 112.48ZM125.449 109.584C125.971 109.584 126.446 109.456 126.873 109.2C127.31 108.933 127.657 108.581 127.913 108.144C128.179 107.707 128.313 107.232 128.313 106.72C128.313 106.208 128.179 105.733 127.913 105.296C127.657 104.859 127.31 104.512 126.873 104.256C126.446 103.989 125.971 103.856 125.449 103.856C124.937 103.856 124.462 103.989 124.025 104.256C123.598 104.512 123.251 104.859 122.985 105.296C122.729 105.733 122.601 106.208 122.601 106.72C122.601 107.232 122.729 107.707 122.985 108.144C123.251 108.581 123.598 108.933 124.025 109.2C124.462 109.456 124.937 109.584 125.449 109.584ZM111.993 100C110.937 100 109.971 99.744 109.097 99.232C108.222 98.7093 107.523 98.016 107.001 97.152C106.489 96.2773 106.233 95.3067 106.233 94.24C106.233 93.1947 106.499 92.2347 107.033 91.36C107.566 90.4853 108.27 89.7867 109.145 89.264C110.019 88.7413 110.969 88.48 111.993 88.48C113.049 88.48 114.009 88.7413 114.873 89.264C115.747 89.776 116.446 90.4693 116.969 91.344C117.491 92.208 117.753 93.1733 117.753 94.24C117.753 95.3067 117.491 96.2773 116.969 97.152C116.446 98.016 115.747 98.7093 114.873 99.232C114.009 99.744 113.049 100 111.993 100ZM111.993 97.104C112.505 97.104 112.979 96.976 113.417 96.72C113.854 96.4533 114.201 96.1013 114.457 95.664C114.723 95.2267 114.857 94.752 114.857 94.24C114.857 93.728 114.723 93.2533 114.457 92.816C114.201 92.3787 113.854 92.032 113.417 91.776C112.979 91.5093 112.505 91.376 111.993 91.376C111.481 91.376 111.006 91.5093 110.569 91.776C110.142 92.032 109.795 92.3787 109.529 92.816C109.262 93.2533 109.129 93.728 109.129 94.24C109.129 94.752 109.262 95.2267 109.529 95.664C109.795 96.1013 110.142 96.4533 110.569 96.72C110.995 96.976 111.47 97.104 111.993 97.104Z" fill="#284F59"/>
</svg>
