<svg width="489" height="212" viewBox="0 0 489 212" fill="none" xmlns="http://www.w3.org/2000/svg">
<g filter="url(#filter0_d_652_762)">
<rect x="185.5" y="9" width="55" height="55" rx="27.5" fill="white" shape-rendering="crispEdges"/>
<path d="M213 24.5C206.37 24.5 201 29.87 201 36.5C201 43.13 206.37 48.5 213 48.5C219.63 48.5 225 43.13 225 36.5C225 29.87 219.63 24.5 213 24.5ZM212.078 43.49H210.068L205.207 36.68L207.219 34.805L211.073 38.405L218.784 29.5085L220.794 30.9185L212.078 43.49Z" fill="#40B236"/>
<rect x="182" y="5.5" width="62" height="62" rx="31" stroke="#40B236" stroke-opacity="0.6" stroke-width="7" shape-rendering="crispEdges"/>
</g>
<rect x="185.5" y="162" width="50" height="50" rx="25" fill="white"/>
<rect x="198.5" y="175" width="24" height="24" rx="12" fill="#40B236"/>
<path d="M212.328 185.182H218.469V187.879H212.328V194H209.595V187.879H203.469V185.182H209.595V179H212.328V185.182Z" fill="white"/>
<rect x="267.5" y="162" width="50" height="50" rx="25" fill="white"/>
<path d="M292.5 177C286.975 177 282.5 181.475 282.5 187C282.5 192.525 286.975 197 292.5 197C298.025 197 302.5 192.525 302.5 187C302.5 181.475 298.025 177 292.5 177ZM291.731 192.825H290.056L286.006 187.15L287.682 185.588L290.894 188.588L297.32 181.174L298.995 182.349L291.731 192.825Z" fill="#40B236"/>
<rect x="346.5" y="162" width="50" height="50" rx="25" fill="white"/>
<path fill-rule="evenodd" clip-rule="evenodd" d="M371.5 197C377.023 197 381.5 192.523 381.5 187C381.5 181.477 377.023 177 371.5 177C365.977 177 361.5 181.477 361.5 187C361.5 192.523 365.977 197 371.5 197ZM373.093 183.082L375.419 185.384L376.198 184.603C376.408 184.393 376.509 184.14 376.499 183.843C376.49 183.546 376.381 183.292 376.171 183.082L375.405 182.315C375.196 182.105 374.938 182 374.633 182C374.327 182 374.069 182.105 373.859 182.315L373.093 183.082ZM368.825 192L374.625 186.192L372.3 183.863L366.5 189.671V192H368.825Z" fill="#40B236"/>
<rect x="425.5" y="162" width="50" height="50" rx="25" fill="white"/>
<path fill-rule="evenodd" clip-rule="evenodd" d="M450.5 197C456.023 197 460.5 192.523 460.5 187C460.5 181.477 456.023 177 450.5 177C444.977 177 440.5 181.477 440.5 187C440.5 192.523 444.977 197 450.5 197ZM455.221 190.356C455.4 190.537 455.5 190.782 455.5 191.037C455.5 191.292 455.4 191.536 455.221 191.718L455.217 191.722L455.213 191.726C455.032 191.901 454.789 192 454.536 192C454.283 192 454.041 191.901 453.86 191.726L453.853 191.719L450.5 188.35L447.141 191.726C446.959 191.901 446.717 192 446.464 192C446.211 192 445.968 191.901 445.787 191.726L445.783 191.722L445.779 191.718C445.6 191.536 445.5 191.292 445.5 191.037C445.5 190.782 445.6 190.537 445.779 190.356L445.781 190.354L449.142 186.987L445.763 183.602L445.747 183.582C445.595 183.396 445.518 183.161 445.53 182.921C445.541 182.681 445.641 182.454 445.811 182.284C445.981 182.114 446.208 182.013 446.448 182.001C446.688 181.989 446.924 182.068 447.109 182.22L447.129 182.237L450.5 185.624L453.871 182.237L453.891 182.22C454.076 182.068 454.312 181.989 454.552 182.001C454.793 182.013 455.02 182.114 455.189 182.284C455.359 182.454 455.459 182.681 455.471 182.921C455.482 183.161 455.405 183.396 455.253 183.582L455.237 183.602L451.858 186.987L455.221 190.356ZM454.217 182.616C454.274 182.569 454.341 182.537 454.413 182.522C454.341 182.537 454.274 182.569 454.217 182.616L450.5 186.351L450.5 186.351L454.217 182.616ZM446.174 182.646C446.252 182.568 446.356 182.521 446.465 182.514C446.355 182.521 446.252 182.568 446.174 182.646C446.094 182.726 446.047 182.833 446.042 182.946C446.036 183.059 446.073 183.17 446.144 183.258L449.867 186.987L446.144 190.716C446.06 190.802 446.013 190.917 446.013 191.037C446.013 191.157 446.06 191.272 446.144 191.358C446.23 191.441 446.345 191.487 446.464 191.487L446.464 191.487C446.345 191.487 446.23 191.441 446.144 191.358C446.06 191.272 446.013 191.157 446.013 191.037C446.013 190.917 446.06 190.802 446.144 190.716L449.867 186.987L446.144 183.257C446.073 183.17 446.036 183.059 446.042 182.946C446.047 182.833 446.095 182.726 446.174 182.646ZM454.217 191.358L450.5 187.623L450.5 187.623L454.217 191.358C454.303 191.441 454.417 191.487 454.536 191.487L454.536 191.487C454.417 191.487 454.302 191.441 454.217 191.358Z" fill="#FF4A33"/>
<rect x="355.5" y="97" width="32" height="32" rx="16" fill="#323133"/>
<path d="M365.469 114.75V112H377.469V114.75H365.469Z" fill="white"/>
<rect x="434.5" y="97" width="32" height="32" rx="16" fill="#323133"/>
<path d="M452.328 111.182H458.469V113.879H452.328V120H449.595V113.879H443.469V111.182H449.595V105H452.328V111.182Z" fill="white"/>
<g filter="url(#filter1_d_652_762)">
<rect x="264.5" y="9" width="55" height="55" rx="27.5" fill="white" shape-rendering="crispEdges"/>
<path d="M292.23 43.096C293.631 43.0447 294.829 42.5213 295.826 41.5258C296.822 40.5302 297.345 39.3317 297.396 37.9302L296.664 38.2658M292.23 43.096L292.566 33.0366M292.23 43.096L292.566 42.3635M292.23 43.096L292.566 42.3635M296.664 38.2658C296.683 38.0821 296.693 37.8937 296.693 37.7006V37.7002C296.693 37.5069 296.683 37.3183 296.663 37.1344M296.664 38.2658C296.551 39.3333 296.107 40.2446 295.326 41.0254C294.544 41.8064 293.633 42.2499 292.566 42.3635M296.664 38.2658L296.495 38.3432L293.854 39.5538M296.663 37.1344L297.396 37.4702C297.344 36.0694 296.821 34.8709 295.824 33.8746C294.828 32.8783 293.63 32.3549 292.23 32.3043L292.566 33.0366M296.663 37.1344L296.495 37.0572L293.854 35.8466L292.643 33.2055L292.566 33.0366M296.663 37.1344C296.55 36.0676 296.106 35.1563 295.324 34.3748C294.543 33.5932 293.632 33.1497 292.566 33.0366M292.566 42.3635L292.643 42.1949L293.854 39.5538M292.566 42.3635C292.382 42.3831 292.193 42.3928 292 42.3928H292C291.807 42.3929 291.618 42.3833 291.434 42.3638M292.566 42.3635L291.434 42.3638M293.854 39.5538L293.963 39.3149L293.32 39.0202L293.615 39.6632L293.854 39.5538ZM291.434 42.3638L291.357 42.1949L290.146 39.5538M291.434 42.3638L287.336 37.1346M291.434 42.3638C290.368 42.2507 289.457 41.8072 288.676 41.0256C287.894 40.2441 287.45 39.3327 287.337 38.266M291.434 42.3638L291.77 43.0961C290.37 43.0455 289.172 42.5221 288.176 41.5258C287.179 40.5295 286.656 39.331 286.604 37.9302L287.337 38.266M290.146 39.5538L290.385 39.6632L290.68 39.0202L290.037 39.3149L290.146 39.5538ZM290.146 39.5538L287.505 38.3432L287.337 38.266M287.337 38.266C287.317 38.082 287.307 37.8935 287.307 37.7002V37.6998C287.307 37.5067 287.317 37.3183 287.336 37.1346M287.336 37.1346L287.505 37.0572L290.146 35.8466M287.336 37.1346C287.45 36.0685 287.893 35.1575 288.675 34.376C289.456 33.5944 290.367 33.1506 291.434 33.0369L291.357 33.2055L290.146 35.8466M290.146 35.8466L290.037 36.0855L290.68 36.3802L290.385 35.7372L290.146 35.8466ZM280.707 44.901V44.9002V30.5002C280.707 30.0295 280.867 29.6437 281.206 29.3048C281.545 28.9659 281.93 28.807 282.399 28.8075H282.4H286.18H286.489L286.699 28.5805L288.709 26.4075H295.291L297.301 28.5805L297.511 28.8075H297.82H301.6C302.071 28.8075 302.456 28.967 302.795 29.306C303.134 29.6449 303.293 30.03 303.293 30.4993V30.5002V44.9002C303.293 45.3709 303.133 45.7567 302.794 46.0956C302.455 46.4345 302.07 46.5934 301.601 46.5928H301.6H282.4C281.929 46.5928 281.543 46.4335 281.204 46.0952C280.866 45.7576 280.707 45.3725 280.707 44.901ZM301.6 45.6075H302.307V44.9002V30.5002V29.7928H301.6H297.052L295.073 27.6234L294.862 27.3928H294.55H289.45H289.138L288.927 27.6234L286.948 29.7928H282.4H281.693V30.5002V44.9002V45.6075H282.4H301.6Z" fill="#40B236" stroke="#40B236" stroke-width="1.4147"/>
<rect x="261" y="5.5" width="62" height="62" rx="31" stroke="#40B236" stroke-opacity="0.6" stroke-width="7" shape-rendering="crispEdges"/>
</g>
<g filter="url(#filter2_d_652_762)">
<rect x="343.5" y="9" width="55" height="55" rx="27.5" fill="white" shape-rendering="crispEdges"/>
<circle cx="371" cy="36.5" r="23" fill="#40B236"/>
<rect x="340" y="5.5" width="62" height="62" rx="31" stroke="#40B236" stroke-opacity="0.6" stroke-width="7" shape-rendering="crispEdges"/>
</g>
<g filter="url(#filter3_d_652_762)">
<rect x="422.5" y="9" width="55" height="55" rx="27.5" fill="white" shape-rendering="crispEdges"/>
<path d="M457.08 42.0164L457.078 42.0148L451.553 36.4795L457.078 30.9443L457.092 30.9303L457.105 30.915C457.279 30.7018 457.368 30.4314 457.354 30.1564C457.341 29.8813 457.226 29.6209 457.032 29.4258C456.837 29.2307 456.577 29.1149 456.302 29.1013C456.027 29.0878 455.756 29.1774 455.544 29.3526L455.528 29.3652L455.514 29.3792L450 34.9209L444.486 29.3792L444.472 29.3652L444.456 29.3526C444.244 29.1774 443.973 29.0878 443.698 29.1013C443.423 29.1149 443.163 29.2307 442.968 29.4258C442.774 29.6209 442.659 29.8813 442.646 30.1564C442.632 30.4314 442.721 30.7018 442.895 30.915L442.908 30.9303L442.922 30.9443L448.447 36.4795L442.922 42.0148L442.922 42.0148L442.92 42.0164C442.715 42.2245 442.6 42.5052 442.6 42.7976C442.6 43.0899 442.715 43.3706 442.92 43.5787L442.92 43.5788L442.927 43.5848C443.135 43.7868 443.413 43.9 443.704 43.9C443.994 43.9 444.272 43.7868 444.481 43.5848L444.481 43.5849L444.486 43.5799L450 38.0382L455.514 43.5799L455.514 43.5799L455.519 43.5848C455.728 43.7868 456.006 43.9 456.296 43.9C456.587 43.9 456.865 43.7868 457.073 43.5848L457.074 43.5849L457.08 43.5787C457.285 43.3706 457.4 43.0899 457.4 42.7976C457.4 42.5052 457.285 42.2245 457.08 42.0164Z" fill="#646266" stroke="#646266" stroke-width="0.8"/>
<rect x="419" y="5.5" width="62" height="62" rx="31" stroke="#323133" stroke-opacity="0.5" stroke-width="7" shape-rendering="crispEdges"/>
</g>
<rect x="185.5" y="88" width="50" height="50" rx="25" fill="#40B236"/>
<path d="M204.469 114.75V112H216.469V114.75H204.469Z" fill="white"/>
<rect x="267.5" y="88" width="50" height="50" rx="25" fill="#40B236"/>
<path d="M294.328 111.182H300.469V113.879H294.328V120H291.595V113.879H285.469V111.182H291.595V105H294.328V111.182Z" fill="white"/>
<rect x="0.5" y="9" width="156" height="44" rx="22" fill="#323133"/>
<path d="M67.8223 36L67.2012 33.9609H64.0781L63.457 36H61.5L64.5234 27.3984H66.7441L69.7793 36H67.8223ZM66.7676 32.4375L66.1465 30.4453C66.1074 30.3125 66.0547 30.1426 65.9883 29.9355C65.9258 29.7246 65.8613 29.5117 65.7949 29.2969C65.7324 29.0781 65.6816 28.8887 65.6426 28.7285C65.6035 28.8887 65.5488 29.0879 65.4785 29.3262C65.4121 29.5605 65.3477 29.7832 65.2852 29.9941C65.2227 30.2051 65.1777 30.3555 65.1504 30.4453L64.5352 32.4375H66.7676ZM74.3672 29.3262C75.1055 29.3262 75.7012 29.6133 76.1543 30.1875C76.6113 30.7617 76.8398 31.6035 76.8398 32.7129C76.8398 33.4551 76.7324 34.0801 76.5176 34.5879C76.3027 35.0918 76.0059 35.4727 75.627 35.7305C75.248 35.9883 74.8125 36.1172 74.3203 36.1172C74.0039 36.1172 73.7324 36.0781 73.5059 36C73.2793 35.918 73.0859 35.8145 72.9258 35.6895C72.7656 35.5605 72.627 35.4238 72.5098 35.2793H72.416C72.4473 35.4355 72.4707 35.5957 72.4863 35.7598C72.502 35.9238 72.5098 36.084 72.5098 36.2402V38.8828H70.7227V29.4492H72.1758L72.4277 30.2988H72.5098C72.627 30.123 72.7695 29.9609 72.9375 29.8125C73.1055 29.6641 73.3066 29.5469 73.541 29.4609C73.7793 29.3711 74.0547 29.3262 74.3672 29.3262ZM73.793 30.7559C73.4805 30.7559 73.2324 30.8203 73.0488 30.9492C72.8652 31.0781 72.7305 31.2715 72.6445 31.5293C72.5625 31.7871 72.5176 32.1133 72.5098 32.5078V32.7012C72.5098 33.123 72.5488 33.4805 72.627 33.7734C72.709 34.0664 72.8438 34.2891 73.0312 34.4414C73.2227 34.5938 73.4844 34.6699 73.8164 34.6699C74.0898 34.6699 74.3145 34.5938 74.4902 34.4414C74.666 34.2891 74.7969 34.0664 74.8828 33.7734C74.9727 33.4766 75.0176 33.1152 75.0176 32.6895C75.0176 32.0488 74.918 31.5664 74.7188 31.2422C74.5195 30.918 74.2109 30.7559 73.793 30.7559ZM81.9609 29.3262C82.6992 29.3262 83.2949 29.6133 83.748 30.1875C84.2051 30.7617 84.4336 31.6035 84.4336 32.7129C84.4336 33.4551 84.3262 34.0801 84.1113 34.5879C83.8965 35.0918 83.5996 35.4727 83.2207 35.7305C82.8418 35.9883 82.4062 36.1172 81.9141 36.1172C81.5977 36.1172 81.3262 36.0781 81.0996 36C80.873 35.918 80.6797 35.8145 80.5195 35.6895C80.3594 35.5605 80.2207 35.4238 80.1035 35.2793H80.0098C80.041 35.4355 80.0645 35.5957 80.0801 35.7598C80.0957 35.9238 80.1035 36.084 80.1035 36.2402V38.8828H78.3164V29.4492H79.7695L80.0215 30.2988H80.1035C80.2207 30.123 80.3633 29.9609 80.5312 29.8125C80.6992 29.6641 80.9004 29.5469 81.1348 29.4609C81.373 29.3711 81.6484 29.3262 81.9609 29.3262ZM81.3867 30.7559C81.0742 30.7559 80.8262 30.8203 80.6426 30.9492C80.459 31.0781 80.3242 31.2715 80.2383 31.5293C80.1562 31.7871 80.1113 32.1133 80.1035 32.5078V32.7012C80.1035 33.123 80.1426 33.4805 80.2207 33.7734C80.3027 34.0664 80.4375 34.2891 80.625 34.4414C80.8164 34.5938 81.0781 34.6699 81.4102 34.6699C81.6836 34.6699 81.9082 34.5938 82.084 34.4414C82.2598 34.2891 82.3906 34.0664 82.4766 33.7734C82.5664 33.4766 82.6113 33.1152 82.6113 32.6895C82.6113 32.0488 82.5117 31.5664 82.3125 31.2422C82.1133 30.918 81.8047 30.7559 81.3867 30.7559ZM87.6973 36H85.9102V26.8828H87.6973V36ZM88.6406 29.4492H90.5977L91.834 33.1348C91.873 33.252 91.9062 33.3711 91.9336 33.4922C91.9609 33.6133 91.9844 33.7383 92.0039 33.8672C92.0234 33.9961 92.0391 34.1309 92.0508 34.2715H92.0859C92.1094 34.0605 92.1406 33.8633 92.1797 33.6797C92.2227 33.4961 92.2754 33.3145 92.3379 33.1348L93.5508 29.4492H95.4668L92.6953 36.8379C92.5273 37.291 92.3086 37.668 92.0391 37.9688C91.7695 38.2734 91.459 38.502 91.1074 38.6543C90.7598 38.8066 90.377 38.8828 89.959 38.8828C89.7559 38.8828 89.5801 38.8711 89.4316 38.8477C89.2832 38.8281 89.1562 38.8066 89.0508 38.7832V37.3652C89.1328 37.3848 89.2363 37.4023 89.3613 37.418C89.4863 37.4336 89.6172 37.4414 89.7539 37.4414C90.0039 37.4414 90.2188 37.3887 90.3984 37.2832C90.5781 37.1777 90.7285 37.0352 90.8496 36.8555C90.9707 36.6797 91.0664 36.4863 91.1367 36.2754L91.2422 35.9531L88.6406 29.4492Z" fill="white"/>
<rect x="1.5" y="61" width="156" height="44" rx="22" fill="#40B236"/>
<path d="M49.3301 83.1895H52.7285V87.6309C52.2793 87.7793 51.8125 87.8984 51.3281 87.9883C50.8438 88.0742 50.2949 88.1172 49.6816 88.1172C48.8301 88.1172 48.1074 87.9492 47.5137 87.6133C46.9199 87.2773 46.4688 86.7812 46.1602 86.125C45.8516 85.4688 45.6973 84.6621 45.6973 83.7051C45.6973 82.8066 45.8691 82.0293 46.2129 81.373C46.5605 80.7168 47.0664 80.209 47.7305 79.8496C48.3984 79.4902 49.2129 79.3105 50.1738 79.3105C50.627 79.3105 51.0742 79.3594 51.5156 79.457C51.957 79.5547 52.3574 79.6816 52.7168 79.8379L52.1133 81.291C51.8516 81.1582 51.5527 81.0469 51.2168 80.957C50.8809 80.8672 50.5293 80.8223 50.1621 80.8223C49.6348 80.8223 49.1758 80.9434 48.7852 81.1855C48.3984 81.4277 48.0977 81.7676 47.8828 82.2051C47.6719 82.6387 47.5664 83.1504 47.5664 83.7402C47.5664 84.2988 47.6426 84.7949 47.7949 85.2285C47.9473 85.6582 48.1875 85.9961 48.5156 86.2422C48.8438 86.4844 49.2715 86.6055 49.7988 86.6055C50.0566 86.6055 50.2734 86.5938 50.4492 86.5703C50.6289 86.543 50.7969 86.5156 50.9531 86.4883V84.7012H49.3301V83.1895ZM57.334 81.3262C57.9395 81.3262 58.4609 81.4434 58.8984 81.6777C59.3359 81.9082 59.6738 82.2441 59.9121 82.6855C60.1504 83.127 60.2695 83.666 60.2695 84.3027V85.1699H56.0449C56.0645 85.6738 56.2148 86.0703 56.4961 86.3594C56.7812 86.6445 57.1758 86.7871 57.6797 86.7871C58.0977 86.7871 58.4805 86.7441 58.8281 86.6582C59.1758 86.5723 59.5332 86.4434 59.9004 86.2715V87.6543C59.5762 87.8145 59.2363 87.9316 58.8809 88.0059C58.5293 88.0801 58.1016 88.1172 57.5977 88.1172C56.9414 88.1172 56.3594 87.9961 55.8516 87.7539C55.3477 87.5117 54.9512 87.1426 54.6621 86.6465C54.377 86.1504 54.2344 85.5254 54.2344 84.7715C54.2344 84.0059 54.3633 83.3691 54.6211 82.8613C54.8828 82.3496 55.2461 81.9668 55.7109 81.7129C56.1758 81.4551 56.7168 81.3262 57.334 81.3262ZM57.3457 82.5977C56.998 82.5977 56.709 82.709 56.4785 82.9316C56.252 83.1543 56.1211 83.5039 56.0859 83.9805H58.5938C58.5898 83.7148 58.541 83.4785 58.4473 83.2715C58.3574 83.0645 58.2207 82.9004 58.0371 82.7793C57.8574 82.6582 57.627 82.5977 57.3457 82.5977ZM64.4824 86.6934C64.6777 86.6934 64.8672 86.6738 65.0508 86.6348C65.2383 86.5957 65.4238 86.5469 65.6074 86.4883V87.8184C65.416 87.9043 65.1777 87.9746 64.8926 88.0293C64.6113 88.0879 64.3027 88.1172 63.9668 88.1172C63.5762 88.1172 63.2246 88.0547 62.9121 87.9297C62.6035 87.8008 62.3594 87.5801 62.1797 87.2676C62.0039 86.9512 61.916 86.5117 61.916 85.9492V82.791H61.0605V82.0352L62.0449 81.4375L62.5605 80.0547H63.7031V81.4492H65.5371V82.791H63.7031V85.9492C63.7031 86.1992 63.7734 86.3867 63.9141 86.5117C64.0586 86.6328 64.248 86.6934 64.4824 86.6934ZM75.252 85.6211C75.252 86.1289 75.1289 86.5703 74.8828 86.9453C74.6367 87.3203 74.2773 87.6094 73.8047 87.8125C73.3359 88.0156 72.7656 88.1172 72.0938 88.1172C71.7969 88.1172 71.5059 88.0977 71.2207 88.0586C70.9395 88.0195 70.668 87.9629 70.4062 87.8887C70.1484 87.8105 69.9023 87.7148 69.668 87.6016V85.9141C70.0742 86.0938 70.4961 86.2559 70.9336 86.4004C71.3711 86.5449 71.8047 86.6172 72.2344 86.6172C72.5312 86.6172 72.7695 86.5781 72.9492 86.5C73.1328 86.4219 73.2656 86.3145 73.3477 86.1777C73.4297 86.041 73.4707 85.8848 73.4707 85.709C73.4707 85.4941 73.3984 85.3105 73.2539 85.1582C73.1094 85.0059 72.9102 84.8633 72.6562 84.7305C72.4062 84.5977 72.123 84.4551 71.8066 84.3027C71.6074 84.209 71.3906 84.0957 71.1562 83.9629C70.9219 83.8262 70.6992 83.6602 70.4883 83.4648C70.2773 83.2695 70.1035 83.0332 69.9668 82.7559C69.834 82.4746 69.7676 82.1387 69.7676 81.748C69.7676 81.2363 69.8848 80.7988 70.1191 80.4355C70.3535 80.0723 70.6875 79.7949 71.1211 79.6035C71.5586 79.4082 72.0742 79.3105 72.668 79.3105C73.1133 79.3105 73.5371 79.3633 73.9395 79.4688C74.3457 79.5703 74.7695 79.7188 75.2109 79.9141L74.625 81.3262C74.2305 81.166 73.877 81.043 73.5645 80.957C73.252 80.8672 72.9336 80.8223 72.6094 80.8223C72.3828 80.8223 72.1895 80.8594 72.0293 80.9336C71.8691 81.0039 71.748 81.1055 71.666 81.2383C71.584 81.3672 71.543 81.5176 71.543 81.6895C71.543 81.8926 71.6016 82.0645 71.7188 82.2051C71.8398 82.3418 72.0195 82.4746 72.2578 82.6035C72.5 82.7324 72.8008 82.8828 73.1602 83.0547C73.5977 83.2617 73.9707 83.4785 74.2793 83.7051C74.5918 83.9277 74.832 84.1914 75 84.4961C75.168 84.7969 75.252 85.1719 75.252 85.6211ZM79.4238 86.6934C79.6191 86.6934 79.8086 86.6738 79.9922 86.6348C80.1797 86.5957 80.3652 86.5469 80.5488 86.4883V87.8184C80.3574 87.9043 80.1191 87.9746 79.834 88.0293C79.5527 88.0879 79.2441 88.1172 78.9082 88.1172C78.5176 88.1172 78.166 88.0547 77.8535 87.9297C77.5449 87.8008 77.3008 87.5801 77.1211 87.2676C76.9453 86.9512 76.8574 86.5117 76.8574 85.9492V82.791H76.002V82.0352L76.9863 81.4375L77.502 80.0547H78.6445V81.4492H80.4785V82.791H78.6445V85.9492C78.6445 86.1992 78.7148 86.3867 78.8555 86.5117C79 86.6328 79.1895 86.6934 79.4238 86.6934ZM84.5625 81.3145C85.4414 81.3145 86.1152 81.5059 86.584 81.8887C87.0527 82.2715 87.2871 82.8535 87.2871 83.6348V88H86.0391L85.6934 87.1094H85.6465C85.459 87.3438 85.2676 87.5352 85.0723 87.6836C84.877 87.832 84.6523 87.9414 84.3984 88.0117C84.1445 88.082 83.8359 88.1172 83.4727 88.1172C83.0859 88.1172 82.7383 88.043 82.4297 87.8945C82.125 87.7461 81.8848 87.5195 81.709 87.2148C81.5332 86.9062 81.4453 86.5156 81.4453 86.043C81.4453 85.3477 81.6895 84.8359 82.1777 84.5078C82.666 84.1758 83.3984 83.9922 84.375 83.957L85.5117 83.9219V83.6348C85.5117 83.291 85.4219 83.0391 85.2422 82.8789C85.0625 82.7188 84.8125 82.6387 84.4922 82.6387C84.1758 82.6387 83.8652 82.6836 83.5605 82.7734C83.2559 82.8633 82.9512 82.9766 82.6465 83.1133L82.0547 81.9062C82.4023 81.7227 82.791 81.5781 83.2207 81.4727C83.6543 81.3672 84.1016 81.3145 84.5625 81.3145ZM85.5117 84.9648L84.8203 84.9883C84.2422 85.0039 83.8398 85.1074 83.6133 85.2988C83.3906 85.4902 83.2793 85.7422 83.2793 86.0547C83.2793 86.3281 83.3594 86.5234 83.5195 86.6406C83.6797 86.7539 83.8887 86.8105 84.1465 86.8105C84.5293 86.8105 84.8516 86.6973 85.1133 86.4707C85.3789 86.2441 85.5117 85.9219 85.5117 85.5039V84.9648ZM92.7891 81.3262C92.8789 81.3262 92.9824 81.332 93.0996 81.3438C93.2207 81.3516 93.3184 81.3633 93.3926 81.3789L93.2578 83.0547C93.1992 83.0352 93.1152 83.0215 93.0059 83.0137C92.9004 83.002 92.8086 82.9961 92.7305 82.9961C92.5 82.9961 92.2754 83.0254 92.0566 83.084C91.8418 83.1426 91.6484 83.2383 91.4766 83.3711C91.3047 83.5 91.168 83.6719 91.0664 83.8867C90.9688 84.0977 90.9199 84.3574 90.9199 84.666V88H89.1328V81.4492H90.4863L90.75 82.5508H90.8379C90.9668 82.3281 91.127 82.125 91.3184 81.9414C91.5137 81.7539 91.7344 81.6055 91.9805 81.4961C92.2305 81.3828 92.5 81.3262 92.7891 81.3262ZM97.3418 86.6934C97.5371 86.6934 97.7266 86.6738 97.9102 86.6348C98.0977 86.5957 98.2832 86.5469 98.4668 86.4883V87.8184C98.2754 87.9043 98.0371 87.9746 97.752 88.0293C97.4707 88.0879 97.1621 88.1172 96.8262 88.1172C96.4355 88.1172 96.084 88.0547 95.7715 87.9297C95.4629 87.8008 95.2188 87.5801 95.0391 87.2676C94.8633 86.9512 94.7754 86.5117 94.7754 85.9492V82.791H93.9199V82.0352L94.9043 81.4375L95.4199 80.0547H96.5625V81.4492H98.3965V82.791H96.5625V85.9492C96.5625 86.1992 96.6328 86.3867 96.7734 86.5117C96.918 86.6328 97.1074 86.6934 97.3418 86.6934ZM102.498 81.3262C103.104 81.3262 103.625 81.4434 104.062 81.6777C104.5 81.9082 104.838 82.2441 105.076 82.6855C105.314 83.127 105.434 83.666 105.434 84.3027V85.1699H101.209C101.229 85.6738 101.379 86.0703 101.66 86.3594C101.945 86.6445 102.34 86.7871 102.844 86.7871C103.262 86.7871 103.645 86.7441 103.992 86.6582C104.34 86.5723 104.697 86.4434 105.064 86.2715V87.6543C104.74 87.8145 104.4 87.9316 104.045 88.0059C103.693 88.0801 103.266 88.1172 102.762 88.1172C102.105 88.1172 101.523 87.9961 101.016 87.7539C100.512 87.5117 100.115 87.1426 99.8262 86.6465C99.541 86.1504 99.3984 85.5254 99.3984 84.7715C99.3984 84.0059 99.5273 83.3691 99.7852 82.8613C100.047 82.3496 100.41 81.9668 100.875 81.7129C101.34 81.4551 101.881 81.3262 102.498 81.3262ZM102.51 82.5977C102.162 82.5977 101.873 82.709 101.643 82.9316C101.416 83.1543 101.285 83.5039 101.25 83.9805H103.758C103.754 83.7148 103.705 83.4785 103.611 83.2715C103.521 83.0645 103.385 82.9004 103.201 82.7793C103.021 82.6582 102.791 82.5977 102.51 82.5977ZM108.961 88.1172C108.23 88.1172 107.635 87.832 107.174 87.2617C106.717 86.6875 106.488 85.8457 106.488 84.7363C106.488 83.6152 106.721 82.7676 107.186 82.1934C107.65 81.6152 108.258 81.3262 109.008 81.3262C109.32 81.3262 109.596 81.3691 109.834 81.4551C110.072 81.541 110.277 81.6562 110.449 81.8008C110.625 81.9453 110.773 82.1074 110.895 82.2871H110.953C110.93 82.1621 110.9 81.9785 110.865 81.7363C110.834 81.4902 110.818 81.2383 110.818 80.9805V78.8828H112.611V88H111.24L110.895 87.1504H110.818C110.705 87.3301 110.562 87.4941 110.391 87.6426C110.223 87.7871 110.021 87.9023 109.787 87.9883C109.553 88.0742 109.277 88.1172 108.961 88.1172ZM109.588 86.6934C110.076 86.6934 110.42 86.5488 110.619 86.2598C110.822 85.9668 110.93 85.5273 110.941 84.9414V84.748C110.941 84.1113 110.844 83.625 110.648 83.2891C110.453 82.9492 110.09 82.7793 109.559 82.7793C109.164 82.7793 108.855 82.9492 108.633 83.2891C108.41 83.6289 108.299 84.1191 108.299 84.7598C108.299 85.4004 108.41 85.8828 108.633 86.207C108.859 86.5312 109.178 86.6934 109.588 86.6934Z" fill="white"/>
<rect x="1" y="112.5" width="155" height="43" rx="21.5" fill="white"/>
<path d="M48.3301 134.189H51.7285V138.631C51.2793 138.779 50.8125 138.898 50.3281 138.988C49.8438 139.074 49.2949 139.117 48.6816 139.117C47.8301 139.117 47.1074 138.949 46.5137 138.613C45.9199 138.277 45.4688 137.781 45.1602 137.125C44.8516 136.469 44.6973 135.662 44.6973 134.705C44.6973 133.807 44.8691 133.029 45.2129 132.373C45.5605 131.717 46.0664 131.209 46.7305 130.85C47.3984 130.49 48.2129 130.311 49.1738 130.311C49.627 130.311 50.0742 130.359 50.5156 130.457C50.957 130.555 51.3574 130.682 51.7168 130.838L51.1133 132.291C50.8516 132.158 50.5527 132.047 50.2168 131.957C49.8809 131.867 49.5293 131.822 49.1621 131.822C48.6348 131.822 48.1758 131.943 47.7852 132.186C47.3984 132.428 47.0977 132.768 46.8828 133.205C46.6719 133.639 46.5664 134.15 46.5664 134.74C46.5664 135.299 46.6426 135.795 46.7949 136.229C46.9473 136.658 47.1875 136.996 47.5156 137.242C47.8438 137.484 48.2715 137.605 48.7988 137.605C49.0566 137.605 49.2734 137.594 49.4492 137.57C49.6289 137.543 49.7969 137.516 49.9531 137.488V135.701H48.3301V134.189ZM56.334 132.326C56.9395 132.326 57.4609 132.443 57.8984 132.678C58.3359 132.908 58.6738 133.244 58.9121 133.686C59.1504 134.127 59.2695 134.666 59.2695 135.303V136.17H55.0449C55.0645 136.674 55.2148 137.07 55.4961 137.359C55.7812 137.645 56.1758 137.787 56.6797 137.787C57.0977 137.787 57.4805 137.744 57.8281 137.658C58.1758 137.572 58.5332 137.443 58.9004 137.271V138.654C58.5762 138.814 58.2363 138.932 57.8809 139.006C57.5293 139.08 57.1016 139.117 56.5977 139.117C55.9414 139.117 55.3594 138.996 54.8516 138.754C54.3477 138.512 53.9512 138.143 53.6621 137.646C53.377 137.15 53.2344 136.525 53.2344 135.771C53.2344 135.006 53.3633 134.369 53.6211 133.861C53.8828 133.35 54.2461 132.967 54.7109 132.713C55.1758 132.455 55.7168 132.326 56.334 132.326ZM56.3457 133.598C55.998 133.598 55.709 133.709 55.4785 133.932C55.252 134.154 55.1211 134.504 55.0859 134.98H57.5938C57.5898 134.715 57.541 134.479 57.4473 134.271C57.3574 134.064 57.2207 133.9 57.0371 133.779C56.8574 133.658 56.627 133.598 56.3457 133.598ZM63.4824 137.693C63.6777 137.693 63.8672 137.674 64.0508 137.635C64.2383 137.596 64.4238 137.547 64.6074 137.488V138.818C64.416 138.904 64.1777 138.975 63.8926 139.029C63.6113 139.088 63.3027 139.117 62.9668 139.117C62.5762 139.117 62.2246 139.055 61.9121 138.93C61.6035 138.801 61.3594 138.58 61.1797 138.268C61.0039 137.951 60.916 137.512 60.916 136.949V133.791H60.0605V133.035L61.0449 132.438L61.5605 131.055H62.7031V132.449H64.5371V133.791H62.7031V136.949C62.7031 137.199 62.7734 137.387 62.9141 137.512C63.0586 137.633 63.248 137.693 63.4824 137.693ZM74.252 136.621C74.252 137.129 74.1289 137.57 73.8828 137.945C73.6367 138.32 73.2773 138.609 72.8047 138.812C72.3359 139.016 71.7656 139.117 71.0938 139.117C70.7969 139.117 70.5059 139.098 70.2207 139.059C69.9395 139.02 69.668 138.963 69.4062 138.889C69.1484 138.811 68.9023 138.715 68.668 138.602V136.914C69.0742 137.094 69.4961 137.256 69.9336 137.4C70.3711 137.545 70.8047 137.617 71.2344 137.617C71.5312 137.617 71.7695 137.578 71.9492 137.5C72.1328 137.422 72.2656 137.314 72.3477 137.178C72.4297 137.041 72.4707 136.885 72.4707 136.709C72.4707 136.494 72.3984 136.311 72.2539 136.158C72.1094 136.006 71.9102 135.863 71.6562 135.73C71.4062 135.598 71.123 135.455 70.8066 135.303C70.6074 135.209 70.3906 135.096 70.1562 134.963C69.9219 134.826 69.6992 134.66 69.4883 134.465C69.2773 134.27 69.1035 134.033 68.9668 133.756C68.834 133.475 68.7676 133.139 68.7676 132.748C68.7676 132.236 68.8848 131.799 69.1191 131.436C69.3535 131.072 69.6875 130.795 70.1211 130.604C70.5586 130.408 71.0742 130.311 71.668 130.311C72.1133 130.311 72.5371 130.363 72.9395 130.469C73.3457 130.57 73.7695 130.719 74.2109 130.914L73.625 132.326C73.2305 132.166 72.877 132.043 72.5645 131.957C72.252 131.867 71.9336 131.822 71.6094 131.822C71.3828 131.822 71.1895 131.859 71.0293 131.934C70.8691 132.004 70.748 132.105 70.666 132.238C70.584 132.367 70.543 132.518 70.543 132.689C70.543 132.893 70.6016 133.064 70.7188 133.205C70.8398 133.342 71.0195 133.475 71.2578 133.604C71.5 133.732 71.8008 133.883 72.1602 134.055C72.5977 134.262 72.9707 134.479 73.2793 134.705C73.5918 134.928 73.832 135.191 74 135.496C74.168 135.797 74.252 136.172 74.252 136.621ZM78.4238 137.693C78.6191 137.693 78.8086 137.674 78.9922 137.635C79.1797 137.596 79.3652 137.547 79.5488 137.488V138.818C79.3574 138.904 79.1191 138.975 78.834 139.029C78.5527 139.088 78.2441 139.117 77.9082 139.117C77.5176 139.117 77.166 139.055 76.8535 138.93C76.5449 138.801 76.3008 138.58 76.1211 138.268C75.9453 137.951 75.8574 137.512 75.8574 136.949V133.791H75.002V133.035L75.9863 132.438L76.502 131.055H77.6445V132.449H79.4785V133.791H77.6445V136.949C77.6445 137.199 77.7148 137.387 77.8555 137.512C78 137.633 78.1895 137.693 78.4238 137.693ZM83.5625 132.314C84.4414 132.314 85.1152 132.506 85.584 132.889C86.0527 133.271 86.2871 133.854 86.2871 134.635V139H85.0391L84.6934 138.109H84.6465C84.459 138.344 84.2676 138.535 84.0723 138.684C83.877 138.832 83.6523 138.941 83.3984 139.012C83.1445 139.082 82.8359 139.117 82.4727 139.117C82.0859 139.117 81.7383 139.043 81.4297 138.895C81.125 138.746 80.8848 138.52 80.709 138.215C80.5332 137.906 80.4453 137.516 80.4453 137.043C80.4453 136.348 80.6895 135.836 81.1777 135.508C81.666 135.176 82.3984 134.992 83.375 134.957L84.5117 134.922V134.635C84.5117 134.291 84.4219 134.039 84.2422 133.879C84.0625 133.719 83.8125 133.639 83.4922 133.639C83.1758 133.639 82.8652 133.684 82.5605 133.773C82.2559 133.863 81.9512 133.977 81.6465 134.113L81.0547 132.906C81.4023 132.723 81.791 132.578 82.2207 132.473C82.6543 132.367 83.1016 132.314 83.5625 132.314ZM84.5117 135.965L83.8203 135.988C83.2422 136.004 82.8398 136.107 82.6133 136.299C82.3906 136.49 82.2793 136.742 82.2793 137.055C82.2793 137.328 82.3594 137.523 82.5195 137.641C82.6797 137.754 82.8887 137.811 83.1465 137.811C83.5293 137.811 83.8516 137.697 84.1133 137.471C84.3789 137.244 84.5117 136.922 84.5117 136.504V135.965ZM91.7891 132.326C91.8789 132.326 91.9824 132.332 92.0996 132.344C92.2207 132.352 92.3184 132.363 92.3926 132.379L92.2578 134.055C92.1992 134.035 92.1152 134.021 92.0059 134.014C91.9004 134.002 91.8086 133.996 91.7305 133.996C91.5 133.996 91.2754 134.025 91.0566 134.084C90.8418 134.143 90.6484 134.238 90.4766 134.371C90.3047 134.5 90.168 134.672 90.0664 134.887C89.9688 135.098 89.9199 135.357 89.9199 135.666V139H88.1328V132.449H89.4863L89.75 133.551H89.8379C89.9668 133.328 90.127 133.125 90.3184 132.941C90.5137 132.754 90.7344 132.605 90.9805 132.496C91.2305 132.383 91.5 132.326 91.7891 132.326ZM96.3418 137.693C96.5371 137.693 96.7266 137.674 96.9102 137.635C97.0977 137.596 97.2832 137.547 97.4668 137.488V138.818C97.2754 138.904 97.0371 138.975 96.752 139.029C96.4707 139.088 96.1621 139.117 95.8262 139.117C95.4355 139.117 95.084 139.055 94.7715 138.93C94.4629 138.801 94.2188 138.58 94.0391 138.268C93.8633 137.951 93.7754 137.512 93.7754 136.949V133.791H92.9199V133.035L93.9043 132.438L94.4199 131.055H95.5625V132.449H97.3965V133.791H95.5625V136.949C95.5625 137.199 95.6328 137.387 95.7734 137.512C95.918 137.633 96.1074 137.693 96.3418 137.693ZM101.498 132.326C102.104 132.326 102.625 132.443 103.062 132.678C103.5 132.908 103.838 133.244 104.076 133.686C104.314 134.127 104.434 134.666 104.434 135.303V136.17H100.209C100.229 136.674 100.379 137.07 100.66 137.359C100.945 137.645 101.34 137.787 101.844 137.787C102.262 137.787 102.645 137.744 102.992 137.658C103.34 137.572 103.697 137.443 104.064 137.271V138.654C103.74 138.814 103.4 138.932 103.045 139.006C102.693 139.08 102.266 139.117 101.762 139.117C101.105 139.117 100.523 138.996 100.016 138.754C99.5117 138.512 99.1152 138.143 98.8262 137.646C98.541 137.15 98.3984 136.525 98.3984 135.771C98.3984 135.006 98.5273 134.369 98.7852 133.861C99.0469 133.35 99.4102 132.967 99.875 132.713C100.34 132.455 100.881 132.326 101.498 132.326ZM101.51 133.598C101.162 133.598 100.873 133.709 100.643 133.932C100.416 134.154 100.285 134.504 100.25 134.98H102.758C102.754 134.715 102.705 134.479 102.611 134.271C102.521 134.064 102.385 133.9 102.201 133.779C102.021 133.658 101.791 133.598 101.51 133.598ZM107.961 139.117C107.23 139.117 106.635 138.832 106.174 138.262C105.717 137.688 105.488 136.846 105.488 135.736C105.488 134.615 105.721 133.768 106.186 133.193C106.65 132.615 107.258 132.326 108.008 132.326C108.32 132.326 108.596 132.369 108.834 132.455C109.072 132.541 109.277 132.656 109.449 132.801C109.625 132.945 109.773 133.107 109.895 133.287H109.953C109.93 133.162 109.9 132.979 109.865 132.736C109.834 132.49 109.818 132.238 109.818 131.98V129.883H111.611V139H110.24L109.895 138.15H109.818C109.705 138.33 109.562 138.494 109.391 138.643C109.223 138.787 109.021 138.902 108.787 138.988C108.553 139.074 108.277 139.117 107.961 139.117ZM108.588 137.693C109.076 137.693 109.42 137.549 109.619 137.26C109.822 136.967 109.93 136.527 109.941 135.941V135.748C109.941 135.111 109.844 134.625 109.648 134.289C109.453 133.949 109.09 133.779 108.559 133.779C108.164 133.779 107.855 133.949 107.633 134.289C107.41 134.629 107.299 135.119 107.299 135.76C107.299 136.4 107.41 136.883 107.633 137.207C107.859 137.531 108.178 137.693 108.588 137.693Z" fill="#323133"/>
<rect x="1" y="112.5" width="155" height="43" rx="21.5" stroke="#323133"/>
<rect x="2" y="168.5" width="155" height="43" rx="21.5" fill="white"/>
<path d="M49.3301 190.189H52.7285V194.631C52.2793 194.779 51.8125 194.898 51.3281 194.988C50.8438 195.074 50.2949 195.117 49.6816 195.117C48.8301 195.117 48.1074 194.949 47.5137 194.613C46.9199 194.277 46.4688 193.781 46.1602 193.125C45.8516 192.469 45.6973 191.662 45.6973 190.705C45.6973 189.807 45.8691 189.029 46.2129 188.373C46.5605 187.717 47.0664 187.209 47.7305 186.85C48.3984 186.49 49.2129 186.311 50.1738 186.311C50.627 186.311 51.0742 186.359 51.5156 186.457C51.957 186.555 52.3574 186.682 52.7168 186.838L52.1133 188.291C51.8516 188.158 51.5527 188.047 51.2168 187.957C50.8809 187.867 50.5293 187.822 50.1621 187.822C49.6348 187.822 49.1758 187.943 48.7852 188.186C48.3984 188.428 48.0977 188.768 47.8828 189.205C47.6719 189.639 47.5664 190.15 47.5664 190.74C47.5664 191.299 47.6426 191.795 47.7949 192.229C47.9473 192.658 48.1875 192.996 48.5156 193.242C48.8438 193.484 49.2715 193.605 49.7988 193.605C50.0566 193.605 50.2734 193.594 50.4492 193.57C50.6289 193.543 50.7969 193.516 50.9531 193.488V191.701H49.3301V190.189ZM57.334 188.326C57.9395 188.326 58.4609 188.443 58.8984 188.678C59.3359 188.908 59.6738 189.244 59.9121 189.686C60.1504 190.127 60.2695 190.666 60.2695 191.303V192.17H56.0449C56.0645 192.674 56.2148 193.07 56.4961 193.359C56.7812 193.645 57.1758 193.787 57.6797 193.787C58.0977 193.787 58.4805 193.744 58.8281 193.658C59.1758 193.572 59.5332 193.443 59.9004 193.271V194.654C59.5762 194.814 59.2363 194.932 58.8809 195.006C58.5293 195.08 58.1016 195.117 57.5977 195.117C56.9414 195.117 56.3594 194.996 55.8516 194.754C55.3477 194.512 54.9512 194.143 54.6621 193.646C54.377 193.15 54.2344 192.525 54.2344 191.771C54.2344 191.006 54.3633 190.369 54.6211 189.861C54.8828 189.35 55.2461 188.967 55.7109 188.713C56.1758 188.455 56.7168 188.326 57.334 188.326ZM57.3457 189.598C56.998 189.598 56.709 189.709 56.4785 189.932C56.252 190.154 56.1211 190.504 56.0859 190.98H58.5938C58.5898 190.715 58.541 190.479 58.4473 190.271C58.3574 190.064 58.2207 189.9 58.0371 189.779C57.8574 189.658 57.627 189.598 57.3457 189.598ZM64.4824 193.693C64.6777 193.693 64.8672 193.674 65.0508 193.635C65.2383 193.596 65.4238 193.547 65.6074 193.488V194.818C65.416 194.904 65.1777 194.975 64.8926 195.029C64.6113 195.088 64.3027 195.117 63.9668 195.117C63.5762 195.117 63.2246 195.055 62.9121 194.93C62.6035 194.801 62.3594 194.58 62.1797 194.268C62.0039 193.951 61.916 193.512 61.916 192.949V189.791H61.0605V189.035L62.0449 188.438L62.5605 187.055H63.7031V188.449H65.5371V189.791H63.7031V192.949C63.7031 193.199 63.7734 193.387 63.9141 193.512C64.0586 193.633 64.248 193.693 64.4824 193.693ZM75.252 192.621C75.252 193.129 75.1289 193.57 74.8828 193.945C74.6367 194.32 74.2773 194.609 73.8047 194.812C73.3359 195.016 72.7656 195.117 72.0938 195.117C71.7969 195.117 71.5059 195.098 71.2207 195.059C70.9395 195.02 70.668 194.963 70.4062 194.889C70.1484 194.811 69.9023 194.715 69.668 194.602V192.914C70.0742 193.094 70.4961 193.256 70.9336 193.4C71.3711 193.545 71.8047 193.617 72.2344 193.617C72.5312 193.617 72.7695 193.578 72.9492 193.5C73.1328 193.422 73.2656 193.314 73.3477 193.178C73.4297 193.041 73.4707 192.885 73.4707 192.709C73.4707 192.494 73.3984 192.311 73.2539 192.158C73.1094 192.006 72.9102 191.863 72.6562 191.73C72.4062 191.598 72.123 191.455 71.8066 191.303C71.6074 191.209 71.3906 191.096 71.1562 190.963C70.9219 190.826 70.6992 190.66 70.4883 190.465C70.2773 190.27 70.1035 190.033 69.9668 189.756C69.834 189.475 69.7676 189.139 69.7676 188.748C69.7676 188.236 69.8848 187.799 70.1191 187.436C70.3535 187.072 70.6875 186.795 71.1211 186.604C71.5586 186.408 72.0742 186.311 72.668 186.311C73.1133 186.311 73.5371 186.363 73.9395 186.469C74.3457 186.57 74.7695 186.719 75.2109 186.914L74.625 188.326C74.2305 188.166 73.877 188.043 73.5645 187.957C73.252 187.867 72.9336 187.822 72.6094 187.822C72.3828 187.822 72.1895 187.859 72.0293 187.934C71.8691 188.004 71.748 188.105 71.666 188.238C71.584 188.367 71.543 188.518 71.543 188.689C71.543 188.893 71.6016 189.064 71.7188 189.205C71.8398 189.342 72.0195 189.475 72.2578 189.604C72.5 189.732 72.8008 189.883 73.1602 190.055C73.5977 190.262 73.9707 190.479 74.2793 190.705C74.5918 190.928 74.832 191.191 75 191.496C75.168 191.797 75.252 192.172 75.252 192.621ZM79.4238 193.693C79.6191 193.693 79.8086 193.674 79.9922 193.635C80.1797 193.596 80.3652 193.547 80.5488 193.488V194.818C80.3574 194.904 80.1191 194.975 79.834 195.029C79.5527 195.088 79.2441 195.117 78.9082 195.117C78.5176 195.117 78.166 195.055 77.8535 194.93C77.5449 194.801 77.3008 194.58 77.1211 194.268C76.9453 193.951 76.8574 193.512 76.8574 192.949V189.791H76.002V189.035L76.9863 188.438L77.502 187.055H78.6445V188.449H80.4785V189.791H78.6445V192.949C78.6445 193.199 78.7148 193.387 78.8555 193.512C79 193.633 79.1895 193.693 79.4238 193.693ZM84.5625 188.314C85.4414 188.314 86.1152 188.506 86.584 188.889C87.0527 189.271 87.2871 189.854 87.2871 190.635V195H86.0391L85.6934 194.109H85.6465C85.459 194.344 85.2676 194.535 85.0723 194.684C84.877 194.832 84.6523 194.941 84.3984 195.012C84.1445 195.082 83.8359 195.117 83.4727 195.117C83.0859 195.117 82.7383 195.043 82.4297 194.895C82.125 194.746 81.8848 194.52 81.709 194.215C81.5332 193.906 81.4453 193.516 81.4453 193.043C81.4453 192.348 81.6895 191.836 82.1777 191.508C82.666 191.176 83.3984 190.992 84.375 190.957L85.5117 190.922V190.635C85.5117 190.291 85.4219 190.039 85.2422 189.879C85.0625 189.719 84.8125 189.639 84.4922 189.639C84.1758 189.639 83.8652 189.684 83.5605 189.773C83.2559 189.863 82.9512 189.977 82.6465 190.113L82.0547 188.906C82.4023 188.723 82.791 188.578 83.2207 188.473C83.6543 188.367 84.1016 188.314 84.5625 188.314ZM85.5117 191.965L84.8203 191.988C84.2422 192.004 83.8398 192.107 83.6133 192.299C83.3906 192.49 83.2793 192.742 83.2793 193.055C83.2793 193.328 83.3594 193.523 83.5195 193.641C83.6797 193.754 83.8887 193.811 84.1465 193.811C84.5293 193.811 84.8516 193.697 85.1133 193.471C85.3789 193.244 85.5117 192.922 85.5117 192.504V191.965ZM92.7891 188.326C92.8789 188.326 92.9824 188.332 93.0996 188.344C93.2207 188.352 93.3184 188.363 93.3926 188.379L93.2578 190.055C93.1992 190.035 93.1152 190.021 93.0059 190.014C92.9004 190.002 92.8086 189.996 92.7305 189.996C92.5 189.996 92.2754 190.025 92.0566 190.084C91.8418 190.143 91.6484 190.238 91.4766 190.371C91.3047 190.5 91.168 190.672 91.0664 190.887C90.9688 191.098 90.9199 191.357 90.9199 191.666V195H89.1328V188.449H90.4863L90.75 189.551H90.8379C90.9668 189.328 91.127 189.125 91.3184 188.941C91.5137 188.754 91.7344 188.605 91.9805 188.496C92.2305 188.383 92.5 188.326 92.7891 188.326ZM97.3418 193.693C97.5371 193.693 97.7266 193.674 97.9102 193.635C98.0977 193.596 98.2832 193.547 98.4668 193.488V194.818C98.2754 194.904 98.0371 194.975 97.752 195.029C97.4707 195.088 97.1621 195.117 96.8262 195.117C96.4355 195.117 96.084 195.055 95.7715 194.93C95.4629 194.801 95.2188 194.58 95.0391 194.268C94.8633 193.951 94.7754 193.512 94.7754 192.949V189.791H93.9199V189.035L94.9043 188.438L95.4199 187.055H96.5625V188.449H98.3965V189.791H96.5625V192.949C96.5625 193.199 96.6328 193.387 96.7734 193.512C96.918 193.633 97.1074 193.693 97.3418 193.693ZM102.498 188.326C103.104 188.326 103.625 188.443 104.062 188.678C104.5 188.908 104.838 189.244 105.076 189.686C105.314 190.127 105.434 190.666 105.434 191.303V192.17H101.209C101.229 192.674 101.379 193.07 101.66 193.359C101.945 193.645 102.34 193.787 102.844 193.787C103.262 193.787 103.645 193.744 103.992 193.658C104.34 193.572 104.697 193.443 105.064 193.271V194.654C104.74 194.814 104.4 194.932 104.045 195.006C103.693 195.08 103.266 195.117 102.762 195.117C102.105 195.117 101.523 194.996 101.016 194.754C100.512 194.512 100.115 194.143 99.8262 193.646C99.541 193.15 99.3984 192.525 99.3984 191.771C99.3984 191.006 99.5273 190.369 99.7852 189.861C100.047 189.35 100.41 188.967 100.875 188.713C101.34 188.455 101.881 188.326 102.498 188.326ZM102.51 189.598C102.162 189.598 101.873 189.709 101.643 189.932C101.416 190.154 101.285 190.504 101.25 190.98H103.758C103.754 190.715 103.705 190.479 103.611 190.271C103.521 190.064 103.385 189.9 103.201 189.779C103.021 189.658 102.791 189.598 102.51 189.598ZM108.961 195.117C108.23 195.117 107.635 194.832 107.174 194.262C106.717 193.688 106.488 192.846 106.488 191.736C106.488 190.615 106.721 189.768 107.186 189.193C107.65 188.615 108.258 188.326 109.008 188.326C109.32 188.326 109.596 188.369 109.834 188.455C110.072 188.541 110.277 188.656 110.449 188.801C110.625 188.945 110.773 189.107 110.895 189.287H110.953C110.93 189.162 110.9 188.979 110.865 188.736C110.834 188.49 110.818 188.238 110.818 187.98V185.883H112.611V195H111.24L110.895 194.15H110.818C110.705 194.33 110.562 194.494 110.391 194.643C110.223 194.787 110.021 194.902 109.787 194.988C109.553 195.074 109.277 195.117 108.961 195.117ZM109.588 193.693C110.076 193.693 110.42 193.549 110.619 193.26C110.822 192.967 110.93 192.527 110.941 191.941V191.748C110.941 191.111 110.844 190.625 110.648 190.289C110.453 189.949 110.09 189.779 109.559 189.779C109.164 189.779 108.855 189.949 108.633 190.289C108.41 190.629 108.299 191.119 108.299 191.76C108.299 192.4 108.41 192.883 108.633 193.207C108.859 193.531 109.178 193.693 109.588 193.693Z" fill="#646266"/>
<rect x="2" y="168.5" width="155" height="43" rx="21.5" stroke="#C8C4CC"/>
<defs>
<filter id="filter0_d_652_762" x="174.5" y="0" width="77" height="77" filterUnits="userSpaceOnUse" color-interpolation-filters="sRGB">
<feFlood flood-opacity="0" result="BackgroundImageFix"/>
<feColorMatrix in="SourceAlpha" type="matrix" values="0 0 0 0 0 0 0 0 0 0 0 0 0 0 0 0 0 0 127 0" result="hardAlpha"/>
<feOffset dy="2"/>
<feGaussianBlur stdDeviation="2"/>
<feComposite in2="hardAlpha" operator="out"/>
<feColorMatrix type="matrix" values="0 0 0 0 0.784314 0 0 0 0 0.768627 0 0 0 0 0.8 0 0 0 0.6 0"/>
<feBlend mode="normal" in2="BackgroundImageFix" result="effect1_dropShadow_652_762"/>
<feBlend mode="normal" in="SourceGraphic" in2="effect1_dropShadow_652_762" result="shape"/>
</filter>
<filter id="filter1_d_652_762" x="253.5" y="0" width="77" height="77" filterUnits="userSpaceOnUse" color-interpolation-filters="sRGB">
<feFlood flood-opacity="0" result="BackgroundImageFix"/>
<feColorMatrix in="SourceAlpha" type="matrix" values="0 0 0 0 0 0 0 0 0 0 0 0 0 0 0 0 0 0 127 0" result="hardAlpha"/>
<feOffset dy="2"/>
<feGaussianBlur stdDeviation="2"/>
<feComposite in2="hardAlpha" operator="out"/>
<feColorMatrix type="matrix" values="0 0 0 0 0.784314 0 0 0 0 0.768627 0 0 0 0 0.8 0 0 0 0.6 0"/>
<feBlend mode="normal" in2="BackgroundImageFix" result="effect1_dropShadow_652_762"/>
<feBlend mode="normal" in="SourceGraphic" in2="effect1_dropShadow_652_762" result="shape"/>
</filter>
<filter id="filter2_d_652_762" x="332.5" y="0" width="77" height="77" filterUnits="userSpaceOnUse" color-interpolation-filters="sRGB">
<feFlood flood-opacity="0" result="BackgroundImageFix"/>
<feColorMatrix in="SourceAlpha" type="matrix" values="0 0 0 0 0 0 0 0 0 0 0 0 0 0 0 0 0 0 127 0" result="hardAlpha"/>
<feOffset dy="2"/>
<feGaussianBlur stdDeviation="2"/>
<feComposite in2="hardAlpha" operator="out"/>
<feColorMatrix type="matrix" values="0 0 0 0 0.784314 0 0 0 0 0.768627 0 0 0 0 0.8 0 0 0 0.6 0"/>
<feBlend mode="normal" in2="BackgroundImageFix" result="effect1_dropShadow_652_762"/>
<feBlend mode="normal" in="SourceGraphic" in2="effect1_dropShadow_652_762" result="shape"/>
</filter>
<filter id="filter3_d_652_762" x="411.5" y="0" width="77" height="77" filterUnits="userSpaceOnUse" color-interpolation-filters="sRGB">
<feFlood flood-opacity="0" result="BackgroundImageFix"/>
<feColorMatrix in="SourceAlpha" type="matrix" values="0 0 0 0 0 0 0 0 0 0 0 0 0 0 0 0 0 0 127 0" result="hardAlpha"/>
<feOffset dy="2"/>
<feGaussianBlur stdDeviation="2"/>
<feComposite in2="hardAlpha" operator="out"/>
<feColorMatrix type="matrix" values="0 0 0 0 0.784314 0 0 0 0 0.768627 0 0 0 0 0.8 0 0 0 0.6 0"/>
<feBlend mode="normal" in2="BackgroundImageFix" result="effect1_dropShadow_652_762"/>
<feBlend mode="normal" in="SourceGraphic" in2="effect1_dropShadow_652_762" result="shape"/>
</filter>
</defs>
</svg>
