<svg width="180" height="189" viewBox="0 0 180 189" fill="none" xmlns="http://www.w3.org/2000/svg">
<path d="M15.6324 131.907C14.6288 131.907 13.7379 132.104 12.9598 132.499C12.193 132.882 11.5446 133.44 11.0146 134.173C10.4958 134.906 10.1011 135.792 9.83049 136.829C9.55984 137.867 9.42452 139.034 9.42452 140.331C9.42452 142.078 9.63878 143.573 10.0673 144.813C10.5071 146.042 11.1837 146.984 12.0971 147.638C13.0106 148.281 14.189 148.602 15.6324 148.602C16.6361 148.602 17.6397 148.489 18.6434 148.264C19.6583 148.038 20.7578 147.717 21.9418 147.3V151.698C20.848 152.149 19.771 152.47 18.711 152.662C17.651 152.865 16.4613 152.966 15.1419 152.966C12.5933 152.966 10.4958 152.442 8.8494 151.393C7.21426 150.333 6.00199 148.856 5.21261 146.961C4.42323 145.056 4.02854 142.834 4.02854 140.297C4.02854 138.425 4.28227 136.711 4.78973 135.154C5.29719 133.598 6.04146 132.251 7.02255 131.112C8.00364 129.973 9.2159 129.093 10.6593 128.473C12.1028 127.853 13.7605 127.543 15.6324 127.543C16.8616 127.543 18.0908 127.7 19.32 128.016C20.5604 128.321 21.7445 128.744 22.8722 129.285L21.1806 133.547C20.2559 133.108 19.3256 132.724 18.3896 132.397C17.4536 132.07 16.5346 131.907 15.6324 131.907ZM43.521 143.138C43.521 144.717 43.3067 146.116 42.8782 147.333C42.4609 148.551 41.8464 149.583 41.0344 150.429C40.2338 151.263 39.264 151.895 38.125 152.323C36.9973 152.752 35.723 152.966 34.3021 152.966C32.9715 152.966 31.7479 152.752 30.6315 152.323C29.5264 151.895 28.5622 151.263 27.739 150.429C26.9271 149.583 26.2956 148.551 25.8445 147.333C25.4047 146.116 25.1848 144.717 25.1848 143.138C25.1848 141.041 25.5569 139.265 26.3012 137.81C27.0455 136.355 28.1055 135.25 29.4813 134.495C30.8571 133.739 32.4978 133.361 34.4036 133.361C36.1741 133.361 37.7416 133.739 39.1061 134.495C40.4819 135.25 41.5588 136.355 42.3369 137.81C43.1263 139.265 43.521 141.041 43.521 143.138ZM30.4455 143.138C30.4455 144.379 30.5808 145.422 30.8514 146.268C31.1221 147.114 31.5449 147.751 32.1201 148.179C32.6952 148.608 33.4451 148.822 34.3698 148.822C35.2832 148.822 36.0219 148.608 36.5857 148.179C37.1608 147.751 37.5781 147.114 37.8374 146.268C38.1081 145.422 38.2434 144.379 38.2434 143.138C38.2434 141.887 38.1081 140.849 37.8374 140.026C37.5781 139.192 37.1608 138.566 36.5857 138.148C36.0106 137.731 35.2607 137.523 34.336 137.523C32.9715 137.523 31.9791 137.991 31.3589 138.927C30.7499 139.863 30.4455 141.266 30.4455 143.138ZM64.4912 143.138C64.4912 144.717 64.2769 146.116 63.8484 147.333C63.4311 148.551 62.8165 149.583 62.0046 150.429C61.204 151.263 60.2341 151.895 59.0952 152.323C57.9675 152.752 56.6932 152.966 55.2723 152.966C53.9417 152.966 52.7181 152.752 51.6017 152.323C50.4966 151.895 49.5324 151.263 48.7092 150.429C47.8973 149.583 47.2658 148.551 46.8147 147.333C46.3749 146.116 46.155 144.717 46.155 143.138C46.155 141.041 46.5271 139.265 47.2714 137.81C48.0157 136.355 49.0757 135.25 50.4515 134.495C51.8272 133.739 53.468 133.361 55.3738 133.361C57.1443 133.361 58.7118 133.739 60.0763 134.495C61.452 135.25 62.529 136.355 63.3071 137.81C64.0965 139.265 64.4912 141.041 64.4912 143.138ZM51.4156 143.138C51.4156 144.379 51.551 145.422 51.8216 146.268C52.0922 147.114 52.5151 147.751 53.0903 148.179C53.6654 148.608 54.4153 148.822 55.34 148.822C56.2534 148.822 56.992 148.608 57.5559 148.179C58.131 147.751 58.5483 147.114 58.8076 146.268C59.0783 145.422 59.2136 144.379 59.2136 143.138C59.2136 141.887 59.0783 140.849 58.8076 140.026C58.5483 139.192 58.131 138.566 57.5559 138.148C56.9808 137.731 56.2309 137.523 55.3062 137.523C53.9417 137.523 52.9493 137.991 52.3291 138.927C51.7201 139.863 51.4156 141.266 51.4156 143.138ZM73.4346 126.308V138.081C73.4346 138.791 73.4064 139.502 73.35 140.212C73.2936 140.923 73.2316 141.633 73.1639 142.343H73.2316C73.5812 141.847 73.9364 141.357 74.2972 140.872C74.6694 140.387 75.0641 139.919 75.4813 139.468L80.7758 133.717H86.5947L79.0843 141.921L87.0514 152.628H81.0972L75.6505 144.965L73.4346 146.741V152.628H68.2754V126.308H73.4346ZM97.0266 133.328C99.5639 133.328 101.509 133.88 102.862 134.985C104.216 136.09 104.892 137.771 104.892 140.026V152.628H101.289L100.291 150.057H100.156C99.6147 150.733 99.0621 151.286 98.4983 151.715C97.9344 152.143 97.286 152.459 96.553 152.662C95.82 152.865 94.9291 152.966 93.8804 152.966C92.764 152.966 91.7603 152.752 90.8695 152.323C89.9899 151.895 89.2963 151.241 88.7889 150.361C88.2814 149.47 88.0277 148.343 88.0277 146.978C88.0277 144.971 88.7325 143.494 90.1421 142.546C91.5517 141.588 93.6661 141.058 96.4853 140.956L99.7669 140.855V140.026C99.7669 139.034 99.5075 138.306 98.9888 137.844C98.4701 137.382 97.7483 137.15 96.8236 137.15C95.9102 137.15 95.0137 137.28 94.1341 137.539C93.2545 137.799 92.3749 138.126 91.4953 138.521L89.7869 135.036C90.7905 134.506 91.9126 134.089 93.153 133.784C94.4048 133.48 95.696 133.328 97.0266 133.328ZM99.7669 143.866L97.7709 143.933C96.1019 143.979 94.9404 144.277 94.2863 144.83C93.6436 145.383 93.3222 146.11 93.3222 147.012C93.3222 147.801 93.5533 148.365 94.0157 148.704C94.4781 149.031 95.0814 149.194 95.8256 149.194C96.9308 149.194 97.8611 148.867 98.6167 148.213C99.3835 147.559 99.7669 146.629 99.7669 145.422V143.866ZM114.901 152.628H109.742V126.308H114.901V152.628ZM127.6 133.328C130.137 133.328 132.082 133.88 133.436 134.985C134.789 136.09 135.466 137.771 135.466 140.026V152.628H131.863L130.865 150.057H130.729C130.188 150.733 129.635 151.286 129.072 151.715C128.508 152.143 127.859 152.459 127.126 152.662C126.393 152.865 125.502 152.966 124.454 152.966C123.337 152.966 122.334 152.752 121.443 152.323C120.563 151.895 119.87 151.241 119.362 150.361C118.855 149.47 118.601 148.343 118.601 146.978C118.601 144.971 119.306 143.494 120.715 142.546C122.125 141.588 124.239 141.058 127.059 140.956L130.34 140.855V140.026C130.34 139.034 130.081 138.306 129.562 137.844C129.043 137.382 128.322 137.15 127.397 137.15C126.484 137.15 125.587 137.28 124.707 137.539C123.828 137.799 122.948 138.126 122.069 138.521L120.36 135.036C121.364 134.506 122.486 134.089 123.726 133.784C124.978 133.48 126.269 133.328 127.6 133.328ZM130.34 143.866L128.344 143.933C126.675 143.979 125.514 144.277 124.86 144.83C124.217 145.383 123.895 146.11 123.895 147.012C123.895 147.801 124.127 148.365 124.589 148.704C125.051 149.031 125.655 149.194 126.399 149.194C127.504 149.194 128.434 148.867 129.19 148.213C129.957 147.559 130.34 146.629 130.34 145.422V143.866ZM147.995 152.966C146.123 152.966 144.527 152.628 143.208 151.951C141.889 151.263 140.885 150.203 140.197 148.771C139.509 147.339 139.165 145.507 139.165 143.274C139.165 140.962 139.554 139.079 140.332 137.624C141.122 136.158 142.21 135.081 143.597 134.393C144.995 133.705 146.614 133.361 148.452 133.361C149.76 133.361 150.888 133.491 151.835 133.75C152.793 133.999 153.628 134.297 154.338 134.647L152.816 138.639C152.004 138.312 151.248 138.047 150.549 137.844C149.85 137.63 149.151 137.523 148.452 137.523C147.55 137.523 146.8 137.737 146.202 138.165C145.604 138.583 145.159 139.214 144.866 140.06C144.572 140.906 144.426 141.966 144.426 143.24C144.426 144.492 144.584 145.529 144.899 146.352C145.215 147.176 145.672 147.79 146.27 148.196C146.867 148.591 147.595 148.788 148.452 148.788C149.523 148.788 150.476 148.647 151.31 148.365C152.145 148.072 152.957 147.666 153.746 147.147V151.562C152.957 152.058 152.128 152.414 151.26 152.628C150.403 152.853 149.314 152.966 147.995 152.966ZM162.825 126.308V131.67C162.825 132.606 162.791 133.497 162.723 134.343C162.667 135.188 162.622 135.786 162.588 136.136H162.859C163.265 135.481 163.744 134.951 164.297 134.545C164.86 134.14 165.481 133.841 166.157 133.649C166.834 133.457 167.561 133.361 168.339 133.361C169.704 133.361 170.894 133.604 171.908 134.089C172.923 134.562 173.713 135.312 174.277 136.339C174.84 137.353 175.122 138.673 175.122 140.297V152.628H169.963V141.582C169.963 140.229 169.715 139.208 169.219 138.521C168.723 137.833 167.956 137.489 166.918 137.489C165.881 137.489 165.063 137.731 164.466 138.216C163.868 138.69 163.445 139.395 163.197 140.331C162.949 141.255 162.825 142.389 162.825 143.73V152.628H157.666V126.308H162.825Z" fill="#323133"/>
<path d="M8.51381 178.72L3.555 165.651H3.4742C3.50113 165.927 3.5247 166.264 3.5449 166.661C3.5651 167.058 3.58193 167.493 3.59539 167.964C3.60886 168.428 3.61559 168.903 3.61559 169.388V178.72H2.01988V163.954H4.56494L9.24097 176.235H9.31166L14.0584 163.954H16.5832V178.72H14.8865V169.267C14.8865 168.829 14.8933 168.391 14.9067 167.954C14.9202 167.509 14.937 167.092 14.9572 166.701C14.9774 166.304 14.9976 165.961 15.0178 165.671H14.937L9.91763 178.72H8.51381ZM24.1305 167.469C25.4501 167.469 26.4298 167.765 27.0694 168.358C27.709 168.95 28.0288 169.896 28.0288 171.196V178.72H26.8068L26.4836 177.084H26.4028C26.0931 177.488 25.7699 177.828 25.4333 178.104C25.0966 178.373 24.7061 178.578 24.2617 178.72C23.8241 178.854 23.2855 178.922 22.6458 178.922C21.9725 178.922 21.3733 178.804 20.8481 178.568C20.3297 178.333 19.919 177.976 19.616 177.498C19.3198 177.02 19.1716 176.414 19.1716 175.68C19.1716 174.576 19.6093 173.727 20.4846 173.135C21.3598 172.542 22.693 172.219 24.4839 172.165L26.3927 172.084V171.408C26.3927 170.452 26.1874 169.782 25.7767 169.398C25.3659 169.014 24.7869 168.822 24.0396 168.822C23.4605 168.822 22.9084 168.906 22.3833 169.075C21.8581 169.243 21.3598 169.442 20.8885 169.671L20.3735 168.398C20.8717 168.142 21.444 167.923 22.0904 167.742C22.7367 167.56 23.4168 167.469 24.1305 167.469ZM26.3725 173.266L24.6859 173.337C23.3057 173.391 22.3328 173.616 21.7672 174.013C21.2016 174.411 20.9188 174.973 20.9188 175.7C20.9188 176.333 21.1107 176.801 21.4945 177.104C21.8783 177.407 22.3866 177.558 23.0195 177.558C24.0025 177.558 24.8071 177.286 25.4333 176.74C26.0594 176.195 26.3725 175.377 26.3725 174.286V173.266ZM32.7684 163.005V171.165C32.7684 171.435 32.7583 171.765 32.7381 172.155C32.7179 172.539 32.7011 172.879 32.6876 173.175H32.7583C32.8997 173 33.105 172.741 33.3744 172.397C33.6504 172.054 33.8827 171.778 34.0712 171.569L37.7474 167.651H39.7168L35.2629 172.377L40.04 178.72H38.0201L34.1116 173.478L32.7684 174.71V178.72H31.102V163.005H32.7684ZM45.8501 167.449C46.7927 167.449 47.6006 167.657 48.2739 168.075C48.9472 168.492 49.4623 169.078 49.8191 169.832C50.176 170.58 50.3544 171.455 50.3544 172.458V173.498H42.7092C42.7294 174.798 43.0525 175.788 43.6787 176.468C44.3049 177.148 45.1869 177.488 46.3247 177.488C47.025 177.488 47.6444 177.424 48.183 177.296C48.7217 177.168 49.2805 176.979 49.8595 176.73V178.205C49.3007 178.454 48.7452 178.636 48.1931 178.75C47.6478 178.864 47.0014 178.922 46.2541 178.922C45.1902 178.922 44.2611 178.706 43.4666 178.275C42.6789 177.838 42.0662 177.198 41.6285 176.356C41.1909 175.515 40.9721 174.485 40.9721 173.266C40.9721 172.074 41.1707 171.044 41.5679 170.176C41.9719 169.3 42.5375 168.627 43.2646 168.156C43.9985 167.684 44.8603 167.449 45.8501 167.449ZM45.8299 168.822C44.9344 168.822 44.2207 169.115 43.6888 169.701C43.1569 170.287 42.8404 171.105 42.7395 172.155H48.5971C48.5904 171.495 48.486 170.916 48.284 170.418C48.0888 169.913 47.7892 169.523 47.3852 169.246C46.9812 168.964 46.4628 168.822 45.8299 168.822ZM59.9821 175.69C59.9821 176.397 59.8037 176.993 59.4468 177.477C59.0967 177.956 58.5917 178.316 57.9319 178.558C57.2788 178.801 56.4978 178.922 55.5888 178.922C54.8146 178.922 54.1446 178.861 53.5791 178.74C53.0135 178.619 52.5186 178.447 52.0945 178.225V176.68C52.5456 176.902 53.0842 177.104 53.7104 177.286C54.3365 177.467 54.9762 177.558 55.6292 177.558C56.5853 177.558 57.2788 177.403 57.7097 177.094C58.1406 176.784 58.3561 176.363 58.3561 175.831C58.3561 175.528 58.2686 175.262 58.0935 175.033C57.9252 174.798 57.639 174.572 57.2351 174.357C56.8311 174.135 56.2722 173.892 55.5586 173.63C54.8516 173.36 54.2389 173.094 53.7205 172.832C53.2088 172.562 52.8115 172.236 52.5287 171.852C52.2527 171.468 52.1146 170.97 52.1146 170.357C52.1146 169.422 52.4917 168.704 53.2458 168.206C54.0066 167.701 55.0031 167.449 56.2352 167.449C56.9018 167.449 57.5246 167.516 58.1036 167.651C58.6894 167.779 59.2347 167.954 59.7397 168.176L59.1741 169.519C58.7163 169.324 58.2282 169.159 57.7097 169.024C57.1913 168.89 56.6628 168.822 56.1241 168.822C55.3498 168.822 54.754 168.95 54.3365 169.206C53.9258 169.462 53.7205 169.812 53.7205 170.256C53.7205 170.6 53.8147 170.883 54.0032 171.105C54.1985 171.327 54.5082 171.536 54.9324 171.731C55.3566 171.926 55.9154 172.155 56.6089 172.418C57.3024 172.674 57.9016 172.939 58.4066 173.216C58.9116 173.485 59.2987 173.815 59.568 174.205C59.8441 174.589 59.9821 175.084 59.9821 175.69ZM71.7235 178.922C70.727 178.922 69.8484 178.716 69.0875 178.306C68.3267 177.895 67.7342 177.269 67.3101 176.427C66.8859 175.586 66.6738 174.525 66.6738 173.246C66.6738 171.906 66.896 170.812 67.3403 169.964C67.7915 169.108 68.4109 168.476 69.1986 168.065C69.9864 167.654 70.8819 167.449 71.8851 167.449C72.4372 167.449 72.9691 167.506 73.4808 167.62C73.9992 167.728 74.4234 167.866 74.7533 168.035L74.2484 169.438C73.9117 169.304 73.5212 169.183 73.0768 169.075C72.6392 168.967 72.2285 168.913 71.8447 168.913C71.0771 168.913 70.4375 169.078 69.9258 169.408C69.4208 169.738 69.0404 170.223 68.7846 170.862C68.5354 171.502 68.4109 172.29 68.4109 173.226C68.4109 174.121 68.5321 174.885 68.7745 175.518C69.0236 176.151 69.3905 176.636 69.8753 176.973C70.3668 177.302 70.9795 177.467 71.7134 177.467C72.2992 177.467 72.8277 177.407 73.299 177.286C73.7703 177.158 74.1979 177.01 74.5816 176.841V178.336C74.2113 178.524 73.7972 178.669 73.3394 178.77C72.8883 178.871 72.3497 178.922 71.7235 178.922ZM86.3706 173.165C86.3706 174.074 86.2528 174.885 86.0171 175.599C85.7815 176.313 85.4414 176.915 84.9971 177.407C84.5527 177.898 84.0141 178.275 83.3812 178.538C82.755 178.794 82.0447 178.922 81.2502 178.922C80.5096 178.922 79.8295 178.794 79.2101 178.538C78.5974 178.275 78.0655 177.898 77.6144 177.407C77.17 176.915 76.8233 176.313 76.5742 175.599C76.3318 174.885 76.2106 174.074 76.2106 173.165C76.2106 171.953 76.4159 170.923 76.8266 170.075C77.2374 169.22 77.8231 168.57 78.5839 168.125C79.3515 167.674 80.2638 167.449 81.3209 167.449C82.3308 167.449 83.2128 167.674 83.9669 168.125C84.7278 168.577 85.3169 169.23 85.7343 170.085C86.1585 170.933 86.3706 171.96 86.3706 173.165ZM77.9477 173.165C77.9477 174.054 78.0655 174.825 78.3012 175.478C78.5368 176.131 78.9004 176.636 79.3919 176.993C79.8834 177.35 80.5163 177.528 81.2906 177.528C82.0581 177.528 82.6877 177.35 83.1792 176.993C83.6774 176.636 84.0444 176.131 84.28 175.478C84.5157 174.825 84.6335 174.054 84.6335 173.165C84.6335 172.283 84.5157 171.522 84.28 170.883C84.0444 170.236 83.6808 169.738 83.1893 169.388C82.6978 169.038 82.0615 168.863 81.2805 168.863C80.1292 168.863 79.2842 169.243 78.7455 170.004C78.2136 170.765 77.9477 171.818 77.9477 173.165ZM98.4322 173.165C98.4322 174.074 98.3144 174.885 98.0788 175.599C97.8431 176.313 97.5031 176.915 97.0587 177.407C96.6143 177.898 96.0757 178.275 95.4428 178.538C94.8166 178.794 94.1063 178.922 93.3118 178.922C92.5712 178.922 91.8912 178.794 91.2717 178.538C90.6591 178.275 90.1271 177.898 89.676 177.407C89.2317 176.915 88.8849 176.313 88.6358 175.599C88.3934 174.885 88.2722 174.074 88.2722 173.165C88.2722 171.953 88.4776 170.923 88.8883 170.075C89.299 169.22 89.8848 168.57 90.6456 168.125C91.4131 167.674 92.3255 167.449 93.3825 167.449C94.3925 167.449 95.2745 167.674 96.0286 168.125C96.7894 168.577 97.3785 169.23 97.796 170.085C98.2201 170.933 98.4322 171.96 98.4322 173.165ZM90.0093 173.165C90.0093 174.054 90.1271 174.825 90.3628 175.478C90.5985 176.131 90.962 176.636 91.4535 176.993C91.945 177.35 92.5779 177.528 93.3522 177.528C94.1198 177.528 94.7493 177.35 95.2408 176.993C95.7391 176.636 96.106 176.131 96.3417 175.478C96.5773 174.825 96.6951 174.054 96.6951 173.165C96.6951 172.283 96.5773 171.522 96.3417 170.883C96.106 170.236 95.7424 169.738 95.2509 169.388C94.7594 169.038 94.1232 168.863 93.3421 168.863C92.1908 168.863 91.3458 169.243 90.8072 170.004C90.2753 170.765 90.0093 171.818 90.0093 173.165ZM102.616 163.005V171.165C102.616 171.435 102.606 171.765 102.586 172.155C102.566 172.539 102.549 172.879 102.536 173.175H102.606C102.748 173 102.953 172.741 103.222 172.397C103.498 172.054 103.731 171.778 103.919 171.569L107.595 167.651H109.565L105.111 172.377L109.888 178.72H107.868L103.96 173.478L102.616 174.71V178.72H100.95V163.005H102.616ZM113.113 167.651V178.72H111.436V167.651H113.113ZM112.295 163.51C112.571 163.51 112.806 163.601 113.001 163.783C113.203 163.958 113.304 164.234 113.304 164.611C113.304 164.981 113.203 165.257 113.001 165.439C112.806 165.621 112.571 165.712 112.295 165.712C112.005 165.712 111.763 165.621 111.567 165.439C111.379 165.257 111.285 164.981 111.285 164.611C111.285 164.234 111.379 163.958 111.567 163.783C111.763 163.601 112.005 163.51 112.295 163.51ZM121.528 167.449C122.841 167.449 123.834 167.772 124.508 168.418C125.181 169.058 125.518 170.088 125.518 171.509V178.72H123.861V171.62C123.861 170.697 123.649 170.007 123.225 169.549C122.808 169.092 122.165 168.863 121.296 168.863C120.071 168.863 119.209 169.209 118.711 169.903C118.212 170.596 117.963 171.603 117.963 172.923V178.72H116.287V167.651H117.64L117.893 169.246H117.983C118.219 168.856 118.519 168.529 118.882 168.267C119.246 167.998 119.653 167.796 120.104 167.661C120.555 167.519 121.03 167.449 121.528 167.449ZM131.681 183.689C130.227 183.689 129.106 183.416 128.318 182.871C127.53 182.332 127.136 181.574 127.136 180.598C127.136 179.905 127.355 179.312 127.793 178.821C128.237 178.329 128.85 178.003 129.631 177.841C129.341 177.706 129.092 177.504 128.884 177.235C128.682 176.966 128.581 176.656 128.581 176.306C128.581 175.902 128.692 175.549 128.914 175.246C129.143 174.936 129.49 174.64 129.954 174.357C129.375 174.121 128.904 173.724 128.54 173.165C128.183 172.599 128.005 171.943 128.005 171.196C128.005 170.401 128.17 169.725 128.5 169.166C128.83 168.6 129.308 168.169 129.934 167.873C130.56 167.577 131.318 167.429 132.206 167.429C132.402 167.429 132.597 167.439 132.792 167.459C132.994 167.472 133.186 167.496 133.368 167.53C133.55 167.557 133.708 167.59 133.842 167.631H137.64V168.711L135.6 168.964C135.802 169.226 135.97 169.543 136.105 169.913C136.239 170.283 136.307 170.694 136.307 171.145C136.307 172.249 135.933 173.128 135.186 173.781C134.438 174.427 133.412 174.751 132.105 174.751C131.796 174.751 131.479 174.724 131.156 174.67C130.826 174.852 130.574 175.054 130.399 175.276C130.23 175.498 130.146 175.754 130.146 176.043C130.146 176.259 130.21 176.431 130.338 176.558C130.473 176.686 130.665 176.781 130.914 176.841C131.163 176.895 131.462 176.922 131.812 176.922H133.762C134.967 176.922 135.889 177.175 136.529 177.679C137.175 178.184 137.498 178.922 137.498 179.891C137.498 181.117 137 182.056 136.004 182.709C135.007 183.362 133.566 183.689 131.681 183.689ZM131.732 182.376C132.647 182.376 133.405 182.281 134.004 182.093C134.61 181.911 135.061 181.645 135.357 181.295C135.66 180.952 135.812 180.541 135.812 180.063C135.812 179.619 135.711 179.282 135.509 179.053C135.307 178.831 135.011 178.683 134.62 178.609C134.23 178.528 133.752 178.487 133.186 178.487H131.267C130.769 178.487 130.335 178.565 129.964 178.72C129.594 178.875 129.308 179.104 129.106 179.406C128.911 179.709 128.813 180.087 128.813 180.538C128.813 181.137 129.065 181.591 129.57 181.901C130.075 182.217 130.796 182.376 131.732 182.376ZM132.166 173.529C132.967 173.529 133.57 173.327 133.974 172.923C134.378 172.519 134.58 171.93 134.58 171.155C134.58 170.327 134.374 169.708 133.964 169.297C133.553 168.88 132.947 168.671 132.146 168.671C131.378 168.671 130.786 168.886 130.368 169.317C129.958 169.741 129.752 170.364 129.752 171.186C129.752 171.94 129.961 172.519 130.378 172.923C130.796 173.327 131.392 173.529 132.166 173.529ZM149.361 168.964H146.604V178.72H144.927V168.964H142.968V168.156L144.927 167.6V166.863C144.927 165.934 145.065 165.18 145.341 164.601C145.618 164.015 146.018 163.584 146.543 163.308C147.068 163.032 147.708 162.894 148.462 162.894C148.886 162.894 149.274 162.931 149.624 163.005C149.98 163.079 150.294 163.163 150.563 163.258L150.129 164.581C149.9 164.506 149.64 164.439 149.351 164.379C149.068 164.311 148.779 164.278 148.482 164.278C147.843 164.278 147.368 164.486 147.058 164.904C146.755 165.314 146.604 165.961 146.604 166.843V167.651H149.361V168.964ZM160.16 167.651V178.72H158.787L158.544 177.164H158.453C158.225 177.548 157.928 177.871 157.565 178.134C157.201 178.397 156.79 178.592 156.333 178.72C155.881 178.854 155.4 178.922 154.888 178.922C154.013 178.922 153.279 178.78 152.687 178.498C152.094 178.215 151.646 177.777 151.343 177.185C151.047 176.592 150.899 175.831 150.899 174.902V167.651H152.596V174.781C152.596 175.703 152.804 176.393 153.222 176.851C153.639 177.302 154.276 177.528 155.131 177.528C155.952 177.528 156.605 177.373 157.09 177.063C157.582 176.754 157.935 176.299 158.15 175.7C158.366 175.094 158.474 174.353 158.474 173.478V167.651H160.16ZM168.566 167.449C169.879 167.449 170.872 167.772 171.545 168.418C172.219 169.058 172.555 170.088 172.555 171.509V178.72H170.899V171.62C170.899 170.697 170.687 170.007 170.263 169.549C169.845 169.092 169.202 168.863 168.334 168.863C167.108 168.863 166.246 169.209 165.748 169.903C165.25 170.596 165.001 171.603 165.001 172.923V178.72H163.324V167.651H164.678L164.93 169.246H165.021C165.257 168.856 165.556 168.529 165.92 168.267C166.283 167.998 166.691 167.796 167.142 167.661C167.593 167.519 168.068 167.449 168.566 167.449ZM177.143 174.619H176.042L175.578 163.954H177.608L177.143 174.619ZM175.376 177.669C175.376 177.198 175.49 176.865 175.719 176.67C175.948 176.468 176.234 176.367 176.578 176.367C176.914 176.367 177.197 176.468 177.426 176.67C177.662 176.865 177.78 177.198 177.78 177.669C177.78 178.134 177.662 178.474 177.426 178.689C177.197 178.898 176.914 179.003 176.578 179.003C176.234 179.003 175.948 178.898 175.719 178.689C175.49 178.474 175.376 178.134 175.376 177.669Z" fill="#323133"/>
<path d="M73.8216 1.01514C71.9398 -0.530393 70.1187 -0.257651 68.6011 1.46971C67.1745 3.07586 67.2656 4.77292 68.9349 6.25785C70.8775 7.9246 72.911 7.9246 74.4286 6.22754C75.8248 4.6517 75.582 2.62129 73.8216 1.01514Z" fill="#FF4A33"/>
<path d="M125.819 36.8652C123.269 37.2289 121.357 38.7138 119.931 40.7139C119.02 41.9867 118.595 43.4413 119.961 44.7747C122.207 46.5627 123.573 44.8051 124.757 43.3807C126.578 41.1988 126.972 38.138 125.819 36.8652Z" fill="#91E58A"/>
<path d="M22.6523 15.0157C22.8648 12.6822 22.4095 10.3487 20.983 8.31833C20.8919 7.07584 20.2545 6.59096 19.1922 7.31827C16.4302 9.22747 15.8231 15.1369 18.0995 17.6825C18.403 18.1673 18.7066 18.6219 19.4047 18.4401C22.1667 18.8643 22.5006 16.7733 22.6523 15.0157Z" fill="#FF4A33"/>
<path d="M67.6939 46.9566C66.8744 46.593 66.0245 46.4718 65.5085 47.4415C64.9926 48.4416 65.2961 49.2598 66.2066 49.8053C67.1476 50.3811 67.9671 50.1386 68.6044 49.2295C68.999 48.1991 68.6955 47.4112 67.6939 46.9566Z" fill="#91E58A"/>
<path d="M120.958 19.3798C120.139 18.8646 119.35 19.0464 118.864 19.9556C118.378 20.8344 118.591 21.592 119.471 22.0466C120.321 22.5012 121.08 22.4102 121.565 21.6223C122.112 20.5617 121.717 19.8343 120.958 19.3798Z" fill="#91E58A"/>
<path d="M63.6584 22.2591C62.1105 23.2895 61.4124 25.3199 59.6216 24.6229C57.8309 23.9259 58.6807 21.9864 58.4379 20.5924C57.9826 17.8649 57.6791 15.1072 55.3116 13.198C54.7046 11.2282 53.096 10.3494 51.3355 9.59177C50.5464 8.92507 49.5751 8.71294 48.6039 8.4705C45.9025 7.77349 44.0511 8.89477 42.7459 11.2282C40.8944 14.5617 40.773 18.1377 41.0159 21.8045C41.1373 23.441 41.8657 25.1078 41.1069 26.7745C40.7123 26.7139 40.3178 26.6533 39.9232 26.5927C39.7107 26.229 39.4376 26.0169 38.9823 26.0775C38.6788 25.8351 38.3752 25.5623 38.1021 25.3199C37.5254 24.3198 36.9183 23.138 35.5525 23.4107C34.733 23.5622 34.6419 24.5623 34.7026 25.3199C35.0062 29.5322 35.8257 33.5628 38.8912 36.7447C41.2587 40.1692 44.7795 42.3208 47.8147 45.0179C48.5128 46.3513 49.8179 46.8362 51.0927 47.3514C51.5784 47.9575 52.1854 48.2908 53.0049 48.1999C55.3724 49.2 56.4043 47.5635 57.4059 45.9574C59.7734 42.1693 61.7766 38.1994 64.1137 34.381C66.5115 30.4414 64.7815 26.4109 63.6584 22.2591ZM44.476 28.2291C45.083 27.9261 45.4472 28.2594 45.7204 28.714C47.3594 31.4111 49.0288 34.0779 50.0608 37.0478C49.7876 37.1993 49.5448 37.3811 49.2716 37.5327C47.5415 34.9265 45.7811 32.3203 44.0814 29.7141C43.7475 29.1989 43.7475 28.5928 44.476 28.2291ZM42.5335 36.8357C42.1996 36.5326 41.9871 36.1386 42.2299 35.7447C42.5942 35.1992 43.1708 35.4113 43.5654 35.7144C47.1166 38.563 50.7892 41.2904 52.6407 45.7755C49.2716 42.8057 45.9025 39.8358 42.5335 36.8357ZM48.8467 16.5921C50.3946 16.9255 50.5464 17.9862 50.7285 19.0165C52.1247 26.7745 53.5209 34.5022 54.9474 42.2602C54.826 42.8966 55.1295 43.7754 54.0065 43.8057C51.7605 34.8355 50.2125 25.7442 48.8467 16.5921ZM53.4602 47.0483C53.3995 47.2605 53.3084 47.4726 53.2477 47.6544C53.3084 47.4726 53.3691 47.2605 53.4602 47.0483ZM57.6184 40.9571C57.1935 41.8359 56.9203 41.0783 56.6168 40.745C57.6488 38.0175 56.465 35.381 56.1919 32.7142C56.1615 32.3506 55.6759 31.7142 56.465 31.5929C56.6775 31.5626 56.9507 31.9869 57.1935 32.199C57.4059 33.4415 57.6184 34.6537 57.8612 36.169C59.1967 34.8052 59.1967 32.6839 61.1999 31.502C60.5929 35.2295 59.0449 38.0781 57.6184 40.9571Z" fill="#40B336"/>
<path d="M100.503 7.46982C99.6837 7.19708 98.9552 8.19713 98.3482 8.89414C97.9233 9.19719 97.5287 9.53054 97.1038 9.83359C97.0127 9.9245 96.8913 10.0154 96.8002 10.1063L96.7396 10.1669C94.4632 11.6216 93.2187 13.8944 92.0653 16.1976C91.6708 16.9552 91.519 17.8037 92.3082 18.4704C92.4903 19.228 92.8848 19.7129 93.7347 19.6826C94.8577 20.319 95.8593 19.8341 96.8306 19.3189C100.291 17.5007 101.869 14.2581 101.323 9.9548C101.171 9.07597 101.444 7.77287 100.503 7.46982Z" fill="#91E58A"/>
<path d="M109.462 58.2606C110.069 57.4727 110.798 56.4424 110.373 55.5029C109.978 54.6847 108.855 55.2908 108.036 55.2908C104.12 55.2302 102.664 52.9876 104.394 49.5935C105.304 47.8055 106.458 46.0782 106.852 44.0781C107.368 41.5022 107.823 38.8657 105.243 36.9565C102.633 34.4412 99.5676 34.2897 95.0452 36.4413C92.8598 37.4717 92.4349 37.2292 92.4045 34.8048C92.4045 34.2897 92.4652 33.8048 92.4956 33.2896C92.5563 32.2896 92.01 32.0774 91.2208 32.4714C87.1536 34.5321 82.8437 36.5625 80.9618 40.987C78.6551 46.4115 76.4394 51.8361 73.131 56.7757C72.099 58.2909 71.7955 60.0486 73.3738 61.5639C74.2237 62.7154 75.1039 63.8064 76.7125 63.9276C76.834 64.0488 76.9554 64.1094 77.1071 64.2004C78.6247 65.5338 80.112 64.8065 81.6296 64.1701C81.235 63.564 80.8101 62.9579 80.4155 62.3215C79.2014 62.2609 78.048 62.0487 77.2589 60.9881C77.1071 60.5638 77.2892 60.2911 77.6231 60.0486C76.9857 59.3516 76.8947 58.8667 77.1071 58.4728C76.8947 58.8667 76.9554 59.3516 77.6231 60.0486C79.0497 60.5335 80.4762 60.9881 81.9331 61.4729C81.9634 61.5942 81.9634 61.7154 81.9938 61.8366C81.8724 61.9578 81.7813 62.079 81.6599 62.2003C82.2366 62.7154 82.783 63.2306 83.3596 63.7458C83.5114 63.7155 83.6632 63.6852 83.8149 63.6549C86.6073 63.564 89.339 64.1397 92.101 64.4731C98.8392 65.3216 105.001 64.0488 109.462 58.2606ZM77.441 55.412C79.7781 50.9269 83.2079 47.5631 84.5434 42.3204C85.9396 46.2903 82.4491 52.4422 77.441 55.412ZM87.0626 45.8054C86.4859 45.2296 87.3965 44.3205 88.3374 43.3205C89.0658 42.6841 90.1585 41.6537 91.5243 41.0173C92.01 40.8052 92.5259 40.7143 92.7991 41.29C93.0116 41.7446 92.617 42.0477 92.3135 42.3204C91.3119 43.1992 90.3709 44.1387 89.339 44.9872C88.6409 45.5024 87.8821 46.6237 87.0626 45.8054ZM78.6247 57.3515C83.7846 53.5937 89.3086 50.4117 94.772 47.1085C95.1969 46.8661 95.5308 46.4721 95.9254 46.1691C96.5931 45.6539 97.1091 44.9266 97.7465 44.3811C97.1091 44.9569 96.5931 45.6842 95.9254 46.1691C97.5947 45.6842 99.082 44.8963 100.296 43.6235L100.266 43.5932C100.782 43.8356 101.085 43.5326 101.358 43.1386L101.298 43.2295C103.179 42.6234 104.211 42.1689 104.727 41.5931C104.181 42.1386 103.179 42.6234 101.298 43.2295C102.633 43.9265 102.876 44.6539 101.449 45.5327C100.175 46.3206 98.9302 47.1388 97.6858 47.9571C97.5037 48.0177 97.2912 48.0783 97.1091 48.1692C95.895 48.8965 94.6809 49.6238 93.4669 50.3814C89.43 52.5634 85.4539 54.8059 81.3868 56.9272C80.5673 57.2909 79.687 58.2 78.6247 57.3515ZM86.8805 58.2606C89.1265 59.291 91.0083 60.1092 92.8902 60.9881C93.3758 61.2305 94.1953 61.4123 93.8918 62.1699C93.5276 63.1397 92.7688 62.5033 92.1921 62.3215C90.5227 61.7457 88.8837 61.1093 87.2143 60.5335C85.3022 60.0183 83.3596 59.5031 81.0225 58.8667C84.6041 56.2302 88.5802 56.1999 92.3438 55.4726C92.1314 55.1393 91.9493 54.8362 91.7975 54.5332C91.9493 54.8362 92.1617 55.1696 92.3438 55.4726C92.5866 55.4726 92.7991 55.4726 93.0419 55.4726C93.2847 55.4726 93.5276 55.4423 93.7704 55.4423C94.0132 55.4423 94.2864 55.4423 94.5292 55.4726C96.6538 55.8363 99.0213 54.9271 101.207 56.9879C96.5324 58.5637 91.7368 56.5939 86.8805 58.2606Z" fill="#40B336"/>
<path d="M80.4141 62.382C80.8086 62.9881 81.2336 63.5941 81.6281 64.2305C82.2048 64.079 82.7512 63.9578 83.3279 63.8063C82.7512 63.2911 82.2048 62.7759 81.6281 62.2607C81.2336 62.291 80.839 62.3213 80.4141 62.382Z" fill="#40B336"/>
<path d="M169.644 62.3218C168.885 58.3216 164.272 55.8366 159.416 56.7761C159.416 56.7761 137.016 64.1401 130.672 65.4129C121.506 67.2312 96.8298 72.2921 96.8298 72.2921C88.9687 73.383 83.6267 76.7772 80.8344 78.9894L25.2295 50.9273C24.5011 50.5636 23.6209 50.8667 23.2566 51.5637C22.8924 52.291 23.1959 53.1698 23.894 53.5335L80.804 82.2017C80.9861 82.7169 81.1682 83.626 80.8951 84.7473L84.2641 86.5353C84.2641 86.5353 83.9606 84.9291 84.1124 83.5048H84.1427C84.1427 83.5048 86.1156 79.8076 90.1828 78.5651C98.8027 75.9589 104.6 75.0801 131.34 72.8982C138.807 72.2921 162.178 71.2314 162.178 71.2314C167.064 70.3526 170.403 66.322 169.644 62.3218Z" fill="#323133"/>
<path d="M91.7423 89.2302L14.6786 50.4402C13.07 49.622 11.0364 49.9553 9.883 51.3493C8.27434 53.3191 8.97244 56.1678 11.0971 57.2284C13.0093 58.1982 13.7377 60.5316 12.7664 62.4408C12.7361 62.4711 12.7361 62.5317 12.7057 62.5621C4.60175 78.6235 13.5556 99.5034 32.7077 109.171C51.8598 118.838 74.0167 113.625 82.1511 97.5336C82.1511 97.5336 82.1511 97.5033 82.1814 97.5033C83.1831 95.5335 85.5202 94.7153 87.493 95.685L88.1608 96.0184C89.7694 96.8366 91.803 96.5033 92.9564 95.1093C94.5651 93.1698 93.867 90.3211 91.7423 89.2302Z" fill="#FF4A33"/>
<path d="M76.2269 90.2994C74.6027 90.8183 73.3088 91.9654 72.538 93.4676C66.7569 104.83 50.7351 108.407 36.833 101.443C22.9309 94.4782 16.324 79.593 22.0775 68.2311L22.1326 68.1492C22.9034 66.6743 23.0135 64.981 22.518 63.3969C22.3803 62.9872 22.4905 62.5229 22.8208 62.2497C23.1512 61.9766 23.5916 61.922 23.977 62.1132L24.0871 62.1678L33.1166 69.8152L26.84 66.6743C26.5647 66.5378 26.2619 66.5378 25.9866 66.647C25.6838 66.7836 25.4911 67.0567 25.4085 67.3571C25.2434 68.0672 24.9956 68.7501 24.6652 69.3782L24.6102 69.4602C19.5449 79.4838 25.6012 92.6756 38.1269 98.9574C50.6525 105.239 64.9676 102.208 70.0329 92.2113C70.3632 91.5558 70.7762 90.9276 71.2717 90.354C71.4919 90.1082 71.5745 89.7805 71.5194 89.4527C71.4644 89.1523 71.2717 88.9065 70.9964 88.7699L64.7749 85.6563L76.4196 88.3602C76.805 88.5514 77.0252 88.9338 76.9977 89.3708C76.9426 89.7805 76.6398 90.1628 76.2269 90.2994Z" fill="white"/>
</svg>
