<svg width="224" height="172" viewBox="0 0 224 172" fill="none" xmlns="http://www.w3.org/2000/svg">
<path d="M25.5859 22.7496H10.4193C10.132 22.7496 9.8564 22.6355 9.65324 22.4323C9.45007 22.2291 9.33594 21.9536 9.33594 21.6663V11.9163H6.08594L17.2735 1.74592C17.473 1.56444 17.7329 1.46387 18.0026 1.46387C18.2723 1.46387 18.5322 1.56444 18.7317 1.74592L29.9193 11.9163H26.6693V21.6663C26.6693 21.9536 26.5551 22.2291 26.352 22.4323C26.1488 22.6355 25.8733 22.7496 25.5859 22.7496ZM11.5026 20.5829H24.5026V9.91967L18.0026 4.01117L11.5026 9.91967V20.5829Z" fill="#323133"/>
<path fill-rule="evenodd" clip-rule="evenodd" d="M21 57.4871L23.1229 59.61L22.77 59.9629L20.5 57.6929V54H21V57.4871ZM10.4994 57.5L10.5244 58H9C8.86739 58 8.74021 57.9473 8.64645 57.8536C8.55268 57.7598 8.5 57.6326 8.5 57.5C8.5 57.3674 8.55268 57.2402 8.64645 57.1464C8.74021 57.0527 8.86739 57 9 57H10.5244L10.4994 57.5ZM21 50C22.9891 50 24.8968 50.7902 26.3033 52.1967C27.7098 53.6032 28.5 55.5109 28.5 57.5C28.5 59.4891 27.7098 61.3968 26.3033 62.8033C24.8968 64.2098 22.9891 65 21 65C19.0109 65 17.1032 64.2098 15.6967 62.8033C14.2902 61.3968 13.5 59.4891 13.5 57.5C13.5 55.5109 14.2902 53.6032 15.6967 52.1967C17.1032 50.7902 19.0109 50 21 50ZM21 51C19.2761 51 17.6228 51.6848 16.4038 52.9038C15.1848 54.1228 14.5 55.7761 14.5 57.5C14.5 59.2239 15.1848 60.8772 16.4038 62.0962C17.6228 63.3152 19.2761 64 21 64C22.7239 64 24.3772 63.3152 25.5962 62.0962C26.8152 60.8772 27.5 59.2239 27.5 57.5C27.5 55.7761 26.8152 54.1228 25.5962 52.9038C24.3772 51.6848 22.7239 51 21 51ZM8 63C7.86739 63 7.74021 62.9473 7.64645 62.8536C7.55268 62.7598 7.5 62.6326 7.5 62.5C7.5 62.3674 7.55268 62.2402 7.64645 62.1464C7.74021 62.0527 7.86739 62 8 62H11.5088C11.673 62.344 11.8566 62.6777 12.0562 63H8ZM10 53C9.86739 53 9.74021 52.9473 9.64645 52.8536C9.55268 52.7598 9.5 52.6326 9.5 52.5C9.5 52.3674 9.55268 52.2402 9.64645 52.1464C9.74021 52.0527 9.86739 52 10 52H12.0562C11.8566 52.3223 11.673 52.656 11.5088 53H10Z" fill="#323133"/>
<path fill-rule="evenodd" clip-rule="evenodd" d="M16.2812 100.477C16.1709 100.441 16.0744 100.41 15.9935 100.385L15.9154 100.597L15.6535 99.6972L16.2812 100.477ZM25.3617 110.783L24.8357 110.976C24.7931 110.795 24.7447 110.615 24.6906 110.437L24.6438 110.454L24.8357 110.976L25.3775 110.849L25.3617 110.783ZM18.0877 102.721C17.5887 102.443 17.1207 102.226 16.6972 102.055C16.5571 101.999 16.4234 101.949 16.2953 101.904L16.4897 102.572C16.0635 102.401 15.6998 102.287 15.378 102.2L14.7915 102.041L15.6535 99.6972L16.1582 99.8536C17.1242 100.153 20.3232 101.215 22.8034 103.696C25.2844 106.176 26.3467 109.375 26.6461 110.342L26.8024 110.846L24.4377 111.715L24.294 111.103C24.2064 110.73 24.0927 110.364 23.9537 110.007L23.9549 110.01L24.471 109.802L23.9525 110.004L23.9537 110.007L18.0877 102.721ZM16.0578 101.823C16.0615 101.824 16.0651 101.825 16.0687 101.826L16.0578 101.823ZM15.5395 103.398C15.3234 103.326 15.1368 103.272 14.976 103.229L14.4388 104.686C14.4203 104.681 14.4017 104.676 14.3831 104.671L14.2456 105.211L14.5693 105.33C14.8271 105.457 15.0497 105.649 15.2134 105.889C15.4425 106.226 15.5406 106.635 15.4893 107.039C15.438 107.443 15.2409 107.814 14.9349 108.083C14.629 108.351 14.2354 108.499 13.8282 108.498C13.7011 108.496 13.5751 108.479 13.4526 108.448C13.4625 108.451 13.4724 108.453 13.4823 108.455L13.0978 108.315L12.8445 108.81C12.8649 108.821 12.8854 108.831 12.906 108.841L10.4257 115.64L9.98529 115.801L10.1763 116.323L10.6991 116.514L10.8598 116.074L12.602 115.437C12.563 115.254 12.5654 115.065 12.609 114.884C12.6525 114.702 12.7361 114.532 12.8537 114.387C12.9713 114.242 13.1198 114.125 13.2884 114.045C13.457 113.965 13.6415 113.923 13.8282 113.924C14.0529 113.923 14.2735 113.983 14.4666 114.098C14.6597 114.212 14.8179 114.378 14.9242 114.575L23.2715 111.55C23.2153 111.34 23.1446 111.079 23.0334 110.765C23.1165 110.666 23.1912 110.56 23.2566 110.447L23.0951 110.353L23.4229 110.223L23.4224 110.221C23.3934 110.149 23.3561 110.08 23.3347 110.04L23.3346 110.04L23.3317 110.035C23.3037 109.983 23.2938 109.964 23.2884 109.951L22.8554 108.924L22.3972 109.711L20.8839 108.318C21.0158 108.258 21.1593 108.224 21.3068 108.219L22.397 108.183L21.7275 107.322C21.3834 106.879 21 106.431 20.5335 105.965C18.9488 104.38 17.417 103.536 16.2801 103.078L16.2788 103.077C15.7967 102.884 15.4158 102.771 15.1199 102.692L14.6294 102.56L13.51 105.597L14.1081 105.75C14.1242 105.754 14.1401 105.758 14.1559 105.763L13.834 107.941C14.104 107.941 14.3648 107.843 14.5677 107.665C14.7716 107.485 14.9031 107.238 14.9373 106.969C14.9714 106.699 14.906 106.427 14.7533 106.202C14.61 105.992 14.3989 105.837 14.1559 105.763L14.6294 102.56L15.5395 103.398ZM20.8757 107.155C21.0205 107.326 21.1571 107.495 21.2882 107.663C21.0986 107.669 20.9133 107.708 20.7396 107.775C20.7213 107.782 20.703 107.79 20.6849 107.798C20.7406 107.867 20.7951 107.936 20.8488 108.005L21.2882 107.663L21.2695 107.107C21.1362 107.111 21.0044 107.128 20.8757 107.155ZM20.4517 107.92L20.8839 108.318C20.757 108.375 20.6409 108.456 20.5422 108.558C20.3411 108.766 20.2284 109.044 20.2278 109.333C20.2278 109.628 20.3451 109.911 20.5538 110.12C20.7625 110.328 21.0456 110.446 21.3407 110.446C21.7454 110.446 22.097 110.227 22.2947 109.887L22.3972 109.711L23.094 110.353L22.7756 110.167L22.2628 110.383C22.2911 110.45 22.3265 110.516 22.3475 110.555L22.3523 110.564C22.3646 110.586 22.373 110.602 22.3799 110.616L22.3856 110.627C22.3856 110.627 22.3856 110.627 22.3856 110.627M8.5 117.668L8.55921 117.507L15.2364 99.2224L15.2374 99.2196L15.3244 98.9854L15.571 99.0468L15.5725 99.0472L15.5806 99.0492L15.6163 99.0586C15.6486 99.0673 15.6976 99.0806 15.7618 99.099C15.8903 99.1356 16.0796 99.1921 16.3176 99.2699C16.794 99.4257 17.4639 99.6666 18.2318 100.005C19.7735 100.685 21.6813 101.747 23.2169 103.283C24.7524 104.818 25.8143 106.726 26.4944 108.268C26.8331 109.036 27.074 109.706 27.2298 110.182C27.3076 110.42 27.364 110.609 27.4007 110.738C27.419 110.802 27.4324 110.851 27.441 110.883L27.4504 110.919L27.4525 110.927L27.4529 110.929L27.5143 111.175L27.2801 111.262L27.2773 111.263L8.99264 117.94L8.83158 118L8.5 117.668ZM15.6368 111.002C15.6368 110.818 15.7101 110.641 15.8405 110.51C15.971 110.38 16.1479 110.306 16.3324 110.306C16.5169 110.306 16.6938 110.38 16.8243 110.51C16.9547 110.641 17.028 110.818 17.028 111.002C17.028 111.186 16.9547 111.363 16.8243 111.494C16.6938 111.624 16.5169 111.698 16.3324 111.698C16.1479 111.698 15.971 111.624 15.8405 111.494C15.7101 111.363 15.6368 111.186 15.6368 111.002Z" fill="#323133"/>
<path d="M18.6257 161.271V161.996C18.6257 162.765 18.3219 163.503 17.7811 164.046C17.2403 164.59 16.5068 164.896 15.742 164.896C14.9772 164.896 14.2438 164.59 13.703 164.046C13.1622 163.503 12.8584 162.765 12.8584 161.996V161.271M23.4774 159.795C22.3204 158.371 21.5035 157.645 21.5035 153.719C21.5035 150.123 19.6778 148.842 18.1751 148.22C17.9755 148.138 17.7876 147.948 17.7268 147.742C17.4632 146.84 16.7243 146.045 15.742 146.045C14.7598 146.045 14.0204 146.84 13.7595 147.743C13.6987 147.951 13.5108 148.138 13.3112 148.22C11.8067 148.843 9.98281 150.12 9.98281 153.719C9.98055 157.645 9.16367 158.371 8.0066 159.795C7.52719 160.385 7.94712 161.271 8.78564 161.271H22.7029C23.5369 161.271 23.9541 160.382 23.4774 159.795Z" stroke="#323133" stroke-width="1.56818" stroke-linecap="round" stroke-linejoin="round"/>
<rect x="15.1953" y="143.104" width="13" height="13" rx="6.5" fill="#323133"/>
<path d="M23.7915 152.632H19.6179V151.754L21.1167 150.239C21.4189 149.929 21.6612 149.67 21.8436 149.463C22.0287 149.254 22.1621 149.063 22.2438 148.892C22.3282 148.72 22.3704 148.536 22.3704 148.34C22.3704 148.104 22.3037 147.927 22.1703 147.809C22.0396 147.69 21.864 147.63 21.6435 147.63C21.4121 147.63 21.1874 147.683 20.9696 147.789C20.7518 147.895 20.5245 148.046 20.2876 148.242L19.6016 147.43C19.7731 147.283 19.9541 147.144 20.1447 147.013C20.338 146.882 20.5613 146.778 20.8145 146.699C21.0704 146.617 21.3767 146.576 21.7333 146.576C22.1254 146.576 22.4616 146.647 22.742 146.789C23.0252 146.93 23.243 147.123 23.3954 147.368C23.5479 147.611 23.6241 147.886 23.6241 148.193C23.6241 148.523 23.5588 148.824 23.4281 149.096C23.2974 149.368 23.1068 149.638 22.8564 149.904C22.6086 150.171 22.3091 150.467 21.9579 150.791L21.1902 151.513V151.571H23.7915V152.632Z" fill="white"/>
<path d="M69.9375 14.75H69.0488L68.7338 14.4463C69.8744 13.1233 70.5012 11.4343 70.5 9.6875C70.5 8.24123 70.0711 6.82743 69.2676 5.6249C68.4641 4.42236 67.3221 3.4851 65.9859 2.93163C64.6497 2.37817 63.1794 2.23336 61.7609 2.51551C60.3424 2.79767 59.0395 3.49411 58.0168 4.51678C56.9941 5.53946 56.2977 6.84242 56.0155 8.2609C55.7334 9.67939 55.8782 11.1497 56.4316 12.4859C56.9851 13.8221 57.9224 14.9641 59.1249 15.7676C60.3274 16.5711 61.7412 17 63.1875 17C64.9988 17 66.6638 16.3363 67.9463 15.2338L68.25 15.5488V16.4375L73.875 22.0513L75.5513 20.375L69.9375 14.75ZM63.1875 14.75C60.3863 14.75 58.125 12.4888 58.125 9.6875C58.125 6.88625 60.3863 4.625 63.1875 4.625C65.9888 4.625 68.25 6.88625 68.25 9.6875C68.25 12.4888 65.9888 14.75 63.1875 14.75Z" fill="#323133"/>
<circle cx="64.973" cy="55.0252" r="5.80266" transform="rotate(-30 64.973 55.0252)" stroke="#323133" stroke-width="0.8"/>
<rect x="67.602" y="61.5089" width="1.92776" height="7.56654" transform="rotate(-30 67.602 61.5089)" fill="#323133" stroke="#323133" stroke-width="0.8"/>
<path d="M62.375 54.9451L63.634 57.8827C65.1727 55.6445 68.9216 50.9164 71.6074 49.9092" stroke="#323133" stroke-width="1.5"/>
<path d="M58.6108 97.9014C58.2147 97.9634 58.0487 98.2171 58.0948 98.5928C58.136 98.9441 58.3545 99.1188 58.7199 99.0763C59.1376 99.0201 59.3603 98.7701 59.3179 98.3977C59.2772 98.0535 59.001 97.8609 58.6108 97.9014Z" fill="#323133"/>
<path d="M68.7141 95.4371C68.4795 95.7903 68.4526 96.188 68.5422 96.5824C68.5989 96.8337 68.7311 97.0453 69.0446 97.0235C69.5104 96.9432 69.444 96.5828 69.3986 96.2813C69.3298 95.8185 68.9969 95.4347 68.7141 95.4371Z" fill="#323133"/>
<path d="M54.7256 105.724C54.462 105.443 54.1254 105.243 53.7195 105.196C53.5568 105.071 53.4274 105.096 53.4005 105.307C53.3326 105.855 53.9924 106.577 54.5547 106.576C54.6475 106.592 54.7366 106.604 54.7908 106.499C55.1454 106.206 54.925 105.936 54.7256 105.724Z" fill="#323133"/>
<path d="M63.5809 103.687C63.4465 103.748 63.3385 103.839 63.4012 104.009C63.4676 104.182 63.6014 104.234 63.7682 104.182C63.942 104.129 64.002 104.002 63.96 103.824C63.8766 103.663 63.7465 103.614 63.5809 103.687Z" fill="#323133"/>
<path d="M66.0266 94.1194C65.8735 94.1636 65.8094 94.2806 65.868 94.4398C65.9228 94.5958 66.0392 94.6527 66.1915 94.5943C66.3404 94.5396 66.4124 94.4364 66.3687 94.2904C66.2982 94.107 66.1656 94.0759 66.0266 94.1194Z" fill="#323133"/>
<path d="M60.1043 101.478C60.0614 101.781 60.2345 102.089 59.9526 102.233C59.6708 102.377 59.5255 102.06 59.3276 101.937C58.9425 101.694 58.5703 101.429 58.0763 101.511C57.7677 101.37 57.4834 101.471 57.1975 101.605C57.0291 101.629 56.8966 101.725 56.7605 101.818C56.3789 102.073 56.3139 102.424 56.4578 102.84C56.6647 103.433 57.0909 103.839 57.5682 104.211C57.7827 104.375 58.0673 104.468 58.1891 104.744C58.1384 104.786 58.0878 104.828 58.0371 104.87C57.9691 104.856 57.9131 104.866 57.8707 104.929C57.8077 104.94 57.7409 104.947 57.6812 104.954C57.4951 104.916 57.2833 104.861 57.1672 105.058C57.0961 105.176 57.209 105.297 57.3088 105.372C57.8598 105.796 58.445 106.137 59.1719 106.109C59.8521 106.193 60.5022 105.996 61.1662 105.918C61.4066 105.978 61.6091 105.871 61.8121 105.771C61.9398 105.777 62.0472 105.739 62.1258 105.629C62.5081 105.447 62.42 105.141 62.3323 104.842C62.126 104.136 61.8574 103.455 61.6441 102.75C61.4225 102.023 60.7376 101.794 60.1043 101.478ZM58.7369 104.489C58.7662 104.382 58.847 104.373 58.9328 104.39C59.4439 104.484 59.9545 104.57 60.4326 104.769C60.4213 104.819 60.417 104.869 60.4057 104.919C59.8959 104.846 59.3827 104.777 58.8762 104.701C58.7763 104.685 58.7018 104.619 58.7369 104.489ZM59.582 105.671C59.5082 105.679 59.4365 105.662 59.4147 105.589C59.3875 105.484 59.4768 105.437 59.5572 105.421C60.2963 105.297 61.0339 105.144 61.7879 105.408C61.0539 105.497 60.3198 105.585 59.582 105.671ZM57.7853 102.678C57.9958 102.524 58.1428 102.621 58.2894 102.712C59.3959 103.39 60.4987 104.065 61.6085 104.739C61.6735 104.824 61.8147 104.883 61.6954 105.024C60.3469 104.318 59.0598 103.512 57.7853 102.678ZM62.0342 105.447C62.0536 105.477 62.0697 105.512 62.0854 105.539C62.0697 105.512 62.0503 105.481 62.0342 105.447ZM61.7409 104.268C61.8024 104.417 61.6794 104.367 61.6051 104.368C61.3829 103.942 60.9292 103.799 60.5715 103.541C60.5235 103.505 60.3921 103.495 60.4636 103.384C60.4832 103.355 60.5652 103.368 60.6179 103.361C60.7939 103.471 60.9662 103.578 61.179 103.714C61.1577 103.4 60.8969 103.168 60.9711 102.792C61.3627 103.275 61.5433 103.778 61.7409 104.268Z" fill="#323133"/>
<path d="M62.3247 95.3286C62.2014 95.3994 62.2445 95.5985 62.2637 95.7495C62.2544 95.8349 62.2521 95.9199 62.2429 96.0053C62.2441 96.0265 62.2419 96.0514 62.2431 96.0725L62.2439 96.0866C62.1734 96.5257 62.3164 96.9277 62.4732 97.3217C62.5231 97.4532 62.6108 97.5648 62.7791 97.5408C62.8922 97.6014 62.995 97.606 63.0844 97.4983C63.2856 97.4299 63.3357 97.2537 63.3788 97.0779C63.5343 96.4534 63.3086 95.9043 62.7199 95.5C62.5952 95.4224 62.465 95.2461 62.3247 95.3286Z" fill="#323133"/>
<path d="M69.5475 99.7918C69.5172 99.6309 69.4703 99.4285 69.3083 99.3778C69.1645 99.3367 69.116 99.5411 69.0262 99.6418C68.5899 100.116 68.1547 100.05 67.927 99.4654C67.807 99.1577 67.721 98.8267 67.5184 98.5591C67.2583 98.2135 66.9841 97.8688 66.4668 97.9768C65.8717 98.0221 65.5173 98.3823 65.2864 99.1739C65.1737 99.5553 65.0973 99.581 64.796 99.3192C64.7327 99.2627 64.6798 99.2022 64.6198 99.142C64.5035 99.025 64.4176 99.0689 64.3796 99.2091C64.1873 99.9347 63.9648 100.687 64.3025 101.403C64.7166 102.281 65.1407 103.147 65.3854 104.095C65.4586 104.388 65.6414 104.617 66.0005 104.589C66.2352 104.611 66.4657 104.622 66.6568 104.438C66.685 104.436 66.7057 104.428 66.7335 104.419C67.0637 104.379 67.1372 104.116 67.2252 103.86C67.1075 103.842 66.9864 103.828 66.865 103.807C66.7245 103.949 66.5721 104.068 66.3553 104.049C66.2866 104.021 66.273 103.969 66.2798 103.901C66.1243 103.903 66.0547 103.861 66.0295 103.792C66.0547 103.861 66.1209 103.907 66.2798 103.901C66.4956 103.779 66.7077 103.653 66.9269 103.527C66.9451 103.537 66.96 103.55 66.9783 103.56C66.9799 103.588 66.9848 103.612 66.9864 103.641C67.1129 103.626 67.236 103.615 67.3625 103.601C67.3754 103.579 67.3883 103.557 67.4012 103.535C67.6959 103.182 68.0659 102.909 68.4094 102.606C69.2518 101.871 69.7702 100.974 69.5475 99.7918ZM65.6899 103.416C65.3946 102.637 65.3568 101.847 64.8587 101.109C65.4996 101.372 65.8734 102.475 65.6899 103.416ZM65.563 101.181C65.4291 101.189 65.4171 100.977 65.3972 100.752C65.3988 100.593 65.3918 100.345 65.4632 100.108C65.4903 100.025 65.5357 99.9515 65.6364 99.981C65.7155 100.005 65.7095 100.086 65.7098 100.154C65.7081 100.373 65.7205 100.592 65.7118 100.811C65.6987 100.954 65.7534 101.17 65.563 101.181ZM66.0579 103.483C66.1613 102.437 66.3752 101.409 66.5676 100.376C66.5844 100.297 66.5725 100.213 66.5785 100.131C66.5883 99.9927 66.5554 99.8496 66.5582 99.7115C66.5592 99.8529 66.5921 99.996 66.5785 100.131C66.7018 99.8729 66.7678 99.6038 66.7444 99.3152L66.7373 99.3156C66.8236 99.2787 66.8196 99.2082 66.8011 99.1315L66.8057 99.1489C66.9373 98.8512 66.9944 98.6746 66.9802 98.5481C66.9874 98.675 66.9373 98.8512 66.8057 99.1489C67.0376 99.0611 67.1536 99.1109 67.1054 99.3825C67.0626 99.6255 67.0268 99.8681 66.9911 100.111C66.9786 100.14 66.9628 100.172 66.954 100.205C66.9104 100.434 66.8668 100.663 66.827 100.895C66.653 101.63 66.4931 102.364 66.3083 103.097C66.2633 103.237 66.2786 103.445 66.0579 103.483ZM67.074 102.567C67.4467 102.404 67.7534 102.263 68.0675 102.127C68.1505 102.094 68.2626 102.014 68.3225 102.134C68.4018 102.285 68.2405 102.308 68.1549 102.359C67.9013 102.501 67.6436 102.633 67.3899 102.775C67.1172 102.954 66.8411 103.136 66.5068 103.354C66.5751 102.625 67.0069 102.133 67.3297 101.59C67.2655 101.58 67.2083 101.569 67.1544 101.555C67.2083 101.569 67.2725 101.58 67.3297 101.59C67.3563 101.561 67.3796 101.535 67.4062 101.505C67.4328 101.475 67.4557 101.442 67.4823 101.412C67.5089 101.382 67.5388 101.348 67.5691 101.322C67.8465 101.101 67.9941 100.71 68.4868 100.667C68.1685 101.414 67.4011 101.788 67.074 102.567Z" fill="#323133"/>
<path d="M66.8743 103.813C66.992 103.831 67.113 103.845 67.2345 103.866C67.279 103.779 67.324 103.698 67.3685 103.611C67.242 103.625 67.1189 103.636 66.9924 103.651C66.9529 103.702 66.9134 103.754 66.8743 103.813Z" fill="#323133"/>
<path d="M76.6431 92.8388C76.0683 92.4939 75.2575 92.7888 74.841 93.4886C74.841 93.4886 73.2926 97.0485 72.7542 97.9676C71.9737 99.2935 69.8928 102.881 69.8928 102.881C69.1658 103.967 68.9979 104.995 68.9639 105.581L59.424 109.341C59.2995 109.391 59.2403 109.532 59.2861 109.654C59.3356 109.778 59.4769 109.837 59.598 109.791L69.3554 105.936C69.4387 105.97 69.5704 106.047 69.6783 106.204L70.2671 105.985C70.2671 105.985 70.0364 105.847 69.878 105.672L69.8813 105.668C69.8813 105.668 69.643 105.021 69.9358 104.385C70.5596 103.04 71.0866 102.231 73.7474 98.7055C74.4908 97.7213 76.9203 94.7325 76.9203 94.7325C77.3476 94.0356 77.2179 93.1837 76.6431 92.8388Z" fill="#323133"/>
<path d="M71.4867 105.412L58.2777 110.635C58.0009 110.743 57.8191 111.03 57.8641 111.324C57.93 111.738 58.3566 111.964 58.7197 111.819C59.0484 111.69 59.415 111.856 59.5433 112.185C59.5437 112.192 59.5511 112.199 59.5515 112.206C60.638 114.961 64.1852 116.148 67.4713 114.852C70.7574 113.557 72.5437 110.263 71.4568 107.5C71.4568 107.5 71.453 107.497 71.4564 107.493C71.324 107.155 71.4794 106.778 71.8147 106.641L71.9288 106.596C72.2056 106.488 72.3873 106.201 72.3423 105.907C72.2801 105.497 71.8535 105.27 71.4867 105.412ZM70.5717 107.609C70.4463 107.892 70.4465 108.207 70.5583 108.494C71.4097 110.658 69.9627 113.264 67.3339 114.302C64.7052 115.339 61.8772 114.425 61.0225 112.265L61.018 112.247C60.9099 111.964 60.6923 111.743 60.4164 111.618C60.3439 111.586 60.2939 111.515 60.2965 111.437C60.2992 111.359 60.3449 111.293 60.4175 111.264L60.4383 111.256L62.5717 110.961L61.3853 111.43C61.3335 111.451 61.2969 111.492 61.2786 111.543C61.2606 111.6 61.2746 111.66 61.3056 111.707C61.3825 111.816 61.4457 111.932 61.4915 112.054L61.496 112.071C62.2513 113.976 64.7818 114.758 67.1512 113.824C69.5207 112.89 70.836 110.582 70.0844 108.68C70.0349 108.556 69.9991 108.424 69.9807 108.287C69.9738 108.227 69.9391 108.176 69.8877 108.144C69.8401 108.115 69.7833 108.111 69.7315 108.132L68.5555 108.596L70.3305 107.347C70.4032 107.318 70.4819 107.335 70.5382 107.391C70.5874 107.449 70.603 107.536 70.5717 107.609Z" fill="#323133"/>
<path d="M58.3819 145.478L76.4894 143.373L71.8175 160.786L67.1828 150.59L67.0813 150.366L66.8674 150.246L58.3819 145.478Z" stroke="#323133" stroke-width="1.5"/>
<rect x="53.5" y="150.5" width="13" height="13" rx="6.5" fill="#323133"/>
<path d="M62.0078 159.896H58.0156V159.057L59.4492 157.607C59.7383 157.311 59.9701 157.063 60.1445 156.865C60.3216 156.665 60.4492 156.482 60.5273 156.318C60.6081 156.154 60.6484 155.979 60.6484 155.791C60.6484 155.564 60.5846 155.395 60.457 155.283C60.332 155.169 60.1641 155.111 59.9531 155.111C59.7318 155.111 59.5169 155.162 59.3086 155.264C59.1003 155.365 58.8828 155.51 58.6562 155.697L58 154.92C58.1641 154.779 58.3372 154.646 58.5195 154.521C58.7044 154.396 58.918 154.296 59.1602 154.221C59.4049 154.143 59.6979 154.104 60.0391 154.104C60.4141 154.104 60.7357 154.171 61.0039 154.307C61.2747 154.442 61.4831 154.627 61.6289 154.861C61.7747 155.093 61.8477 155.356 61.8477 155.65C61.8477 155.965 61.7852 156.253 61.6602 156.514C61.5352 156.774 61.3529 157.032 61.1133 157.287C60.8763 157.542 60.5898 157.825 60.2539 158.135L59.5195 158.826V158.881H62.0078V159.896Z" fill="white"/>
<path d="M122 12.0053C122 12.1981 121.921 12.3829 121.78 12.5192C121.64 12.6555 121.449 12.7321 121.25 12.7321H113.006C112.807 12.7321 112.617 12.6555 112.476 12.5192C112.335 12.3829 112.256 12.1981 112.256 12.0053C112.256 11.8126 112.335 11.6277 112.476 11.4914C112.617 11.3551 112.807 11.2785 113.006 11.2785H121.25C121.449 11.2785 121.64 11.3551 121.78 11.4914C121.921 11.6277 122 11.8126 122 12.0053ZM113.006 6.91778H121.25C121.449 6.91778 121.64 6.84121 121.78 6.70491C121.921 6.56861 122 6.38375 122 6.19099C122 5.99824 121.921 5.81337 121.78 5.67708C121.64 5.54078 121.449 5.4642 121.25 5.4642H113.006C112.807 5.4642 112.617 5.54078 112.476 5.67708C112.335 5.81337 112.256 5.99824 112.256 6.19099C112.256 6.38375 112.335 6.56861 112.476 6.70491C112.617 6.84121 112.807 6.91778 113.006 6.91778ZM121.25 17.0928H113.006C112.807 17.0928 112.617 17.1694 112.476 17.3057C112.335 17.442 112.256 17.6269 112.256 17.8196C112.256 18.0124 112.335 18.1972 112.476 18.3335C112.617 18.4698 112.807 18.5464 113.006 18.5464H121.25C121.449 18.5464 121.64 18.4698 121.78 18.3335C121.921 18.1972 122 18.0124 122 17.8196C122 17.6269 121.921 17.442 121.78 17.3057C121.64 17.1694 121.449 17.0928 121.25 17.0928ZM109.127 4.20141L106.382 6.65432L105.267 5.65499C105.12 5.52975 104.928 5.46547 104.732 5.47593C104.537 5.48638 104.353 5.57074 104.221 5.71092C104.088 5.8511 104.018 6.03596 104.024 6.22588C104.031 6.41581 104.114 6.59569 104.256 6.727L105.876 8.18058C106.014 8.30324 106.195 8.3713 106.382 8.37136C106.572 8.37181 106.756 8.30383 106.898 8.18058L110.139 5.27342C110.214 5.20965 110.275 5.13198 110.319 5.04498C110.363 4.95798 110.388 4.8634 110.394 4.76678C110.399 4.67015 110.385 4.57344 110.351 4.48231C110.317 4.39119 110.265 4.30747 110.198 4.23609C110.131 4.16471 110.049 4.10709 109.959 4.06662C109.868 4.02615 109.77 4.00364 109.67 4.00041C109.57 3.99717 109.471 4.01329 109.378 4.04781C109.285 4.08232 109.199 4.13454 109.127 4.20141ZM109.127 10.0157L106.382 12.4686L105.267 11.4693C105.195 11.4024 105.11 11.3502 105.017 11.3157C104.924 11.2812 104.824 11.2651 104.724 11.2683C104.625 11.2715 104.527 11.294 104.436 11.3345C104.345 11.375 104.264 11.4326 104.197 11.504C104.129 11.5754 104.077 11.6591 104.044 11.7502C104.01 11.8413 103.996 11.9381 104.001 12.0347C104.007 12.1313 104.032 12.2259 104.076 12.3129C104.119 12.3999 104.181 12.4775 104.256 12.5413L105.876 13.9949C106.014 14.1176 106.195 14.1856 106.382 14.1857C106.572 14.1861 106.756 14.1182 106.898 13.9949L110.139 11.0877C110.214 11.024 110.275 10.9463 110.319 10.8593C110.363 10.7723 110.388 10.6777 110.394 10.5811C110.399 10.4845 110.385 10.3878 110.351 10.2966C110.317 10.2055 110.265 10.1218 110.198 10.0504C110.131 9.97903 110.049 9.92141 109.959 9.88094C109.868 9.84047 109.77 9.81795 109.67 9.81472C109.57 9.81149 109.471 9.82761 109.378 9.86212C109.285 9.89664 109.199 9.94886 109.127 10.0157ZM109.127 15.83L106.382 18.283L105.267 17.2836C105.195 17.2168 105.11 17.1645 105.017 17.13C104.924 17.0955 104.824 17.0794 104.724 17.0826C104.625 17.0859 104.527 17.1084 104.436 17.1488C104.345 17.1893 104.264 17.2469 104.197 17.3183C104.129 17.3897 104.077 17.4734 104.044 17.5645C104.01 17.6557 103.996 17.7524 104.001 17.849C104.007 17.9456 104.032 18.0402 104.076 18.1272C104.119 18.2142 104.181 18.2919 104.256 18.3556L105.876 19.8092C106.014 19.9319 106.195 19.9999 106.382 20C106.572 20.0005 106.756 19.9325 106.898 19.8092L110.139 16.9021C110.281 16.7708 110.364 16.5909 110.37 16.4009C110.377 16.211 110.306 16.0262 110.174 15.886C110.042 15.7458 109.858 15.6614 109.662 15.651C109.467 15.6405 109.275 15.7048 109.127 15.83Z" fill="#323133"/>
<path d="M121.671 55.333C121.672 54.1033 121.411 52.8874 120.905 51.7666C120.399 50.6457 119.66 49.6456 118.737 48.833L117.855 49.833C118.578 50.4716 119.168 51.2466 119.591 52.1136C120.014 52.9806 120.262 53.9226 120.321 54.8856C120.379 55.8486 120.247 56.8136 119.932 57.7255C119.617 58.6373 119.125 59.478 118.484 60.1994C117.843 60.9208 117.067 61.5087 116.199 61.9294C115.33 62.3501 114.388 62.5954 113.425 62.6511C112.461 62.7069 111.497 62.5721 110.586 62.2543C109.675 61.9366 108.835 61.4423 108.116 60.7997L107.227 61.793C108.643 63.0629 110.44 63.8293 112.337 63.973V66.6663H108.337V67.9997H117.671V66.6663H113.671V63.9743C115.847 63.8064 117.88 62.8231 119.364 61.2211C120.847 59.619 121.671 57.5162 121.671 55.333Z" fill="#323133"/>
<path d="M113.003 50.667C112.39 50.667 111.783 50.7877 111.217 51.0222C110.651 51.2567 110.136 51.6005 109.703 52.0338C109.269 52.4672 108.926 52.9816 108.691 53.5478C108.457 54.114 108.336 54.7208 108.336 55.3337C108.336 55.9465 108.457 56.5533 108.691 57.1195C108.926 57.6857 109.269 58.2001 109.703 58.6335C110.136 59.0668 110.651 59.4106 111.217 59.6451C111.783 59.8796 112.39 60.0003 113.003 60.0003C114.24 60.0003 115.427 59.5087 116.302 58.6335C117.178 57.7583 117.669 56.5713 117.669 55.3337C117.669 54.096 117.178 52.909 116.302 52.0338C115.427 51.1587 114.24 50.667 113.003 50.667Z" fill="#323133"/>
<mask id="path-30-outside-1_627_2135" maskUnits="userSpaceOnUse" x="97.1637" y="87.21" width="29.4057" height="29.8931" fill="black">
<rect fill="white" x="97.1637" y="87.21" width="29.4057" height="29.8931"/>
<path d="M104.296 95.7574L123.509 103.355C123.911 103.512 124.176 103.929 124.11 104.357C124.014 104.958 123.394 105.287 122.866 105.077C122.388 104.889 121.855 105.131 121.668 105.609C121.667 105.619 121.657 105.628 121.656 105.639C120.076 109.646 114.916 111.372 110.137 109.488C105.357 107.605 102.759 102.813 104.34 98.795C104.34 98.795 104.345 98.7902 104.34 98.7847C104.533 98.2918 104.307 97.7437 103.819 97.5454L103.653 97.4792C103.251 97.3219 102.986 96.9053 103.052 96.477C103.142 95.8804 103.763 95.5513 104.296 95.7574ZM105.627 98.9524C105.809 99.3643 105.809 99.8221 105.646 100.24C104.408 103.388 106.513 107.178 110.336 108.687C114.16 110.196 118.273 108.867 119.516 105.725L119.523 105.699C119.68 105.287 119.997 104.966 120.398 104.783C120.503 104.738 120.576 104.634 120.572 104.521C120.569 104.408 120.502 104.311 120.396 104.269L120.366 104.257L117.263 103.829L118.989 104.511C119.064 104.541 119.117 104.601 119.144 104.674C119.17 104.758 119.15 104.844 119.105 104.914C118.993 105.072 118.901 105.241 118.834 105.417L118.828 105.443C117.729 108.213 114.048 109.351 110.602 107.993C107.156 106.634 105.243 103.277 106.336 100.511C106.408 100.33 106.46 100.138 106.487 99.9388C106.497 99.8519 106.547 99.7777 106.622 99.7306C106.691 99.6884 106.774 99.6829 106.849 99.713L108.56 100.389L105.978 98.5716C105.872 98.5294 105.758 98.5536 105.676 98.6363C105.604 98.7196 105.582 98.8469 105.627 98.9524Z"/>
</mask>
<path d="M104.296 95.7574L104.656 94.8245L104.664 94.8274L104.296 95.7574ZM123.509 103.355L123.145 104.286L123.141 104.285L123.509 103.355ZM124.11 104.357L125.099 104.508L125.098 104.514L124.11 104.357ZM122.866 105.077L123.231 104.145L123.237 104.148L122.866 105.077ZM121.668 105.609L120.67 105.552L120.679 105.393L120.736 105.245L121.668 105.609ZM121.656 105.639L122.654 105.695L122.645 105.856L122.586 106.006L121.656 105.639ZM104.34 98.795L103.409 98.4289L103.496 98.2071L103.674 98.0485L104.34 98.795ZM104.34 98.7847L103.594 99.45L103.186 98.9921L103.409 98.4208L104.34 98.7847ZM103.819 97.5454L104.19 96.6167L104.196 96.619L103.819 97.5454ZM103.653 97.4792L104.017 96.5477L104.024 96.5505L103.653 97.4792ZM103.052 96.477L104.04 96.6269L104.04 96.6281L103.052 96.477ZM105.627 98.9524L104.713 99.3573L104.709 99.3479L105.627 98.9524ZM105.646 100.24L106.578 100.602L106.577 100.606L105.646 100.24ZM119.516 105.725L120.484 105.976L120.469 106.036L120.446 106.093L119.516 105.725ZM119.523 105.699L118.555 105.448L118.569 105.395L118.588 105.344L119.523 105.699ZM120.398 104.783L119.984 103.873L119.994 103.869L120.003 103.865L120.398 104.783ZM120.396 104.269L120.026 105.198L120.026 105.198L120.396 104.269ZM120.366 104.257L120.503 103.266L120.624 103.283L120.737 103.328L120.366 104.257ZM117.263 103.829L116.896 104.759L117.4 102.838L117.263 103.829ZM118.989 104.511L119.356 103.581L119.359 103.582L118.989 104.511ZM119.144 104.674L120.084 104.333L120.092 104.355L120.099 104.377L119.144 104.674ZM119.105 104.914L119.943 105.459L119.932 105.475L119.921 105.491L119.105 104.914ZM118.834 105.417L117.866 105.166L117.88 105.114L117.899 105.064L118.834 105.417ZM118.828 105.443L119.796 105.694L119.78 105.754L119.757 105.811L118.828 105.443ZM106.336 100.511L105.406 100.144L105.407 100.142L106.336 100.511ZM106.487 99.9388L107.48 100.054L107.479 100.063L107.478 100.072L106.487 99.9388ZM106.622 99.7306L106.089 98.8847L106.095 98.8808L106.101 98.8769L106.622 99.7306ZM106.849 99.713L106.482 100.643L106.478 100.642L106.849 99.713ZM108.56 100.389L109.135 99.5712L108.192 101.319L108.56 100.389ZM105.978 98.5716L106.349 97.6429L106.457 97.6864L106.553 97.7539L105.978 98.5716ZM105.676 98.6363L104.918 97.9844L104.94 97.9577L104.965 97.9328L105.676 98.6363ZM104.664 94.8274L123.877 102.425L123.141 104.285L103.928 96.6873L104.664 94.8274ZM123.873 102.423C124.671 102.735 125.241 103.576 125.099 104.508L123.122 104.206C123.116 104.243 123.127 104.268 123.131 104.275C123.135 104.28 123.138 104.283 123.145 104.286L123.873 102.423ZM125.098 104.514C124.9 105.758 123.61 106.45 122.495 106.005L123.237 104.148C123.203 104.134 123.174 104.142 123.16 104.15C123.152 104.154 123.143 104.161 123.135 104.172C123.127 104.185 123.123 104.196 123.123 104.2L125.098 104.514ZM122.501 106.008C122.509 106.011 122.521 106.013 122.535 106.013C122.547 106.013 122.557 106.01 122.566 106.006C122.582 105.999 122.594 105.985 122.599 105.972L120.736 105.245C121.119 104.266 122.224 103.751 123.231 104.145L122.501 106.008ZM122.666 105.665C122.662 105.75 122.647 105.823 122.63 105.881C122.614 105.939 122.596 105.986 122.581 106.02C122.566 106.054 122.552 106.08 122.544 106.095C122.54 106.103 122.536 106.11 122.534 106.114C122.531 106.118 122.53 106.121 122.529 106.121C122.529 106.122 122.53 106.12 122.531 106.117C122.533 106.115 122.536 106.109 122.54 106.103C122.547 106.09 122.559 106.066 122.573 106.035C122.587 106.004 122.604 105.959 122.62 105.904C122.635 105.848 122.65 105.777 122.654 105.695L120.658 105.582C120.662 105.497 120.677 105.425 120.693 105.366C120.71 105.308 120.728 105.261 120.743 105.227C120.758 105.194 120.772 105.167 120.78 105.152C120.784 105.144 120.788 105.138 120.79 105.133C120.792 105.13 120.794 105.126 120.794 105.126C120.795 105.125 120.794 105.127 120.792 105.13C120.791 105.133 120.788 105.138 120.784 105.145C120.777 105.157 120.765 105.181 120.751 105.212C120.737 105.244 120.72 105.288 120.704 105.344C120.688 105.399 120.674 105.47 120.67 105.552L122.666 105.665ZM122.586 106.006C120.746 110.673 114.904 112.442 109.77 110.419L110.503 108.558C114.929 110.302 119.406 108.62 120.726 105.272L122.586 106.006ZM109.77 110.419C104.635 108.395 101.569 103.106 103.409 98.4289L105.27 99.1611C103.949 102.52 106.079 106.814 110.503 108.558L109.77 110.419ZM104.34 98.795C103.674 98.0485 103.674 98.0488 103.674 98.0491C103.673 98.0492 103.673 98.0496 103.673 98.0498C103.672 98.0502 103.672 98.0507 103.671 98.0511C103.67 98.052 103.669 98.0529 103.668 98.0538C103.666 98.0556 103.664 98.0574 103.662 98.0593C103.658 98.063 103.654 98.067 103.65 98.071C103.641 98.0791 103.632 98.088 103.623 98.0976C103.605 98.1166 103.583 98.1398 103.561 98.1674C103.52 98.2186 103.46 98.3039 103.413 98.4223C103.364 98.5447 103.323 98.721 103.352 98.9288C103.383 99.144 103.479 99.321 103.594 99.45L105.087 98.1194C105.204 98.2512 105.302 98.4309 105.332 98.6485C105.362 98.8587 105.32 99.0372 105.271 99.1615C105.223 99.2817 105.162 99.3686 105.12 99.4209C105.097 99.449 105.076 99.4726 105.057 99.4919C105.047 99.5017 105.038 99.5107 105.03 99.5188C105.025 99.523 105.021 99.5269 105.017 99.5307C105.015 99.5325 105.013 99.5344 105.011 99.5362C105.01 99.5371 105.009 99.538 105.008 99.5389C105.007 99.5393 105.007 99.5398 105.007 99.5402C105.006 99.5404 105.006 99.5408 105.006 99.5409C105.005 99.5412 105.005 99.5415 104.34 98.795ZM103.409 98.4208C103.41 98.4187 103.409 98.4204 103.409 98.425C103.409 98.4291 103.41 98.4344 103.412 98.4403C103.415 98.4463 103.419 98.4531 103.425 98.4597C103.432 98.4667 103.439 98.4705 103.443 98.4719L104.196 96.619C105.208 97.0303 105.656 98.1641 105.272 99.1487L103.409 98.4208ZM103.448 98.4742L103.282 98.4079L104.024 96.5505L104.19 96.6167L103.448 98.4742ZM103.289 98.4106C102.491 98.0987 101.921 97.2576 102.063 96.3259L104.04 96.6281C104.046 96.5906 104.035 96.5658 104.03 96.5588C104.027 96.5538 104.024 96.5505 104.017 96.5477L103.289 98.4106ZM102.063 96.3271C102.254 95.0696 103.554 94.3987 104.656 94.8245L103.936 96.6902C103.963 96.7006 103.985 96.6949 103.998 96.6879C104.005 96.6836 104.015 96.6759 104.024 96.663C104.035 96.6487 104.039 96.6345 104.04 96.6269L102.063 96.3271ZM106.541 98.5475C106.838 99.2181 106.831 99.9529 106.578 100.602L104.715 99.8767C104.787 99.6913 104.78 99.5105 104.713 99.3572L106.541 98.5475ZM106.577 100.606C105.604 103.079 107.216 106.381 110.703 107.757L109.969 109.617C105.81 107.976 103.212 103.696 104.716 99.8735L106.577 100.606ZM110.703 107.757C114.191 109.134 117.61 107.825 118.587 105.357L120.446 106.093C118.936 109.91 114.129 111.259 109.969 109.617L110.703 107.757ZM118.549 105.473L118.555 105.448L120.491 105.951L120.484 105.976L118.549 105.473ZM118.588 105.344C118.846 104.668 119.36 104.157 119.984 103.873L120.812 105.694C120.634 105.775 120.515 105.906 120.458 106.055L118.588 105.344ZM120.003 103.865C119.772 103.964 119.561 104.212 119.573 104.555L121.572 104.487C121.591 105.056 121.234 105.512 120.793 105.702L120.003 103.865ZM119.573 104.555C119.582 104.831 119.756 105.09 120.026 105.198L120.767 103.34C121.248 103.532 121.555 103.984 121.572 104.487L119.573 104.555ZM120.026 105.198L119.995 105.186L120.737 103.328L120.767 103.34L120.026 105.198ZM120.23 105.247L117.126 104.819L117.4 102.838L120.503 103.266L120.23 105.247ZM117.631 102.899L119.356 103.581L118.621 105.441L116.896 104.759L117.631 102.899ZM119.359 103.582C119.723 103.727 119.969 104.016 120.084 104.333L118.204 105.015C118.265 105.185 118.405 105.354 118.618 105.44L119.359 103.582ZM120.099 104.377C120.232 104.804 120.113 105.196 119.943 105.459L118.266 104.369C118.186 104.492 118.109 104.712 118.189 104.972L120.099 104.377ZM119.921 105.491C119.854 105.586 119.804 105.681 119.77 105.771L117.899 105.064C117.998 104.802 118.131 104.558 118.288 104.336L119.921 105.491ZM119.802 105.669L119.796 105.694L117.86 105.191L117.866 105.166L119.802 105.669ZM119.757 105.811C118.384 109.274 113.995 110.405 110.235 108.923L110.969 107.063C114.102 108.298 117.074 107.153 117.898 105.074L119.757 105.811ZM110.235 108.923C106.476 107.441 104.038 103.603 105.406 100.144L107.266 100.879C106.447 102.95 107.836 105.828 110.969 107.063L110.235 108.923ZM105.407 100.142C105.45 100.033 105.48 99.9195 105.495 99.8057L107.478 100.072C107.439 100.356 107.366 100.628 107.265 100.881L105.407 100.142ZM105.493 99.8236C105.542 99.4073 105.783 99.0771 106.089 98.8847L107.155 100.577C107.311 100.478 107.452 100.297 107.48 100.054L105.493 99.8236ZM106.101 98.8769C106.451 98.6633 106.866 98.6428 107.22 98.7843L106.478 100.642C106.682 100.723 106.931 100.713 107.143 100.584L106.101 98.8769ZM107.217 98.783L108.927 99.4589L108.192 101.319L106.482 100.643L107.217 98.783ZM107.984 101.207L105.402 99.3893L106.553 97.7539L109.135 99.5712L107.984 101.207ZM105.607 99.5003C105.882 99.61 106.191 99.537 106.386 99.3398L104.965 97.9328C105.324 97.5703 105.863 97.4489 106.349 97.6429L105.607 99.5003ZM106.434 99.2882C106.603 99.0913 106.656 98.814 106.545 98.5569L104.709 99.3479C104.507 98.8797 104.605 98.3478 104.918 97.9844L106.434 99.2882Z" fill="#323133" mask="url(#path-30-outside-1_627_2135)"/>
<path d="M123.486 154.381C123.062 147.227 119.249 146.181 116.175 146.18C115.399 146.181 114.67 146.247 114.054 146.299C114.049 145.974 114.063 145.626 114.119 145.241C114.12 145.235 114.118 145.23 114.117 145.225C114.118 145.223 114.119 145.22 114.119 145.217C114.119 145.097 113.887 145 113.599 145C113.312 145 113.08 145.097 113.08 145.217C113.001 145.605 112.894 145.988 112.759 146.361C108.703 146.385 103.361 147.008 102.546 154.138C101.954 159.312 107.168 164 113.033 164C118.898 164 123.795 159.581 123.486 154.381ZM114.272 147.303C114.416 147.291 114.564 147.278 114.717 147.266C114.533 147.338 114.355 147.412 114.187 147.487C114.175 147.433 114.167 147.369 114.155 147.312L114.272 147.303ZM112.327 147.383C112.281 147.476 112.236 147.565 112.193 147.647C112.09 147.556 111.981 147.472 111.866 147.395C112.02 147.39 112.173 147.387 112.327 147.383ZM120.227 160.039C118.405 161.91 115.783 162.982 113.033 162.982C110.23 162.982 107.447 161.78 105.586 159.766C104.079 158.133 103.369 156.175 103.59 154.25C104.003 150.637 105.652 148.912 107.768 148.094C109.818 147.725 111.747 148.403 111.747 148.403C111.747 148.403 107.362 147.348 105.643 152.81C107.807 149.539 111.531 150.502 112.51 149.296C112.51 151.627 114.258 150.496 115.141 151.546C116.277 152.896 116.693 155.314 118 155.79C116.712 153.111 118.82 153.216 115.859 149.62C117.419 150.56 118.227 149.609 120.358 150.456C118.535 147.568 115.62 148.403 115.62 148.403C115.62 148.403 116.806 147.355 118.064 147.384C120.189 147.865 122.144 149.484 122.438 154.44C122.558 156.463 121.773 158.452 120.227 160.039Z" fill="#323133"/>
<path d="M165.505 2H152.249C151.293 2 150.877 2.69727 150.877 3.35352V5.96441H150.151C149.792 5.96441 149.5 6.25217 149.5 6.60722C149.5 6.96223 149.792 7.25 150.151 7.25H150.877V9.89042H150.213C149.854 9.89042 149.562 10.1782 149.562 10.5332C149.562 10.8883 149.854 11.176 150.213 11.176H150.877V13.8306H150.199C149.839 13.8306 149.548 14.1183 149.548 14.4734C149.548 14.8284 149.839 15.1162 150.199 15.1162H150.877V17.7507H150.199C149.839 17.7507 149.548 18.0384 149.548 18.3935C149.548 18.7485 149.839 19.0362 150.199 19.0362H150.877V21.6875C150.877 22.7749 151.74 23 152.218 23H165.505C166.607 23 167.5 22.1187 167.5 21.0312V3.96875C167.5 2.88134 166.607 2 165.505 2ZM152.207 21.6875L152.207 19.0363H152.9C153.259 19.0363 153.551 18.7485 153.551 18.3935C153.551 18.0384 153.259 17.7507 152.9 17.7507H152.207V15.1162H152.9C153.259 15.1162 153.551 14.8284 153.551 14.4734C153.551 14.1184 153.259 13.8306 152.9 13.8306H152.207V11.176H152.914C153.274 11.176 153.565 10.8883 153.565 10.5332C153.565 10.1782 153.274 9.8904 152.914 9.8904H152.207V7.25H152.851C153.211 7.25 153.503 6.96223 153.503 6.60722C153.503 6.25217 153.211 5.96441 152.851 5.96441H152.207V3.35352C152.207 3.33809 152.208 3.3253 152.21 3.31381C152.223 3.31295 152.236 3.31251 152.249 3.3125H162.846V21.6875H152.207ZM166.17 21.0313C166.17 21.3935 165.872 21.6875 165.505 21.6875H164.176V3.31252H165.505C165.872 3.31252 166.17 3.60652 166.17 3.96877V21.0313Z" fill="#323133"/>
<circle cx="159.5" cy="58.5" r="9" stroke="#323133"/>
<path fill-rule="evenodd" clip-rule="evenodd" d="M160.297 57.9997V51.041C163.903 51.4195 166.749 54.3538 166.989 57.9997H160.297Z" fill="#323133"/>
<path d="M153.568 99.632C156.532 96.3562 161.592 96.1042 164.867 99.0672C168.143 102.031 168.395 107.091 165.432 110.366L167.382 112.316C167.439 112.372 167.477 112.443 167.492 112.521C167.508 112.599 167.5 112.679 167.47 112.752C167.439 112.825 167.388 112.888 167.322 112.932C167.256 112.976 167.179 112.999 167.099 112.999H159.5C157.516 112.999 155.604 112.262 154.133 110.931C150.856 107.967 150.603 102.908 153.568 99.632ZM159.5 112.199H166.134L164.591 110.656C164.516 110.581 164.474 110.479 164.474 110.373C164.474 110.267 164.516 110.166 164.591 110.091C165.597 109.084 166.283 107.801 166.561 106.405C166.838 105.009 166.696 103.561 166.151 102.246C165.606 100.931 164.684 99.8064 163.5 99.0153C162.317 98.2243 160.925 97.8019 159.501 97.8017C157.592 97.8015 155.761 98.5597 154.411 99.9096C153.061 101.259 152.302 103.09 152.302 105C152.302 106.909 153.06 108.74 154.41 110.09C155.76 111.44 157.591 112.199 159.5 112.199Z" fill="#323133"/>
<path d="M167.388 160.734C167.541 160.888 167.626 161.096 167.626 161.313C167.626 161.529 167.541 161.737 167.388 161.891C167.233 162.042 167.025 162.126 166.809 162.126C166.593 162.126 166.386 162.042 166.23 161.891L159.497 155.148L152.763 161.891C152.608 162.042 152.4 162.126 152.184 162.126C151.968 162.126 151.761 162.042 151.605 161.891C151.453 161.737 151.367 161.529 151.367 161.313C151.367 161.096 151.453 160.888 151.605 160.734L158.349 154L151.605 147.266C151.476 147.109 151.41 146.908 151.42 146.704C151.43 146.5 151.515 146.307 151.66 146.163C151.804 146.018 151.997 145.933 152.201 145.923C152.405 145.913 152.605 145.979 152.763 146.109L159.497 152.852L166.23 146.109C166.388 145.979 166.589 145.913 166.793 145.923C166.997 145.933 167.19 146.018 167.334 146.163C167.478 146.307 167.564 146.5 167.574 146.704C167.584 146.908 167.518 147.109 167.388 147.266L160.644 154L167.388 160.734Z" fill="#323133"/>
<path d="M206.5 4C202.356 4 199 7.35626 199 11.5C199 15.6438 202.356 19 206.5 19C210.644 19 214 15.6438 214 11.5C214 7.35626 210.644 4 206.5 4ZM205.923 15.8688H204.667L201.63 11.6125L202.887 10.4406L205.295 12.6907L210.115 7.13032L211.371 8.01158L205.923 15.8688Z" fill="#323133"/>
<path d="M206.731 57.5769L211.115 51M208.923 58.3077L214.038 53.9231M206 70C208.52 70 210.936 68.9991 212.718 67.2175C214.499 65.4359 215.5 63.0196 215.5 60.5H196.5C196.5 63.0196 197.501 65.4359 199.282 67.2175C200.165 68.0997 201.212 68.7994 202.365 69.2769C203.517 69.7543 204.752 70 206 70Z" stroke="#323133" stroke-linecap="round" stroke-linejoin="round"/>
<path fill-rule="evenodd" clip-rule="evenodd" d="M202.122 101.637C202.944 101.636 203.754 101.823 204.484 102.182C205.062 102.466 205.577 102.852 206 103.317C206.939 102.289 208.328 101.637 209.878 101.637C212.707 101.637 215 103.808 215 106.486C215 108.869 213.519 111.098 211.712 112.826C209.901 114.557 207.696 115.85 206.121 116.346C206.042 116.37 205.958 116.37 205.879 116.346C204.304 115.85 202.099 114.557 200.288 112.826C198.481 111.098 197 108.869 197 106.486C197 103.808 199.293 101.637 202.122 101.637M204.131 102.825C203.511 102.52 202.822 102.361 202.123 102.362L202.122 102.362C199.716 102.362 197.766 104.208 197.766 106.486C197.766 108.591 199.085 110.645 200.832 112.316C202.528 113.937 204.565 115.137 206 115.618C207.435 115.137 209.472 113.937 211.168 112.316C212.915 110.645 214.234 108.591 214.234 106.486C214.234 104.208 212.284 102.362 209.878 102.362C208.405 102.362 207.102 103.054 206.313 104.114C206.241 104.211 206.124 104.268 206 104.268C205.875 104.268 205.758 104.211 205.687 104.114C205.285 103.572 204.751 103.13 204.131 102.825Z" fill="#323133"/>
<path fill-rule="evenodd" clip-rule="evenodd" d="M211.804 150.462H208.657V153.608H207.538V150.462H204.392V149.343H207.538V146.196H208.657V149.343H211.804V150.462ZM201.315 143.119V156.685H214.881V143.119H201.315ZM197.119 160.881H211.804V162H197.608C197.162 162 196.793 161.847 196.473 161.528C196.153 161.207 196 160.838 196 160.392V146.196H197.119V160.881ZM201.804 157.804C201.358 157.804 200.989 157.651 200.669 157.332C200.349 157.012 200.196 156.642 200.196 156.196V143.608C200.196 143.162 200.349 142.793 200.669 142.472C200.989 142.153 201.358 142 201.804 142H214.392C214.838 142 215.208 142.153 215.528 142.472C215.847 142.792 216 143.162 216 143.608V156.196C216 156.642 215.847 157.012 215.528 157.332C215.208 157.651 214.838 157.804 214.392 157.804H201.804Z" fill="#323133"/>
</svg>
