<svg width="473" height="297" viewBox="0 0 473 297" fill="none" xmlns="http://www.w3.org/2000/svg">
<rect y="247" width="101.333" height="50" rx="25" fill="white"/>
<g clip-path="url(#clip0_1104_8529)">
<path d="M62.6503 272.225C62.6503 271.241 62.5687 270.524 62.3921 269.78H50.9056V274.218H57.6479C57.512 275.321 56.778 276.981 55.1467 278.098L55.1239 278.246L58.7557 280.996L59.0073 281.021C61.3181 278.935 62.6503 275.865 62.6503 272.225Z" fill="#4285F4"/>
<path d="M50.9057 283.918C54.2088 283.918 56.9818 282.855 59.0073 281.021L55.1468 278.098C54.1137 278.802 52.7271 279.293 50.9057 279.293C47.6705 279.293 44.9246 277.207 43.9458 274.324L43.8023 274.336L40.0259 277.193L39.9766 277.327C41.9884 281.233 46.1208 283.918 50.9057 283.918Z" fill="#40B236"/>
<path d="M43.9457 274.324C43.6874 273.58 43.538 272.783 43.538 271.959C43.538 271.135 43.6874 270.338 43.9321 269.594L43.9253 269.435L40.1015 266.532L39.9764 266.591C39.1473 268.212 38.6715 270.032 38.6715 271.959C38.6715 273.885 39.1473 275.706 39.9764 277.327L43.9457 274.324Z" fill="#FBBC05"/>
<path d="M50.9057 264.624C53.2029 264.624 54.7525 265.594 55.6361 266.405L59.0888 263.109C56.9683 261.183 54.2088 260 50.9057 260C46.1208 260 41.9884 262.684 39.9766 266.591L43.9322 269.594C44.9246 266.71 47.6705 264.624 50.9057 264.624Z" fill="#EB4335"/>
</g>
<rect y="7" width="156" height="44" rx="22" fill="#323133"/>
<path d="M67.3223 34L66.7012 31.9609H63.5781L62.957 34H61L64.0234 25.3984H66.2441L69.2793 34H67.3223ZM66.2676 30.4375L65.6465 28.4453C65.6074 28.3125 65.5547 28.1426 65.4883 27.9355C65.4258 27.7246 65.3613 27.5117 65.2949 27.2969C65.2324 27.0781 65.1816 26.8887 65.1426 26.7285C65.1035 26.8887 65.0488 27.0879 64.9785 27.3262C64.9121 27.5605 64.8477 27.7832 64.7852 27.9941C64.7227 28.2051 64.6777 28.3555 64.6504 28.4453L64.0352 30.4375H66.2676ZM73.8672 27.3262C74.6055 27.3262 75.2012 27.6133 75.6543 28.1875C76.1113 28.7617 76.3398 29.6035 76.3398 30.7129C76.3398 31.4551 76.2324 32.0801 76.0176 32.5879C75.8027 33.0918 75.5059 33.4727 75.127 33.7305C74.748 33.9883 74.3125 34.1172 73.8203 34.1172C73.5039 34.1172 73.2324 34.0781 73.0059 34C72.7793 33.918 72.5859 33.8145 72.4258 33.6895C72.2656 33.5605 72.127 33.4238 72.0098 33.2793H71.916C71.9473 33.4355 71.9707 33.5957 71.9863 33.7598C72.002 33.9238 72.0098 34.084 72.0098 34.2402V36.8828H70.2227V27.4492H71.6758L71.9277 28.2988H72.0098C72.127 28.123 72.2695 27.9609 72.4375 27.8125C72.6055 27.6641 72.8066 27.5469 73.041 27.4609C73.2793 27.3711 73.5547 27.3262 73.8672 27.3262ZM73.293 28.7559C72.9805 28.7559 72.7324 28.8203 72.5488 28.9492C72.3652 29.0781 72.2305 29.2715 72.1445 29.5293C72.0625 29.7871 72.0176 30.1133 72.0098 30.5078V30.7012C72.0098 31.123 72.0488 31.4805 72.127 31.7734C72.209 32.0664 72.3438 32.2891 72.5312 32.4414C72.7227 32.5938 72.9844 32.6699 73.3164 32.6699C73.5898 32.6699 73.8145 32.5938 73.9902 32.4414C74.166 32.2891 74.2969 32.0664 74.3828 31.7734C74.4727 31.4766 74.5176 31.1152 74.5176 30.6895C74.5176 30.0488 74.418 29.5664 74.2188 29.2422C74.0195 28.918 73.7109 28.7559 73.293 28.7559ZM81.4609 27.3262C82.1992 27.3262 82.7949 27.6133 83.248 28.1875C83.7051 28.7617 83.9336 29.6035 83.9336 30.7129C83.9336 31.4551 83.8262 32.0801 83.6113 32.5879C83.3965 33.0918 83.0996 33.4727 82.7207 33.7305C82.3418 33.9883 81.9062 34.1172 81.4141 34.1172C81.0977 34.1172 80.8262 34.0781 80.5996 34C80.373 33.918 80.1797 33.8145 80.0195 33.6895C79.8594 33.5605 79.7207 33.4238 79.6035 33.2793H79.5098C79.541 33.4355 79.5645 33.5957 79.5801 33.7598C79.5957 33.9238 79.6035 34.084 79.6035 34.2402V36.8828H77.8164V27.4492H79.2695L79.5215 28.2988H79.6035C79.7207 28.123 79.8633 27.9609 80.0312 27.8125C80.1992 27.6641 80.4004 27.5469 80.6348 27.4609C80.873 27.3711 81.1484 27.3262 81.4609 27.3262ZM80.8867 28.7559C80.5742 28.7559 80.3262 28.8203 80.1426 28.9492C79.959 29.0781 79.8242 29.2715 79.7383 29.5293C79.6562 29.7871 79.6113 30.1133 79.6035 30.5078V30.7012C79.6035 31.123 79.6426 31.4805 79.7207 31.7734C79.8027 32.0664 79.9375 32.2891 80.125 32.4414C80.3164 32.5938 80.5781 32.6699 80.9102 32.6699C81.1836 32.6699 81.4082 32.5938 81.584 32.4414C81.7598 32.2891 81.8906 32.0664 81.9766 31.7734C82.0664 31.4766 82.1113 31.1152 82.1113 30.6895C82.1113 30.0488 82.0117 29.5664 81.8125 29.2422C81.6133 28.918 81.3047 28.7559 80.8867 28.7559ZM87.1973 34H85.4102V24.8828H87.1973V34ZM88.1406 27.4492H90.0977L91.334 31.1348C91.373 31.252 91.4062 31.3711 91.4336 31.4922C91.4609 31.6133 91.4844 31.7383 91.5039 31.8672C91.5234 31.9961 91.5391 32.1309 91.5508 32.2715H91.5859C91.6094 32.0605 91.6406 31.8633 91.6797 31.6797C91.7227 31.4961 91.7754 31.3145 91.8379 31.1348L93.0508 27.4492H94.9668L92.1953 34.8379C92.0273 35.291 91.8086 35.668 91.5391 35.9688C91.2695 36.2734 90.959 36.502 90.6074 36.6543C90.2598 36.8066 89.877 36.8828 89.459 36.8828C89.2559 36.8828 89.0801 36.8711 88.9316 36.8477C88.7832 36.8281 88.6562 36.8066 88.5508 36.7832V35.3652C88.6328 35.3848 88.7363 35.4023 88.8613 35.418C88.9863 35.4336 89.1172 35.4414 89.2539 35.4414C89.5039 35.4414 89.7188 35.3887 89.8984 35.2832C90.0781 35.1777 90.2285 35.0352 90.3496 34.8555C90.4707 34.6797 90.5664 34.4863 90.6367 34.2754L90.7422 33.9531L88.1406 27.4492Z" fill="white"/>
<rect y="67" width="156" height="44" rx="22" fill="#40B236"/>
<path d="M47.8301 89.1895H51.2285V93.6309C50.7793 93.7793 50.3125 93.8984 49.8281 93.9883C49.3438 94.0742 48.7949 94.1172 48.1816 94.1172C47.3301 94.1172 46.6074 93.9492 46.0137 93.6133C45.4199 93.2773 44.9688 92.7812 44.6602 92.125C44.3516 91.4688 44.1973 90.6621 44.1973 89.7051C44.1973 88.8066 44.3691 88.0293 44.7129 87.373C45.0605 86.7168 45.5664 86.209 46.2305 85.8496C46.8984 85.4902 47.7129 85.3105 48.6738 85.3105C49.127 85.3105 49.5742 85.3594 50.0156 85.457C50.457 85.5547 50.8574 85.6816 51.2168 85.8379L50.6133 87.291C50.3516 87.1582 50.0527 87.0469 49.7168 86.957C49.3809 86.8672 49.0293 86.8223 48.6621 86.8223C48.1348 86.8223 47.6758 86.9434 47.2852 87.1855C46.8984 87.4277 46.5977 87.7676 46.3828 88.2051C46.1719 88.6387 46.0664 89.1504 46.0664 89.7402C46.0664 90.2988 46.1426 90.7949 46.2949 91.2285C46.4473 91.6582 46.6875 91.9961 47.0156 92.2422C47.3438 92.4844 47.7715 92.6055 48.2988 92.6055C48.5566 92.6055 48.7734 92.5938 48.9492 92.5703C49.1289 92.543 49.2969 92.5156 49.4531 92.4883V90.7012H47.8301V89.1895ZM55.834 87.3262C56.4395 87.3262 56.9609 87.4434 57.3984 87.6777C57.8359 87.9082 58.1738 88.2441 58.4121 88.6855C58.6504 89.127 58.7695 89.666 58.7695 90.3027V91.1699H54.5449C54.5645 91.6738 54.7148 92.0703 54.9961 92.3594C55.2812 92.6445 55.6758 92.7871 56.1797 92.7871C56.5977 92.7871 56.9805 92.7441 57.3281 92.6582C57.6758 92.5723 58.0332 92.4434 58.4004 92.2715V93.6543C58.0762 93.8145 57.7363 93.9316 57.3809 94.0059C57.0293 94.0801 56.6016 94.1172 56.0977 94.1172C55.4414 94.1172 54.8594 93.9961 54.3516 93.7539C53.8477 93.5117 53.4512 93.1426 53.1621 92.6465C52.877 92.1504 52.7344 91.5254 52.7344 90.7715C52.7344 90.0059 52.8633 89.3691 53.1211 88.8613C53.3828 88.3496 53.7461 87.9668 54.2109 87.7129C54.6758 87.4551 55.2168 87.3262 55.834 87.3262ZM55.8457 88.5977C55.498 88.5977 55.209 88.709 54.9785 88.9316C54.752 89.1543 54.6211 89.5039 54.5859 89.9805H57.0938C57.0898 89.7148 57.041 89.4785 56.9473 89.2715C56.8574 89.0645 56.7207 88.9004 56.5371 88.7793C56.3574 88.6582 56.127 88.5977 55.8457 88.5977ZM62.9824 92.6934C63.1777 92.6934 63.3672 92.6738 63.5508 92.6348C63.7383 92.5957 63.9238 92.5469 64.1074 92.4883V93.8184C63.916 93.9043 63.6777 93.9746 63.3926 94.0293C63.1113 94.0879 62.8027 94.1172 62.4668 94.1172C62.0762 94.1172 61.7246 94.0547 61.4121 93.9297C61.1035 93.8008 60.8594 93.5801 60.6797 93.2676C60.5039 92.9512 60.416 92.5117 60.416 91.9492V88.791H59.5605V88.0352L60.5449 87.4375L61.0605 86.0547H62.2031V87.4492H64.0371V88.791H62.2031V91.9492C62.2031 92.1992 62.2734 92.3867 62.4141 92.5117C62.5586 92.6328 62.748 92.6934 62.9824 92.6934ZM73.752 91.6211C73.752 92.1289 73.6289 92.5703 73.3828 92.9453C73.1367 93.3203 72.7773 93.6094 72.3047 93.8125C71.8359 94.0156 71.2656 94.1172 70.5938 94.1172C70.2969 94.1172 70.0059 94.0977 69.7207 94.0586C69.4395 94.0195 69.168 93.9629 68.9062 93.8887C68.6484 93.8105 68.4023 93.7148 68.168 93.6016V91.9141C68.5742 92.0938 68.9961 92.2559 69.4336 92.4004C69.8711 92.5449 70.3047 92.6172 70.7344 92.6172C71.0312 92.6172 71.2695 92.5781 71.4492 92.5C71.6328 92.4219 71.7656 92.3145 71.8477 92.1777C71.9297 92.041 71.9707 91.8848 71.9707 91.709C71.9707 91.4941 71.8984 91.3105 71.7539 91.1582C71.6094 91.0059 71.4102 90.8633 71.1562 90.7305C70.9062 90.5977 70.623 90.4551 70.3066 90.3027C70.1074 90.209 69.8906 90.0957 69.6562 89.9629C69.4219 89.8262 69.1992 89.6602 68.9883 89.4648C68.7773 89.2695 68.6035 89.0332 68.4668 88.7559C68.334 88.4746 68.2676 88.1387 68.2676 87.748C68.2676 87.2363 68.3848 86.7988 68.6191 86.4355C68.8535 86.0723 69.1875 85.7949 69.6211 85.6035C70.0586 85.4082 70.5742 85.3105 71.168 85.3105C71.6133 85.3105 72.0371 85.3633 72.4395 85.4688C72.8457 85.5703 73.2695 85.7188 73.7109 85.9141L73.125 87.3262C72.7305 87.166 72.377 87.043 72.0645 86.957C71.752 86.8672 71.4336 86.8223 71.1094 86.8223C70.8828 86.8223 70.6895 86.8594 70.5293 86.9336C70.3691 87.0039 70.248 87.1055 70.166 87.2383C70.084 87.3672 70.043 87.5176 70.043 87.6895C70.043 87.8926 70.1016 88.0645 70.2188 88.2051C70.3398 88.3418 70.5195 88.4746 70.7578 88.6035C71 88.7324 71.3008 88.8828 71.6602 89.0547C72.0977 89.2617 72.4707 89.4785 72.7793 89.7051C73.0918 89.9277 73.332 90.1914 73.5 90.4961C73.668 90.7969 73.752 91.1719 73.752 91.6211ZM77.9238 92.6934C78.1191 92.6934 78.3086 92.6738 78.4922 92.6348C78.6797 92.5957 78.8652 92.5469 79.0488 92.4883V93.8184C78.8574 93.9043 78.6191 93.9746 78.334 94.0293C78.0527 94.0879 77.7441 94.1172 77.4082 94.1172C77.0176 94.1172 76.666 94.0547 76.3535 93.9297C76.0449 93.8008 75.8008 93.5801 75.6211 93.2676C75.4453 92.9512 75.3574 92.5117 75.3574 91.9492V88.791H74.502V88.0352L75.4863 87.4375L76.002 86.0547H77.1445V87.4492H78.9785V88.791H77.1445V91.9492C77.1445 92.1992 77.2148 92.3867 77.3555 92.5117C77.5 92.6328 77.6895 92.6934 77.9238 92.6934ZM83.0625 87.3145C83.9414 87.3145 84.6152 87.5059 85.084 87.8887C85.5527 88.2715 85.7871 88.8535 85.7871 89.6348V94H84.5391L84.1934 93.1094H84.1465C83.959 93.3438 83.7676 93.5352 83.5723 93.6836C83.377 93.832 83.1523 93.9414 82.8984 94.0117C82.6445 94.082 82.3359 94.1172 81.9727 94.1172C81.5859 94.1172 81.2383 94.043 80.9297 93.8945C80.625 93.7461 80.3848 93.5195 80.209 93.2148C80.0332 92.9062 79.9453 92.5156 79.9453 92.043C79.9453 91.3477 80.1895 90.8359 80.6777 90.5078C81.166 90.1758 81.8984 89.9922 82.875 89.957L84.0117 89.9219V89.6348C84.0117 89.291 83.9219 89.0391 83.7422 88.8789C83.5625 88.7188 83.3125 88.6387 82.9922 88.6387C82.6758 88.6387 82.3652 88.6836 82.0605 88.7734C81.7559 88.8633 81.4512 88.9766 81.1465 89.1133L80.5547 87.9062C80.9023 87.7227 81.291 87.5781 81.7207 87.4727C82.1543 87.3672 82.6016 87.3145 83.0625 87.3145ZM84.0117 90.9648L83.3203 90.9883C82.7422 91.0039 82.3398 91.1074 82.1133 91.2988C81.8906 91.4902 81.7793 91.7422 81.7793 92.0547C81.7793 92.3281 81.8594 92.5234 82.0195 92.6406C82.1797 92.7539 82.3887 92.8105 82.6465 92.8105C83.0293 92.8105 83.3516 92.6973 83.6133 92.4707C83.8789 92.2441 84.0117 91.9219 84.0117 91.5039V90.9648ZM91.2891 87.3262C91.3789 87.3262 91.4824 87.332 91.5996 87.3438C91.7207 87.3516 91.8184 87.3633 91.8926 87.3789L91.7578 89.0547C91.6992 89.0352 91.6152 89.0215 91.5059 89.0137C91.4004 89.002 91.3086 88.9961 91.2305 88.9961C91 88.9961 90.7754 89.0254 90.5566 89.084C90.3418 89.1426 90.1484 89.2383 89.9766 89.3711C89.8047 89.5 89.668 89.6719 89.5664 89.8867C89.4688 90.0977 89.4199 90.3574 89.4199 90.666V94H87.6328V87.4492H88.9863L89.25 88.5508H89.3379C89.4668 88.3281 89.627 88.125 89.8184 87.9414C90.0137 87.7539 90.2344 87.6055 90.4805 87.4961C90.7305 87.3828 91 87.3262 91.2891 87.3262ZM95.8418 92.6934C96.0371 92.6934 96.2266 92.6738 96.4102 92.6348C96.5977 92.5957 96.7832 92.5469 96.9668 92.4883V93.8184C96.7754 93.9043 96.5371 93.9746 96.252 94.0293C95.9707 94.0879 95.6621 94.1172 95.3262 94.1172C94.9355 94.1172 94.584 94.0547 94.2715 93.9297C93.9629 93.8008 93.7188 93.5801 93.5391 93.2676C93.3633 92.9512 93.2754 92.5117 93.2754 91.9492V88.791H92.4199V88.0352L93.4043 87.4375L93.9199 86.0547H95.0625V87.4492H96.8965V88.791H95.0625V91.9492C95.0625 92.1992 95.1328 92.3867 95.2734 92.5117C95.418 92.6328 95.6074 92.6934 95.8418 92.6934ZM100.998 87.3262C101.604 87.3262 102.125 87.4434 102.562 87.6777C103 87.9082 103.338 88.2441 103.576 88.6855C103.814 89.127 103.934 89.666 103.934 90.3027V91.1699H99.709C99.7285 91.6738 99.8789 92.0703 100.16 92.3594C100.445 92.6445 100.84 92.7871 101.344 92.7871C101.762 92.7871 102.145 92.7441 102.492 92.6582C102.84 92.5723 103.197 92.4434 103.564 92.2715V93.6543C103.24 93.8145 102.9 93.9316 102.545 94.0059C102.193 94.0801 101.766 94.1172 101.262 94.1172C100.605 94.1172 100.023 93.9961 99.5156 93.7539C99.0117 93.5117 98.6152 93.1426 98.3262 92.6465C98.041 92.1504 97.8984 91.5254 97.8984 90.7715C97.8984 90.0059 98.0273 89.3691 98.2852 88.8613C98.5469 88.3496 98.9102 87.9668 99.375 87.7129C99.8398 87.4551 100.381 87.3262 100.998 87.3262ZM101.01 88.5977C100.662 88.5977 100.373 88.709 100.143 88.9316C99.916 89.1543 99.7852 89.5039 99.75 89.9805H102.258C102.254 89.7148 102.205 89.4785 102.111 89.2715C102.021 89.0645 101.885 88.9004 101.701 88.7793C101.521 88.6582 101.291 88.5977 101.01 88.5977ZM107.461 94.1172C106.73 94.1172 106.135 93.832 105.674 93.2617C105.217 92.6875 104.988 91.8457 104.988 90.7363C104.988 89.6152 105.221 88.7676 105.686 88.1934C106.15 87.6152 106.758 87.3262 107.508 87.3262C107.82 87.3262 108.096 87.3691 108.334 87.4551C108.572 87.541 108.777 87.6562 108.949 87.8008C109.125 87.9453 109.273 88.1074 109.395 88.2871H109.453C109.43 88.1621 109.4 87.9785 109.365 87.7363C109.334 87.4902 109.318 87.2383 109.318 86.9805V84.8828H111.111V94H109.74L109.395 93.1504H109.318C109.205 93.3301 109.062 93.4941 108.891 93.6426C108.723 93.7871 108.521 93.9023 108.287 93.9883C108.053 94.0742 107.777 94.1172 107.461 94.1172ZM108.088 92.6934C108.576 92.6934 108.92 92.5488 109.119 92.2598C109.322 91.9668 109.43 91.5273 109.441 90.9414V90.748C109.441 90.1113 109.344 89.625 109.148 89.2891C108.953 88.9492 108.59 88.7793 108.059 88.7793C107.664 88.7793 107.355 88.9492 107.133 89.2891C106.91 89.6289 106.799 90.1191 106.799 90.7598C106.799 91.4004 106.91 91.8828 107.133 92.207C107.359 92.5312 107.678 92.6934 108.088 92.6934Z" fill="white"/>
<rect x="0.5" y="127.5" width="155" height="43" rx="21.5" fill="white"/>
<path d="M47.8301 149.189H51.2285V153.631C50.7793 153.779 50.3125 153.898 49.8281 153.988C49.3438 154.074 48.7949 154.117 48.1816 154.117C47.3301 154.117 46.6074 153.949 46.0137 153.613C45.4199 153.277 44.9688 152.781 44.6602 152.125C44.3516 151.469 44.1973 150.662 44.1973 149.705C44.1973 148.807 44.3691 148.029 44.7129 147.373C45.0605 146.717 45.5664 146.209 46.2305 145.85C46.8984 145.49 47.7129 145.311 48.6738 145.311C49.127 145.311 49.5742 145.359 50.0156 145.457C50.457 145.555 50.8574 145.682 51.2168 145.838L50.6133 147.291C50.3516 147.158 50.0527 147.047 49.7168 146.957C49.3809 146.867 49.0293 146.822 48.6621 146.822C48.1348 146.822 47.6758 146.943 47.2852 147.186C46.8984 147.428 46.5977 147.768 46.3828 148.205C46.1719 148.639 46.0664 149.15 46.0664 149.74C46.0664 150.299 46.1426 150.795 46.2949 151.229C46.4473 151.658 46.6875 151.996 47.0156 152.242C47.3438 152.484 47.7715 152.605 48.2988 152.605C48.5566 152.605 48.7734 152.594 48.9492 152.57C49.1289 152.543 49.2969 152.516 49.4531 152.488V150.701H47.8301V149.189ZM55.834 147.326C56.4395 147.326 56.9609 147.443 57.3984 147.678C57.8359 147.908 58.1738 148.244 58.4121 148.686C58.6504 149.127 58.7695 149.666 58.7695 150.303V151.17H54.5449C54.5645 151.674 54.7148 152.07 54.9961 152.359C55.2812 152.645 55.6758 152.787 56.1797 152.787C56.5977 152.787 56.9805 152.744 57.3281 152.658C57.6758 152.572 58.0332 152.443 58.4004 152.271V153.654C58.0762 153.814 57.7363 153.932 57.3809 154.006C57.0293 154.08 56.6016 154.117 56.0977 154.117C55.4414 154.117 54.8594 153.996 54.3516 153.754C53.8477 153.512 53.4512 153.143 53.1621 152.646C52.877 152.15 52.7344 151.525 52.7344 150.771C52.7344 150.006 52.8633 149.369 53.1211 148.861C53.3828 148.35 53.7461 147.967 54.2109 147.713C54.6758 147.455 55.2168 147.326 55.834 147.326ZM55.8457 148.598C55.498 148.598 55.209 148.709 54.9785 148.932C54.752 149.154 54.6211 149.504 54.5859 149.98H57.0938C57.0898 149.715 57.041 149.479 56.9473 149.271C56.8574 149.064 56.7207 148.9 56.5371 148.779C56.3574 148.658 56.127 148.598 55.8457 148.598ZM62.9824 152.693C63.1777 152.693 63.3672 152.674 63.5508 152.635C63.7383 152.596 63.9238 152.547 64.1074 152.488V153.818C63.916 153.904 63.6777 153.975 63.3926 154.029C63.1113 154.088 62.8027 154.117 62.4668 154.117C62.0762 154.117 61.7246 154.055 61.4121 153.93C61.1035 153.801 60.8594 153.58 60.6797 153.268C60.5039 152.951 60.416 152.512 60.416 151.949V148.791H59.5605V148.035L60.5449 147.438L61.0605 146.055H62.2031V147.449H64.0371V148.791H62.2031V151.949C62.2031 152.199 62.2734 152.387 62.4141 152.512C62.5586 152.633 62.748 152.693 62.9824 152.693ZM73.752 151.621C73.752 152.129 73.6289 152.57 73.3828 152.945C73.1367 153.32 72.7773 153.609 72.3047 153.812C71.8359 154.016 71.2656 154.117 70.5938 154.117C70.2969 154.117 70.0059 154.098 69.7207 154.059C69.4395 154.02 69.168 153.963 68.9062 153.889C68.6484 153.811 68.4023 153.715 68.168 153.602V151.914C68.5742 152.094 68.9961 152.256 69.4336 152.4C69.8711 152.545 70.3047 152.617 70.7344 152.617C71.0312 152.617 71.2695 152.578 71.4492 152.5C71.6328 152.422 71.7656 152.314 71.8477 152.178C71.9297 152.041 71.9707 151.885 71.9707 151.709C71.9707 151.494 71.8984 151.311 71.7539 151.158C71.6094 151.006 71.4102 150.863 71.1562 150.73C70.9062 150.598 70.623 150.455 70.3066 150.303C70.1074 150.209 69.8906 150.096 69.6562 149.963C69.4219 149.826 69.1992 149.66 68.9883 149.465C68.7773 149.27 68.6035 149.033 68.4668 148.756C68.334 148.475 68.2676 148.139 68.2676 147.748C68.2676 147.236 68.3848 146.799 68.6191 146.436C68.8535 146.072 69.1875 145.795 69.6211 145.604C70.0586 145.408 70.5742 145.311 71.168 145.311C71.6133 145.311 72.0371 145.363 72.4395 145.469C72.8457 145.57 73.2695 145.719 73.7109 145.914L73.125 147.326C72.7305 147.166 72.377 147.043 72.0645 146.957C71.752 146.867 71.4336 146.822 71.1094 146.822C70.8828 146.822 70.6895 146.859 70.5293 146.934C70.3691 147.004 70.248 147.105 70.166 147.238C70.084 147.367 70.043 147.518 70.043 147.689C70.043 147.893 70.1016 148.064 70.2188 148.205C70.3398 148.342 70.5195 148.475 70.7578 148.604C71 148.732 71.3008 148.883 71.6602 149.055C72.0977 149.262 72.4707 149.479 72.7793 149.705C73.0918 149.928 73.332 150.191 73.5 150.496C73.668 150.797 73.752 151.172 73.752 151.621ZM77.9238 152.693C78.1191 152.693 78.3086 152.674 78.4922 152.635C78.6797 152.596 78.8652 152.547 79.0488 152.488V153.818C78.8574 153.904 78.6191 153.975 78.334 154.029C78.0527 154.088 77.7441 154.117 77.4082 154.117C77.0176 154.117 76.666 154.055 76.3535 153.93C76.0449 153.801 75.8008 153.58 75.6211 153.268C75.4453 152.951 75.3574 152.512 75.3574 151.949V148.791H74.502V148.035L75.4863 147.438L76.002 146.055H77.1445V147.449H78.9785V148.791H77.1445V151.949C77.1445 152.199 77.2148 152.387 77.3555 152.512C77.5 152.633 77.6895 152.693 77.9238 152.693ZM83.0625 147.314C83.9414 147.314 84.6152 147.506 85.084 147.889C85.5527 148.271 85.7871 148.854 85.7871 149.635V154H84.5391L84.1934 153.109H84.1465C83.959 153.344 83.7676 153.535 83.5723 153.684C83.377 153.832 83.1523 153.941 82.8984 154.012C82.6445 154.082 82.3359 154.117 81.9727 154.117C81.5859 154.117 81.2383 154.043 80.9297 153.895C80.625 153.746 80.3848 153.52 80.209 153.215C80.0332 152.906 79.9453 152.516 79.9453 152.043C79.9453 151.348 80.1895 150.836 80.6777 150.508C81.166 150.176 81.8984 149.992 82.875 149.957L84.0117 149.922V149.635C84.0117 149.291 83.9219 149.039 83.7422 148.879C83.5625 148.719 83.3125 148.639 82.9922 148.639C82.6758 148.639 82.3652 148.684 82.0605 148.773C81.7559 148.863 81.4512 148.977 81.1465 149.113L80.5547 147.906C80.9023 147.723 81.291 147.578 81.7207 147.473C82.1543 147.367 82.6016 147.314 83.0625 147.314ZM84.0117 150.965L83.3203 150.988C82.7422 151.004 82.3398 151.107 82.1133 151.299C81.8906 151.49 81.7793 151.742 81.7793 152.055C81.7793 152.328 81.8594 152.523 82.0195 152.641C82.1797 152.754 82.3887 152.811 82.6465 152.811C83.0293 152.811 83.3516 152.697 83.6133 152.471C83.8789 152.244 84.0117 151.922 84.0117 151.504V150.965ZM91.2891 147.326C91.3789 147.326 91.4824 147.332 91.5996 147.344C91.7207 147.352 91.8184 147.363 91.8926 147.379L91.7578 149.055C91.6992 149.035 91.6152 149.021 91.5059 149.014C91.4004 149.002 91.3086 148.996 91.2305 148.996C91 148.996 90.7754 149.025 90.5566 149.084C90.3418 149.143 90.1484 149.238 89.9766 149.371C89.8047 149.5 89.668 149.672 89.5664 149.887C89.4688 150.098 89.4199 150.357 89.4199 150.666V154H87.6328V147.449H88.9863L89.25 148.551H89.3379C89.4668 148.328 89.627 148.125 89.8184 147.941C90.0137 147.754 90.2344 147.605 90.4805 147.496C90.7305 147.383 91 147.326 91.2891 147.326ZM95.8418 152.693C96.0371 152.693 96.2266 152.674 96.4102 152.635C96.5977 152.596 96.7832 152.547 96.9668 152.488V153.818C96.7754 153.904 96.5371 153.975 96.252 154.029C95.9707 154.088 95.6621 154.117 95.3262 154.117C94.9355 154.117 94.584 154.055 94.2715 153.93C93.9629 153.801 93.7188 153.58 93.5391 153.268C93.3633 152.951 93.2754 152.512 93.2754 151.949V148.791H92.4199V148.035L93.4043 147.438L93.9199 146.055H95.0625V147.449H96.8965V148.791H95.0625V151.949C95.0625 152.199 95.1328 152.387 95.2734 152.512C95.418 152.633 95.6074 152.693 95.8418 152.693ZM100.998 147.326C101.604 147.326 102.125 147.443 102.562 147.678C103 147.908 103.338 148.244 103.576 148.686C103.814 149.127 103.934 149.666 103.934 150.303V151.17H99.709C99.7285 151.674 99.8789 152.07 100.16 152.359C100.445 152.645 100.84 152.787 101.344 152.787C101.762 152.787 102.145 152.744 102.492 152.658C102.84 152.572 103.197 152.443 103.564 152.271V153.654C103.24 153.814 102.9 153.932 102.545 154.006C102.193 154.08 101.766 154.117 101.262 154.117C100.605 154.117 100.023 153.996 99.5156 153.754C99.0117 153.512 98.6152 153.143 98.3262 152.646C98.041 152.15 97.8984 151.525 97.8984 150.771C97.8984 150.006 98.0273 149.369 98.2852 148.861C98.5469 148.35 98.9102 147.967 99.375 147.713C99.8398 147.455 100.381 147.326 100.998 147.326ZM101.01 148.598C100.662 148.598 100.373 148.709 100.143 148.932C99.916 149.154 99.7852 149.504 99.75 149.98H102.258C102.254 149.715 102.205 149.479 102.111 149.271C102.021 149.064 101.885 148.9 101.701 148.779C101.521 148.658 101.291 148.598 101.01 148.598ZM107.461 154.117C106.73 154.117 106.135 153.832 105.674 153.262C105.217 152.688 104.988 151.846 104.988 150.736C104.988 149.615 105.221 148.768 105.686 148.193C106.15 147.615 106.758 147.326 107.508 147.326C107.82 147.326 108.096 147.369 108.334 147.455C108.572 147.541 108.777 147.656 108.949 147.801C109.125 147.945 109.273 148.107 109.395 148.287H109.453C109.43 148.162 109.4 147.979 109.365 147.736C109.334 147.49 109.318 147.238 109.318 146.98V144.883H111.111V154H109.74L109.395 153.15H109.318C109.205 153.33 109.062 153.494 108.891 153.643C108.723 153.787 108.521 153.902 108.287 153.988C108.053 154.074 107.777 154.117 107.461 154.117ZM108.088 152.693C108.576 152.693 108.92 152.549 109.119 152.26C109.322 151.967 109.43 151.527 109.441 150.941V150.748C109.441 150.111 109.344 149.625 109.148 149.289C108.953 148.949 108.59 148.779 108.059 148.779C107.664 148.779 107.355 148.949 107.133 149.289C106.91 149.629 106.799 150.119 106.799 150.76C106.799 151.4 106.91 151.883 107.133 152.207C107.359 152.531 107.678 152.693 108.088 152.693Z" fill="#323133"/>
<rect x="0.5" y="127.5" width="155" height="43" rx="21.5" stroke="#323133"/>
<rect x="0.5" y="187.5" width="155" height="43" rx="21.5" fill="white"/>
<path d="M47.8301 209.189H51.2285V213.631C50.7793 213.779 50.3125 213.898 49.8281 213.988C49.3438 214.074 48.7949 214.117 48.1816 214.117C47.3301 214.117 46.6074 213.949 46.0137 213.613C45.4199 213.277 44.9688 212.781 44.6602 212.125C44.3516 211.469 44.1973 210.662 44.1973 209.705C44.1973 208.807 44.3691 208.029 44.7129 207.373C45.0605 206.717 45.5664 206.209 46.2305 205.85C46.8984 205.49 47.7129 205.311 48.6738 205.311C49.127 205.311 49.5742 205.359 50.0156 205.457C50.457 205.555 50.8574 205.682 51.2168 205.838L50.6133 207.291C50.3516 207.158 50.0527 207.047 49.7168 206.957C49.3809 206.867 49.0293 206.822 48.6621 206.822C48.1348 206.822 47.6758 206.943 47.2852 207.186C46.8984 207.428 46.5977 207.768 46.3828 208.205C46.1719 208.639 46.0664 209.15 46.0664 209.74C46.0664 210.299 46.1426 210.795 46.2949 211.229C46.4473 211.658 46.6875 211.996 47.0156 212.242C47.3438 212.484 47.7715 212.605 48.2988 212.605C48.5566 212.605 48.7734 212.594 48.9492 212.57C49.1289 212.543 49.2969 212.516 49.4531 212.488V210.701H47.8301V209.189ZM55.834 207.326C56.4395 207.326 56.9609 207.443 57.3984 207.678C57.8359 207.908 58.1738 208.244 58.4121 208.686C58.6504 209.127 58.7695 209.666 58.7695 210.303V211.17H54.5449C54.5645 211.674 54.7148 212.07 54.9961 212.359C55.2812 212.645 55.6758 212.787 56.1797 212.787C56.5977 212.787 56.9805 212.744 57.3281 212.658C57.6758 212.572 58.0332 212.443 58.4004 212.271V213.654C58.0762 213.814 57.7363 213.932 57.3809 214.006C57.0293 214.08 56.6016 214.117 56.0977 214.117C55.4414 214.117 54.8594 213.996 54.3516 213.754C53.8477 213.512 53.4512 213.143 53.1621 212.646C52.877 212.15 52.7344 211.525 52.7344 210.771C52.7344 210.006 52.8633 209.369 53.1211 208.861C53.3828 208.35 53.7461 207.967 54.2109 207.713C54.6758 207.455 55.2168 207.326 55.834 207.326ZM55.8457 208.598C55.498 208.598 55.209 208.709 54.9785 208.932C54.752 209.154 54.6211 209.504 54.5859 209.98H57.0938C57.0898 209.715 57.041 209.479 56.9473 209.271C56.8574 209.064 56.7207 208.9 56.5371 208.779C56.3574 208.658 56.127 208.598 55.8457 208.598ZM62.9824 212.693C63.1777 212.693 63.3672 212.674 63.5508 212.635C63.7383 212.596 63.9238 212.547 64.1074 212.488V213.818C63.916 213.904 63.6777 213.975 63.3926 214.029C63.1113 214.088 62.8027 214.117 62.4668 214.117C62.0762 214.117 61.7246 214.055 61.4121 213.93C61.1035 213.801 60.8594 213.58 60.6797 213.268C60.5039 212.951 60.416 212.512 60.416 211.949V208.791H59.5605V208.035L60.5449 207.438L61.0605 206.055H62.2031V207.449H64.0371V208.791H62.2031V211.949C62.2031 212.199 62.2734 212.387 62.4141 212.512C62.5586 212.633 62.748 212.693 62.9824 212.693ZM73.752 211.621C73.752 212.129 73.6289 212.57 73.3828 212.945C73.1367 213.32 72.7773 213.609 72.3047 213.812C71.8359 214.016 71.2656 214.117 70.5938 214.117C70.2969 214.117 70.0059 214.098 69.7207 214.059C69.4395 214.02 69.168 213.963 68.9062 213.889C68.6484 213.811 68.4023 213.715 68.168 213.602V211.914C68.5742 212.094 68.9961 212.256 69.4336 212.4C69.8711 212.545 70.3047 212.617 70.7344 212.617C71.0312 212.617 71.2695 212.578 71.4492 212.5C71.6328 212.422 71.7656 212.314 71.8477 212.178C71.9297 212.041 71.9707 211.885 71.9707 211.709C71.9707 211.494 71.8984 211.311 71.7539 211.158C71.6094 211.006 71.4102 210.863 71.1562 210.73C70.9062 210.598 70.623 210.455 70.3066 210.303C70.1074 210.209 69.8906 210.096 69.6562 209.963C69.4219 209.826 69.1992 209.66 68.9883 209.465C68.7773 209.27 68.6035 209.033 68.4668 208.756C68.334 208.475 68.2676 208.139 68.2676 207.748C68.2676 207.236 68.3848 206.799 68.6191 206.436C68.8535 206.072 69.1875 205.795 69.6211 205.604C70.0586 205.408 70.5742 205.311 71.168 205.311C71.6133 205.311 72.0371 205.363 72.4395 205.469C72.8457 205.57 73.2695 205.719 73.7109 205.914L73.125 207.326C72.7305 207.166 72.377 207.043 72.0645 206.957C71.752 206.867 71.4336 206.822 71.1094 206.822C70.8828 206.822 70.6895 206.859 70.5293 206.934C70.3691 207.004 70.248 207.105 70.166 207.238C70.084 207.367 70.043 207.518 70.043 207.689C70.043 207.893 70.1016 208.064 70.2188 208.205C70.3398 208.342 70.5195 208.475 70.7578 208.604C71 208.732 71.3008 208.883 71.6602 209.055C72.0977 209.262 72.4707 209.479 72.7793 209.705C73.0918 209.928 73.332 210.191 73.5 210.496C73.668 210.797 73.752 211.172 73.752 211.621ZM77.9238 212.693C78.1191 212.693 78.3086 212.674 78.4922 212.635C78.6797 212.596 78.8652 212.547 79.0488 212.488V213.818C78.8574 213.904 78.6191 213.975 78.334 214.029C78.0527 214.088 77.7441 214.117 77.4082 214.117C77.0176 214.117 76.666 214.055 76.3535 213.93C76.0449 213.801 75.8008 213.58 75.6211 213.268C75.4453 212.951 75.3574 212.512 75.3574 211.949V208.791H74.502V208.035L75.4863 207.438L76.002 206.055H77.1445V207.449H78.9785V208.791H77.1445V211.949C77.1445 212.199 77.2148 212.387 77.3555 212.512C77.5 212.633 77.6895 212.693 77.9238 212.693ZM83.0625 207.314C83.9414 207.314 84.6152 207.506 85.084 207.889C85.5527 208.271 85.7871 208.854 85.7871 209.635V214H84.5391L84.1934 213.109H84.1465C83.959 213.344 83.7676 213.535 83.5723 213.684C83.377 213.832 83.1523 213.941 82.8984 214.012C82.6445 214.082 82.3359 214.117 81.9727 214.117C81.5859 214.117 81.2383 214.043 80.9297 213.895C80.625 213.746 80.3848 213.52 80.209 213.215C80.0332 212.906 79.9453 212.516 79.9453 212.043C79.9453 211.348 80.1895 210.836 80.6777 210.508C81.166 210.176 81.8984 209.992 82.875 209.957L84.0117 209.922V209.635C84.0117 209.291 83.9219 209.039 83.7422 208.879C83.5625 208.719 83.3125 208.639 82.9922 208.639C82.6758 208.639 82.3652 208.684 82.0605 208.773C81.7559 208.863 81.4512 208.977 81.1465 209.113L80.5547 207.906C80.9023 207.723 81.291 207.578 81.7207 207.473C82.1543 207.367 82.6016 207.314 83.0625 207.314ZM84.0117 210.965L83.3203 210.988C82.7422 211.004 82.3398 211.107 82.1133 211.299C81.8906 211.49 81.7793 211.742 81.7793 212.055C81.7793 212.328 81.8594 212.523 82.0195 212.641C82.1797 212.754 82.3887 212.811 82.6465 212.811C83.0293 212.811 83.3516 212.697 83.6133 212.471C83.8789 212.244 84.0117 211.922 84.0117 211.504V210.965ZM91.2891 207.326C91.3789 207.326 91.4824 207.332 91.5996 207.344C91.7207 207.352 91.8184 207.363 91.8926 207.379L91.7578 209.055C91.6992 209.035 91.6152 209.021 91.5059 209.014C91.4004 209.002 91.3086 208.996 91.2305 208.996C91 208.996 90.7754 209.025 90.5566 209.084C90.3418 209.143 90.1484 209.238 89.9766 209.371C89.8047 209.5 89.668 209.672 89.5664 209.887C89.4688 210.098 89.4199 210.357 89.4199 210.666V214H87.6328V207.449H88.9863L89.25 208.551H89.3379C89.4668 208.328 89.627 208.125 89.8184 207.941C90.0137 207.754 90.2344 207.605 90.4805 207.496C90.7305 207.383 91 207.326 91.2891 207.326ZM95.8418 212.693C96.0371 212.693 96.2266 212.674 96.4102 212.635C96.5977 212.596 96.7832 212.547 96.9668 212.488V213.818C96.7754 213.904 96.5371 213.975 96.252 214.029C95.9707 214.088 95.6621 214.117 95.3262 214.117C94.9355 214.117 94.584 214.055 94.2715 213.93C93.9629 213.801 93.7188 213.58 93.5391 213.268C93.3633 212.951 93.2754 212.512 93.2754 211.949V208.791H92.4199V208.035L93.4043 207.438L93.9199 206.055H95.0625V207.449H96.8965V208.791H95.0625V211.949C95.0625 212.199 95.1328 212.387 95.2734 212.512C95.418 212.633 95.6074 212.693 95.8418 212.693ZM100.998 207.326C101.604 207.326 102.125 207.443 102.562 207.678C103 207.908 103.338 208.244 103.576 208.686C103.814 209.127 103.934 209.666 103.934 210.303V211.17H99.709C99.7285 211.674 99.8789 212.07 100.16 212.359C100.445 212.645 100.84 212.787 101.344 212.787C101.762 212.787 102.145 212.744 102.492 212.658C102.84 212.572 103.197 212.443 103.564 212.271V213.654C103.24 213.814 102.9 213.932 102.545 214.006C102.193 214.08 101.766 214.117 101.262 214.117C100.605 214.117 100.023 213.996 99.5156 213.754C99.0117 213.512 98.6152 213.143 98.3262 212.646C98.041 212.15 97.8984 211.525 97.8984 210.771C97.8984 210.006 98.0273 209.369 98.2852 208.861C98.5469 208.35 98.9102 207.967 99.375 207.713C99.8398 207.455 100.381 207.326 100.998 207.326ZM101.01 208.598C100.662 208.598 100.373 208.709 100.143 208.932C99.916 209.154 99.7852 209.504 99.75 209.98H102.258C102.254 209.715 102.205 209.479 102.111 209.271C102.021 209.064 101.885 208.9 101.701 208.779C101.521 208.658 101.291 208.598 101.01 208.598ZM107.461 214.117C106.73 214.117 106.135 213.832 105.674 213.262C105.217 212.688 104.988 211.846 104.988 210.736C104.988 209.615 105.221 208.768 105.686 208.193C106.15 207.615 106.758 207.326 107.508 207.326C107.82 207.326 108.096 207.369 108.334 207.455C108.572 207.541 108.777 207.656 108.949 207.801C109.125 207.945 109.273 208.107 109.395 208.287H109.453C109.43 208.162 109.4 207.979 109.365 207.736C109.334 207.49 109.318 207.238 109.318 206.98V204.883H111.111V214H109.74L109.395 213.15H109.318C109.205 213.33 109.062 213.494 108.891 213.643C108.723 213.787 108.521 213.902 108.287 213.988C108.053 214.074 107.777 214.117 107.461 214.117ZM108.088 212.693C108.576 212.693 108.92 212.549 109.119 212.26C109.322 211.967 109.43 211.527 109.441 210.941V210.748C109.441 210.111 109.344 209.625 109.148 209.289C108.953 208.949 108.59 208.779 108.059 208.779C107.664 208.779 107.355 208.949 107.133 209.289C106.91 209.629 106.799 210.119 106.799 210.76C106.799 211.4 106.91 211.883 107.133 212.207C107.359 212.531 107.678 212.693 108.088 212.693Z" fill="#646266"/>
<rect x="0.5" y="187.5" width="155" height="43" rx="21.5" stroke="#C8C4CC"/>
<rect x="174" y="144" width="50" height="50" rx="25" fill="white"/>
<rect x="187" y="157" width="24" height="24" rx="12" fill="#40B236"/>
<path d="M200.824 167.182H206.966V169.879H200.824V176H198.091V169.879H191.966V167.182H198.091V161H200.824V167.182Z" fill="white"/>
<rect x="240" y="144" width="50" height="50" rx="25" fill="white"/>
<path d="M265 159C259.475 159 255 163.475 255 169C255 174.525 259.475 179 265 179C270.525 179 275 174.525 275 169C275 163.475 270.525 159 265 159ZM264.231 174.825H262.556L258.506 169.15L260.182 167.588L263.394 170.588L269.82 163.174L271.495 164.349L264.231 174.825Z" fill="#40B236"/>
<rect x="306" y="144" width="50" height="50" rx="25" fill="white"/>
<path fill-rule="evenodd" clip-rule="evenodd" d="M331 179C336.523 179 341 174.523 341 169C341 163.477 336.523 159 331 159C325.477 159 321 163.477 321 169C321 174.523 325.477 179 331 179ZM332.593 165.082L334.919 167.384L335.698 166.603C335.908 166.393 336.009 166.14 335.999 165.843C335.99 165.546 335.881 165.292 335.671 165.082L334.905 164.315C334.696 164.105 334.438 164 334.133 164C333.827 164 333.569 164.105 333.359 164.315L332.593 165.082ZM328.325 174L334.125 168.192L331.8 165.863L326 171.671V174H328.325Z" fill="#40B236"/>
<rect x="372" y="144" width="50" height="50" rx="25" fill="white"/>
<path fill-rule="evenodd" clip-rule="evenodd" d="M397 179C402.523 179 407 174.523 407 169C407 163.477 402.523 159 397 159C391.477 159 387 163.477 387 169C387 174.523 391.477 179 397 179ZM401.721 172.356C401.9 172.537 402 172.782 402 173.037C402 173.292 401.9 173.536 401.721 173.718L401.717 173.722L401.713 173.726C401.532 173.901 401.289 174 401.036 174C400.783 174 400.541 173.901 400.36 173.726L400.353 173.719L397 170.35L393.641 173.726C393.459 173.901 393.217 174 392.964 174C392.711 174 392.468 173.901 392.287 173.726L392.283 173.722L392.279 173.718C392.1 173.536 392 173.292 392 173.037C392 172.782 392.1 172.537 392.279 172.356L392.281 172.354L395.642 168.987L392.263 165.602L392.247 165.582C392.095 165.396 392.018 165.161 392.03 164.921C392.041 164.681 392.141 164.454 392.311 164.284C392.481 164.114 392.708 164.013 392.948 164.001C393.188 163.989 393.424 164.068 393.609 164.22L393.629 164.237L397 167.624L400.371 164.237L400.391 164.22C400.576 164.068 400.812 163.989 401.052 164.001C401.293 164.013 401.52 164.114 401.689 164.284C401.859 164.454 401.959 164.681 401.971 164.921C401.982 165.161 401.905 165.396 401.753 165.582L401.737 165.602L398.358 168.987L401.721 172.356ZM400.717 164.616C400.774 164.569 400.841 164.537 400.913 164.522C400.841 164.537 400.774 164.569 400.717 164.616L397 168.351L397 168.351L400.717 164.616ZM392.674 164.646C392.752 164.568 392.856 164.521 392.965 164.514C392.855 164.521 392.752 164.568 392.674 164.646C392.594 164.726 392.547 164.833 392.542 164.946C392.536 165.059 392.573 165.17 392.644 165.258L396.367 168.987L392.644 172.716C392.56 172.802 392.513 172.917 392.513 173.037C392.513 173.157 392.56 173.272 392.644 173.358C392.73 173.441 392.845 173.487 392.964 173.487L392.964 173.487C392.845 173.487 392.73 173.441 392.644 173.358C392.56 173.272 392.513 173.157 392.513 173.037C392.513 172.917 392.56 172.802 392.644 172.716L396.367 168.987L392.644 165.257C392.573 165.17 392.536 165.059 392.542 164.946C392.547 164.833 392.595 164.726 392.674 164.646ZM400.717 173.358L397 169.623L397 169.623L400.717 173.358C400.803 173.441 400.917 173.487 401.036 173.487L401.036 173.487C400.917 173.487 400.802 173.441 400.717 173.358Z" fill="#FF4A33"/>
<rect x="174" y="7" width="55" height="55" rx="27.5" fill="white"/>
<path d="M201.5 22.5C194.87 22.5 189.5 27.87 189.5 34.5C189.5 41.13 194.87 46.5 201.5 46.5C208.13 46.5 213.5 41.13 213.5 34.5C213.5 27.87 208.13 22.5 201.5 22.5ZM200.578 41.49H198.568L193.707 34.68L195.719 32.805L199.573 36.405L207.284 27.5085L209.294 28.9185L200.578 41.49Z" fill="#40B236"/>
<rect x="170.5" y="3.5" width="62" height="62" rx="31" stroke="#40B236" stroke-opacity="0.6" stroke-width="7"/>
<rect x="253" y="7" width="55" height="55" rx="27.5" fill="white"/>
<path d="M281.143 31.2052L281.066 31.0364L284.995 35.0569L282.354 33.8464L281.143 31.2052ZM275.836 35.1343C275.95 34.0683 276.393 33.1573 277.175 32.3757C277.956 31.5942 278.867 31.1503 279.934 31.0367L279.857 31.2052L278.646 33.8464L276.005 35.0569L275.836 35.1343ZM269.207 42.9008V42.8999V28.4999C269.207 28.0292 269.367 27.6435 269.706 27.3045C270.045 26.9656 270.43 26.8067 270.899 26.8073H270.9H274.68H274.989L275.199 26.5803L277.209 24.4073H283.791L285.801 26.5803L286.011 26.8073H286.32H290.1C290.571 26.8073 290.956 26.9668 291.295 27.3057C291.634 27.6446 291.793 28.0297 291.793 28.4991V28.4999V42.8999C291.793 43.3707 291.633 43.7564 291.294 44.0954C290.955 44.4343 290.57 44.5932 290.101 44.5926H290.1H270.9C270.429 44.5926 270.043 44.4332 269.704 44.0949C269.366 43.7574 269.207 43.3723 269.207 42.9008ZM290.1 43.6073H290.807V42.8999V28.4999V27.7926H290.1H285.552L283.573 25.6232L283.362 25.3926H283.05H277.95H277.638L277.427 25.6232L275.448 27.7926H270.9H270.193V28.4999V42.8999V43.6073H270.9H290.1Z" fill="#40B236" stroke="#40B236" stroke-width="1.4147"/>
<rect x="249.5" y="3.5" width="62" height="62" rx="31" stroke="#40B236" stroke-opacity="0.6" stroke-width="7"/>
<rect x="332" y="7" width="55" height="55" rx="27.5" fill="white"/>
<circle cx="359.5" cy="34.5" r="23" fill="#40B236"/>
<rect x="328.5" y="3.5" width="62" height="62" rx="31" stroke="#40B236" stroke-opacity="0.6" stroke-width="7"/>
<rect x="411" y="7" width="55" height="55" rx="27.5" fill="white"/>
<path d="M445.58 40.0164L445.578 40.0148L440.053 34.4795L445.578 28.9443L445.592 28.9303L445.605 28.915C445.779 28.7018 445.868 28.4314 445.854 28.1564C445.841 27.8813 445.726 27.6209 445.532 27.4258C445.337 27.2307 445.077 27.1149 444.802 27.1013C444.527 27.0878 444.256 27.1774 444.044 27.3526L444.028 27.3652L444.014 27.3792L438.5 32.9209L432.986 27.3792L432.972 27.3652L432.956 27.3526C432.744 27.1774 432.473 27.0878 432.198 27.1013C431.923 27.1149 431.663 27.2307 431.468 27.4258C431.274 27.6209 431.159 27.8813 431.146 28.1564C431.132 28.4314 431.221 28.7018 431.395 28.915L431.408 28.9303L431.422 28.9443L436.947 34.4795L431.422 40.0148L431.422 40.0148L431.42 40.0164C431.215 40.2245 431.1 40.5052 431.1 40.7976C431.1 41.0899 431.215 41.3706 431.42 41.5787L431.42 41.5788L431.427 41.5848C431.635 41.7868 431.913 41.9 432.204 41.9C432.494 41.9 432.772 41.7868 432.981 41.5848L432.981 41.5849L432.986 41.5799L438.5 36.0382L444.014 41.5799L444.014 41.5799L444.019 41.5848C444.228 41.7868 444.506 41.9 444.796 41.9C445.087 41.9 445.365 41.7868 445.573 41.5848L445.574 41.5849L445.58 41.5787C445.785 41.3706 445.9 41.0899 445.9 40.7976C445.9 40.5052 445.785 40.2245 445.58 40.0164Z" fill="#646266" stroke="#646266" stroke-width="0.8"/>
<rect x="407.5" y="3.5" width="62" height="62" rx="31" stroke="#323133" stroke-opacity="0.5" stroke-width="7"/>
<rect x="322" y="87" width="32" height="32" rx="16" fill="#323133"/>
<path d="M331.966 104.75V102H343.966V104.75H331.966Z" fill="white"/>
<rect x="378" y="87" width="32" height="32" rx="16" fill="#323133"/>
<path d="M395.824 101.182H401.966V103.879H395.824V110H393.091V103.879H386.966V101.182H393.091V95H395.824V101.182Z" fill="white"/>
<rect x="174" y="78" width="50" height="50" rx="25" fill="#40B236"/>
<path d="M192.966 104.75V102H204.966V104.75H192.966Z" fill="white"/>
<rect x="248" y="78" width="50" height="50" rx="25" fill="#40B236"/>
<path d="M274.824 101.182H280.966V103.879H274.824V110H272.091V103.879H265.966V101.182H272.091V95H274.824V101.182Z" fill="white"/>
<defs>
<clipPath id="clip0_1104_8529">
<rect width="24" height="24" fill="white" transform="translate(38.6667 260)"/>
</clipPath>
</defs>
</svg>
