<svg width="328" height="194" viewBox="0 0 328 194" fill="none" xmlns="http://www.w3.org/2000/svg">
<g clip-path="url(#clip0_1104_8531)">
<rect y="140" width="328" height="54" rx="27" fill="#C8C4CC" fill-opacity="0.35"/>
<rect x="-169" y="140" width="328" height="54" rx="27" fill="white"/>
<path d="M-26.4941 163L-27.4717 160.225H-31.293L-32.2705 163H-34L-30.2812 152.965H-28.4629L-24.751 163H-26.4941ZM-27.8955 158.816L-28.8457 156.082C-28.8822 155.964 -28.9346 155.797 -29.0029 155.583C-29.0713 155.364 -29.1396 155.143 -29.208 154.92C-29.2764 154.692 -29.3333 154.501 -29.3789 154.346C-29.4245 154.533 -29.4814 154.742 -29.5498 154.975C-29.6136 155.202 -29.6774 155.417 -29.7412 155.617C-29.8005 155.818 -29.846 155.973 -29.8779 156.082L-30.835 158.816H-27.8955ZM-21.7162 163L-24.5941 155.433H-22.892L-21.3334 159.876C-21.2331 160.159 -21.142 160.464 -21.06 160.792C-20.9779 161.12 -20.921 161.396 -20.8891 161.619H-20.8344C-20.8025 161.387 -20.741 161.109 -20.6498 160.785C-20.5587 160.457 -20.4652 160.154 -20.3695 159.876L-18.8109 155.433H-17.1156L-19.9936 163H-21.7162ZM-9.11797 159.199C-9.11797 159.828 -9.2 160.386 -9.36406 160.874C-9.52813 161.362 -9.76738 161.774 -10.0818 162.111C-10.3963 162.444 -10.7745 162.699 -11.2166 162.877C-11.6587 163.05 -12.1577 163.137 -12.7137 163.137C-13.2332 163.137 -13.7094 163.05 -14.1424 162.877C-14.5753 162.699 -14.9513 162.444 -15.2703 162.111C-15.5848 161.774 -15.8286 161.362 -16.0018 160.874C-16.1749 160.386 -16.2615 159.828 -16.2615 159.199C-16.2615 158.365 -16.118 157.659 -15.8309 157.08C-15.5392 156.497 -15.1245 156.052 -14.5867 155.747C-14.049 155.442 -13.4087 155.289 -12.6658 155.289C-11.9686 155.289 -11.3533 155.442 -10.8201 155.747C-10.2869 156.052 -9.86992 156.497 -9.56914 157.08C-9.26836 157.663 -9.11797 158.37 -9.11797 159.199ZM-14.6072 159.199C-14.6072 159.751 -14.5411 160.222 -14.409 160.614C-14.2723 161.006 -14.0626 161.307 -13.7801 161.517C-13.4975 161.722 -13.1329 161.824 -12.6863 161.824C-12.2397 161.824 -11.8751 161.722 -11.5926 161.517C-11.31 161.307 -11.1027 161.006 -10.9705 160.614C-10.8383 160.222 -10.7723 159.751 -10.7723 159.199C-10.7723 158.648 -10.8383 158.181 -10.9705 157.798C-11.1027 157.41 -11.31 157.117 -11.5926 156.916C-11.8751 156.711 -12.242 156.608 -12.6932 156.608C-13.3585 156.608 -13.8439 156.832 -14.1492 157.278C-14.4546 157.725 -14.6072 158.365 -14.6072 159.199ZM-4.07344 163.137C-4.78893 163.137 -5.40872 162.998 -5.93281 162.72C-6.4569 162.442 -6.86022 162.016 -7.14277 161.441C-7.42532 160.867 -7.5666 160.138 -7.5666 159.254C-7.5666 158.333 -7.41165 157.581 -7.10176 156.998C-6.79186 156.415 -6.36348 155.984 -5.8166 155.706C-5.26517 155.428 -4.63398 155.289 -3.92305 155.289C-3.47187 155.289 -3.064 155.335 -2.69941 155.426C-2.33027 155.512 -2.0181 155.619 -1.76289 155.747L-2.24141 157.032C-2.5194 156.918 -2.80423 156.823 -3.0959 156.745C-3.38756 156.668 -3.66784 156.629 -3.93672 156.629C-4.37878 156.629 -4.74792 156.727 -5.04414 156.923C-5.33581 157.119 -5.55456 157.41 -5.70039 157.798C-5.84167 158.185 -5.9123 158.666 -5.9123 159.24C-5.9123 159.796 -5.83939 160.266 -5.69355 160.648C-5.54772 161.027 -5.33125 161.314 -5.04414 161.51C-4.75703 161.701 -4.40384 161.797 -3.98457 161.797C-3.56986 161.797 -3.19844 161.747 -2.87031 161.646C-2.54219 161.546 -2.23229 161.416 -1.94062 161.257V162.651C-2.22773 162.815 -2.53535 162.936 -2.86348 163.014C-3.1916 163.096 -3.59492 163.137 -4.07344 163.137ZM2.95351 155.289C3.91055 155.289 4.63288 155.501 5.12051 155.925C5.61269 156.349 5.85879 157.009 5.85879 157.907V163H4.71719L4.40957 161.927H4.35488C4.14069 162.2 3.91966 162.426 3.6918 162.604C3.46393 162.781 3.19961 162.913 2.89883 163C2.6026 163.091 2.2403 163.137 1.81191 163.137C1.36074 163.137 0.95742 163.055 0.601952 162.891C0.246483 162.722 -0.0337906 162.467 -0.238869 162.125C-0.443947 161.783 -0.546486 161.35 -0.546486 160.826C-0.546486 160.047 -0.257098 159.461 0.321678 159.069C0.905011 158.677 1.78457 158.461 2.96035 158.42L4.27285 158.372V157.976C4.27285 157.451 4.1498 157.078 3.90371 156.854C3.66217 156.631 3.32038 156.52 2.87832 156.52C2.50006 156.52 2.1332 156.574 1.77773 156.684C1.42226 156.793 1.07591 156.927 0.73867 157.087L0.219139 155.952C0.58828 155.756 1.00755 155.597 1.47695 155.474C1.95091 155.351 2.4431 155.289 2.95351 155.289ZM4.26601 159.384L3.28848 159.418C2.48639 159.445 1.92357 159.582 1.6 159.828C1.27643 160.074 1.11465 160.411 1.11465 160.84C1.11465 161.214 1.2263 161.487 1.44961 161.66C1.67292 161.829 1.96686 161.913 2.33144 161.913C2.88743 161.913 3.34772 161.756 3.7123 161.441C4.08144 161.122 4.26601 160.655 4.26601 160.04V159.384ZM10.8008 163.137C9.89844 163.137 9.17383 162.809 8.62695 162.152C8.08464 161.492 7.81348 160.519 7.81348 159.233C7.81348 157.935 8.08919 156.952 8.64062 156.287C9.19661 155.622 9.92806 155.289 10.835 155.289C11.2178 155.289 11.5527 155.341 11.8398 155.446C12.127 155.547 12.373 155.683 12.5781 155.856C12.7878 156.03 12.9655 156.223 13.1113 156.438H13.1865C13.1637 156.296 13.1364 156.093 13.1045 155.829C13.0771 155.56 13.0635 155.312 13.0635 155.084V152.363H14.6768V163H13.4189L13.1318 161.968H13.0635C12.9268 162.187 12.7536 162.385 12.5439 162.562C12.3389 162.736 12.0928 162.875 11.8057 162.979C11.5231 163.084 11.1882 163.137 10.8008 163.137ZM11.252 161.831C11.9401 161.831 12.4255 161.633 12.708 161.236C12.9906 160.84 13.1364 160.245 13.1455 159.452V159.24C13.1455 158.393 13.0088 157.743 12.7354 157.292C12.4619 156.836 11.9629 156.608 11.2383 156.608C10.6595 156.608 10.2174 156.843 9.91211 157.312C9.61133 157.777 9.46094 158.427 9.46094 159.261C9.46094 160.095 9.61133 160.733 9.91211 161.175C10.2174 161.612 10.6641 161.831 11.252 161.831ZM23.8297 159.199C23.8297 159.828 23.7477 160.386 23.5836 160.874C23.4195 161.362 23.1803 161.774 22.8658 162.111C22.5514 162.444 22.1731 162.699 21.7311 162.877C21.289 163.05 20.79 163.137 20.234 163.137C19.7145 163.137 19.2382 163.05 18.8053 162.877C18.3723 162.699 17.9964 162.444 17.6773 162.111C17.3629 161.774 17.1191 161.362 16.9459 160.874C16.7727 160.386 16.6861 159.828 16.6861 159.199C16.6861 158.365 16.8297 157.659 17.1168 157.08C17.4085 156.497 17.8232 156.052 18.3609 155.747C18.8987 155.442 19.539 155.289 20.2818 155.289C20.9791 155.289 21.5943 155.442 22.1275 155.747C22.6607 156.052 23.0777 156.497 23.3785 157.08C23.6793 157.663 23.8297 158.37 23.8297 159.199ZM18.3404 159.199C18.3404 159.751 18.4065 160.222 18.5387 160.614C18.6754 161.006 18.885 161.307 19.1676 161.517C19.4501 161.722 19.8147 161.824 20.2613 161.824C20.7079 161.824 21.0725 161.722 21.3551 161.517C21.6376 161.307 21.845 161.006 21.9771 160.614C22.1093 160.222 22.1754 159.751 22.1754 159.199C22.1754 158.648 22.1093 158.181 21.9771 157.798C21.845 157.41 21.6376 157.117 21.3551 156.916C21.0725 156.711 20.7057 156.608 20.2545 156.608C19.5891 156.608 19.1038 156.832 18.7984 157.278C18.4931 157.725 18.3404 158.365 18.3404 159.199ZM-30.6914 185.363C-31.7168 185.363 -32.5029 185.179 -33.0498 184.81C-33.5967 184.44 -33.8701 183.923 -33.8701 183.258C-33.8701 182.793 -33.7243 182.399 -33.4326 182.075C-33.141 181.756 -32.724 181.535 -32.1816 181.412C-32.3867 181.321 -32.5645 181.18 -32.7148 180.988C-32.8607 180.792 -32.9336 180.576 -32.9336 180.339C-32.9336 180.056 -32.8538 179.815 -32.6943 179.614C-32.5348 179.414 -32.2956 179.22 -31.9766 179.033C-32.373 178.865 -32.6921 178.591 -32.9336 178.213C-33.1706 177.83 -33.2891 177.381 -33.2891 176.866C-33.2891 176.319 -33.1729 175.854 -32.9404 175.472C-32.708 175.084 -32.3685 174.79 -31.9219 174.59C-31.4753 174.385 -30.9352 174.282 -30.3018 174.282C-30.165 174.282 -30.0169 174.291 -29.8574 174.31C-29.6934 174.323 -29.543 174.341 -29.4062 174.364C-29.265 174.382 -29.1579 174.403 -29.085 174.426H-26.4668V175.321L-27.752 175.561C-27.6289 175.734 -27.5309 175.932 -27.458 176.155C-27.3851 176.374 -27.3486 176.613 -27.3486 176.873C-27.3486 177.657 -27.6198 178.274 -28.1621 178.726C-28.6999 179.172 -29.4427 179.396 -30.3906 179.396C-30.6185 179.386 -30.8395 179.368 -31.0537 179.341C-31.2178 179.441 -31.3431 179.553 -31.4297 179.676C-31.5163 179.794 -31.5596 179.929 -31.5596 180.079C-31.5596 180.202 -31.5163 180.302 -31.4297 180.38C-31.3431 180.453 -31.2155 180.507 -31.0469 180.544C-30.8737 180.58 -30.6641 180.599 -30.418 180.599H-29.1123C-28.2829 180.599 -27.6494 180.774 -27.2119 181.125C-26.7744 181.476 -26.5557 181.991 -26.5557 182.67C-26.5557 183.531 -26.9111 184.194 -27.6221 184.659C-28.333 185.129 -29.3561 185.363 -30.6914 185.363ZM-30.6299 184.235C-30.0693 184.235 -29.5977 184.181 -29.2148 184.071C-28.832 183.962 -28.5426 183.805 -28.3467 183.6C-28.1507 183.399 -28.0527 183.16 -28.0527 182.882C-28.0527 182.636 -28.1143 182.447 -28.2373 182.314C-28.3604 182.182 -28.5449 182.091 -28.791 182.041C-29.0371 181.991 -29.3424 181.966 -29.707 181.966H-30.8965C-31.1927 181.966 -31.4548 182.011 -31.6826 182.103C-31.9105 182.198 -32.0882 182.335 -32.2158 182.513C-32.3389 182.69 -32.4004 182.905 -32.4004 183.155C-32.4004 183.502 -32.2477 183.768 -31.9424 183.955C-31.6325 184.142 -31.195 184.235 -30.6299 184.235ZM-30.3154 178.343C-29.846 178.343 -29.4974 178.215 -29.2695 177.96C-29.0417 177.7 -28.9277 177.336 -28.9277 176.866C-28.9277 176.356 -29.0462 175.973 -29.2832 175.718C-29.5156 175.463 -29.862 175.335 -30.3223 175.335C-30.7734 175.335 -31.1175 175.465 -31.3545 175.725C-31.5869 175.984 -31.7031 176.369 -31.7031 176.88C-31.7031 177.34 -31.5869 177.7 -31.3545 177.96C-31.1175 178.215 -30.7712 178.343 -30.3154 178.343ZM-21.101 174.289C-20.9734 174.289 -20.8344 174.296 -20.684 174.31C-20.5336 174.323 -20.4037 174.341 -20.2943 174.364L-20.4447 175.868C-20.5404 175.841 -20.6589 175.82 -20.8002 175.807C-20.9369 175.793 -21.06 175.786 -21.1693 175.786C-21.4564 175.786 -21.7299 175.834 -21.9896 175.93C-22.2494 176.021 -22.4796 176.162 -22.6801 176.354C-22.8806 176.54 -23.0378 176.775 -23.1518 177.058C-23.2657 177.34 -23.3227 177.668 -23.3227 178.042V182H-24.9359V174.433H-23.6781L-23.4594 175.766H-23.3842C-23.2338 175.497 -23.0469 175.251 -22.8236 175.027C-22.6003 174.804 -22.3451 174.626 -22.058 174.494C-21.7663 174.357 -21.4473 174.289 -21.101 174.289ZM-15.7283 174.289C-15.0538 174.289 -14.4751 174.428 -13.992 174.706C-13.5089 174.984 -13.1375 175.378 -12.8777 175.889C-12.618 176.399 -12.4881 177.01 -12.4881 177.721V178.582H-17.5398C-17.5216 179.316 -17.3257 179.881 -16.952 180.277C-16.5737 180.674 -16.0451 180.872 -15.366 180.872C-14.8829 180.872 -14.45 180.826 -14.0672 180.735C-13.6798 180.64 -13.2811 180.501 -12.8709 180.318V181.624C-13.2492 181.802 -13.6342 181.932 -14.0262 182.014C-14.4181 182.096 -14.8875 182.137 -15.4344 182.137C-16.1772 182.137 -16.8312 181.993 -17.3963 181.706C-17.9568 181.414 -18.3966 180.981 -18.7156 180.407C-19.0301 179.833 -19.1873 179.12 -19.1873 178.268C-19.1873 177.42 -19.0437 176.7 -18.7566 176.107C-18.4695 175.515 -18.0662 175.064 -17.5467 174.754C-17.0271 174.444 -16.421 174.289 -15.7283 174.289ZM-15.7283 175.499C-16.2342 175.499 -16.6443 175.663 -16.9588 175.991C-17.2687 176.319 -17.451 176.8 -17.5057 177.434H-14.0604C-14.0649 177.055 -14.1287 176.72 -14.2518 176.429C-14.3702 176.137 -14.5525 175.909 -14.7986 175.745C-15.0402 175.581 -15.3501 175.499 -15.7283 175.499ZM-7.51191 174.289C-6.83743 174.289 -6.25866 174.428 -5.77559 174.706C-5.29251 174.984 -4.92109 175.378 -4.66133 175.889C-4.40156 176.399 -4.27168 177.01 -4.27168 177.721V178.582H-9.32344C-9.30521 179.316 -9.10924 179.881 -8.73555 180.277C-8.35729 180.674 -7.82865 180.872 -7.14961 180.872C-6.66654 180.872 -6.23359 180.826 -5.85078 180.735C-5.46341 180.64 -5.06465 180.501 -4.65449 180.318V181.624C-5.03275 181.802 -5.41784 181.932 -5.80976 182.014C-6.20169 182.096 -6.67109 182.137 -7.21797 182.137C-7.96081 182.137 -8.61478 181.993 -9.17988 181.706C-9.74043 181.414 -10.1802 180.981 -10.4992 180.407C-10.8137 179.833 -10.9709 179.12 -10.9709 178.268C-10.9709 177.42 -10.8273 176.7 -10.5402 176.107C-10.2531 175.515 -9.8498 175.064 -9.33027 174.754C-8.81074 174.444 -8.20462 174.289 -7.51191 174.289ZM-7.51191 175.499C-8.01777 175.499 -8.42793 175.663 -8.74238 175.991C-9.05228 176.319 -9.23457 176.8 -9.28926 177.434H-5.84394C-5.8485 177.055 -5.9123 176.72 -6.03535 176.429C-6.15384 176.137 -6.33613 175.909 -6.58223 175.745C-6.82376 175.581 -7.13366 175.499 -7.51191 175.499ZM1.63418 174.289C2.48639 174.289 3.14948 174.51 3.62344 174.952C4.10195 175.39 4.34121 176.094 4.34121 177.064V182H2.73477V177.365C2.73477 176.777 2.614 176.338 2.37246 176.046C2.13092 175.75 1.75723 175.602 1.25137 175.602C0.517644 175.602 0.00722694 175.827 -0.279882 176.278C-0.562435 176.729 -0.703711 177.383 -0.703711 178.24V182H-2.31016V174.433H-1.05918L-0.833593 175.458H-0.744726C-0.580664 175.194 -0.377864 174.977 -0.136328 174.809C0.109766 174.635 0.383204 174.506 0.683985 174.419C0.989323 174.332 1.30606 174.289 1.63418 174.289Z" fill="#323133"/>
<rect x="167" y="151" width="32" height="32" rx="16" fill="#323133"/>
<path d="M176.966 168.75V166H188.966V168.75H176.966Z" fill="white"/>
<path d="M218.754 154.451V163H217.066V156.396L215.039 157.041V155.711L218.572 154.451H218.754Z" fill="#323133"/>
<path d="M211.931 177.535V172.66H213.021V179H211.984L211.931 177.535ZM212.136 176.199L212.587 176.188C212.587 176.609 212.543 177 212.453 177.359C212.367 177.715 212.226 178.023 212.031 178.285C211.836 178.547 211.58 178.752 211.263 178.9C210.947 179.045 210.562 179.117 210.109 179.117C209.8 179.117 209.517 179.072 209.259 178.982C209.005 178.893 208.787 178.754 208.603 178.566C208.42 178.379 208.277 178.135 208.175 177.834C208.078 177.533 208.029 177.172 208.029 176.75V172.66H209.113V176.762C209.113 177.047 209.144 177.283 209.207 177.471C209.273 177.654 209.361 177.801 209.47 177.91C209.584 178.016 209.709 178.09 209.845 178.133C209.986 178.176 210.13 178.197 210.279 178.197C210.74 178.197 211.105 178.109 211.375 177.934C211.644 177.754 211.837 177.514 211.955 177.213C212.076 176.908 212.136 176.57 212.136 176.199ZM215.907 174.014V179H214.823V172.66H215.849L215.907 174.014ZM215.65 175.59L215.198 175.572C215.202 175.139 215.267 174.738 215.392 174.371C215.517 174 215.693 173.678 215.919 173.404C216.146 173.131 216.415 172.92 216.728 172.771C217.044 172.619 217.394 172.543 217.777 172.543C218.089 172.543 218.37 172.586 218.62 172.672C218.87 172.754 219.083 172.887 219.259 173.07C219.439 173.254 219.575 173.492 219.669 173.785C219.763 174.074 219.81 174.428 219.81 174.846V179H218.72V174.834C218.72 174.502 218.671 174.236 218.573 174.037C218.476 173.834 218.333 173.688 218.146 173.598C217.958 173.504 217.728 173.457 217.454 173.457C217.185 173.457 216.939 173.514 216.716 173.627C216.497 173.74 216.308 173.896 216.148 174.096C215.991 174.295 215.868 174.523 215.779 174.781C215.693 175.035 215.65 175.305 215.65 175.59ZM222.784 172.66V179H221.694V172.66H222.784ZM221.612 170.979C221.612 170.803 221.665 170.654 221.77 170.533C221.88 170.412 222.04 170.352 222.251 170.352C222.458 170.352 222.616 170.412 222.725 170.533C222.839 170.654 222.895 170.803 222.895 170.979C222.895 171.146 222.839 171.291 222.725 171.412C222.616 171.529 222.458 171.588 222.251 171.588C222.04 171.588 221.88 171.529 221.77 171.412C221.665 171.291 221.612 171.146 221.612 170.979ZM227.329 172.66V173.492H223.901V172.66H227.329ZM225.061 171.119H226.145V177.43C226.145 177.645 226.178 177.807 226.245 177.916C226.311 178.025 226.397 178.098 226.502 178.133C226.608 178.168 226.721 178.186 226.842 178.186C226.932 178.186 227.026 178.178 227.123 178.162C227.225 178.143 227.301 178.127 227.352 178.115L227.358 179C227.272 179.027 227.159 179.053 227.018 179.076C226.881 179.104 226.715 179.117 226.52 179.117C226.254 179.117 226.01 179.064 225.788 178.959C225.565 178.854 225.387 178.678 225.254 178.432C225.125 178.182 225.061 177.846 225.061 177.424V171.119Z" fill="#323133"/>
<rect x="236" y="151" width="32" height="32" rx="16" fill="#323133"/>
<path d="M253.824 165.182H259.966V167.879H253.824V174H251.091V167.879H244.966V165.182H251.091V159H253.824V165.182Z" fill="white"/>
<rect x="276" y="142" width="50" height="50" rx="25" fill="white"/>
<path d="M301 157C295.475 157 291 161.475 291 167C291 172.525 295.475 177 301 177C306.525 177 311 172.525 311 167C311 161.475 306.525 157 301 157ZM300.231 172.825H298.556L294.506 167.15L296.182 165.588L299.394 168.588L305.82 161.174L307.495 162.349L300.231 172.825Z" fill="#40B236"/>
</g>
<rect width="328" height="54" rx="27" fill="white"/>
<path d="M24.2734 33H16.7891V31.9141L19.8438 28.8125C20.4115 28.2396 20.888 27.7292 21.2734 27.2812C21.6641 26.8333 21.9609 26.3932 22.1641 25.9609C22.3672 25.5234 22.4688 25.0443 22.4688 24.5234C22.4688 23.8776 22.276 23.3854 21.8906 23.0469C21.5104 22.7031 21.0078 22.5312 20.3828 22.5312C19.8359 22.5312 19.3516 22.625 18.9297 22.8125C18.5078 23 18.0755 23.2656 17.6328 23.6094L16.9375 22.7344C17.2396 22.4792 17.5677 22.2526 17.9219 22.0547C18.2812 21.8568 18.6641 21.7005 19.0703 21.5859C19.4818 21.4714 19.9193 21.4141 20.3828 21.4141C21.0859 21.4141 21.6927 21.5365 22.2031 21.7812C22.7135 22.026 23.1068 22.375 23.3828 22.8281C23.6641 23.2812 23.8047 23.8203 23.8047 24.4453C23.8047 25.0495 23.6849 25.612 23.4453 26.1328C23.2057 26.6484 22.8698 27.1615 22.4375 27.6719C22.0052 28.1771 21.5 28.7135 20.9219 29.2812L18.4375 31.7578V31.8125H24.2734V33ZM33.1578 24.2422C33.1578 24.7526 33.0589 25.1953 32.8609 25.5703C32.663 25.9453 32.387 26.2526 32.0328 26.4922C31.6786 26.7266 31.262 26.8906 30.7828 26.9844V27.0469C31.6891 27.1615 32.3687 27.4531 32.8219 27.9219C33.2802 28.3906 33.5094 29.0052 33.5094 29.7656C33.5094 30.4271 33.3531 31.013 33.0406 31.5234C32.7333 32.0339 32.2594 32.4349 31.6187 32.7266C30.9833 33.013 30.1682 33.1562 29.1734 33.1562C28.5693 33.1562 28.0094 33.1068 27.4937 33.0078C26.9833 32.9141 26.4937 32.7552 26.025 32.5312V31.3125C26.499 31.5469 27.0146 31.7318 27.5719 31.8672C28.1292 31.9974 28.6682 32.0625 29.1891 32.0625C30.2307 32.0625 30.9833 31.8568 31.4469 31.4453C31.9104 31.0286 32.1422 30.4609 32.1422 29.7422C32.1422 29.2474 32.012 28.849 31.7516 28.5469C31.4964 28.2396 31.1266 28.0156 30.6422 27.875C30.163 27.7292 29.5849 27.6562 28.9078 27.6562H27.7672V26.5469H28.9156C29.5354 26.5469 30.0615 26.4557 30.4937 26.2734C30.926 26.0911 31.2542 25.8359 31.4781 25.5078C31.7073 25.1745 31.8219 24.7812 31.8219 24.3281C31.8219 23.75 31.6292 23.3047 31.2437 22.9922C30.8583 22.6745 30.3349 22.5156 29.6734 22.5156C29.2672 22.5156 28.8974 22.5573 28.5641 22.6406C28.2307 22.724 27.9182 22.8385 27.6266 22.9844C27.3349 23.1302 27.0432 23.2995 26.7516 23.4922L26.0953 22.6016C26.512 22.2786 27.0198 22 27.6187 21.7656C28.2177 21.5312 28.8974 21.4141 29.6578 21.4141C30.8245 21.4141 31.6995 21.6797 32.2828 22.2109C32.8661 22.7422 33.1578 23.4193 33.1578 24.2422ZM40.3078 21.5781L36.0578 33H34.7766L39.0344 21.5781H40.3078ZM46.2547 33H44.9891V24.9062C44.9891 24.599 44.9891 24.3359 44.9891 24.1172C44.9943 23.8932 44.9995 23.6901 45.0047 23.5078C45.0151 23.3203 45.0281 23.1302 45.0438 22.9375C44.8823 23.1042 44.7313 23.2474 44.5906 23.3672C44.45 23.4818 44.2755 23.625 44.0672 23.7969L42.7625 24.8438L42.0828 23.9609L45.1766 21.5781H46.2547V33ZM55.5609 33H54.2953V24.9062C54.2953 24.599 54.2953 24.3359 54.2953 24.1172C54.3005 23.8932 54.3057 23.6901 54.3109 23.5078C54.3214 23.3203 54.3344 23.1302 54.35 22.9375C54.1885 23.1042 54.0375 23.2474 53.8969 23.3672C53.7562 23.4818 53.5818 23.625 53.3734 23.7969L52.0687 24.8438L51.3891 23.9609L54.4828 21.5781H55.5609V33ZM64.9453 21.5781L60.6953 33H59.4141L63.6719 21.5781H64.9453ZM73.5484 33H66.0641V31.9141L69.1188 28.8125C69.6865 28.2396 70.163 27.7292 70.5484 27.2812C70.9391 26.8333 71.2359 26.3932 71.4391 25.9609C71.6422 25.5234 71.7438 25.0443 71.7438 24.5234C71.7438 23.8776 71.551 23.3854 71.1656 23.0469C70.7854 22.7031 70.2828 22.5312 69.6578 22.5312C69.1109 22.5312 68.6266 22.625 68.2047 22.8125C67.7828 23 67.3505 23.2656 66.9078 23.6094L66.2125 22.7344C66.5146 22.4792 66.8427 22.2526 67.1969 22.0547C67.5563 21.8568 67.9391 21.7005 68.3453 21.5859C68.7568 21.4714 69.1943 21.4141 69.6578 21.4141C70.3609 21.4141 70.9677 21.5365 71.4781 21.7812C71.9885 22.026 72.3818 22.375 72.6578 22.8281C72.9391 23.2812 73.0797 23.8203 73.0797 24.4453C73.0797 25.0495 72.9599 25.612 72.7203 26.1328C72.4807 26.6484 72.1448 27.1615 71.7125 27.6719C71.2802 28.1771 70.775 28.7135 70.1969 29.2812L67.7125 31.7578V31.8125H73.5484V33ZM82.9172 27.2734C82.9172 28.2005 82.8469 29.0286 82.7062 29.7578C82.5656 30.487 82.3443 31.1042 82.0422 31.6094C81.7401 32.1146 81.3495 32.5 80.8703 32.7656C80.3911 33.026 79.8156 33.1562 79.1437 33.1562C78.2948 33.1562 77.5917 32.9245 77.0344 32.4609C76.4823 31.9974 76.0682 31.3281 75.7922 30.4531C75.5214 29.5729 75.3859 28.513 75.3859 27.2734C75.3859 26.0547 75.5083 25.0078 75.7531 24.1328C76.0031 23.2526 76.4042 22.5781 76.9562 22.1094C77.5083 21.6354 78.2375 21.3984 79.1437 21.3984C80.0031 21.3984 80.7115 21.6328 81.2687 22.1016C81.826 22.5651 82.2401 23.237 82.5109 24.1172C82.7818 24.9922 82.9172 26.0443 82.9172 27.2734ZM76.6906 27.2734C76.6906 28.3359 76.7714 29.2214 76.9328 29.9297C77.0943 30.638 77.3547 31.1693 77.7141 31.5234C78.0786 31.8724 78.5552 32.0469 79.1437 32.0469C79.7323 32.0469 80.2062 31.8724 80.5656 31.5234C80.9302 31.1745 81.1932 30.6458 81.3547 29.9375C81.5214 29.2292 81.6047 28.3411 81.6047 27.2734C81.6047 26.2266 81.524 25.3516 81.3625 24.6484C81.201 23.9401 80.9406 23.4089 80.5812 23.0547C80.2219 22.6953 79.7427 22.5156 79.1437 22.5156C78.5448 22.5156 78.0656 22.6953 77.7062 23.0547C77.3469 23.4089 77.0865 23.9401 76.925 24.6484C76.7687 25.3516 76.6906 26.2266 76.6906 27.2734ZM92.1609 33H84.6766V31.9141L87.7312 28.8125C88.299 28.2396 88.7755 27.7292 89.1609 27.2812C89.5516 26.8333 89.8484 26.3932 90.0516 25.9609C90.2547 25.5234 90.3562 25.0443 90.3562 24.5234C90.3562 23.8776 90.1635 23.3854 89.7781 23.0469C89.3979 22.7031 88.8953 22.5312 88.2703 22.5312C87.7234 22.5312 87.2391 22.625 86.8172 22.8125C86.3953 23 85.963 23.2656 85.5203 23.6094L84.825 22.7344C85.1271 22.4792 85.4552 22.2526 85.8094 22.0547C86.1687 21.8568 86.5516 21.7005 86.9578 21.5859C87.3693 21.4714 87.8068 21.4141 88.2703 21.4141C88.9734 21.4141 89.5802 21.5365 90.0906 21.7812C90.601 22.026 90.9943 22.375 91.2703 22.8281C91.5516 23.2812 91.6922 23.8203 91.6922 24.4453C91.6922 25.0495 91.5724 25.612 91.3328 26.1328C91.0932 26.6484 90.7573 27.1615 90.325 27.6719C89.8927 28.1771 89.3875 28.7135 88.8094 29.2812L86.325 31.7578V31.8125H92.1609V33ZM101.467 33H93.9828V31.9141L97.0375 28.8125C97.6052 28.2396 98.0818 27.7292 98.4672 27.2812C98.8578 26.8333 99.1547 26.3932 99.3578 25.9609C99.5609 25.5234 99.6625 25.0443 99.6625 24.5234C99.6625 23.8776 99.4698 23.3854 99.0844 23.0469C98.7042 22.7031 98.2016 22.5312 97.5766 22.5312C97.0297 22.5312 96.5453 22.625 96.1234 22.8125C95.7016 23 95.2693 23.2656 94.8266 23.6094L94.1312 22.7344C94.4333 22.4792 94.7615 22.2526 95.1156 22.0547C95.475 21.8568 95.8578 21.7005 96.2641 21.5859C96.6755 21.4714 97.113 21.4141 97.5766 21.4141C98.2797 21.4141 98.8865 21.5365 99.3969 21.7812C99.9073 22.026 100.301 22.375 100.577 22.8281C100.858 23.2812 100.998 23.8203 100.998 24.4453C100.998 25.0495 100.879 25.612 100.639 26.1328C100.399 26.6484 100.064 27.1615 99.6312 27.6719C99.199 28.1771 98.6937 28.7135 98.1156 29.2812L95.6312 31.7578V31.8125H101.467V33Z" fill="#323133"/>
<path d="M107.641 29.2812V28.125H111.516V29.2812H107.641Z" fill="#323133"/>
<path d="M121.957 32H120.146V27.043C120.146 26.9062 120.148 26.7383 120.152 26.5391C120.156 26.3359 120.162 26.1289 120.17 25.918C120.178 25.7031 120.186 25.5098 120.193 25.3379C120.15 25.3887 120.062 25.4766 119.93 25.6016C119.801 25.7227 119.68 25.832 119.566 25.9297L118.582 26.7207L117.709 25.6309L120.469 23.4336H121.957V32ZM130.486 32H124.498V30.7402L126.648 28.5664C127.082 28.1211 127.429 27.75 127.691 27.4531C127.957 27.1523 128.148 26.8789 128.265 26.6328C128.386 26.3867 128.447 26.123 128.447 25.8418C128.447 25.502 128.351 25.248 128.16 25.0801C127.972 24.9082 127.72 24.8223 127.404 24.8223C127.072 24.8223 126.75 24.8984 126.437 25.0508C126.125 25.2031 125.798 25.4199 125.459 25.7012L124.474 24.5352C124.72 24.3242 124.98 24.125 125.254 23.9375C125.531 23.75 125.851 23.5996 126.214 23.4863C126.582 23.3691 127.021 23.3105 127.533 23.3105C128.095 23.3105 128.578 23.4121 128.98 23.6152C129.386 23.8184 129.699 24.0957 129.918 24.4473C130.136 24.7949 130.246 25.1895 130.246 25.6309C130.246 26.1035 130.152 26.5352 129.964 26.9258C129.777 27.3164 129.504 27.7031 129.144 28.0859C128.789 28.4688 128.359 28.8926 127.855 29.3574L126.754 30.3945V30.4766H130.486V32ZM135.38 32V23.4336H137.196V32H135.38ZM142.121 30.6934C142.317 30.6934 142.506 30.6738 142.69 30.6348C142.877 30.5957 143.063 30.5469 143.246 30.4883V31.8184C143.055 31.9043 142.817 31.9746 142.532 32.0293C142.25 32.0879 141.942 32.1172 141.606 32.1172C141.215 32.1172 140.864 32.0547 140.551 31.9297C140.243 31.8008 139.998 31.5801 139.819 31.2676C139.643 30.9512 139.555 30.5117 139.555 29.9492V26.791H138.7V26.0352L139.684 25.4375L140.2 24.0547H141.342V25.4492H143.176V26.791H141.342V29.9492C141.342 30.1992 141.413 30.3867 141.553 30.5117C141.698 30.6328 141.887 30.6934 142.121 30.6934ZM147.428 25.3262C148.033 25.3262 148.555 25.4434 148.992 25.6777C149.43 25.9082 149.768 26.2441 150.006 26.6855C150.244 27.127 150.363 27.666 150.363 28.3027V29.1699H146.139C146.158 29.6738 146.309 30.0703 146.59 30.3594C146.875 30.6445 147.27 30.7871 147.773 30.7871C148.191 30.7871 148.574 30.7441 148.922 30.6582C149.27 30.5723 149.627 30.4434 149.994 30.2715V31.6543C149.67 31.8145 149.33 31.9316 148.975 32.0059C148.623 32.0801 148.195 32.1172 147.691 32.1172C147.035 32.1172 146.453 31.9961 145.945 31.7539C145.441 31.5117 145.045 31.1426 144.756 30.6465C144.471 30.1504 144.328 29.5254 144.328 28.7715C144.328 28.0059 144.457 27.3691 144.715 26.8613C144.977 26.3496 145.34 25.9668 145.805 25.7129C146.27 25.4551 146.811 25.3262 147.428 25.3262ZM147.439 26.5977C147.092 26.5977 146.803 26.709 146.572 26.9316C146.346 27.1543 146.215 27.5039 146.18 27.9805H148.688C148.684 27.7148 148.635 27.4785 148.541 27.2715C148.451 27.0645 148.314 26.9004 148.131 26.7793C147.951 26.6582 147.721 26.5977 147.439 26.5977ZM159.66 25.3262C160.402 25.3262 160.963 25.5176 161.341 25.9004C161.724 26.2793 161.916 26.8887 161.916 27.7285V32H160.123V28.1738C160.123 27.7051 160.043 27.3516 159.882 27.1133C159.722 26.875 159.474 26.7559 159.138 26.7559C158.666 26.7559 158.33 26.9258 158.13 27.2656C157.931 27.6016 157.832 28.084 157.832 28.7129V32H156.045V28.1738C156.045 27.8613 156.009 27.5996 155.939 27.3887C155.869 27.1777 155.761 27.0195 155.617 26.9141C155.472 26.8086 155.287 26.7559 155.06 26.7559C154.728 26.7559 154.466 26.8398 154.275 27.0078C154.088 27.1719 153.953 27.416 153.871 27.7402C153.793 28.0605 153.754 28.4531 153.754 28.918V32H151.966V25.4492H153.332L153.572 26.2871H153.671C153.804 26.0605 153.97 25.877 154.17 25.7363C154.373 25.5957 154.595 25.4922 154.838 25.4258C155.08 25.3594 155.326 25.3262 155.576 25.3262C156.056 25.3262 156.463 25.4043 156.795 25.5605C157.13 25.7168 157.388 25.959 157.568 26.2871H157.726C157.921 25.9512 158.197 25.707 158.552 25.5547C158.912 25.4023 159.281 25.3262 159.66 25.3262ZM168.476 30.0547C168.476 30.5 168.37 30.877 168.159 31.1855C167.952 31.4902 167.642 31.7227 167.228 31.8828C166.814 32.0391 166.298 32.1172 165.681 32.1172C165.224 32.1172 164.831 32.0879 164.503 32.0293C164.179 31.9707 163.851 31.873 163.519 31.7363V30.2598C163.874 30.4199 164.255 30.5527 164.661 30.6582C165.071 30.7598 165.431 30.8105 165.739 30.8105C166.087 30.8105 166.335 30.7598 166.484 30.6582C166.636 30.5527 166.712 30.416 166.712 30.248C166.712 30.1387 166.681 30.041 166.618 29.9551C166.56 29.8652 166.431 29.7656 166.232 29.6562C166.032 29.543 165.72 29.3965 165.294 29.2168C164.884 29.0449 164.546 28.8711 164.28 28.6953C164.019 28.5195 163.823 28.3125 163.695 28.0742C163.57 27.832 163.507 27.5254 163.507 27.1543C163.507 26.5488 163.741 26.0938 164.21 25.7891C164.683 25.4805 165.314 25.3262 166.103 25.3262C166.509 25.3262 166.896 25.3672 167.263 25.4492C167.634 25.5312 168.015 25.6621 168.405 25.8418L167.866 27.1309C167.542 26.9902 167.236 26.875 166.946 26.7852C166.661 26.6953 166.37 26.6504 166.073 26.6504C165.812 26.6504 165.614 26.6855 165.482 26.7559C165.349 26.8262 165.282 26.9336 165.282 27.0781C165.282 27.1836 165.316 27.2773 165.382 27.3594C165.452 27.4414 165.585 27.5332 165.78 27.6348C165.98 27.7324 166.271 27.8594 166.654 28.0156C167.025 28.168 167.347 28.3281 167.62 28.4961C167.894 28.6602 168.105 28.8652 168.253 29.1113C168.402 29.3535 168.476 29.668 168.476 30.0547Z" fill="#323133"/>
<g clip-path="url(#clip1_1104_8531)">
<path d="M0 97C0 82.0883 12.0883 70 27 70H301C315.912 70 328 82.0883 328 97V97C328 111.912 315.912 124 301 124H27C12.0883 124 0 111.912 0 97V97Z" fill="#C8C4CC" fill-opacity="0.35"/>
<rect x="-134" y="70" width="328" height="54" rx="27" fill="white"/>
<path d="M-38.2266 103H-45.7109V101.914L-42.6562 98.8125C-42.0885 98.2396 -41.612 97.7292 -41.2266 97.2812C-40.8359 96.8333 -40.5391 96.3932 -40.3359 95.9609C-40.1328 95.5234 -40.0312 95.0443 -40.0312 94.5234C-40.0312 93.8776 -40.224 93.3854 -40.6094 93.0469C-40.9896 92.7031 -41.4922 92.5312 -42.1172 92.5312C-42.6641 92.5312 -43.1484 92.625 -43.5703 92.8125C-43.9922 93 -44.4245 93.2656 -44.8672 93.6094L-45.5625 92.7344C-45.2604 92.4792 -44.9323 92.2526 -44.5781 92.0547C-44.2188 91.8568 -43.8359 91.7005 -43.4297 91.5859C-43.0182 91.4714 -42.5807 91.4141 -42.1172 91.4141C-41.4141 91.4141 -40.8073 91.5365 -40.2969 91.7812C-39.7865 92.026 -39.3932 92.375 -39.1172 92.8281C-38.8359 93.2812 -38.6953 93.8203 -38.6953 94.4453C-38.6953 95.0495 -38.8151 95.612 -39.0547 96.1328C-39.2943 96.6484 -39.6302 97.1615 -40.0625 97.6719C-40.4948 98.1771 -41 98.7135 -41.5781 99.2812L-44.0625 101.758V101.812H-38.2266V103ZM-29.3422 94.2422C-29.3422 94.7526 -29.4411 95.1953 -29.6391 95.5703C-29.837 95.9453 -30.113 96.2526 -30.4672 96.4922C-30.8214 96.7266 -31.238 96.8906 -31.7172 96.9844V97.0469C-30.8109 97.1615 -30.1313 97.4531 -29.6781 97.9219C-29.2198 98.3906 -28.9906 99.0052 -28.9906 99.7656C-28.9906 100.427 -29.1469 101.013 -29.4594 101.523C-29.7667 102.034 -30.2406 102.435 -30.8813 102.727C-31.5167 103.013 -32.3318 103.156 -33.3266 103.156C-33.9307 103.156 -34.4906 103.107 -35.0063 103.008C-35.5167 102.914 -36.0063 102.755 -36.475 102.531V101.312C-36.001 101.547 -35.4854 101.732 -34.9281 101.867C-34.3708 101.997 -33.8318 102.062 -33.3109 102.062C-32.2693 102.062 -31.5167 101.857 -31.0531 101.445C-30.5896 101.029 -30.3578 100.461 -30.3578 99.7422C-30.3578 99.2474 -30.488 98.849 -30.7484 98.5469C-31.0036 98.2396 -31.3734 98.0156 -31.8578 97.875C-32.337 97.7292 -32.9151 97.6562 -33.5922 97.6562H-34.7328V96.5469H-33.5844C-32.9646 96.5469 -32.4385 96.4557 -32.0063 96.2734C-31.574 96.0911 -31.2458 95.8359 -31.0219 95.5078C-30.7927 95.1745 -30.6781 94.7812 -30.6781 94.3281C-30.6781 93.75 -30.8708 93.3047 -31.2563 92.9922C-31.6417 92.6745 -32.1651 92.5156 -32.8266 92.5156C-33.2328 92.5156 -33.6026 92.5573 -33.9359 92.6406C-34.2693 92.724 -34.5818 92.8385 -34.8734 92.9844C-35.1651 93.1302 -35.4568 93.2995 -35.7484 93.4922L-36.4047 92.6016C-35.988 92.2786 -35.4802 92 -34.8813 91.7656C-34.2823 91.5312 -33.6026 91.4141 -32.8422 91.4141C-31.6755 91.4141 -30.8005 91.6797 -30.2172 92.2109C-29.6339 92.7422 -29.3422 93.4193 -29.3422 94.2422ZM-22.1922 91.5781L-26.4422 103H-27.7234L-23.4656 91.5781H-22.1922ZM-16.2453 103H-17.5109V94.9062C-17.5109 94.599 -17.5109 94.3359 -17.5109 94.1172C-17.5057 93.8932 -17.5005 93.6901 -17.4953 93.5078C-17.4849 93.3203 -17.4719 93.1302 -17.4562 92.9375C-17.6177 93.1042 -17.7687 93.2474 -17.9094 93.3672C-18.05 93.4818 -18.2245 93.625 -18.4328 93.7969L-19.7375 94.8438L-20.4172 93.9609L-17.3234 91.5781H-16.2453V103ZM-6.93906 103H-8.20469V94.9062C-8.20469 94.599 -8.20469 94.3359 -8.20469 94.1172C-8.19948 93.8932 -8.19427 93.6901 -8.18906 93.5078C-8.17865 93.3203 -8.16563 93.1302 -8.15 92.9375C-8.31146 93.1042 -8.4625 93.2474 -8.60313 93.3672C-8.74375 93.4818 -8.91823 93.625 -9.12656 93.7969L-10.4313 94.8438L-11.1109 93.9609L-8.01719 91.5781H-6.93906V103ZM2.44531 91.5781L-1.80469 103H-3.08594L1.17188 91.5781H2.44531ZM11.0484 103H3.56406V101.914L6.61875 98.8125C7.18646 98.2396 7.66302 97.7292 8.04844 97.2812C8.43906 96.8333 8.73594 96.3932 8.93906 95.9609C9.14219 95.5234 9.24375 95.0443 9.24375 94.5234C9.24375 93.8776 9.05104 93.3854 8.66563 93.0469C8.28542 92.7031 7.78281 92.5312 7.15781 92.5312C6.61094 92.5312 6.12656 92.625 5.70469 92.8125C5.28281 93 4.85052 93.2656 4.40781 93.6094L3.7125 92.7344C4.01458 92.4792 4.34271 92.2526 4.69688 92.0547C5.05625 91.8568 5.43906 91.7005 5.84531 91.5859C6.25677 91.4714 6.69427 91.4141 7.15781 91.4141C7.86094 91.4141 8.46771 91.5365 8.97813 91.7812C9.48854 92.026 9.88177 92.375 10.1578 92.8281C10.4391 93.2812 10.5797 93.8203 10.5797 94.4453C10.5797 95.0495 10.4599 95.612 10.2203 96.1328C9.98073 96.6484 9.64479 97.1615 9.2125 97.6719C8.78021 98.1771 8.275 98.7135 7.69688 99.2812L5.2125 101.758V101.812H11.0484V103ZM20.4172 97.2734C20.4172 98.2005 20.3469 99.0286 20.2062 99.7578C20.0656 100.487 19.8443 101.104 19.5422 101.609C19.2401 102.115 18.8495 102.5 18.3703 102.766C17.8911 103.026 17.3156 103.156 16.6437 103.156C15.7948 103.156 15.0917 102.924 14.5344 102.461C13.9823 101.997 13.5682 101.328 13.2922 100.453C13.0214 99.5729 12.8859 98.513 12.8859 97.2734C12.8859 96.0547 13.0083 95.0078 13.2531 94.1328C13.5031 93.2526 13.9042 92.5781 14.4562 92.1094C15.0083 91.6354 15.7375 91.3984 16.6437 91.3984C17.5031 91.3984 18.2115 91.6328 18.7687 92.1016C19.326 92.5651 19.7401 93.237 20.0109 94.1172C20.2818 94.9922 20.4172 96.0443 20.4172 97.2734ZM14.1906 97.2734C14.1906 98.3359 14.2714 99.2214 14.4328 99.9297C14.5943 100.638 14.8547 101.169 15.2141 101.523C15.5786 101.872 16.0552 102.047 16.6437 102.047C17.2323 102.047 17.7062 101.872 18.0656 101.523C18.4302 101.174 18.6932 100.646 18.8547 99.9375C19.0214 99.2292 19.1047 98.3411 19.1047 97.2734C19.1047 96.2266 19.024 95.3516 18.8625 94.6484C18.701 93.9401 18.4406 93.4089 18.0812 93.0547C17.7219 92.6953 17.2427 92.5156 16.6437 92.5156C16.0448 92.5156 15.5656 92.6953 15.2062 93.0547C14.8469 93.4089 14.5865 93.9401 14.425 94.6484C14.2687 95.3516 14.1906 96.2266 14.1906 97.2734ZM29.6609 103H22.1766V101.914L25.2312 98.8125C25.799 98.2396 26.2755 97.7292 26.6609 97.2812C27.0516 96.8333 27.3484 96.3932 27.5516 95.9609C27.7547 95.5234 27.8562 95.0443 27.8562 94.5234C27.8562 93.8776 27.6635 93.3854 27.2781 93.0469C26.8979 92.7031 26.3953 92.5312 25.7703 92.5312C25.2234 92.5312 24.7391 92.625 24.3172 92.8125C23.8953 93 23.463 93.2656 23.0203 93.6094L22.325 92.7344C22.6271 92.4792 22.9552 92.2526 23.3094 92.0547C23.6687 91.8568 24.0516 91.7005 24.4578 91.5859C24.8693 91.4714 25.3068 91.4141 25.7703 91.4141C26.4734 91.4141 27.0802 91.5365 27.5906 91.7812C28.101 92.026 28.4943 92.375 28.7703 92.8281C29.0516 93.2812 29.1922 93.8203 29.1922 94.4453C29.1922 95.0495 29.0724 95.612 28.8328 96.1328C28.5932 96.6484 28.2573 97.1615 27.825 97.6719C27.3927 98.1771 26.8875 98.7135 26.3094 99.2812L23.825 101.758V101.812H29.6609V103ZM38.9672 103H31.4828V101.914L34.5375 98.8125C35.1052 98.2396 35.5818 97.7292 35.9672 97.2812C36.3578 96.8333 36.6547 96.3932 36.8578 95.9609C37.0609 95.5234 37.1625 95.0443 37.1625 94.5234C37.1625 93.8776 36.9698 93.3854 36.5844 93.0469C36.2042 92.7031 35.7016 92.5312 35.0766 92.5312C34.5297 92.5312 34.0453 92.625 33.6234 92.8125C33.2016 93 32.7693 93.2656 32.3266 93.6094L31.6312 92.7344C31.9333 92.4792 32.2615 92.2526 32.6156 92.0547C32.975 91.8568 33.3578 91.7005 33.7641 91.5859C34.1755 91.4714 34.613 91.4141 35.0766 91.4141C35.7797 91.4141 36.3865 91.5365 36.8969 91.7812C37.4073 92.026 37.8005 92.375 38.0766 92.8281C38.3578 93.2812 38.4984 93.8203 38.4984 94.4453C38.4984 95.0495 38.3786 95.612 38.1391 96.1328C37.8995 96.6484 37.5635 97.1615 37.1312 97.6719C36.699 98.1771 36.1937 98.7135 35.6156 99.2812L33.1312 101.758V101.812H38.9672V103Z" fill="#323133"/>
<path d="M45.1406 99.2812V98.125H49.0156V99.2812H45.1406Z" fill="#323133"/>
<path d="M59.457 102H57.6465V97.043C57.6465 96.9062 57.6484 96.7383 57.6523 96.5391C57.6562 96.3359 57.6621 96.1289 57.6699 95.918C57.6777 95.7031 57.6855 95.5098 57.6934 95.3379C57.6504 95.3887 57.5625 95.4766 57.4297 95.6016C57.3008 95.7227 57.1797 95.832 57.0664 95.9297L56.082 96.7207L55.209 95.6309L57.9688 93.4336H59.457V102ZM67.9859 102H61.9977V100.74L64.148 98.5664C64.5816 98.1211 64.9293 97.75 65.191 97.4531C65.4566 97.1523 65.648 96.8789 65.7652 96.6328C65.8863 96.3867 65.9469 96.123 65.9469 95.8418C65.9469 95.502 65.8512 95.248 65.6598 95.0801C65.4723 94.9082 65.2203 94.8223 64.9039 94.8223C64.5719 94.8223 64.2496 94.8984 63.9371 95.0508C63.6246 95.2031 63.2984 95.4199 62.9586 95.7012L61.9742 94.5352C62.2203 94.3242 62.4801 94.125 62.7535 93.9375C63.0309 93.75 63.3512 93.5996 63.7145 93.4863C64.0816 93.3691 64.5211 93.3105 65.0328 93.3105C65.5953 93.3105 66.0777 93.4121 66.4801 93.6152C66.8863 93.8184 67.1988 94.0957 67.4176 94.4473C67.6363 94.7949 67.7457 95.1895 67.7457 95.6309C67.7457 96.1035 67.652 96.5352 67.4645 96.9258C67.277 97.3164 67.0035 97.7031 66.6441 98.0859C66.2887 98.4688 65.859 98.8926 65.3551 99.3574L64.2535 100.395V100.477H67.9859V102ZM72.8797 102V93.4336H74.6961V102H72.8797ZM79.6215 100.693C79.8168 100.693 80.0063 100.674 80.1898 100.635C80.3773 100.596 80.5629 100.547 80.7465 100.488V101.818C80.5551 101.904 80.3168 101.975 80.0316 102.029C79.7504 102.088 79.4418 102.117 79.1059 102.117C78.7152 102.117 78.3637 102.055 78.0512 101.93C77.7426 101.801 77.4984 101.58 77.3188 101.268C77.143 100.951 77.0551 100.512 77.0551 99.9492V96.791H76.1996V96.0352L77.184 95.4375L77.6996 94.0547H78.8422V95.4492H80.6762V96.791H78.8422V99.9492C78.8422 100.199 78.9125 100.387 79.0531 100.512C79.1977 100.633 79.3871 100.693 79.6215 100.693ZM84.9277 95.3262C85.5332 95.3262 86.0547 95.4434 86.4922 95.6777C86.9297 95.9082 87.2676 96.2441 87.5059 96.6855C87.7441 97.127 87.8633 97.666 87.8633 98.3027V99.1699H83.6387C83.6582 99.6738 83.8086 100.07 84.0898 100.359C84.375 100.645 84.7695 100.787 85.2734 100.787C85.6914 100.787 86.0742 100.744 86.4219 100.658C86.7695 100.572 87.127 100.443 87.4941 100.271V101.654C87.1699 101.814 86.8301 101.932 86.4746 102.006C86.123 102.08 85.6953 102.117 85.1914 102.117C84.5352 102.117 83.9531 101.996 83.4453 101.754C82.9414 101.512 82.5449 101.143 82.2559 100.646C81.9707 100.15 81.8281 99.5254 81.8281 98.7715C81.8281 98.0059 81.957 97.3691 82.2148 96.8613C82.4766 96.3496 82.8398 95.9668 83.3047 95.7129C83.7695 95.4551 84.3105 95.3262 84.9277 95.3262ZM84.9395 96.5977C84.5918 96.5977 84.3027 96.709 84.0723 96.9316C83.8457 97.1543 83.7148 97.5039 83.6797 97.9805H86.1875C86.1836 97.7148 86.1348 97.4785 86.041 97.2715C85.9512 97.0645 85.8145 96.9004 85.6309 96.7793C85.4512 96.6582 85.2207 96.5977 84.9395 96.5977ZM97.1598 95.3262C97.902 95.3262 98.4625 95.5176 98.8414 95.9004C99.2242 96.2793 99.4156 96.8887 99.4156 97.7285V102H97.6227V98.1738C97.6227 97.7051 97.5426 97.3516 97.3824 97.1133C97.2223 96.875 96.9742 96.7559 96.6383 96.7559C96.1656 96.7559 95.8297 96.9258 95.6305 97.2656C95.4313 97.6016 95.3316 98.084 95.3316 98.7129V102H93.5445V98.1738C93.5445 97.8613 93.5094 97.5996 93.4391 97.3887C93.3688 97.1777 93.2613 97.0195 93.1168 96.9141C92.9723 96.8086 92.7867 96.7559 92.5602 96.7559C92.2281 96.7559 91.9664 96.8398 91.775 97.0078C91.5875 97.1719 91.4527 97.416 91.3707 97.7402C91.2926 98.0605 91.2535 98.4531 91.2535 98.918V102H89.4664V95.4492H90.8316L91.0719 96.2871H91.1715C91.3043 96.0605 91.4703 95.877 91.6695 95.7363C91.8727 95.5957 92.0953 95.4922 92.3375 95.4258C92.5797 95.3594 92.8258 95.3262 93.0758 95.3262C93.5563 95.3262 93.9625 95.4043 94.2945 95.5605C94.6305 95.7168 94.8883 95.959 95.068 96.2871H95.2262C95.4215 95.9512 95.6969 95.707 96.0523 95.5547C96.4117 95.4023 96.7809 95.3262 97.1598 95.3262ZM105.976 100.055C105.976 100.5 105.87 100.877 105.659 101.186C105.452 101.49 105.142 101.723 104.728 101.883C104.314 102.039 103.798 102.117 103.181 102.117C102.724 102.117 102.331 102.088 102.003 102.029C101.679 101.971 101.351 101.873 101.019 101.736V100.26C101.374 100.42 101.755 100.553 102.161 100.658C102.571 100.76 102.931 100.811 103.239 100.811C103.587 100.811 103.835 100.76 103.984 100.658C104.136 100.553 104.212 100.416 104.212 100.248C104.212 100.139 104.181 100.041 104.118 99.9551C104.06 99.8652 103.931 99.7656 103.732 99.6562C103.532 99.543 103.22 99.3965 102.794 99.2168C102.384 99.0449 102.046 98.8711 101.78 98.6953C101.519 98.5195 101.323 98.3125 101.195 98.0742C101.07 97.832 101.007 97.5254 101.007 97.1543C101.007 96.5488 101.241 96.0938 101.71 95.7891C102.183 95.4805 102.814 95.3262 103.603 95.3262C104.009 95.3262 104.396 95.3672 104.763 95.4492C105.134 95.5312 105.515 95.6621 105.905 95.8418L105.366 97.1309C105.042 96.9902 104.736 96.875 104.446 96.7852C104.161 96.6953 103.87 96.6504 103.573 96.6504C103.312 96.6504 103.114 96.6855 102.982 96.7559C102.849 96.8262 102.782 96.9336 102.782 97.0781C102.782 97.1836 102.816 97.2773 102.882 97.3594C102.952 97.4414 103.085 97.5332 103.28 97.6348C103.48 97.7324 103.771 97.8594 104.154 98.0156C104.525 98.168 104.847 98.3281 105.12 98.4961C105.394 98.6602 105.605 98.8652 105.753 99.1113C105.902 99.3535 105.976 99.668 105.976 100.055Z" fill="#323133"/>
<rect x="210" y="72" width="50" height="50" rx="25" fill="white"/>
<path fill-rule="evenodd" clip-rule="evenodd" d="M235 107C240.523 107 245 102.523 245 97C245 91.4772 240.523 87 235 87C229.477 87 225 91.4772 225 97C225 102.523 229.477 107 235 107ZM239.721 100.356C239.9 100.537 240 100.782 240 101.037C240 101.292 239.9 101.536 239.721 101.718L239.717 101.722L239.713 101.726C239.532 101.901 239.289 102 239.036 102C238.783 102 238.541 101.901 238.36 101.726L238.353 101.719L235 98.3495L231.641 101.726C231.459 101.901 231.217 102 230.964 102C230.711 102 230.468 101.901 230.287 101.726L230.283 101.722L230.279 101.718C230.1 101.536 230 101.292 230 101.037C230 100.782 230.1 100.537 230.279 100.356L230.281 100.354L233.642 96.9869L230.263 93.6018L230.247 93.5822C230.095 93.3963 230.018 93.1606 230.03 92.921C230.041 92.6814 230.141 92.4544 230.311 92.2843C230.481 92.1141 230.708 92.013 230.948 92.0012C231.188 91.9893 231.424 92.0676 231.609 92.2204L231.629 92.2365L235 95.6242L238.371 92.2365L238.391 92.2204C238.576 92.0676 238.812 91.9893 239.052 92.0012C239.293 92.013 239.52 92.1141 239.689 92.2843C239.859 92.4544 239.959 92.6814 239.971 92.921C239.982 93.1606 239.905 93.3963 239.753 93.5822L239.737 93.6018L236.358 96.9869L239.721 100.356ZM238.717 92.6163C238.774 92.5692 238.841 92.5372 238.913 92.5223C238.841 92.5372 238.774 92.5692 238.717 92.6162L235 96.3513L235 96.3512L238.717 92.6163ZM230.674 92.6463C230.752 92.5682 230.856 92.5212 230.965 92.5138C230.855 92.5211 230.752 92.5682 230.674 92.6463C230.594 92.7263 230.547 92.8331 230.542 92.9461C230.536 93.0591 230.573 93.1701 230.644 93.2575L234.367 96.9868L230.644 100.716C230.56 100.802 230.513 100.917 230.513 101.037C230.513 101.157 230.56 101.272 230.644 101.358C230.73 101.441 230.845 101.487 230.964 101.487L230.964 101.487C230.845 101.487 230.73 101.441 230.644 101.358C230.56 101.272 230.513 101.157 230.513 101.037C230.513 100.917 230.56 100.802 230.644 100.716L234.367 96.9869L230.644 93.2575C230.573 93.1701 230.536 93.0591 230.542 92.9461C230.547 92.8331 230.595 92.7262 230.674 92.6463ZM238.717 101.358L235 97.6226L235 97.6225L238.717 101.358C238.803 101.441 238.917 101.487 239.036 101.487L239.036 101.487C238.917 101.487 238.802 101.441 238.717 101.358Z" fill="#FF4A33"/>
<rect x="276" y="72" width="50" height="50" rx="25" fill="white"/>
<path fill-rule="evenodd" clip-rule="evenodd" d="M301 107C306.523 107 311 102.523 311 97C311 91.4772 306.523 87 301 87C295.477 87 291 91.4772 291 97C291 102.523 295.477 107 301 107ZM302.593 93.0822L304.919 95.3836L305.698 94.6027C305.908 94.3931 306.009 94.1397 305.999 93.8427C305.99 93.5458 305.881 93.2922 305.671 93.0822L304.905 92.3151C304.696 92.105 304.438 92 304.133 92C303.827 92 303.569 92.105 303.359 92.3151L302.593 93.0822ZM298.325 102L304.125 96.1918L301.8 93.863L296 99.6712V102H298.325Z" fill="#FFBF00"/>
</g>
<defs>
<clipPath id="clip0_1104_8531">
<rect y="140" width="328" height="54" rx="27" fill="white"/>
</clipPath>
<clipPath id="clip1_1104_8531">
<path d="M0 97C0 82.0883 12.0883 70 27 70H301C315.912 70 328 82.0883 328 97V97C328 111.912 315.912 124 301 124H27C12.0883 124 0 111.912 0 97V97Z" fill="white"/>
</clipPath>
</defs>
</svg>
