<svg width="400" height="400" viewBox="0 0 400 400" fill="none" xmlns="http://www.w3.org/2000/svg">
<path fill-rule="evenodd" clip-rule="evenodd" d="M200 330C128.114 330 70 271.886 70 200C70 128.114 128.114 70 200 70C271.886 70 330 128.114 330 200C330 271.886 271.886 330 200 330ZM200 74C130.286 74 74 130.286 74 200C74 269.714 130.286 326 200 326C269.714 326 326 269.714 326 200C326 130.286 269.714 74 200 74Z" fill="#FF4061"/>
<path fill-rule="evenodd" clip-rule="evenodd" d="M184 245.286L274.4 154.886L277.115 157.6L184 250.715L122.885 189.6L125.6 186.886L184 245.286Z" fill="#FF4061"/>
</svg>
