<svg width="172" height="180" viewBox="0 0 172 180" fill="none" xmlns="http://www.w3.org/2000/svg">
<path d="M53.0796 131V124.016C53.0796 123.476 52.9416 123.074 52.6656 122.81C52.4016 122.534 52.0236 122.396 51.5316 122.396H45.9336L46.2396 120.146H51.6756C53.0436 120.146 54.0756 120.47 54.7716 121.118C55.4676 121.754 55.8156 122.702 55.8156 123.962V131H53.0796ZM46.1676 131V125.15L48.9036 125.006V131H46.1676ZM58.6357 126.428V120.146H61.3717V126.428H58.6357ZM57.1597 122.396L57.4657 120.146H60.1657V122.396H57.1597ZM68.3743 131V124.016C68.3743 123.476 68.2423 123.074 67.9783 122.81C67.7143 122.534 67.3303 122.396 66.8263 122.396H63.1543L63.4423 120.146H66.9703C68.3383 120.146 69.3703 120.47 70.0663 121.118C70.7623 121.754 71.1103 122.702 71.1103 123.962V131H68.3743ZM73.9638 131V120.146H76.6998V131H73.9638ZM72.4878 122.396L72.7938 120.146H75.7638V122.396H72.4878ZM82.4939 131.09L81.9899 128.768H81.7919C81.5879 129.176 81.3839 129.524 81.1799 129.812C80.9879 130.1 80.7719 130.334 80.5319 130.514C80.3039 130.682 80.0459 130.808 79.7579 130.892C79.4699 130.964 79.1279 131 78.7319 131H78.2999V128.696H78.7319C79.0799 128.684 79.4039 128.63 79.7039 128.534C80.0039 128.438 80.2739 128.312 80.5139 128.156C80.7659 128 80.9819 127.838 81.1619 127.67C81.3419 127.49 81.4799 127.322 81.5759 127.166V123.584C81.5759 123.14 81.4679 122.834 81.2519 122.666C81.0479 122.498 80.6939 122.414 80.1899 122.414H79.1279L79.4159 120.146H80.9279C81.7079 120.146 82.3439 120.272 82.8359 120.524C83.3399 120.764 83.7119 121.118 83.9519 121.586C84.1919 122.054 84.3119 122.63 84.3119 123.314V127.832L84.9239 130.658L82.4939 131.09ZM91.3158 131.162C89.6478 131.162 88.3638 130.652 87.4638 129.632C86.5758 128.6 86.1318 127.088 86.1318 125.096V120.146H88.8498V125.096C88.8498 126.368 89.0598 127.334 89.4798 127.994C89.9118 128.654 90.5058 128.984 91.2618 128.984C92.0418 128.984 92.6538 128.654 93.0978 127.994C93.5418 127.334 93.7638 126.368 93.7638 125.096C93.7638 124.196 93.6498 123.494 93.4218 122.99C93.2058 122.486 92.8218 122.228 92.2698 122.216C92.0058 122.204 91.7598 122.222 91.5318 122.27C91.3158 122.318 91.0758 122.372 90.8118 122.432V120.254C91.1598 120.194 91.4838 120.14 91.7838 120.092C92.0838 120.044 92.4078 120.02 92.7558 120.02C94.0398 120.044 94.9818 120.494 95.5818 121.37C96.1818 122.234 96.4818 123.476 96.4818 125.096C96.4818 127.088 96.0318 128.6 95.1318 129.632C94.2438 130.652 92.9718 131.162 91.3158 131.162ZM102.947 131L105.449 122.378H98.0687L98.3567 120.146H108.545L108.365 121.766L105.683 131H102.947ZM98.5007 134.312V124.682L101.237 124.52V134.168L98.5007 134.312Z" fill="black"/>
<path d="M53.0796 171V164.016C53.0796 163.476 52.9416 163.074 52.6656 162.81C52.4016 162.534 52.0236 162.396 51.5316 162.396H45.9336L46.2396 160.146H51.6756C53.0436 160.146 54.0756 160.47 54.7716 161.118C55.4676 161.754 55.8156 162.702 55.8156 163.962V171H53.0796ZM46.1676 171V165.15L48.9036 165.006V171H46.1676ZM58.6357 166.428V160.146H61.3717V166.428H58.6357ZM57.1597 162.396L57.4657 160.146H60.1657V162.396H57.1597ZM68.3743 171V164.016C68.3743 163.476 68.2423 163.074 67.9783 162.81C67.7143 162.534 67.3303 162.396 66.8263 162.396H63.1543L63.4423 160.146H66.9703C68.3383 160.146 69.3703 160.47 70.0663 161.118C70.7623 161.754 71.1103 162.702 71.1103 163.962V171H68.3743ZM73.9638 171V160.146H76.6998V171H73.9638ZM72.4878 162.396L72.7938 160.146H75.7638V162.396H72.4878ZM82.4939 171.09L81.9899 168.768H81.7919C81.5879 169.176 81.3839 169.524 81.1799 169.812C80.9879 170.1 80.7719 170.334 80.5319 170.514C80.3039 170.682 80.0459 170.808 79.7579 170.892C79.4699 170.964 79.1279 171 78.7319 171H78.2999V168.696H78.7319C79.0799 168.684 79.4039 168.63 79.7039 168.534C80.0039 168.438 80.2739 168.312 80.5139 168.156C80.7659 168 80.9819 167.838 81.1619 167.67C81.3419 167.49 81.4799 167.322 81.5759 167.166V163.584C81.5759 163.14 81.4679 162.834 81.2519 162.666C81.0479 162.498 80.6939 162.414 80.1899 162.414H79.1279L79.4159 160.146H80.9279C81.7079 160.146 82.3439 160.272 82.8359 160.524C83.3399 160.764 83.7119 161.118 83.9519 161.586C84.1919 162.054 84.3119 162.63 84.3119 163.314V167.832L84.9239 170.658L82.4939 171.09ZM91.3158 171.162C89.6478 171.162 88.3638 170.652 87.4638 169.632C86.5758 168.6 86.1318 167.088 86.1318 165.096V160.146H88.8498V165.096C88.8498 166.368 89.0598 167.334 89.4798 167.994C89.9118 168.654 90.5058 168.984 91.2618 168.984C92.0418 168.984 92.6538 168.654 93.0978 167.994C93.5418 167.334 93.7638 166.368 93.7638 165.096C93.7638 164.196 93.6498 163.494 93.4218 162.99C93.2058 162.486 92.8218 162.228 92.2698 162.216C92.0058 162.204 91.7598 162.222 91.5318 162.27C91.3158 162.318 91.0758 162.372 90.8118 162.432V160.254C91.1598 160.194 91.4838 160.14 91.7838 160.092C92.0838 160.044 92.4078 160.02 92.7558 160.02C94.0398 160.044 94.9818 160.494 95.5818 161.37C96.1818 162.234 96.4818 163.476 96.4818 165.096C96.4818 167.088 96.0318 168.6 95.1318 169.632C94.2438 170.652 92.9718 171.162 91.3158 171.162ZM102.947 171L105.449 162.378H98.0687L98.3567 160.146H108.545L108.365 161.766L105.683 171H102.947ZM98.5007 174.312V164.682L101.237 164.52V174.168L98.5007 174.312Z" fill="black"/>
<path d="M109 176H45V184H109V176Z" fill="url(#paint0_linear_1426_10610)" mask="url(#path-2-inside-1_1426_10610)"/>
<g filter="url(#filter0_d_1426_10610)">
<mask id="path-5-inside-2_1426_10610" fill="white">
<path d="M4 64C4 59.5817 7.58172 56 12 56H156C160.418 56 164 59.5817 164 64V88C164 92.4183 160.418 96 156 96H12C7.58172 96 4 92.4183 4 88V64Z"/>
</mask>
<path d="M4 64C4 59.5817 7.58172 56 12 56H156C160.418 56 164 59.5817 164 64V88C164 92.4183 160.418 96 156 96H12C7.58172 96 4 92.4183 4 88V64Z" fill="url(#paint1_linear_1426_10610)"/>
<path d="M4 56H164H4ZM165 88C165 92.9706 160.971 97 156 97H13C8.02944 97 4 92.9706 4 88C4 91.866 7.58172 95 12 95H156C159.866 95 163 91.866 163 88H165ZM4 96V56V96ZM156 56C160.971 56 165 60.0294 165 65V88C165 92.9706 160.971 97 156 97V95C159.866 95 163 91.866 163 88V64C163 59.5817 159.866 56 156 56Z" fill="black" mask="url(#path-5-inside-2_1426_10610)"/>
</g>
<path d="M41.6933 82V75.712C41.6933 75.1893 41.5653 74.8 41.3093 74.544C41.0533 74.2773 40.68 74.144 40.1893 74.144H35.2773L35.5013 72.4H40.3013C41.4533 72.4 42.3226 72.6773 42.9093 73.232C43.5066 73.776 43.8053 74.5867 43.8053 75.664V82H41.6933ZM35.4853 82V76.736L37.5973 76.608V82H35.4853ZM46.4438 77.904V72.4H48.5558V77.904H46.4438ZM45.0998 74.144L45.3238 72.4H47.6438V74.144H45.0998ZM51.5688 77.904V72.4H53.6808V77.904H51.5688ZM50.2248 74.144L50.4488 72.4H52.7688V74.144H50.2248ZM57.6758 82V75.216C57.6758 74.9493 57.6331 74.7413 57.5478 74.592C57.4731 74.432 57.3558 74.32 57.1958 74.256C57.0358 74.1813 56.8278 74.144 56.5718 74.144H55.6118L55.8358 72.4H57.1318C58.0171 72.4 58.6785 72.624 59.1158 73.072C59.5638 73.5093 59.7878 74.1547 59.7878 75.008V82H57.6758ZM55.1958 82V80.256H58.6838V82H55.1958ZM65.9876 82L68.3236 74.128H61.6996L61.9236 72.4H70.7236L70.5796 73.68L68.0996 82H65.9876ZM62.0996 84.992V76.272L64.2116 76.144V84.864L62.0996 84.992ZM73.1001 82V72.4H75.2121V82H73.1001ZM71.7561 74.144L71.9801 72.4H74.4921V74.144H71.7561ZM87.2557 72.4C88.4077 72.4 89.277 72.6773 89.8637 73.232C90.461 73.776 90.7597 74.5867 90.7597 75.664V82H82.2957V75.584C82.2957 75.4453 82.3117 75.2853 82.3437 75.104C82.3864 74.912 82.4557 74.7307 82.5517 74.56C82.6477 74.3787 82.7864 74.24 82.9677 74.144H81.3677L81.6077 72.4H87.2557ZM88.6477 80.256V75.712C88.6477 75.1893 88.5197 74.8 88.2637 74.544C88.0077 74.2773 87.6344 74.144 87.1437 74.144H84.5357C84.4824 74.2827 84.445 74.4373 84.4237 74.608C84.413 74.768 84.4077 74.9333 84.4077 75.104V80.256H88.6477ZM93.2719 77.904V72.4H95.3839V77.904H93.2719ZM91.9279 74.144L92.1519 72.4H94.4719V74.144H91.9279ZM101.677 82.144C100.258 82.144 99.1596 81.6907 98.3809 80.784C97.6129 79.8773 97.2289 78.544 97.2289 76.784V72.4H99.3409V76.784C99.3409 77.9893 99.5436 78.9067 99.9489 79.536C100.354 80.1547 100.92 80.464 101.645 80.464C102.402 80.464 102.994 80.1547 103.421 79.536C103.858 78.9067 104.077 77.9893 104.077 76.784C104.077 75.8987 103.965 75.216 103.741 74.736C103.517 74.2453 103.122 74 102.557 74C102.333 73.9893 102.12 74.0053 101.917 74.048C101.714 74.0907 101.496 74.1387 101.261 74.192V72.512C101.56 72.448 101.837 72.4 102.093 72.368C102.36 72.3253 102.642 72.304 102.941 72.304C104.061 72.3147 104.877 72.704 105.389 73.472C105.912 74.24 106.173 75.344 106.173 76.784C106.173 78.544 105.784 79.8773 105.005 80.784C104.226 81.6907 103.117 82.144 101.677 82.144ZM111.962 82V75.712C111.962 75.1893 111.834 74.8 111.578 74.544C111.322 74.2773 110.949 74.144 110.458 74.144H107.178L107.402 72.4H110.57C111.722 72.4 112.592 72.6773 113.178 73.232C113.776 73.776 114.074 74.5867 114.074 75.664V82H111.962ZM116.124 82V80.256H119.372C119.98 80.256 120.498 80.128 120.924 79.872C121.351 79.616 121.676 79.2533 121.9 78.784C122.124 78.304 122.236 77.7493 122.236 77.12C122.236 76.1387 122.044 75.3707 121.66 74.816C121.276 74.2613 120.668 73.984 119.836 73.984C119.175 73.984 118.684 74.1387 118.364 74.448C118.044 74.7467 117.884 75.1413 117.884 75.632C117.884 75.984 117.964 76.288 118.124 76.544C118.295 76.8 118.556 76.96 118.908 77.024C118.994 77.056 119.079 77.0827 119.164 77.104C119.26 77.1253 119.34 77.136 119.404 77.136L119.228 78.672C119.1 78.6933 118.951 78.6987 118.78 78.688C118.61 78.6667 118.391 78.6293 118.124 78.576C117.41 78.448 116.85 78.1173 116.444 77.584C116.05 77.0507 115.852 76.3787 115.852 75.568C115.852 74.9173 116.002 74.3413 116.3 73.84C116.599 73.3387 117.047 72.9493 117.644 72.672C118.242 72.384 118.972 72.24 119.836 72.24C121.287 72.24 122.407 72.6773 123.196 73.552C123.996 74.416 124.396 75.6053 124.396 77.12C124.396 78.1227 124.188 78.992 123.772 79.728C123.367 80.4533 122.775 81.0133 121.996 81.408C121.218 81.8027 120.274 82 119.164 82H116.124ZM127.396 72.4H133.044L132.884 73.664L130.004 82H127.812L130.58 74.144H125.284V70.064L127.396 69.84V72.4Z" fill="white"/>
<rect x="4" width="160" height="40" rx="8" fill="url(#paint2_linear_1426_10610)"/>
<path d="M41.6933 26V19.712C41.6933 19.1893 41.5653 18.8 41.3093 18.544C41.0533 18.2773 40.68 18.144 40.1893 18.144H35.2773L35.5013 16.4H40.3013C41.4533 16.4 42.3226 16.6773 42.9093 17.232C43.5066 17.776 43.8053 18.5867 43.8053 19.664V26H41.6933ZM35.4853 26V20.736L37.5973 20.608V26H35.4853ZM46.4438 21.904V16.4H48.5558V21.904H46.4438ZM45.0998 18.144L45.3238 16.4H47.6438V18.144H45.0998ZM51.5688 21.904V16.4H53.6808V21.904H51.5688ZM50.2248 18.144L50.4488 16.4H52.7688V18.144H50.2248ZM57.6758 26V19.216C57.6758 18.9493 57.6331 18.7413 57.5478 18.592C57.4731 18.432 57.3558 18.32 57.1958 18.256C57.0358 18.1813 56.8278 18.144 56.5718 18.144H55.6118L55.8358 16.4H57.1318C58.0171 16.4 58.6785 16.624 59.1158 17.072C59.5638 17.5093 59.7878 18.1547 59.7878 19.008V26H57.6758ZM55.1958 26V24.256H58.6838V26H55.1958ZM65.9876 26L68.3236 18.128H61.6996L61.9236 16.4H70.7236L70.5796 17.68L68.0996 26H65.9876ZM62.0996 28.992V20.272L64.2116 20.144V28.864L62.0996 28.992ZM73.1001 26V16.4H75.2121V26H73.1001ZM71.7561 18.144L71.9801 16.4H74.4921V18.144H71.7561ZM87.2557 16.4C88.4077 16.4 89.277 16.6773 89.8637 17.232C90.461 17.776 90.7597 18.5867 90.7597 19.664V26H82.2957V19.584C82.2957 19.4453 82.3117 19.2853 82.3437 19.104C82.3864 18.912 82.4557 18.7307 82.5517 18.56C82.6477 18.3787 82.7864 18.24 82.9677 18.144H81.3677L81.6077 16.4H87.2557ZM88.6477 24.256V19.712C88.6477 19.1893 88.5197 18.8 88.2637 18.544C88.0077 18.2773 87.6344 18.144 87.1437 18.144H84.5357C84.4824 18.2827 84.445 18.4373 84.4237 18.608C84.413 18.768 84.4077 18.9333 84.4077 19.104V24.256H88.6477ZM93.2719 21.904V16.4H95.3839V21.904H93.2719ZM91.9279 18.144L92.1519 16.4H94.4719V18.144H91.9279ZM101.677 26.144C100.258 26.144 99.1596 25.6907 98.3809 24.784C97.6129 23.8773 97.2289 22.544 97.2289 20.784V16.4H99.3409V20.784C99.3409 21.9893 99.5436 22.9067 99.9489 23.536C100.354 24.1547 100.92 24.464 101.645 24.464C102.402 24.464 102.994 24.1547 103.421 23.536C103.858 22.9067 104.077 21.9893 104.077 20.784C104.077 19.8987 103.965 19.216 103.741 18.736C103.517 18.2453 103.122 18 102.557 18C102.333 17.9893 102.12 18.0053 101.917 18.048C101.714 18.0907 101.496 18.1387 101.261 18.192V16.512C101.56 16.448 101.837 16.4 102.093 16.368C102.36 16.3253 102.642 16.304 102.941 16.304C104.061 16.3147 104.877 16.704 105.389 17.472C105.912 18.24 106.173 19.344 106.173 20.784C106.173 22.544 105.784 23.8773 105.005 24.784C104.226 25.6907 103.117 26.144 101.677 26.144ZM111.962 26V19.712C111.962 19.1893 111.834 18.8 111.578 18.544C111.322 18.2773 110.949 18.144 110.458 18.144H107.178L107.402 16.4H110.57C111.722 16.4 112.592 16.6773 113.178 17.232C113.776 17.776 114.074 18.5867 114.074 19.664V26H111.962ZM116.124 26V24.256H119.372C119.98 24.256 120.498 24.128 120.924 23.872C121.351 23.616 121.676 23.2533 121.9 22.784C122.124 22.304 122.236 21.7493 122.236 21.12C122.236 20.1387 122.044 19.3707 121.66 18.816C121.276 18.2613 120.668 17.984 119.836 17.984C119.175 17.984 118.684 18.1387 118.364 18.448C118.044 18.7467 117.884 19.1413 117.884 19.632C117.884 19.984 117.964 20.288 118.124 20.544C118.295 20.8 118.556 20.96 118.908 21.024C118.994 21.056 119.079 21.0827 119.164 21.104C119.26 21.1253 119.34 21.136 119.404 21.136L119.228 22.672C119.1 22.6933 118.951 22.6987 118.78 22.688C118.61 22.6667 118.391 22.6293 118.124 22.576C117.41 22.448 116.85 22.1173 116.444 21.584C116.05 21.0507 115.852 20.3787 115.852 19.568C115.852 18.9173 116.002 18.3413 116.3 17.84C116.599 17.3387 117.047 16.9493 117.644 16.672C118.242 16.384 118.972 16.24 119.836 16.24C121.287 16.24 122.407 16.6773 123.196 17.552C123.996 18.416 124.396 19.6053 124.396 21.12C124.396 22.1227 124.188 22.992 123.772 23.728C123.367 24.4533 122.775 25.0133 121.996 25.408C121.218 25.8027 120.274 26 119.164 26H116.124ZM127.396 16.4H133.044L132.884 17.664L130.004 26H127.812L130.58 18.144H125.284V14.064L127.396 13.84V16.4Z" fill="white"/>
<defs>
<filter id="filter0_d_1426_10610" x="0" y="54" width="172" height="52" filterUnits="userSpaceOnUse" color-interpolation-filters="sRGB">
<feFlood flood-opacity="0" result="BackgroundImageFix"/>
<feColorMatrix in="SourceAlpha" type="matrix" values="0 0 0 0 0 0 0 0 0 0 0 0 0 0 0 0 0 0 127 0" result="hardAlpha"/>
<feOffset dx="2" dy="4"/>
<feGaussianBlur stdDeviation="3"/>
<feComposite in2="hardAlpha" operator="out"/>
<feColorMatrix type="matrix" values="0 0 0 0 0 0 0 0 0 0 0 0 0 0 0 0 0 0 0.25 0"/>
<feBlend mode="normal" in2="BackgroundImageFix" result="effect1_dropShadow_1426_10610"/>
<feBlend mode="normal" in="SourceGraphic" in2="effect1_dropShadow_1426_10610" result="shape"/>
</filter>
<linearGradient id="paint0_linear_1426_10610" x1="44.619" y1="180" x2="108.619" y2="180" gradientUnits="userSpaceOnUse">
<stop stop-color="#FF934C"/>
<stop offset="1" stop-color="#FF5F61"/>
</linearGradient>
<linearGradient id="paint1_linear_1426_10610" x1="157.5" y1="62" x2="13.5" y2="89" gradientUnits="userSpaceOnUse">
<stop stop-color="#FF5F61"/>
<stop offset="1" stop-color="#FF934C"/>
</linearGradient>
<linearGradient id="paint2_linear_1426_10610" x1="157.5" y1="6" x2="13.5" y2="33" gradientUnits="userSpaceOnUse">
<stop stop-color="#FF5F61"/>
<stop offset="1" stop-color="#FF934C"/>
</linearGradient>
</defs>
</svg>
