<svg width="164" height="95" viewBox="0 0 164 95" fill="none" xmlns="http://www.w3.org/2000/svg">
<path d="M160.667 7.5C160.633 3.84166 157.667 0.891663 154 0.891663C150.333 0.891663 147.367 3.84166 147.333 7.5V12.5C147.333 16.1833 150.317 19.1667 154 19.1667C157.683 19.1667 160.667 16.1833 160.667 12.5V7.5ZM159 7.5H154.833V2.63333C157.175 3.025 158.967 5.05 159 7.5ZM153.167 2.63333V7.5H149C149.016 6.32955 149.441 5.20164 150.203 4.31247C150.964 3.42329 152.013 2.82913 153.167 2.63333ZM159 12.5C159 15.2583 156.758 17.5 154 17.5C151.242 17.5 149 15.2583 149 12.5V9.16666H159V12.5Z" fill="black"/>
<path d="M112.167 17.5C111.708 17.5 111.316 17.3369 110.989 17.0108C110.663 16.6842 110.5 16.2917 110.5 15.8333V10C110.5 8.95833 110.698 7.9825 111.093 7.0725C111.489 6.16306 112.024 5.37139 112.698 4.6975C113.372 4.02417 114.163 3.48944 115.073 3.09333C115.983 2.69778 116.958 2.5 118 2.5C119.042 2.5 120.017 2.69778 120.927 3.09333C121.837 3.48944 122.629 4.02417 123.303 4.6975C123.976 5.37139 124.511 6.16306 124.907 7.0725C125.302 7.9825 125.5 8.95833 125.5 10V15.8333C125.5 16.2917 125.337 16.6842 125.011 17.0108C124.684 17.3369 124.292 17.5 123.833 17.5H122.167C121.708 17.5 121.316 17.3369 120.99 17.0108C120.663 16.6842 120.5 16.2917 120.5 15.8333V12.5C120.5 12.0417 120.663 11.6492 120.99 11.3225C121.316 10.9964 121.708 10.8333 122.167 10.8333H123.833V10C123.833 8.375 123.267 6.99639 122.135 5.86417C121.003 4.7325 119.625 4.16667 118 4.16667C116.375 4.16667 114.997 4.7325 113.865 5.86417C112.733 6.99639 112.167 8.375 112.167 10V10.8333H113.833C114.292 10.8333 114.684 10.9964 115.01 11.3225C115.337 11.6492 115.5 12.0417 115.5 12.5V15.8333C115.5 16.2917 115.337 16.6842 115.01 17.0108C114.684 17.3369 114.292 17.5 113.833 17.5H112.167ZM112.167 15.8333H113.833V12.5H112.167V15.8333ZM122.167 15.8333H123.833V12.5H122.167V15.8333Z" fill="black"/>
<path d="M89.4665 15.3333C88.6665 15.7333 87.5998 15.4666 87.0665 14.6666L85.5998 12.8H78.3998L76.9331 14.6666C76.2665 15.6 75.0665 15.7333 74.1331 15.0666C73.4665 14.5333 73.1998 13.7333 73.3331 13.0666L74.2665 8.13331C74.5331 6.53331 75.9998 5.33331 77.5998 5.33331H81.3331V3.33331C81.3331 2.26665 82.1331 1.33331 83.1998 1.33331H87.3331C87.7331 1.33331 87.9998 1.59998 87.9998 1.99998C87.9998 2.39998 87.7331 2.66665 87.3331 2.66665H83.3331C82.9331 2.66665 82.6665 2.93331 82.6665 3.19998V5.33331H86.3998C87.9998 5.33331 89.4665 6.53331 89.7331 8.13331L90.6665 13.0666C90.7998 14 90.3998 14.9333 89.4665 15.3333ZM79.9998 8.66665C79.9998 7.59998 79.0665 6.66665 77.9998 6.66665C76.9331 6.66665 75.9998 7.59998 75.9998 8.66665C75.9998 9.73331 76.9331 10.6666 77.9998 10.6666C79.0665 10.6666 79.9998 9.73331 79.9998 8.66665ZM87.9998 8.66665C87.9998 8.26665 87.7331 7.99998 87.3331 7.99998H86.6665V7.33331C86.6665 6.93331 86.3998 6.66665 85.9998 6.66665C85.5998 6.66665 85.3331 6.93331 85.3331 7.33331V7.99998H84.6665C84.2665 7.99998 83.9998 8.26665 83.9998 8.66665C83.9998 9.06665 84.2665 9.33331 84.6665 9.33331H85.3331V9.99998C85.3331 10.4 85.5998 10.6666 85.9998 10.6666C86.3998 10.6666 86.6665 10.4 86.6665 9.99998V9.33331H87.3331C87.7331 9.33331 87.9998 9.06665 87.9998 8.66665Z" fill="black"/>
<path d="M51 3.125H41C39.9645 3.125 39.125 3.96447 39.125 5V15C39.125 16.0355 39.9645 16.875 41 16.875H51C52.0355 16.875 52.875 16.0355 52.875 15V5C52.875 3.96447 52.0355 3.125 51 3.125Z" stroke="black" stroke-width="0.9375" stroke-linejoin="round"/>
<path d="M49.75 5.625H42.25C41.9048 5.625 41.625 5.90482 41.625 6.25V13.75C41.625 14.0952 41.9048 14.375 42.25 14.375H49.75C50.0952 14.375 50.375 14.0952 50.375 13.75V6.25C50.375 5.90482 50.0952 5.625 49.75 5.625Z" stroke="black" stroke-width="0.9375" stroke-linejoin="round"/>
<path d="M46 3.125V1.875M49.125 3.125V1.875M42.875 3.125V1.875M46 18.125V16.875M49.125 18.125V16.875M42.875 18.125V16.875M52.875 10H54.125M52.875 13.125H54.125M52.875 6.875H54.125M37.875 10H39.125M37.875 13.125H39.125M37.875 6.875H39.125" stroke="black" stroke-width="0.9375" stroke-linecap="round" stroke-linejoin="round"/>
<path d="M8.74984 16.6666H11.2498C11.3609 16.6666 11.4582 16.625 11.5415 16.5416C11.6248 16.4583 11.6665 16.3611 11.6665 16.25C11.6665 16.1389 11.6248 16.0416 11.5415 15.9583C11.4582 15.875 11.3609 15.8333 11.2498 15.8333H8.74984C8.63873 15.8333 8.5415 15.875 8.45817 15.9583C8.37484 16.0416 8.33317 16.1389 8.33317 16.25C8.33317 16.3611 8.37484 16.4583 8.45817 16.5416C8.5415 16.625 8.63873 16.6666 8.74984 16.6666ZM5.83317 19.1666C5.37484 19.1666 4.98261 19.0036 4.6565 18.6775C4.32984 18.3508 4.1665 17.9583 4.1665 17.5V2.49998C4.1665 2.04165 4.32984 1.64915 4.6565 1.32248C4.98261 0.996369 5.37484 0.833313 5.83317 0.833313H14.1665C14.6248 0.833313 15.0173 0.996369 15.344 1.32248C15.6701 1.64915 15.8332 2.04165 15.8332 2.49998V17.5C15.8332 17.9583 15.6701 18.3508 15.344 18.6775C15.0173 19.0036 14.6248 19.1666 14.1665 19.1666H5.83317ZM5.83317 13.3333H14.1665V4.99998H5.83317V13.3333ZM5.83317 15V17.5H14.1665V15H5.83317ZM5.83317 3.33331H14.1665V2.49998H5.83317V3.33331Z" fill="black"/>
<path d="M86.1665 87.6833C86.1665 88.5 85.4998 89.1667 84.6832 89.1667C83.8665 89.1667 83.2082 88.5 83.2082 87.6833C83.2082 86.8667 83.8665 86.2083 84.6832 86.2083C85.4998 86.2083 86.1665 86.8667 86.1665 87.6833ZM79.3582 83.8333C80.1748 83.8333 80.8332 83.175 80.8332 82.3583C80.8332 81.5333 80.1748 80.875 79.3582 80.875C78.5332 80.875 77.8748 81.5333 77.8748 82.3583C77.8748 83.175 78.5332 83.8333 79.3582 83.8333ZM77.8332 87.9417L79.0832 89.1917L86.1915 82.0833L84.9415 80.8333L77.8332 87.9417ZM90.3332 85C90.3332 89.5833 86.5832 93.3333 81.9998 93.3333C77.4165 93.3333 73.6665 89.5833 73.6665 85C73.6665 80.4167 77.4165 76.6667 81.9998 76.6667C86.5832 76.6667 90.3332 80.4167 90.3332 85ZM88.6665 85C88.6665 81.325 85.6748 78.3333 81.9998 78.3333C78.3248 78.3333 75.3332 81.325 75.3332 85C75.3332 88.675 78.3248 91.6667 81.9998 91.6667C85.6748 91.6667 88.6665 88.675 88.6665 85Z" fill="black"/>
<path d="M39.3333 92.5V90.8333H38.5V86.6667H40.1667V80.8333C40.1667 79.9167 40.4931 79.1319 41.1458 78.4792C41.7986 77.8264 42.5833 77.5 43.5 77.5C44.4167 77.5 45.2014 77.8264 45.8542 78.4792C46.5069 79.1319 46.8333 79.9167 46.8333 80.8333V89.1667C46.8333 89.625 46.9967 90.0175 47.3233 90.3442C47.6494 90.6703 48.0417 90.8333 48.5 90.8333C48.9583 90.8333 49.3508 90.6703 49.6775 90.3442C50.0036 90.0175 50.1667 89.625 50.1667 89.1667V83.3333H48.5V79.1667H49.3333V77.5H52.6667V79.1667H53.5V83.3333H51.8333V89.1667C51.8333 90.0833 51.5069 90.8681 50.8542 91.5208C50.2014 92.1736 49.4167 92.5 48.5 92.5C47.5833 92.5 46.7986 92.1736 46.1458 91.5208C45.4931 90.8681 45.1667 90.0833 45.1667 89.1667V80.8333C45.1667 80.375 45.0036 79.9828 44.6775 79.6567C44.3508 79.33 43.9583 79.1667 43.5 79.1667C43.0417 79.1667 42.6494 79.33 42.3233 79.6567C41.9967 79.9828 41.8333 80.375 41.8333 80.8333V86.6667H43.5V90.8333H42.6667V92.5H39.3333Z" fill="black"/>
<path d="M15 76.875H5C4.50335 76.8771 4.02763 77.0753 3.67645 77.4264C3.32526 77.7776 3.12706 78.2534 3.125 78.75V91.25C3.12706 91.7466 3.32526 92.2224 3.67645 92.5736C4.02763 92.9247 4.50335 93.1229 5 93.125H15C15.4966 93.1229 15.9724 92.9247 16.3236 92.5736C16.6747 92.2224 16.8729 91.7466 16.875 91.25V78.75C16.8729 78.2534 16.6747 77.7776 16.3236 77.4264C15.9724 77.0753 15.4966 76.8771 15 76.875ZM15.625 91.25C15.625 91.4158 15.5592 91.5747 15.4419 91.6919C15.3247 91.8092 15.1658 91.875 15 91.875H5C4.83424 91.875 4.67527 91.8092 4.55806 91.6919C4.44085 91.5747 4.375 91.4158 4.375 91.25V78.75C4.375 78.5842 4.44085 78.4253 4.55806 78.3081C4.67527 78.1908 4.83424 78.125 5 78.125H15C15.1658 78.125 15.3247 78.1908 15.4419 78.3081C15.5592 78.4253 15.625 78.5842 15.625 78.75V91.25ZM10.9375 80.3125C10.9375 80.4979 10.8825 80.6792 10.7795 80.8333C10.6765 80.9875 10.5301 81.1077 10.3588 81.1786C10.1875 81.2496 9.99896 81.2682 9.8171 81.232C9.63525 81.1958 9.4682 81.1065 9.33709 80.9754C9.20598 80.8443 9.11669 80.6773 9.08051 80.4954C9.04434 80.3135 9.06291 80.125 9.13386 79.9537C9.20482 79.7824 9.32498 79.636 9.47915 79.533C9.63332 79.43 9.81458 79.375 10 79.375C10.2486 79.375 10.4871 79.4738 10.6629 79.6496C10.8387 79.8254 10.9375 80.0639 10.9375 80.3125Z" fill="black"/>
<path d="M121.125 40.375H114.875C113.494 40.375 112.375 41.4943 112.375 42.875V49.125C112.375 50.5057 113.494 51.625 114.875 51.625H121.125C122.506 51.625 123.625 50.5057 123.625 49.125V42.875C123.625 41.4943 122.506 40.375 121.125 40.375Z" stroke="black" stroke-width="0.9375" stroke-linejoin="round"/>
<path d="M114.875 40.375V37.5625C114.875 37.4796 114.908 37.4001 114.967 37.3415C115.025 37.2829 115.105 37.25 115.188 37.25H120.812C120.895 37.25 120.975 37.2829 121.033 37.3415C121.092 37.4001 121.125 37.4796 121.125 37.5625V40.375M121.125 51.625V54.4375C121.125 54.5204 121.092 54.5999 121.033 54.6585C120.975 54.7171 120.895 54.75 120.812 54.75H115.188C115.105 54.75 115.025 54.7171 114.967 54.6585C114.908 54.5999 114.875 54.5204 114.875 54.4375V51.625" stroke="black" stroke-width="0.9375" stroke-linejoin="round"/>
<path d="M79.7344 38.7344H78.6406C78.5547 38.7344 78.4844 38.8047 78.4844 38.8906V39.9844C78.4844 40.0703 78.5547 40.1406 78.6406 40.1406H79.7344C79.8203 40.1406 79.8906 40.0703 79.8906 39.9844V38.8906C79.8906 38.8047 79.8203 38.7344 79.7344 38.7344ZM78.875 52.0938H77.7812C77.6953 52.0938 77.625 52.1641 77.625 52.25V53.3438C77.625 53.4297 77.6953 53.5 77.7812 53.5H78.875C78.9609 53.5 79.0312 53.4297 79.0312 53.3438V52.25C79.0312 52.1641 78.9609 52.0938 78.875 52.0938ZM89.1094 48.1094H88.0156C87.9297 48.1094 87.8594 48.1797 87.8594 48.2656V49.3594C87.8594 49.4453 87.9297 49.5156 88.0156 49.5156H89.1094C89.1953 49.5156 89.2656 49.4453 89.2656 49.3594V48.2656C89.2656 48.1797 89.1953 48.1094 89.1094 48.1094ZM75.75 42.7188H74.6562C74.5703 42.7188 74.5 42.7891 74.5 42.875V43.9688C74.5 44.0547 74.5703 44.125 74.6562 44.125H75.75C75.8359 44.125 75.9062 44.0547 75.9062 43.9688V42.875C75.9062 42.7891 75.8359 42.7188 75.75 42.7188ZM75.75 45.8438H74.6562C74.5703 45.8438 74.5 45.9141 74.5 46V47.0938C74.5 47.1797 74.5703 47.25 74.6562 47.25H75.75C75.8359 47.25 75.9062 47.1797 75.9062 47.0938V46C75.9062 45.9141 75.8359 45.8438 75.75 45.8438ZM75.75 48.9688H74.6562C74.5703 48.9688 74.5 49.0391 74.5 49.125V50.2188C74.5 50.3047 74.5703 50.375 74.6562 50.375H75.75C75.8359 50.375 75.9062 50.3047 75.9062 50.2188V49.125C75.9062 49.0391 75.8359 48.9688 75.75 48.9688ZM75.75 52.0938H74.6562C74.5703 52.0938 74.5 52.1641 74.5 52.25V53.3438C74.5 53.4297 74.5703 53.5 74.6562 53.5H75.75C75.8359 53.5 75.9062 53.4297 75.9062 53.3438V52.25C75.9062 52.1641 75.8359 52.0938 75.75 52.0938ZM82 52.0938H80.9062C80.8203 52.0938 80.75 52.1641 80.75 52.25V53.3438C80.75 53.4297 80.8203 53.5 80.9062 53.5H82C82.0859 53.5 82.1562 53.4297 82.1562 53.3438V52.25C82.1562 52.1641 82.0859 52.0938 82 52.0938ZM85.125 52.0938H84.0312C83.9453 52.0938 83.875 52.1641 83.875 52.25V53.3438C83.875 53.4297 83.9453 53.5 84.0312 53.5H85.125C85.2109 53.5 85.2812 53.4297 85.2812 53.3438V52.25C85.2812 52.1641 85.2109 52.0938 85.125 52.0938ZM87.8594 46.5469C87.8594 46.6328 87.9297 46.7031 88.0156 46.7031H89.1094C89.1953 46.7031 89.2656 46.6328 89.2656 46.5469V43.2266C89.2656 40.7461 87.2539 38.7344 84.7734 38.7344H81.4531C81.3672 38.7344 81.2969 38.8047 81.2969 38.8906V39.9844C81.2969 40.0703 81.3672 40.1406 81.4531 40.1406H84.7734C86.4785 40.1406 87.8594 41.5215 87.8594 43.2266V46.5469ZM76.6094 37.875H73.7969C73.7109 37.875 73.6406 37.9453 73.6406 38.0312V40.8438C73.6406 40.9297 73.7109 41 73.7969 41H76.6094C76.6953 41 76.7656 40.9297 76.7656 40.8438V38.0312C76.7656 37.9453 76.6953 37.875 76.6094 37.875ZM75.6719 39.8594C75.6719 39.8848 75.6504 39.9062 75.625 39.9062H74.7812C74.7559 39.9062 74.7344 39.8848 74.7344 39.8594V39.0156C74.7344 38.9902 74.7559 38.9688 74.7812 38.9688H75.625C75.6504 38.9688 75.6719 38.9902 75.6719 39.0156V39.8594ZM89.9688 51.2344H87.1562C87.0703 51.2344 87 51.3047 87 51.3906V54.2031C87 54.2891 87.0703 54.3594 87.1562 54.3594H89.9688C90.0547 54.3594 90.125 54.2891 90.125 54.2031V51.3906C90.125 51.3047 90.0547 51.2344 89.9688 51.2344ZM89.0312 53.2187C89.0312 53.2441 89.0098 53.2656 88.9844 53.2656H88.1406C88.1152 53.2656 88.0938 53.2441 88.0938 53.2187V52.375C88.0938 52.3496 88.1152 52.3281 88.1406 52.3281H88.9844C89.0098 52.3281 89.0312 52.3496 89.0312 52.375V53.2187Z" fill="black"/>
<mask id="mask0_1426_10364" style="mask-type:luminance" maskUnits="userSpaceOnUse" x="37" y="37" width="18" height="18">
<path d="M41 41L43.9167 43.9167M51 51L48.0833 48.0833M51 41L48.0833 43.9167M41 51L43.9167 48.0833" stroke="white" stroke-width="1.25" stroke-linecap="round" stroke-linejoin="round"/>
<path d="M43.917 43.9167H48.0837V48.0834H43.917V43.9167Z" fill="white" stroke="white" stroke-width="1.25" stroke-linecap="round" stroke-linejoin="round"/>
<path d="M51.0002 43.9167C51.577 43.9167 52.1409 43.7456 52.6206 43.4251C53.1002 43.1046 53.4741 42.6491 53.6948 42.1162C53.9156 41.5832 53.9733 40.9968 53.8608 40.431C53.7482 39.8652 53.4705 39.3455 53.0626 38.9376C52.6547 38.5297 52.135 38.2519 51.5692 38.1394C51.0034 38.0268 50.417 38.0846 49.884 38.3054C49.3511 38.5261 48.8955 38.9 48.575 39.3796C48.2546 39.8592 48.0835 40.4231 48.0835 41M51.0002 48.0833C51.577 48.0833 52.1409 48.2544 52.6206 48.5749C53.1002 48.8954 53.4741 49.3509 53.6948 49.8839C53.9156 50.4168 53.9733 51.0032 53.8608 51.569C53.7482 52.1348 53.4705 52.6545 53.0626 53.0624C52.6547 53.4703 52.135 53.7481 51.5692 53.8606C51.0034 53.9732 50.417 53.9154 49.884 53.6947C49.3511 53.4739 48.8955 53.1001 48.575 52.6204C48.2546 52.1408 48.0835 51.5769 48.0835 51M41.0002 48.0833C40.4233 48.0833 39.8594 48.2544 39.3798 48.5749C38.9001 48.8954 38.5263 49.3509 38.3055 49.8839C38.0848 50.4168 38.027 51.0032 38.1395 51.569C38.2521 52.1348 38.5299 52.6545 38.9378 53.0624C39.3457 53.4703 39.8654 53.7481 40.4312 53.8606C40.9969 53.9732 41.5834 53.9154 42.1163 53.6947C42.6493 53.4739 43.1048 53.1001 43.4253 52.6204C43.7458 52.1408 43.9168 51.5769 43.9168 51M41.0002 43.9167C40.4233 43.9167 39.8594 43.7456 39.3798 43.4251C38.9001 43.1046 38.5263 42.6491 38.3055 42.1162C38.0848 41.5832 38.027 40.9968 38.1395 40.431C38.2521 39.8652 38.5299 39.3455 38.9378 38.9376C39.3457 38.5297 39.8654 38.2519 40.4312 38.1394C40.9969 38.0268 41.5834 38.0846 42.1163 38.3054C42.6493 38.5261 43.1048 38.9 43.4253 39.3796C43.7458 39.8592 43.9168 40.4231 43.9168 41" stroke="white" stroke-width="1.25" stroke-linecap="round" stroke-linejoin="round"/>
</mask>
<g mask="url(#mask0_1426_10364)">
<path d="M36 36H56V56H36V36Z" fill="black"/>
</g>
<path d="M3.33317 53.5C2.87484 53.5 2.48262 53.337 2.1565 53.0108C1.82984 52.6842 1.6665 52.2917 1.6665 51.8333V41.8333C1.6665 41.375 1.82984 40.9828 2.1565 40.6567C2.48262 40.33 2.87484 40.1667 3.33317 40.1667H5.95817L7.49984 38.5H12.4998V40.1667H8.229L6.70817 41.8333H3.33317V51.8333H16.6665V42.6667H18.3332V51.8333C18.3332 52.2917 18.1701 52.6842 17.844 53.0108C17.5173 53.337 17.1248 53.5 16.6665 53.5H3.33317ZM17.2082 41.8333C17.2082 40.75 16.8332 39.8333 16.0832 39.0833C15.3332 38.3333 14.4165 37.9583 13.3332 37.9583V36.8333C14.7221 36.8333 15.9026 37.3195 16.8748 38.2917C17.8471 39.2639 18.3332 40.4445 18.3332 41.8333H17.2082ZM14.9998 41.8333C14.9998 41.375 14.8368 40.9828 14.5107 40.6567C14.184 40.33 13.7915 40.1667 13.3332 40.1667V39.0417C14.0971 39.0417 14.7462 39.3125 15.2807 39.8542C15.8157 40.3958 16.0971 41.0556 16.1248 41.8333H14.9998ZM9.99984 50.5833C11.0415 50.5833 11.9271 50.2189 12.6565 49.49C13.3854 48.7606 13.7498 47.875 13.7498 46.8333C13.7498 45.7917 13.3854 44.9061 12.6565 44.1767C11.9271 43.4478 11.0415 43.0833 9.99984 43.0833C8.95817 43.0833 8.07262 43.4478 7.34317 44.1767C6.61428 44.9061 6.24984 45.7917 6.24984 46.8333C6.24984 47.875 6.61428 48.7606 7.34317 49.49C8.07262 50.2189 8.95817 50.5833 9.99984 50.5833ZM9.99984 48.9167C9.4165 48.9167 8.92345 48.7153 8.52067 48.3125C8.11789 47.9097 7.9165 47.4167 7.9165 46.8333C7.9165 46.25 8.11789 45.757 8.52067 45.3542C8.92345 44.9514 9.4165 44.75 9.99984 44.75C10.5832 44.75 11.0762 44.9514 11.479 45.3542C11.8818 45.757 12.0832 46.25 12.0832 46.8333C12.0832 47.4167 11.8818 47.9097 11.479 48.3125C11.0762 48.7153 10.5832 48.9167 9.99984 48.9167Z" fill="black"/>
<path d="M145.158 43.6051V54.3949H150.026V43.6051H145.158ZM148.695 53.4941C148.61 53.4941 148.527 53.4689 148.457 53.4217C148.386 53.3745 148.331 53.3074 148.298 53.2289C148.266 53.1504 148.257 53.064 148.274 52.9806C148.29 52.8973 148.331 52.8207 148.391 52.7606C148.452 52.7005 148.528 52.6596 148.611 52.643C148.695 52.6264 148.781 52.6349 148.86 52.6675C148.938 52.7 149.005 52.7551 149.053 52.8257C149.1 52.8964 149.125 52.9795 149.125 53.0644C149.125 53.1784 149.08 53.2877 148.999 53.3683C148.919 53.4489 148.809 53.4941 148.695 53.4941ZM149.398 46.1051H145.78V45.4801H149.398V46.1051H149.398ZM149.398 44.8551H145.78V44.2301H149.398V44.8551H149.398ZM155.375 52.2187H158.23V53.7699H159.861V54.3949H153.745V53.7699H155.376V52.2187H155.375ZM150.766 43.6051V51.5937H162.842V43.6051H150.765H150.766ZM162.217 50.9687H151.39V44.2301H162.217V50.9687Z" fill="black"/>
</svg>
