<svg width="169" height="348" viewBox="0 0 169 348" fill="none" xmlns="http://www.w3.org/2000/svg">
<rect width="169" height="348" fill="#E6E6E6"/>
<rect x="0.331373" y="0.331373" width="168.337" height="347.337" rx="4.97059" stroke="#6D6D6D" stroke-width="0.662745"/>
<rect x="1" y="1" width="167" height="152" rx="5.30196" fill="white"/>
<circle cx="49.5" cy="16.5" r="10.5" fill="#12AAB3"/>
<path d="M45.25 13.5385H41V11.8462H45.25V13.5385ZM45.25 16.0769H41V17.7692H45.25V16.0769ZM56.8015 22L53.546 18.7592C52.866 19.1992 52.067 19.4615 51.2 19.4615C48.854 19.4615 46.95 17.5662 46.95 15.2308C46.95 12.8954 48.854 11 51.2 11C53.546 11 55.45 12.8954 55.45 15.2308C55.45 16.0938 55.1865 16.8892 54.7445 17.5577L58 20.8069L56.8015 22ZM53.75 15.2308C53.75 13.8346 52.6025 12.6923 51.2 12.6923C49.7975 12.6923 48.65 13.8346 48.65 15.2308C48.65 16.6269 49.7975 17.7692 51.2 17.7692C52.6025 17.7692 53.75 16.6269 53.75 15.2308ZM41 22H49.5V20.3077H41V22Z" fill="white"/>
<path d="M20.9049 22.7497L16.4987 20.0934L12.0924 22.7497L13.2591 17.7393L9.3737 14.3747L14.4987 13.9372L16.4987 9.20801L18.4987 13.9268L23.6237 14.3643L19.7383 17.7288L20.9049 22.7497ZM16.4987 6.08301C10.7383 6.08301 6.08203 10.7705 6.08203 16.4997C6.08203 19.2623 7.1795 21.9119 9.133 23.8654C10.1003 24.8326 11.2486 25.5999 12.5124 26.1234C13.7762 26.6469 15.1308 26.9163 16.4987 26.9163C19.2614 26.9163 21.9109 25.8189 23.8644 23.8654C25.8179 21.9119 26.9154 19.2623 26.9154 16.4997C26.9154 15.1317 26.6459 13.7772 26.1224 12.5134C25.599 11.2496 24.8317 10.1013 23.8644 9.13398C22.8971 8.1667 21.7488 7.39942 20.485 6.87593C19.2212 6.35244 17.8666 6.08301 16.4987 6.08301V6.08301Z" fill="#12AAB3"/>
<path d="M61.5062 294.772V288.356H63.0742V292.756H64.7382C65.2716 292.756 65.6929 292.692 66.0022 292.564C66.3222 292.426 66.5516 292.18 66.6902 291.828C66.8396 291.476 66.9142 290.975 66.9142 290.324V285.124H69.3302V290.324C69.3302 291.402 69.1862 292.266 68.8982 292.916C68.6209 293.567 68.1782 294.042 67.5702 294.34C66.9729 294.628 66.1889 294.772 65.2182 294.772H61.5062ZM57.9542 294.772V285.124H62.6422C63.4422 285.124 64.0662 285.236 64.5142 285.46C64.9729 285.674 65.2982 286.004 65.4902 286.452C65.6822 286.9 65.7782 287.466 65.7782 288.148V291.54H64.2102V288.5C64.2102 288.031 64.1142 287.69 63.9222 287.476C63.7409 287.252 63.4689 287.14 63.1062 287.14H60.3542V294.772H57.9542ZM83.4549 294.772H75.4709V293.092L78.3349 290.196C78.9109 289.599 79.3749 289.103 79.7269 288.708C80.0789 288.303 80.3349 287.94 80.4949 287.62C80.6549 287.29 80.7349 286.938 80.7349 286.564C80.7349 286.106 80.6069 285.764 80.3509 285.54C80.1055 285.316 79.7695 285.204 79.3429 285.204C78.9055 285.204 78.4789 285.306 78.0629 285.508C77.6469 285.711 77.2095 285.999 76.7509 286.372L75.4389 284.82C75.7695 284.532 76.1162 284.266 76.4789 284.02C76.8522 283.775 77.2789 283.578 77.7589 283.428C78.2495 283.268 78.8362 283.188 79.5189 283.188C80.2655 283.188 80.9055 283.327 81.4389 283.604C81.9829 283.871 82.3989 284.239 82.6869 284.708C82.9855 285.167 83.1349 285.69 83.1349 286.276C83.1349 286.756 83.0602 287.199 82.9109 287.604C82.7722 288.01 82.5642 288.404 82.2869 288.788C82.0202 289.162 81.6895 289.551 81.2949 289.956C80.9002 290.351 80.4522 290.783 79.9509 291.252L78.4789 292.628V292.74H83.4549V294.772ZM87.5711 293.092C87.4751 293.466 87.3524 293.871 87.2031 294.308C87.0538 294.735 86.8938 295.162 86.7231 295.588C86.5524 296.026 86.3764 296.442 86.1951 296.836H84.4831C84.5898 296.41 84.6911 295.962 84.7871 295.492C84.8831 295.034 84.9738 294.58 85.0591 294.132C85.1444 293.684 85.2138 293.279 85.2671 292.916H87.4591L87.5711 293.092ZM93.1256 283.204C93.7869 283.204 94.3896 283.306 94.9336 283.508C95.4883 283.711 95.9309 284.015 96.2616 284.42C96.6029 284.826 96.7736 285.338 96.7736 285.956C96.7736 286.415 96.6829 286.82 96.5016 287.172C96.3203 287.514 96.0749 287.812 95.7656 288.068C95.4669 288.324 95.1203 288.548 94.7256 288.74C95.1309 288.954 95.5149 289.204 95.8776 289.492C96.2509 289.77 96.5496 290.1 96.7736 290.484C97.0083 290.858 97.1256 291.3 97.1256 291.812C97.1256 292.442 96.9549 292.991 96.6136 293.46C96.2829 293.93 95.8136 294.292 95.2056 294.548C94.6083 294.804 93.9149 294.932 93.1256 294.932C92.2723 294.932 91.5469 294.81 90.9496 294.564C90.3523 294.319 89.8936 293.967 89.5736 293.508C89.2643 293.05 89.1096 292.506 89.1096 291.876C89.1096 291.354 89.2056 290.9 89.3976 290.516C89.6003 290.132 89.8669 289.802 90.1976 289.524C90.5283 289.236 90.8963 288.996 91.3016 288.804C90.9603 288.591 90.6509 288.351 90.3736 288.084C90.0963 287.807 89.8723 287.498 89.7016 287.156C89.5416 286.804 89.4616 286.399 89.4616 285.94C89.4616 285.332 89.6323 284.826 89.9736 284.42C90.3149 284.015 90.7629 283.711 91.3176 283.508C91.8829 283.306 92.4856 283.204 93.1256 283.204ZM91.3496 291.732C91.3496 292.148 91.4936 292.49 91.7816 292.756C92.0803 293.023 92.5176 293.156 93.0936 293.156C93.4989 293.156 93.8296 293.098 94.0856 292.98C94.3523 292.863 94.5496 292.698 94.6776 292.484C94.8163 292.271 94.8856 292.026 94.8856 291.748C94.8856 291.46 94.8003 291.21 94.6296 290.996C94.4589 290.772 94.2456 290.575 93.9896 290.404C93.7443 290.223 93.4883 290.058 93.2216 289.908L93.0136 289.796C92.6829 289.946 92.3896 290.116 92.1336 290.308C91.8883 290.5 91.6963 290.714 91.5576 290.948C91.4189 291.172 91.3496 291.434 91.3496 291.732ZM93.1096 284.964C92.7149 284.964 92.3843 285.066 92.1176 285.268C91.8616 285.471 91.7336 285.759 91.7336 286.132C91.7336 286.388 91.7976 286.618 91.9256 286.82C92.0536 287.012 92.2243 287.183 92.4376 287.332C92.6509 287.471 92.8803 287.604 93.1256 287.732C93.3709 287.615 93.5949 287.487 93.7976 287.348C94.0109 287.21 94.1816 287.044 94.3096 286.852C94.4376 286.65 94.5016 286.41 94.5016 286.132C94.5016 285.759 94.3683 285.471 94.1016 285.268C93.8456 285.066 93.5149 284.964 93.1096 284.964ZM106.586 292.404H105.21V294.772H102.858V292.404H97.9779V290.724L102.986 283.348H105.21V290.532H106.586V292.404ZM102.858 288.596C102.858 288.415 102.858 288.202 102.858 287.956C102.869 287.7 102.879 287.45 102.89 287.204C102.901 286.948 102.911 286.724 102.922 286.532C102.933 286.33 102.943 286.191 102.954 286.116H102.89C102.794 286.33 102.693 286.538 102.586 286.74C102.479 286.943 102.351 287.151 102.202 287.364L100.106 290.532H102.858V288.596ZM115.438 288.228C115.438 288.879 115.39 289.53 115.294 290.18C115.198 290.82 115.027 291.428 114.782 292.004C114.547 292.57 114.211 293.076 113.774 293.524C113.347 293.962 112.798 294.308 112.126 294.564C111.465 294.81 110.659 294.932 109.71 294.932C109.486 294.932 109.225 294.922 108.926 294.9C108.627 294.89 108.377 294.863 108.174 294.82V292.884C108.387 292.927 108.611 292.964 108.846 292.996C109.081 293.028 109.315 293.044 109.55 293.044C110.265 293.044 110.851 292.959 111.31 292.788C111.779 292.618 112.147 292.372 112.414 292.052C112.681 291.732 112.873 291.354 112.99 290.916C113.118 290.479 113.193 289.999 113.214 289.476H113.118C112.969 289.722 112.787 289.946 112.574 290.148C112.371 290.351 112.11 290.511 111.79 290.628C111.481 290.746 111.081 290.804 110.59 290.804C109.939 290.804 109.374 290.666 108.894 290.388C108.414 290.1 108.041 289.69 107.774 289.156C107.507 288.612 107.374 287.956 107.374 287.188C107.374 286.356 107.529 285.647 107.838 285.06C108.158 284.463 108.611 284.01 109.198 283.7C109.785 283.38 110.473 283.22 111.262 283.22C111.849 283.22 112.393 283.322 112.894 283.524C113.406 283.727 113.849 284.036 114.222 284.452C114.606 284.858 114.905 285.375 115.118 286.004C115.331 286.634 115.438 287.375 115.438 288.228ZM111.31 285.156C110.841 285.156 110.457 285.316 110.158 285.636C109.859 285.956 109.71 286.463 109.71 287.156C109.71 287.711 109.838 288.148 110.094 288.468C110.35 288.788 110.739 288.948 111.262 288.948C111.625 288.948 111.934 288.868 112.19 288.708C112.457 288.548 112.665 288.351 112.814 288.116C112.963 287.871 113.038 287.62 113.038 287.364C113.038 287.098 113.001 286.836 112.926 286.58C112.851 286.314 112.739 286.074 112.59 285.86C112.451 285.647 112.275 285.476 112.062 285.348C111.849 285.22 111.598 285.156 111.31 285.156Z" fill="#4D4D4D"/>
<rect x="20" y="308" width="130" height="32" rx="8" fill="url(#paint0_linear_1426_10673)"/>
<path d="M46.543 330V323.792C46.543 323.312 46.4203 322.955 46.175 322.72C45.9403 322.475 45.6043 322.352 45.167 322.352H40.191L40.463 320.352H45.295C46.511 320.352 47.4283 320.64 48.047 321.216C48.6657 321.781 48.975 322.624 48.975 323.744V330H46.543ZM40.399 330V324.8L42.831 324.672V330H40.399ZM51.4818 325.936V320.352H53.9138V325.936H51.4818ZM50.1698 322.352L50.4418 320.352H52.8418V322.352H50.1698ZM56.7943 325.936V320.352H59.2263V325.936H56.7943ZM55.4823 322.352L55.7543 320.352H58.1543V322.352H55.4823ZM62.9775 330V323.392C62.9775 323.125 62.9402 322.917 62.8655 322.768C62.7908 322.619 62.6682 322.512 62.4975 322.448C62.3375 322.384 62.1242 322.352 61.8575 322.352H60.9615L61.2175 320.352H62.5135C63.4948 320.352 64.2202 320.592 64.6895 321.072C65.1695 321.541 65.4095 322.235 65.4095 323.152V330H62.9775ZM60.5775 330V328H64.1455V330H60.5775ZM71.4943 330L73.7183 322.336H67.1583L67.4143 320.352H76.4703L76.3103 321.792L73.9263 330H71.4943ZM67.5423 332.944V324.384L69.9743 324.24V332.816L67.5423 332.944ZM78.763 330V320.352H81.195V330H78.763ZM77.451 322.352L77.723 320.352H80.363V322.352H77.451ZM93.1538 320.352C94.3698 320.352 95.2871 320.64 95.9058 321.216C96.5244 321.781 96.8338 322.624 96.8338 323.744V330H88.1298V323.936C88.1298 323.787 88.1511 323.611 88.1938 323.408C88.2364 323.195 88.3111 322.992 88.4178 322.8C88.5244 322.608 88.6844 322.459 88.8978 322.352H87.2498L87.5058 320.352H93.1538ZM94.4018 328V323.792C94.4018 323.312 94.2791 322.955 94.0338 322.72C93.7991 322.475 93.4631 322.352 93.0258 322.352H90.6898C90.6364 322.501 90.5991 322.661 90.5778 322.832C90.5671 323.003 90.5618 323.179 90.5618 323.36V328H94.4018ZM99.2318 325.936V320.352H101.664V325.936H99.2318ZM97.9198 322.352L98.1918 320.352H100.592V322.352H97.9198ZM107.968 330.144C106.486 330.144 105.344 329.691 104.544 328.784C103.755 327.867 103.36 326.523 103.36 324.752V320.352H105.776V324.752C105.776 325.883 105.963 326.741 106.336 327.328C106.72 327.915 107.248 328.208 107.92 328.208C108.614 328.208 109.158 327.915 109.552 327.328C109.947 326.741 110.144 325.883 110.144 324.752C110.144 323.952 110.043 323.328 109.84 322.88C109.648 322.432 109.307 322.203 108.816 322.192C108.582 322.181 108.363 322.197 108.16 322.24C107.968 322.283 107.755 322.331 107.52 322.384V320.448C107.83 320.395 108.118 320.347 108.384 320.304C108.651 320.261 108.939 320.24 109.248 320.24C110.39 320.261 111.227 320.661 111.76 321.44C112.294 322.208 112.56 323.312 112.56 324.752C112.56 326.523 112.16 327.867 111.36 328.784C110.571 329.691 109.44 330.144 107.968 330.144ZM118.138 330V323.792C118.138 323.312 118.021 322.955 117.786 322.72C117.552 322.475 117.21 322.352 116.762 322.352H113.498L113.754 320.352H116.89C118.106 320.352 119.024 320.64 119.642 321.216C120.261 321.781 120.57 322.624 120.57 323.744V330H118.138ZM122.49 330V328H125.882C126.458 328 126.943 327.883 127.338 327.648C127.733 327.403 128.031 327.067 128.234 326.64C128.447 326.203 128.554 325.685 128.554 325.088C128.554 324.192 128.378 323.488 128.026 322.976C127.674 322.453 127.109 322.192 126.33 322.192C125.701 322.192 125.242 322.325 124.954 322.592C124.677 322.859 124.538 323.205 124.538 323.632C124.538 323.931 124.607 324.187 124.746 324.4C124.895 324.613 125.109 324.757 125.386 324.832C125.482 324.864 125.578 324.896 125.674 324.928C125.77 324.949 125.85 324.96 125.914 324.96L125.722 326.704C125.573 326.725 125.402 326.731 125.21 326.72C125.018 326.699 124.778 326.661 124.49 326.608C123.786 326.469 123.226 326.133 122.81 325.6C122.405 325.056 122.202 324.373 122.202 323.552C122.202 322.901 122.357 322.325 122.666 321.824C122.975 321.312 123.434 320.912 124.042 320.624C124.661 320.336 125.423 320.192 126.33 320.192C127.823 320.192 128.981 320.629 129.802 321.504C130.623 322.368 131.034 323.563 131.034 325.088C131.034 326.101 130.821 326.976 130.394 327.712C129.978 328.448 129.365 329.013 128.554 329.408C127.754 329.803 126.783 330 125.642 330H122.49Z" fill="white"/>
<path d="M55.4934 180V173.016C55.4934 172.476 55.3614 172.074 55.0974 171.81C54.8334 171.534 54.4494 171.396 53.9454 171.396H50.2734L50.5614 169.146H54.0894C55.4574 169.146 56.4894 169.47 57.1854 170.118C57.8814 170.754 58.2294 171.702 58.2294 172.962V180H55.4934ZM66.7253 179.964L59.8493 169.146H63.0533L65.8253 173.844L68.7773 178.398L66.7253 179.964ZM60.1013 180V177.75H67.9673L68.7773 178.398L68.5253 180H60.1013ZM65.6273 175.698L64.8533 173.916C65.1773 173.82 65.4353 173.664 65.6273 173.448C65.8193 173.232 65.9693 172.98 66.0773 172.692C66.1853 172.404 66.2633 172.116 66.3113 171.828C66.3713 171.528 66.4193 171.246 66.4553 170.982L66.6713 169.146H69.4073L69.1913 171.198C69.1433 171.618 69.0473 172.056 68.9033 172.512C68.7593 172.968 68.5493 173.406 68.2733 173.826C68.0093 174.246 67.6553 174.624 67.2113 174.96C66.7793 175.284 66.2513 175.53 65.6273 175.698ZM72.1396 180V169.146H74.8756V180H72.1396ZM70.6636 171.396L70.9696 169.146H73.9396V171.396H70.6636ZM77.0157 180L78.2217 173.628L76.7097 169.146H79.4457L80.1297 171.612H80.2017C80.3697 171.18 80.5617 170.802 80.7777 170.478C80.9937 170.142 81.2517 169.866 81.5517 169.65C81.8517 169.422 82.1937 169.254 82.5777 169.146C82.9737 169.026 83.4297 168.966 83.9457 168.966C84.7977 168.966 85.5417 169.176 86.1777 169.596C86.8257 170.004 87.3297 170.604 87.6897 171.396C88.0617 172.176 88.2477 173.124 88.2477 174.24V174.492C88.2477 175.584 88.0497 176.544 87.6537 177.372C87.2697 178.2 86.7057 178.848 85.9617 179.316C85.2177 179.772 84.3177 180 83.2617 180H81.5337L81.8577 177.75H83.1357C83.8797 177.75 84.4617 177.444 84.8817 176.832C85.3017 176.22 85.5117 175.44 85.5117 174.492V174.24C85.5117 173.592 85.4157 173.046 85.2237 172.602C85.0317 172.158 84.7737 171.828 84.4497 171.612C84.1377 171.384 83.7837 171.27 83.3877 171.27C82.9557 171.27 82.5957 171.336 82.3077 171.468C82.0197 171.588 81.7797 171.774 81.5877 172.026C81.4077 172.278 81.2577 172.578 81.1377 172.926C81.0177 173.274 80.9277 173.664 80.8677 174.096L79.8417 180H77.0157ZM96.8003 180V173.016C96.8003 172.476 96.6623 172.074 96.3863 171.81C96.1223 171.534 95.7443 171.396 95.2523 171.396H89.6543L89.9603 169.146H95.3963C96.7643 169.146 97.7963 169.47 98.4923 170.118C99.1883 170.754 99.5363 171.702 99.5363 172.962V180H96.8003ZM89.8883 180V174.15L92.6243 174.006V180H89.8883ZM108.64 169.146H114.922L114.724 170.748L111.484 180H108.64L111.718 171.396H105.904V166.608L108.64 166.32V169.146ZM122.512 180.126C121.264 180.126 120.19 179.88 119.29 179.388C118.39 178.896 117.7 178.164 117.22 177.192C116.74 176.22 116.5 174.996 116.5 173.52V169.146H119.218V173.502C119.218 174.546 119.344 175.398 119.596 176.058C119.848 176.706 120.214 177.186 120.694 177.498C121.186 177.798 121.774 177.948 122.458 177.948H122.53C123.238 177.936 123.832 177.78 124.312 177.48C124.804 177.18 125.176 176.706 125.428 176.058C125.68 175.398 125.806 174.552 125.806 173.52V169.146H128.542V173.538C128.542 175.014 128.302 176.238 127.822 177.21C127.342 178.17 126.658 178.896 125.77 179.388C124.894 179.868 123.838 180.114 122.602 180.126H122.512ZM118.444 175.734L118.3 173.898C119.08 173.946 119.674 173.856 120.082 173.628C120.49 173.388 120.772 173.016 120.928 172.512C121.096 172.008 121.18 171.39 121.18 170.658V169.146H123.898V170.532C123.898 171.336 123.802 172.068 123.61 172.728C123.43 173.388 123.13 173.946 122.71 174.402C122.29 174.858 121.732 175.206 121.036 175.446C120.34 175.674 119.476 175.77 118.444 175.734ZM141.837 169.146C143.205 169.146 144.237 169.47 144.933 170.118C145.629 170.754 145.977 171.702 145.977 172.962V180H136.185V173.178C136.185 173.01 136.209 172.812 136.257 172.584C136.305 172.344 136.389 172.116 136.509 171.9C136.629 171.684 136.809 171.516 137.049 171.396H135.195L135.483 169.146H141.837ZM143.241 177.75V173.016C143.241 172.476 143.103 172.074 142.827 171.81C142.563 171.534 142.185 171.396 141.693 171.396H139.065C139.005 171.564 138.963 171.744 138.939 171.936C138.927 172.128 138.921 172.326 138.921 172.53V177.75H143.241ZM153.906 180.126C152.658 180.126 151.584 179.88 150.684 179.388C149.784 178.896 149.094 178.164 148.614 177.192C148.134 176.22 147.894 174.996 147.894 173.52V169.146H150.612V173.502C150.612 174.546 150.738 175.398 150.99 176.058C151.242 176.706 151.608 177.186 152.088 177.498C152.58 177.798 153.168 177.948 153.852 177.948H153.924C154.632 177.936 155.226 177.78 155.706 177.48C156.198 177.18 156.57 176.706 156.822 176.058C157.074 175.398 157.2 174.552 157.2 173.52V169.146H159.936V173.538C159.936 175.014 159.696 176.238 159.216 177.21C158.736 178.17 158.052 178.896 157.164 179.388C156.288 179.868 155.232 180.114 153.996 180.126H153.906ZM149.838 175.734L149.694 173.898C150.474 173.946 151.068 173.856 151.476 173.628C151.884 173.388 152.166 173.016 152.322 172.512C152.49 172.008 152.574 171.39 152.574 170.658V169.146H155.292V170.532C155.292 171.336 155.196 172.068 155.004 172.728C154.824 173.388 154.524 173.946 154.104 174.402C153.684 174.858 153.126 175.206 152.43 175.446C151.734 175.674 150.87 175.77 149.838 175.734Z" fill="black"/>
<path d="M34.6253 194.884H38.9573L38.8373 195.58L36.6893 202H35.5493L37.6493 195.796H33.5213V193.012L34.6253 192.88V194.884ZM40.8948 194.884H45.2268L45.1068 195.58L42.9588 202H41.8188L43.9188 195.796H39.7908V193.012L40.8948 192.88V194.884ZM47.2003 202V194.884H48.3043V202H47.2003ZM46.1083 195.796L46.2403 194.884H47.9203V195.796H46.1083ZM49.8017 202V201.088H51.7697C52.4337 201.088 52.9297 200.864 53.2577 200.416C53.5937 199.968 53.7617 199.32 53.7617 198.472C53.7617 197.6 53.5937 196.936 53.2577 196.48C52.9297 196.024 52.4337 195.796 51.7697 195.796H49.8017L49.9337 194.884H51.7697C52.7937 194.884 53.5697 195.192 54.0977 195.808C54.6337 196.424 54.9017 197.312 54.9017 198.472C54.9017 199.616 54.6337 200.492 54.0977 201.1C53.5697 201.7 52.7937 202 51.7697 202H49.8017ZM60.9935 202V197.176C60.9935 196.712 60.8815 196.368 60.6575 196.144C60.4415 195.912 60.1095 195.796 59.6615 195.796H56.0735L56.2055 194.884H59.7455C60.5215 194.884 61.1055 195.076 61.4975 195.46C61.8975 195.836 62.0975 196.396 62.0975 197.14V202H60.9935ZM56.2655 202V197.956L57.3695 197.872V202H56.2655ZM69.4233 202.06L68.9673 200.464H68.8833C68.7393 200.712 68.5873 200.932 68.4273 201.124C68.2753 201.308 68.1073 201.468 67.9233 201.604C67.7473 201.732 67.5553 201.832 67.3473 201.904C67.1393 201.968 66.9073 202 66.6513 202H66.4713V201.064H66.6273C66.8753 201.064 67.1113 201.02 67.3353 200.932C67.5673 200.836 67.7793 200.712 67.9713 200.56C68.1713 200.408 68.3393 200.252 68.4753 200.092C68.6193 199.924 68.7273 199.764 68.7993 199.612V196.672C68.7993 196.36 68.7273 196.136 68.5833 196C68.4393 195.864 68.2033 195.796 67.8753 195.796H67.1313L67.2513 194.884H68.1513C68.5433 194.884 68.8673 194.948 69.1233 195.076C69.3793 195.204 69.5713 195.392 69.6993 195.64C69.8353 195.888 69.9033 196.196 69.9033 196.564V200.068L70.4073 201.844L69.4233 202.06ZM73.2396 202V196.66C73.2396 196.46 73.2076 196.296 73.1436 196.168C73.0876 196.032 72.9996 195.936 72.8796 195.88C72.7596 195.824 72.6116 195.796 72.4356 195.796H71.6196L71.7396 194.884H72.7116C73.2396 194.884 73.6436 195.028 73.9236 195.316C74.2036 195.596 74.3436 196.008 74.3436 196.552V202H73.2396ZM71.2596 202V201.088H73.7676V202H71.2596ZM76.7785 198.856V194.884H77.8825V198.856H76.7785ZM75.6865 195.796L75.8185 194.884H77.4025V195.796H75.6865ZM79.4895 202L80.3175 197.74L79.3335 194.884H80.4375L81.0255 196.78H81.0615C81.1495 196.516 81.2535 196.264 81.3735 196.024C81.4935 195.784 81.6495 195.572 81.8415 195.388C82.0335 195.196 82.2695 195.044 82.5495 194.932C82.8295 194.82 83.1575 194.764 83.5335 194.764C84.0695 194.764 84.5375 194.892 84.9375 195.148C85.3375 195.396 85.6495 195.772 85.8735 196.276C86.1055 196.772 86.2215 197.404 86.2215 198.172V198.34C86.2215 199.076 86.1015 199.72 85.8615 200.272C85.6295 200.816 85.2855 201.24 84.8295 201.544C84.3815 201.848 83.8295 202 83.1735 202H81.9735L82.0935 201.088H83.1255C83.7655 201.088 84.2575 200.836 84.6015 200.332C84.9455 199.828 85.1175 199.164 85.1175 198.34V198.172C85.1175 197.596 85.0375 197.128 84.8775 196.768C84.7255 196.4 84.5175 196.128 84.2535 195.952C83.9895 195.776 83.6855 195.688 83.3415 195.688C83.0055 195.688 82.7215 195.748 82.4895 195.868C82.2575 195.988 82.0695 196.152 81.9255 196.36C81.7815 196.56 81.6655 196.784 81.5775 197.032C81.4975 197.272 81.4375 197.52 81.3975 197.776L80.6295 202H79.4895ZM88.1457 198.856V194.884H89.2497V198.856H88.1457ZM87.0537 195.796L87.1857 194.884H88.7697V195.796H87.0537ZM91.6847 198.856V194.884H92.7887V198.856H91.6847ZM90.5927 195.796L90.7247 194.884H92.3087V195.796H90.5927ZM96.5171 202.06L96.0611 200.464H95.9771C95.8331 200.712 95.6811 200.932 95.5211 201.124C95.3691 201.308 95.2011 201.468 95.0171 201.604C94.8411 201.732 94.6491 201.832 94.4411 201.904C94.2331 201.968 94.0011 202 93.7451 202H93.5651V201.064H93.7211C93.9691 201.064 94.2051 201.02 94.4291 200.932C94.6611 200.836 94.8731 200.712 95.0651 200.56C95.2651 200.408 95.4331 200.252 95.5691 200.092C95.7131 199.924 95.8211 199.764 95.8931 199.612V196.672C95.8931 196.36 95.8211 196.136 95.6771 196C95.5331 195.864 95.2971 195.796 94.9691 195.796H94.2251L94.3451 194.884H95.2451C95.6371 194.884 95.9611 194.948 96.2171 195.076C96.4731 195.204 96.6651 195.392 96.7931 195.64C96.9291 195.888 96.9971 196.196 96.9971 196.564V200.068L97.5011 201.844L96.5171 202.06ZM99.2425 194.884H103.574L103.454 195.58L101.306 202H100.166L102.266 195.796H98.1385V193.012L99.2425 192.88V194.884ZM111.938 194.884C112.714 194.884 113.298 195.076 113.69 195.46C114.09 195.836 114.29 196.396 114.29 197.14V202H113.186V197.176C113.186 196.712 113.074 196.368 112.85 196.144C112.634 195.912 112.306 195.796 111.866 195.796H109.73C109.682 195.868 109.63 196.004 109.574 196.204C109.518 196.404 109.49 196.716 109.49 197.14V202H108.386V197.416C108.386 197.064 108.422 196.748 108.494 196.468C108.566 196.18 108.67 195.96 108.806 195.808L108.566 195.76V194.884H111.938ZM107.762 195.796L107.882 194.884H110.522V195.796H107.762ZM116.634 198.856V194.884H117.738V198.856H116.634ZM115.542 195.796L115.674 194.884H117.258V195.796H115.542ZM120.173 198.856V194.884H121.277V198.856H120.173ZM119.081 195.796L119.213 194.884H120.797V195.796H119.081ZM124.556 202V196.66C124.556 196.46 124.524 196.296 124.46 196.168C124.404 196.032 124.316 195.936 124.196 195.88C124.076 195.824 123.928 195.796 123.752 195.796H122.936L123.056 194.884H124.028C124.556 194.884 124.96 195.028 125.24 195.316C125.52 195.596 125.66 196.008 125.66 196.552V202H124.556ZM122.576 202V201.088H125.084V202H122.576ZM134.209 202V197.176C134.209 196.712 134.097 196.368 133.873 196.144C133.657 195.912 133.325 195.796 132.877 195.796H130.633L130.753 194.884H132.961C133.737 194.884 134.321 195.076 134.713 195.46C135.113 195.836 135.313 196.396 135.313 197.14V201.208C135.281 201.352 135.221 201.488 135.133 201.616C135.053 201.744 134.961 201.872 134.857 202H134.209ZM130.273 202V201.088H136.201L136.069 202H130.273ZM140.675 202.036C139.923 202.036 139.283 201.876 138.755 201.556C138.235 201.236 137.835 200.768 137.555 200.152C137.275 199.528 137.135 198.764 137.135 197.86V194.884H138.239V197.86C138.239 198.588 138.331 199.2 138.515 199.696C138.707 200.184 138.983 200.552 139.343 200.8C139.703 201.04 140.143 201.16 140.663 201.16H140.783C141.319 201.16 141.771 201.04 142.139 200.8C142.507 200.552 142.783 200.184 142.967 199.696C143.159 199.208 143.255 198.6 143.255 197.872V194.884H144.347V197.86C144.347 198.764 144.207 199.528 143.927 200.152C143.655 200.768 143.255 201.236 142.727 201.556C142.199 201.876 141.559 202.036 140.807 202.036H140.675ZM137.951 199.24L137.867 198.472C138.403 198.496 138.843 198.424 139.187 198.256C139.531 198.08 139.783 197.812 139.943 197.452C140.111 197.092 140.195 196.656 140.195 196.144V194.884H141.299V196.072C141.299 196.576 141.231 197.028 141.095 197.428C140.959 197.82 140.751 198.156 140.471 198.436C140.199 198.708 139.851 198.912 139.427 199.048C139.011 199.184 138.519 199.248 137.951 199.24ZM149.837 194.884C150.613 194.884 151.197 195.076 151.589 195.46C151.989 195.836 152.189 196.396 152.189 197.14V202H151.085V197.176C151.085 196.712 150.973 196.368 150.749 196.144C150.533 195.912 150.205 195.796 149.765 195.796H147.629C147.581 195.868 147.529 196.004 147.473 196.204C147.417 196.404 147.389 196.716 147.389 197.14V202H146.285V197.416C146.285 197.064 146.321 196.748 146.393 196.468C146.465 196.18 146.569 195.96 146.705 195.808L146.465 195.76V194.884H149.837ZM145.661 195.796L145.781 194.884H148.421V195.796H145.661ZM153.798 202L154.626 197.74L153.642 194.884H154.746L155.334 196.78H155.37C155.458 196.516 155.562 196.264 155.682 196.024C155.802 195.784 155.958 195.572 156.15 195.388C156.342 195.196 156.578 195.044 156.858 194.932C157.138 194.82 157.466 194.764 157.842 194.764C158.378 194.764 158.846 194.892 159.246 195.148C159.646 195.396 159.958 195.772 160.182 196.276C160.414 196.772 160.53 197.404 160.53 198.172V198.34C160.53 199.076 160.41 199.72 160.17 200.272C159.938 200.816 159.594 201.24 159.138 201.544C158.69 201.848 158.138 202 157.482 202H156.282L156.402 201.088H157.434C158.074 201.088 158.566 200.836 158.91 200.332C159.254 199.828 159.426 199.164 159.426 198.34V198.172C159.426 197.596 159.346 197.128 159.186 196.768C159.034 196.4 158.826 196.128 158.562 195.952C158.298 195.776 157.994 195.688 157.65 195.688C157.314 195.688 157.03 195.748 156.798 195.868C156.566 195.988 156.378 196.152 156.234 196.36C156.09 196.56 155.974 196.784 155.886 197.032C155.806 197.272 155.746 197.52 155.706 197.776L154.938 202H153.798ZM17.4013 220.292V210.884H18.5053V220.232L17.4013 220.292ZM16.3093 211.796L16.4413 210.884H18.1213V211.796H16.3093ZM21.2785 218V210.884H22.3825V218H21.2785ZM20.1865 211.796L20.3185 210.884H21.9985V211.796H20.1865ZM27.6118 218V213.176C27.6118 212.712 27.4998 212.368 27.2758 212.144C27.0598 211.912 26.7318 211.796 26.2918 211.796H23.8198L23.9518 210.884H26.3638C27.1398 210.884 27.7238 211.076 28.1158 211.46C28.5158 211.836 28.7158 212.396 28.7158 213.14V218H27.6118ZM30.1611 218V217.088H32.1291C32.7931 217.088 33.2891 216.864 33.6171 216.416C33.9531 215.968 34.1211 215.32 34.1211 214.472C34.1211 213.6 33.9531 212.936 33.6171 212.48C33.2891 212.024 32.7931 211.796 32.1291 211.796H30.1611L30.2931 210.884H32.1291C33.1531 210.884 33.9291 211.192 34.4571 211.808C34.9931 212.424 35.2611 213.312 35.2611 214.472C35.2611 215.616 34.9931 216.492 34.4571 217.1C33.9291 217.7 33.1531 218 32.1291 218H30.1611ZM37.2489 217.988C37.1929 217.644 37.1369 217.28 37.0809 216.896C37.0249 216.512 36.9769 216.136 36.9369 215.768C36.8969 215.392 36.8649 215.048 36.8409 214.736C36.8249 214.424 36.8169 214.164 36.8169 213.956C36.8169 213.7 36.8529 213.432 36.9249 213.152C36.9969 212.872 37.1289 212.612 37.3209 212.372C37.5129 212.124 37.7809 211.924 38.1249 211.772L39.2529 211.796C38.8449 211.916 38.5409 212.088 38.3409 212.312C38.1489 212.536 38.0249 212.784 37.9689 213.056C37.9129 213.32 37.8889 213.58 37.8969 213.836C37.9049 214.044 37.9249 214.32 37.9569 214.664C37.9969 215 38.0409 215.368 38.0889 215.768C38.1369 216.16 38.1889 216.552 38.2449 216.944C38.3009 217.336 38.3489 217.684 38.3889 217.988H37.2489ZM36.3009 211.796V210.884H39.3849L39.2529 211.796H36.3009ZM45.2962 216.74C45.2242 217.02 45.1322 217.324 45.0202 217.652C44.9082 217.98 44.7842 218.304 44.6482 218.624C44.5202 218.952 44.3922 219.26 44.2642 219.548H43.4842C43.5642 219.244 43.6402 218.916 43.7122 218.564C43.7922 218.22 43.8642 217.88 43.9282 217.544C43.9922 217.2 44.0442 216.888 44.0842 216.608H45.2122L45.2962 216.74ZM48.2791 211.568V218H47.2231V211.568H48.2791ZM47.7631 209.156C47.9231 209.156 48.0631 209.212 48.1831 209.324C48.3111 209.428 48.3751 209.596 48.3751 209.828C48.3751 210.052 48.3111 210.22 48.1831 210.332C48.0631 210.444 47.9231 210.5 47.7631 210.5C47.5871 210.5 47.4391 210.444 47.3191 210.332C47.1991 210.22 47.1391 210.052 47.1391 209.828C47.1391 209.596 47.1991 209.428 47.3191 209.324C47.4391 209.212 47.5871 209.156 47.7631 209.156ZM52.5969 212.744C53.1809 212.744 53.6889 212.844 54.1209 213.044C54.5529 213.244 54.8849 213.532 55.1169 213.908C55.3569 214.276 55.4769 214.728 55.4769 215.264C55.4769 215.856 55.3489 216.368 55.0929 216.8C54.8369 217.224 54.4689 217.552 53.9889 217.784C53.5169 218.008 52.9449 218.12 52.2729 218.12C51.8329 218.12 51.4169 218.08 51.0249 218C50.6409 217.92 50.3169 217.804 50.0529 217.652V216.656C50.3409 216.832 50.6889 216.972 51.0969 217.076C51.5129 217.172 51.9089 217.22 52.2849 217.22C52.7089 217.22 53.0769 217.156 53.3889 217.028C53.7089 216.892 53.9569 216.688 54.1329 216.416C54.3089 216.136 54.3969 215.788 54.3969 215.372C54.3969 214.812 54.2249 214.384 53.8809 214.088C53.5369 213.784 52.9929 213.632 52.2489 213.632C52.0249 213.632 51.7689 213.652 51.4809 213.692C51.1929 213.732 50.9609 213.772 50.7849 213.812L50.2569 213.476L50.5809 209.432H54.8769V210.392H51.4809L51.2769 212.876C51.4129 212.852 51.5969 212.824 51.8289 212.792C52.0609 212.76 52.3169 212.744 52.5969 212.744ZM56.5601 215.192V214.316H59.6201V215.192H56.5601ZM64.2795 218H63.2475V212.012C63.2475 211.78 63.2475 211.584 63.2475 211.424C63.2555 211.264 63.2635 211.116 63.2715 210.98C63.2795 210.836 63.2875 210.688 63.2955 210.536C63.1675 210.664 63.0515 210.772 62.9475 210.86C62.8435 210.948 62.7115 211.06 62.5515 211.196L61.6395 211.94L61.0875 211.232L63.4035 209.432H64.2795V218ZM71.1467 218H70.1147V212.012C70.1147 211.78 70.1147 211.584 70.1147 211.424C70.1227 211.264 70.1307 211.116 70.1387 210.98C70.1467 210.836 70.1547 210.688 70.1627 210.536C70.0347 210.664 69.9187 210.772 69.8147 210.86C69.7107 210.948 69.5787 211.06 69.4187 211.196L68.5067 211.94L67.9547 211.232L70.2707 209.432H71.1467V218ZM80.3779 216.056H79.1299V218H78.1099V216.056H74.0059V215.156L78.0379 209.384H79.1299V215.108H80.3779V216.056ZM78.1099 212.408C78.1099 212.2 78.1099 212.012 78.1099 211.844C78.1179 211.668 78.1259 211.504 78.1339 211.352C78.1419 211.2 78.1459 211.056 78.1459 210.92C78.1539 210.776 78.1619 210.64 78.1699 210.512H78.1219C78.0579 210.664 77.9779 210.828 77.8819 211.004C77.7859 211.18 77.6939 211.328 77.6059 211.448L75.0379 215.108H78.1099V212.408ZM86.8971 213.704C86.8971 214.4 86.8451 215.02 86.7411 215.564C86.6371 216.108 86.4691 216.572 86.2371 216.956C86.0131 217.332 85.7171 217.62 85.3491 217.82C84.9891 218.02 84.5531 218.12 84.0411 218.12C83.4011 218.12 82.8691 217.944 82.4451 217.592C82.0291 217.24 81.7171 216.736 81.5091 216.08C81.3091 215.416 81.2091 214.624 81.2091 213.704C81.2091 212.776 81.3011 211.984 81.4851 211.328C81.6771 210.672 81.9811 210.172 82.3971 209.828C82.8131 209.476 83.3611 209.3 84.0411 209.3C84.6811 209.3 85.2131 209.476 85.6371 209.828C86.0611 210.172 86.3771 210.672 86.5851 211.328C86.7931 211.984 86.8971 212.776 86.8971 213.704ZM82.2651 213.704C82.2651 214.488 82.3211 215.14 82.4331 215.66C82.5531 216.18 82.7411 216.572 82.9971 216.836C83.2611 217.092 83.6091 217.22 84.0411 217.22C84.4731 217.22 84.8171 217.092 85.0731 216.836C85.3371 216.58 85.5291 216.192 85.6491 215.672C85.7691 215.144 85.8291 214.488 85.8291 213.704C85.8291 212.92 85.7691 212.272 85.6491 211.76C85.5291 211.24 85.3371 210.852 85.0731 210.596C84.8171 210.332 84.4731 210.2 84.0411 210.2C83.6091 210.2 83.2611 210.332 82.9971 210.596C82.7411 210.852 82.5531 211.24 82.4331 211.76C82.3211 212.272 82.2651 212.92 82.2651 213.704ZM93.7643 213.704C93.7643 214.4 93.7123 215.02 93.6083 215.564C93.5043 216.108 93.3363 216.572 93.1043 216.956C92.8803 217.332 92.5843 217.62 92.2163 217.82C91.8563 218.02 91.4203 218.12 90.9083 218.12C90.2683 218.12 89.7363 217.944 89.3123 217.592C88.8963 217.24 88.5843 216.736 88.3763 216.08C88.1763 215.416 88.0763 214.624 88.0763 213.704C88.0763 212.776 88.1683 211.984 88.3523 211.328C88.5443 210.672 88.8483 210.172 89.2643 209.828C89.6803 209.476 90.2283 209.3 90.9083 209.3C91.5483 209.3 92.0803 209.476 92.5043 209.828C92.9283 210.172 93.2443 210.672 93.4523 211.328C93.6603 211.984 93.7643 212.776 93.7643 213.704ZM89.1323 213.704C89.1323 214.488 89.1883 215.14 89.3003 215.66C89.4203 216.18 89.6083 216.572 89.8643 216.836C90.1283 217.092 90.4763 217.22 90.9083 217.22C91.3403 217.22 91.6843 217.092 91.9403 216.836C92.2043 216.58 92.3963 216.192 92.5163 215.672C92.6363 215.144 92.6963 214.488 92.6963 213.704C92.6963 212.92 92.6363 212.272 92.5163 211.76C92.3963 211.24 92.2043 210.852 91.9403 210.596C91.6843 210.332 91.3403 210.2 90.9083 210.2C90.4763 210.2 90.1283 210.332 89.8643 210.596C89.6083 210.852 89.4203 211.24 89.3003 211.76C89.1883 212.272 89.1323 212.92 89.1323 213.704ZM96.5995 218H95.5195V209.432H100.307V210.38H96.5995V213.416H100.079V214.364H96.5995V218ZM107.389 218H104.293V217.376L105.301 217.148V210.296L104.293 210.056V209.432H107.389V210.056L106.381 210.296V217.148L107.389 217.376V218ZM111.995 211.448C112.763 211.448 113.343 211.636 113.735 212.012C114.127 212.38 114.323 212.98 114.323 213.812V218H113.279V213.884C113.279 213.364 113.163 212.976 112.931 212.72C112.699 212.464 112.335 212.336 111.839 212.336C111.127 212.336 110.635 212.536 110.363 212.936C110.091 213.336 109.955 213.912 109.955 214.664V218H108.899V211.568H109.751L109.907 212.444H109.967C110.111 212.22 110.287 212.036 110.495 211.892C110.711 211.74 110.947 211.628 111.203 211.556C111.459 211.484 111.723 211.448 111.995 211.448ZM118.465 217.256C118.625 217.256 118.789 217.244 118.957 217.22C119.125 217.188 119.261 217.156 119.365 217.124V217.928C119.253 217.984 119.093 218.028 118.885 218.06C118.677 218.1 118.477 218.12 118.285 218.12C117.949 218.12 117.637 218.064 117.349 217.952C117.069 217.832 116.841 217.628 116.665 217.34C116.489 217.052 116.401 216.648 116.401 216.128V212.384H115.489V211.88L116.413 211.46L116.833 210.092H117.457V211.568H119.317V212.384H117.457V216.104C117.457 216.496 117.549 216.788 117.733 216.98C117.925 217.164 118.169 217.256 118.465 217.256ZM123.137 211.448C123.689 211.448 124.161 211.568 124.553 211.808C124.953 212.048 125.257 212.388 125.465 212.828C125.681 213.26 125.789 213.768 125.789 214.352V214.988H121.385C121.401 215.716 121.585 216.272 121.937 216.656C122.297 217.032 122.797 217.22 123.437 217.22C123.845 217.22 124.205 217.184 124.517 217.112C124.837 217.032 125.165 216.92 125.501 216.776V217.7C125.173 217.844 124.849 217.948 124.529 218.012C124.209 218.084 123.829 218.12 123.389 218.12C122.781 218.12 122.241 217.996 121.769 217.748C121.305 217.5 120.941 217.132 120.677 216.644C120.421 216.148 120.293 215.544 120.293 214.832C120.293 214.128 120.409 213.524 120.641 213.02C120.881 212.516 121.213 212.128 121.637 211.856C122.069 211.584 122.569 211.448 123.137 211.448ZM123.125 212.312C122.621 212.312 122.221 212.476 121.925 212.804C121.637 213.124 121.465 213.572 121.409 214.148H124.685C124.685 213.78 124.629 213.46 124.517 213.188C124.405 212.916 124.233 212.704 124.001 212.552C123.777 212.392 123.485 212.312 123.125 212.312ZM128.482 218H127.426V208.88H128.482V218ZM133.19 211.796V210.884H138.866L138.746 211.796H133.19ZM136.598 218V212.672C136.598 212.576 136.61 212.472 136.634 212.36C136.658 212.24 136.694 212.128 136.742 212.024C136.798 211.92 136.874 211.844 136.97 211.796H137.834C137.778 211.852 137.742 211.94 137.726 212.06C137.71 212.18 137.702 212.312 137.702 212.456V218H136.598ZM143.526 218V213.176C143.526 212.712 143.414 212.368 143.19 212.144C142.974 211.912 142.642 211.796 142.194 211.796H139.95L140.07 210.884H142.278C143.054 210.884 143.638 211.076 144.03 211.46C144.43 211.836 144.63 212.396 144.63 213.14V217.208C144.598 217.352 144.538 217.488 144.45 217.616C144.37 217.744 144.278 217.872 144.174 218H143.526ZM139.59 218V217.088H145.518L145.386 218H139.59ZM146.421 218.432V217.508L148.845 216.968C149.197 216.88 149.513 216.764 149.793 216.62C150.081 216.468 150.325 216.244 150.525 215.948C150.733 215.652 150.901 215.248 151.029 214.736C151.157 214.224 151.241 213.56 151.281 212.744L151.401 210.884H152.505L152.397 212.744C152.365 213.408 152.297 213.996 152.193 214.508C152.097 215.012 151.961 215.452 151.785 215.828C151.609 216.204 151.385 216.524 151.113 216.788C150.849 217.052 150.529 217.272 150.153 217.448C149.785 217.624 149.353 217.768 148.857 217.88L146.421 218.432ZM148.317 217.496L146.745 210.956L147.813 210.812L149.049 215.924C149.089 216.084 149.101 216.256 149.085 216.44C149.069 216.616 149.029 216.796 148.965 216.98C148.909 217.156 148.833 217.328 148.737 217.496H148.317ZM153.798 218L154.626 213.74L153.642 210.884H154.746L155.334 212.78H155.37C155.458 212.516 155.562 212.264 155.682 212.024C155.802 211.784 155.958 211.572 156.15 211.388C156.342 211.196 156.578 211.044 156.858 210.932C157.138 210.82 157.466 210.764 157.842 210.764C158.378 210.764 158.846 210.892 159.246 211.148C159.646 211.396 159.958 211.772 160.182 212.276C160.414 212.772 160.53 213.404 160.53 214.172V214.34C160.53 215.076 160.41 215.72 160.17 216.272C159.938 216.816 159.594 217.24 159.138 217.544C158.69 217.848 158.138 218 157.482 218H156.282L156.402 217.088H157.434C158.074 217.088 158.566 216.836 158.91 216.332C159.254 215.828 159.426 215.164 159.426 214.34V214.172C159.426 213.596 159.346 213.128 159.186 212.768C159.034 212.4 158.826 212.128 158.562 211.952C158.298 211.776 157.994 211.688 157.65 211.688C157.314 211.688 157.03 211.748 156.798 211.868C156.566 211.988 156.378 212.152 156.234 212.36C156.09 212.56 155.974 212.784 155.886 213.032C155.806 213.272 155.746 213.52 155.706 213.776L154.938 218H153.798ZM27.7626 226.884C28.5386 226.884 29.1226 227.076 29.5146 227.46C29.9146 227.836 30.1146 228.396 30.1146 229.14V234H29.0106V229.176C29.0106 228.712 28.8986 228.368 28.6746 228.144C28.4586 227.912 28.1306 227.796 27.6906 227.796H25.5546C25.5066 227.868 25.4546 228.004 25.3986 228.204C25.3426 228.404 25.3146 228.716 25.3146 229.14V234H24.2106V229.416C24.2106 229.064 24.2466 228.748 24.3186 228.468C24.3906 228.18 24.4946 227.96 24.6306 227.808L24.3906 227.76V226.884H27.7626ZM23.5866 227.796L23.7066 226.884H26.3466V227.796H23.5866ZM32.5519 234V226.884H33.6559V234H32.5519ZM31.4599 227.796L31.5919 226.884H33.2719V227.796H31.4599ZM36.1253 226.884H40.4573L40.3373 227.58L38.1893 234H37.0493L39.1493 227.796H35.0213V225.012L36.1253 224.88V226.884ZM46.4212 232.74C46.3492 233.02 46.2572 233.324 46.1452 233.652C46.0332 233.98 45.9092 234.304 45.7732 234.624C45.6452 234.952 45.5172 235.26 45.3892 235.548H44.6092C44.6892 235.244 44.7652 234.916 44.8372 234.564C44.9172 234.22 44.9892 233.88 45.0532 233.544C45.1172 233.2 45.1692 232.888 45.2092 232.608H46.3372L46.4212 232.74ZM50.6281 228.744C51.2121 228.744 51.7201 228.844 52.1521 229.044C52.5841 229.244 52.9161 229.532 53.1481 229.908C53.3881 230.276 53.5081 230.728 53.5081 231.264C53.5081 231.856 53.3801 232.368 53.1241 232.8C52.8681 233.224 52.5001 233.552 52.0201 233.784C51.5481 234.008 50.9761 234.12 50.3041 234.12C49.8641 234.12 49.4481 234.08 49.0561 234C48.6721 233.92 48.3481 233.804 48.0841 233.652V232.656C48.3721 232.832 48.7201 232.972 49.1281 233.076C49.5441 233.172 49.9401 233.22 50.3161 233.22C50.7401 233.22 51.1081 233.156 51.4201 233.028C51.7401 232.892 51.9881 232.688 52.1641 232.416C52.3401 232.136 52.4281 231.788 52.4281 231.372C52.4281 230.812 52.2561 230.384 51.9121 230.088C51.5681 229.784 51.0241 229.632 50.2801 229.632C50.0561 229.632 49.8001 229.652 49.5121 229.692C49.2241 229.732 48.9921 229.772 48.8161 229.812L48.2881 229.476L48.6121 225.432H52.9081V226.392H49.5121L49.3081 228.876C49.4441 228.852 49.6281 228.824 49.8601 228.792C50.0921 228.76 50.3481 228.744 50.6281 228.744ZM60.4713 229.704C60.4713 230.4 60.4193 231.02 60.3153 231.564C60.2113 232.108 60.0433 232.572 59.8113 232.956C59.5873 233.332 59.2913 233.62 58.9233 233.82C58.5633 234.02 58.1273 234.12 57.6153 234.12C56.9753 234.12 56.4433 233.944 56.0193 233.592C55.6033 233.24 55.2913 232.736 55.0833 232.08C54.8833 231.416 54.7833 230.624 54.7833 229.704C54.7833 228.776 54.8753 227.984 55.0593 227.328C55.2513 226.672 55.5553 226.172 55.9713 225.828C56.3873 225.476 56.9353 225.3 57.6153 225.3C58.2553 225.3 58.7873 225.476 59.2113 225.828C59.6353 226.172 59.9513 226.672 60.1593 227.328C60.3673 227.984 60.4713 228.776 60.4713 229.704ZM55.8393 229.704C55.8393 230.488 55.8953 231.14 56.0073 231.66C56.1273 232.18 56.3153 232.572 56.5713 232.836C56.8353 233.092 57.1833 233.22 57.6153 233.22C58.0473 233.22 58.3913 233.092 58.6473 232.836C58.9113 232.58 59.1033 232.192 59.2233 231.672C59.3433 231.144 59.4033 230.488 59.4033 229.704C59.4033 228.92 59.3433 228.272 59.2233 227.76C59.1033 227.24 58.9113 226.852 58.6473 226.596C58.3913 226.332 58.0473 226.2 57.6153 226.2C57.1833 226.2 56.8353 226.332 56.5713 226.596C56.3153 226.852 56.1273 227.24 56.0073 227.76C55.8953 228.272 55.8393 228.92 55.8393 229.704ZM67.3385 229.704C67.3385 230.4 67.2865 231.02 67.1825 231.564C67.0785 232.108 66.9105 232.572 66.6785 232.956C66.4545 233.332 66.1585 233.62 65.7905 233.82C65.4305 234.02 64.9945 234.12 64.4825 234.12C63.8425 234.12 63.3105 233.944 62.8865 233.592C62.4705 233.24 62.1585 232.736 61.9505 232.08C61.7505 231.416 61.6505 230.624 61.6505 229.704C61.6505 228.776 61.7425 227.984 61.9265 227.328C62.1185 226.672 62.4225 226.172 62.8385 225.828C63.2545 225.476 63.8025 225.3 64.4825 225.3C65.1225 225.3 65.6545 225.476 66.0785 225.828C66.5025 226.172 66.8185 226.672 67.0265 227.328C67.2345 227.984 67.3385 228.776 67.3385 229.704ZM62.7065 229.704C62.7065 230.488 62.7625 231.14 62.8745 231.66C62.9945 232.18 63.1825 232.572 63.4385 232.836C63.7025 233.092 64.0505 233.22 64.4825 233.22C64.9145 233.22 65.2585 233.092 65.5145 232.836C65.7785 232.58 65.9705 232.192 66.0905 231.672C66.2105 231.144 66.2705 230.488 66.2705 229.704C66.2705 228.92 66.2105 228.272 66.0905 227.76C65.9705 227.24 65.7785 226.852 65.5145 226.596C65.2585 226.332 64.9145 226.2 64.4825 226.2C64.0505 226.2 63.7025 226.332 63.4385 226.596C63.1825 226.852 62.9945 227.24 62.8745 227.76C62.7625 228.272 62.7065 228.92 62.7065 229.704ZM72.8137 229.476H75.7777V233.676C75.3137 233.828 74.8457 233.94 74.3737 234.012C73.9017 234.084 73.3657 234.12 72.7657 234.12C71.8777 234.12 71.1297 233.944 70.5217 233.592C69.9137 233.232 69.4497 232.724 69.1297 232.068C68.8177 231.404 68.6617 230.62 68.6617 229.716C68.6617 228.82 68.8377 228.044 69.1897 227.388C69.5417 226.732 70.0457 226.224 70.7017 225.864C71.3657 225.496 72.1657 225.312 73.1017 225.312C73.5817 225.312 74.0337 225.356 74.4577 225.444C74.8897 225.532 75.2897 225.656 75.6577 225.816L75.2497 226.752C74.9457 226.616 74.6017 226.5 74.2177 226.404C73.8417 226.308 73.4497 226.26 73.0417 226.26C72.3617 226.26 71.7777 226.4 71.2897 226.68C70.8017 226.96 70.4297 227.36 70.1737 227.88C69.9177 228.392 69.7897 229.004 69.7897 229.716C69.7897 230.396 69.8977 231 70.1137 231.528C70.3377 232.048 70.6857 232.456 71.1577 232.752C71.6297 233.04 72.2497 233.184 73.0177 233.184C73.2737 233.184 73.4977 233.176 73.6897 233.16C73.8897 233.136 74.0697 233.108 74.2297 233.076C74.3977 233.044 74.5537 233.012 74.6977 232.98V230.436H72.8137V229.476ZM80.2722 225.432C80.9842 225.432 81.5802 225.5 82.0602 225.636C82.5482 225.772 82.9122 225.996 83.1522 226.308C83.4002 226.62 83.5242 227.036 83.5242 227.556C83.5242 227.892 83.4602 228.192 83.3322 228.456C83.2122 228.712 83.0282 228.928 82.7802 229.104C82.5402 229.272 82.2442 229.388 81.8922 229.452V229.512C82.2522 229.568 82.5762 229.672 82.8642 229.824C83.1602 229.976 83.3922 230.192 83.5602 230.472C83.7282 230.752 83.8122 231.116 83.8122 231.564C83.8122 232.084 83.6922 232.528 83.4522 232.896C83.2122 233.256 82.8682 233.532 82.4202 233.724C81.9802 233.908 81.4522 234 80.8362 234H77.8242V225.432H80.2722ZM80.4882 229.08C81.2242 229.08 81.7282 228.964 82.0002 228.732C82.2722 228.492 82.4082 228.14 82.4082 227.676C82.4082 227.204 82.2402 226.868 81.9042 226.668C81.5762 226.46 81.0482 226.356 80.3202 226.356H78.9042V229.08H80.4882ZM78.9042 229.98V233.088H80.6322C81.3922 233.088 81.9202 232.94 82.2162 232.644C82.5122 232.348 82.6602 231.96 82.6602 231.48C82.6602 231.176 82.5922 230.912 82.4562 230.688C82.3282 230.464 82.1082 230.292 81.7962 230.172C81.4922 230.044 81.0762 229.98 80.5482 229.98H78.9042ZM93.7232 231.708C93.7232 232.22 93.5992 232.656 93.3512 233.016C93.1032 233.368 92.7472 233.64 92.2832 233.832C91.8272 234.024 91.2872 234.12 90.6632 234.12C90.3432 234.12 90.0352 234.104 89.7392 234.072C89.4512 234.04 89.1872 233.996 88.9472 233.94C88.7072 233.876 88.4952 233.8 88.3112 233.712V232.68C88.5992 232.808 88.9552 232.924 89.3792 233.028C89.8112 233.132 90.2552 233.184 90.7112 233.184C91.1352 233.184 91.4912 233.128 91.7792 233.016C92.0672 232.904 92.2832 232.744 92.4272 232.536C92.5712 232.328 92.6432 232.084 92.6432 231.804C92.6432 231.524 92.5832 231.288 92.4632 231.096C92.3432 230.904 92.1352 230.728 91.8392 230.568C91.5512 230.4 91.1472 230.224 90.6272 230.04C90.2592 229.904 89.9352 229.76 89.6552 229.608C89.3832 229.448 89.1552 229.268 88.9712 229.068C88.7872 228.868 88.6472 228.64 88.5512 228.384C88.4632 228.128 88.4192 227.832 88.4192 227.496C88.4192 227.04 88.5352 226.652 88.7672 226.332C88.9992 226.004 89.3192 225.752 89.7272 225.576C90.1432 225.4 90.6192 225.312 91.1552 225.312C91.6272 225.312 92.0592 225.356 92.4512 225.444C92.8432 225.532 93.1992 225.648 93.5192 225.792L93.1832 226.716C92.8872 226.588 92.5632 226.48 92.2112 226.392C91.8672 226.304 91.5072 226.26 91.1312 226.26C90.7712 226.26 90.4712 226.312 90.2312 226.416C89.9912 226.52 89.8112 226.668 89.6912 226.86C89.5712 227.044 89.5112 227.26 89.5112 227.508C89.5112 227.796 89.5712 228.036 89.6912 228.228C89.8112 228.42 90.0072 228.592 90.2792 228.744C90.5512 228.896 90.9192 229.06 91.3832 229.236C91.8872 229.42 92.3112 229.62 92.6552 229.836C93.0072 230.044 93.2712 230.296 93.4472 230.592C93.6312 230.888 93.7232 231.26 93.7232 231.708ZM100.309 231.708C100.309 232.22 100.185 232.656 99.9372 233.016C99.6892 233.368 99.3332 233.64 98.8692 233.832C98.4132 234.024 97.8732 234.12 97.2492 234.12C96.9292 234.12 96.6212 234.104 96.3252 234.072C96.0372 234.04 95.7732 233.996 95.5332 233.94C95.2932 233.876 95.0812 233.8 94.8972 233.712V232.68C95.1852 232.808 95.5412 232.924 95.9652 233.028C96.3972 233.132 96.8412 233.184 97.2972 233.184C97.7212 233.184 98.0772 233.128 98.3652 233.016C98.6532 232.904 98.8692 232.744 99.0132 232.536C99.1572 232.328 99.2292 232.084 99.2292 231.804C99.2292 231.524 99.1692 231.288 99.0492 231.096C98.9292 230.904 98.7212 230.728 98.4252 230.568C98.1372 230.4 97.7332 230.224 97.2132 230.04C96.8452 229.904 96.5212 229.76 96.2412 229.608C95.9692 229.448 95.7412 229.268 95.5572 229.068C95.3732 228.868 95.2332 228.64 95.1372 228.384C95.0492 228.128 95.0052 227.832 95.0052 227.496C95.0052 227.04 95.1212 226.652 95.3532 226.332C95.5852 226.004 95.9052 225.752 96.3132 225.576C96.7292 225.4 97.2052 225.312 97.7412 225.312C98.2132 225.312 98.6452 225.356 99.0372 225.444C99.4292 225.532 99.7852 225.648 100.105 225.792L99.7692 226.716C99.4732 226.588 99.1492 226.48 98.7972 226.392C98.4532 226.304 98.0932 226.26 97.7172 226.26C97.3572 226.26 97.0572 226.312 96.8172 226.416C96.5772 226.52 96.3972 226.668 96.2772 226.86C96.1572 227.044 96.0972 227.26 96.0972 227.508C96.0972 227.796 96.1572 228.036 96.2772 228.228C96.3972 228.42 96.5932 228.592 96.8652 228.744C97.1372 228.896 97.5052 229.06 97.9692 229.236C98.4732 229.42 98.8972 229.62 99.2412 229.836C99.5932 230.044 99.8572 230.296 100.033 230.592C100.217 230.888 100.309 231.26 100.309 231.708ZM108.899 229.632C108.899 230.592 108.719 231.396 108.359 232.044C108.007 232.692 107.499 233.18 106.835 233.508C106.171 233.836 105.367 234 104.423 234H102.035V225.432H104.675C105.539 225.432 106.287 225.592 106.919 225.912C107.551 226.232 108.039 226.704 108.383 227.328C108.727 227.944 108.899 228.712 108.899 229.632ZM107.759 229.668C107.759 228.908 107.631 228.284 107.375 227.796C107.127 227.308 106.759 226.948 106.271 226.716C105.791 226.476 105.207 226.356 104.519 226.356H103.115V233.076H104.279C105.439 233.076 106.307 232.792 106.883 232.224C107.467 231.648 107.759 230.796 107.759 229.668ZM114.491 236.292V226.884H115.595V236.232L114.491 236.292ZM113.399 227.796L113.531 226.884H115.211V227.796H113.399ZM119.376 234V228.66C119.376 228.46 119.344 228.296 119.28 228.168C119.224 228.032 119.136 227.936 119.016 227.88C118.896 227.824 118.748 227.796 118.572 227.796H117.756L117.876 226.884H118.848C119.376 226.884 119.78 227.028 120.06 227.316C120.34 227.596 120.48 228.008 120.48 228.552V234H119.376ZM117.396 234V233.088H119.904V234H117.396ZM122.915 234V226.884H124.019V234H122.915ZM121.823 227.796L121.955 226.884H123.635V227.796H121.823ZM125.517 234V233.088H127.485C128.149 233.088 128.645 232.864 128.973 232.416C129.309 231.968 129.477 231.32 129.477 230.472C129.477 229.6 129.309 228.936 128.973 228.48C128.645 228.024 128.149 227.796 127.485 227.796H125.517L125.649 226.884H127.485C128.509 226.884 129.285 227.192 129.813 227.808C130.349 228.424 130.617 229.312 130.617 230.472C130.617 231.616 130.349 232.492 129.813 233.1C129.285 233.7 128.509 234 127.485 234H125.517ZM136.691 232.74C136.619 233.02 136.527 233.324 136.415 233.652C136.303 233.98 136.179 234.304 136.043 234.624C135.915 234.952 135.787 235.26 135.659 235.548H134.879C134.959 235.244 135.035 234.916 135.107 234.564C135.187 234.22 135.259 233.88 135.323 233.544C135.387 233.2 135.439 232.888 135.479 232.608H136.607L136.691 232.74ZM141.018 225.312C141.522 225.312 141.966 225.392 142.35 225.552C142.734 225.704 143.034 225.932 143.25 226.236C143.474 226.54 143.586 226.916 143.586 227.364C143.586 227.708 143.51 228.008 143.358 228.264C143.214 228.52 143.018 228.748 142.77 228.948C142.522 229.14 142.25 229.312 141.954 229.464C142.306 229.632 142.626 229.824 142.914 230.04C143.202 230.248 143.43 230.492 143.598 230.772C143.774 231.052 143.862 231.388 143.862 231.78C143.862 232.26 143.746 232.676 143.514 233.028C143.282 233.372 142.954 233.64 142.53 233.832C142.114 234.024 141.622 234.12 141.054 234.12C140.438 234.12 139.914 234.028 139.482 233.844C139.058 233.66 138.734 233.4 138.51 233.064C138.294 232.72 138.186 232.304 138.186 231.816C138.186 231.424 138.266 231.084 138.426 230.796C138.594 230.508 138.814 230.26 139.086 230.052C139.358 229.844 139.65 229.668 139.962 229.524C139.682 229.364 139.426 229.184 139.194 228.984C138.97 228.776 138.79 228.54 138.654 228.276C138.526 228.012 138.462 227.704 138.462 227.352C138.462 226.912 138.574 226.544 138.798 226.248C139.022 225.944 139.326 225.712 139.71 225.552C140.094 225.392 140.53 225.312 141.018 225.312ZM139.218 231.828C139.218 232.244 139.366 232.592 139.662 232.872C139.958 233.144 140.414 233.28 141.03 233.28C141.422 233.28 141.75 233.216 142.014 233.088C142.278 232.96 142.478 232.784 142.614 232.56C142.758 232.336 142.83 232.08 142.83 231.792C142.83 231.512 142.754 231.268 142.602 231.06C142.458 230.844 142.25 230.652 141.978 230.484C141.714 230.316 141.398 230.164 141.03 230.028L140.838 229.956C140.486 230.108 140.19 230.272 139.95 230.448C139.71 230.624 139.526 230.824 139.398 231.048C139.278 231.272 139.218 231.532 139.218 231.828ZM141.006 226.164C140.566 226.164 140.202 226.272 139.914 226.488C139.634 226.696 139.494 227 139.494 227.4C139.494 227.696 139.562 227.944 139.698 228.144C139.842 228.344 140.034 228.516 140.274 228.66C140.514 228.796 140.778 228.928 141.066 229.056C141.346 228.936 141.594 228.804 141.81 228.66C142.034 228.516 142.21 228.344 142.338 228.144C142.474 227.936 142.542 227.688 142.542 227.4C142.542 227 142.402 226.696 142.122 226.488C141.842 226.272 141.47 226.164 141.006 226.164ZM149.349 229.476H152.313V233.676C151.849 233.828 151.381 233.94 150.909 234.012C150.437 234.084 149.901 234.12 149.301 234.12C148.413 234.12 147.665 233.944 147.057 233.592C146.449 233.232 145.985 232.724 145.665 232.068C145.353 231.404 145.197 230.62 145.197 229.716C145.197 228.82 145.373 228.044 145.725 227.388C146.077 226.732 146.581 226.224 147.237 225.864C147.901 225.496 148.701 225.312 149.637 225.312C150.117 225.312 150.569 225.356 150.993 225.444C151.425 225.532 151.825 225.656 152.193 225.816L151.785 226.752C151.481 226.616 151.137 226.5 150.753 226.404C150.377 226.308 149.985 226.26 149.577 226.26C148.897 226.26 148.313 226.4 147.825 226.68C147.337 226.96 146.965 227.36 146.709 227.88C146.453 228.392 146.325 229.004 146.325 229.716C146.325 230.396 146.433 231 146.649 231.528C146.873 232.048 147.221 232.456 147.693 232.752C148.165 233.04 148.785 233.184 149.553 233.184C149.809 233.184 150.033 233.176 150.225 233.16C150.425 233.136 150.605 233.108 150.765 233.076C150.933 233.044 151.089 233.012 151.233 232.98V230.436H149.349V229.476ZM156.807 225.432C157.519 225.432 158.115 225.5 158.595 225.636C159.083 225.772 159.447 225.996 159.687 226.308C159.935 226.62 160.059 227.036 160.059 227.556C160.059 227.892 159.995 228.192 159.867 228.456C159.747 228.712 159.563 228.928 159.315 229.104C159.075 229.272 158.779 229.388 158.427 229.452V229.512C158.787 229.568 159.111 229.672 159.399 229.824C159.695 229.976 159.927 230.192 160.095 230.472C160.263 230.752 160.347 231.116 160.347 231.564C160.347 232.084 160.227 232.528 159.987 232.896C159.747 233.256 159.403 233.532 158.955 233.724C158.515 233.908 157.987 234 157.371 234H154.359V225.432H156.807ZM157.023 229.08C157.759 229.08 158.263 228.964 158.535 228.732C158.807 228.492 158.943 228.14 158.943 227.676C158.943 227.204 158.775 226.868 158.439 226.668C158.111 226.46 157.583 226.356 156.855 226.356H155.439V229.08H157.023ZM155.439 229.98V233.088H157.167C157.927 233.088 158.455 232.94 158.751 232.644C159.047 232.348 159.195 231.96 159.195 231.48C159.195 231.176 159.127 230.912 158.991 230.688C158.863 230.464 158.643 230.292 158.331 230.172C158.027 230.044 157.611 229.98 157.083 229.98H155.439ZM27.6145 245.476H30.5785V249.676C30.1145 249.828 29.6465 249.94 29.1745 250.012C28.7025 250.084 28.1665 250.12 27.5665 250.12C26.6785 250.12 25.9305 249.944 25.3225 249.592C24.7145 249.232 24.2505 248.724 23.9305 248.068C23.6185 247.404 23.4625 246.62 23.4625 245.716C23.4625 244.82 23.6385 244.044 23.9905 243.388C24.3425 242.732 24.8465 242.224 25.5025 241.864C26.1665 241.496 26.9665 241.312 27.9025 241.312C28.3825 241.312 28.8345 241.356 29.2585 241.444C29.6905 241.532 30.0905 241.656 30.4585 241.816L30.0505 242.752C29.7465 242.616 29.4025 242.5 29.0185 242.404C28.6425 242.308 28.2505 242.26 27.8425 242.26C27.1625 242.26 26.5785 242.4 26.0905 242.68C25.6025 242.96 25.2305 243.36 24.9745 243.88C24.7185 244.392 24.5905 245.004 24.5905 245.716C24.5905 246.396 24.6985 247 24.9145 247.528C25.1385 248.048 25.4865 248.456 25.9585 248.752C26.4305 249.04 27.0505 249.184 27.8185 249.184C28.0745 249.184 28.2985 249.176 28.4905 249.16C28.6905 249.136 28.8705 249.108 29.0305 249.076C29.1985 249.044 29.3545 249.012 29.4985 248.98V246.436H27.6145V245.476ZM34.9649 243.448C35.5169 243.448 35.9889 243.568 36.3809 243.808C36.7809 244.048 37.0849 244.388 37.2929 244.828C37.5089 245.26 37.6169 245.768 37.6169 246.352V246.988H33.2129C33.2289 247.716 33.4129 248.272 33.7649 248.656C34.1249 249.032 34.6249 249.22 35.2649 249.22C35.6729 249.22 36.0329 249.184 36.3449 249.112C36.6649 249.032 36.9929 248.92 37.3289 248.776V249.7C37.0009 249.844 36.6769 249.948 36.3569 250.012C36.0369 250.084 35.6569 250.12 35.2169 250.12C34.6089 250.12 34.0689 249.996 33.5969 249.748C33.1329 249.5 32.7689 249.132 32.5049 248.644C32.2489 248.148 32.1209 247.544 32.1209 246.832C32.1209 246.128 32.2369 245.524 32.4689 245.02C32.7089 244.516 33.0409 244.128 33.4649 243.856C33.8969 243.584 34.3969 243.448 34.9649 243.448ZM34.9529 244.312C34.4489 244.312 34.0489 244.476 33.7529 244.804C33.4649 245.124 33.2929 245.572 33.2369 246.148H36.5129C36.5129 245.78 36.4569 245.46 36.3449 245.188C36.2329 244.916 36.0609 244.704 35.8289 244.552C35.6049 244.392 35.3129 244.312 34.9529 244.312ZM40.4784 250H39.3984V241.432H44.1864V242.38H40.4784V245.416H43.9584V246.364H40.4784V250ZM51.069 246.772C51.069 247.308 50.997 247.784 50.853 248.2C50.717 248.608 50.517 248.956 50.253 249.244C49.997 249.532 49.681 249.752 49.305 249.904C48.937 250.048 48.525 250.12 48.069 250.12C47.645 250.12 47.253 250.048 46.893 249.904C46.533 249.752 46.221 249.532 45.957 249.244C45.693 248.956 45.485 248.608 45.333 248.2C45.189 247.784 45.117 247.308 45.117 246.772C45.117 246.06 45.237 245.46 45.477 244.972C45.717 244.476 46.061 244.1 46.509 243.844C46.957 243.58 47.489 243.448 48.105 243.448C48.689 243.448 49.201 243.58 49.641 243.844C50.089 244.1 50.437 244.476 50.685 244.972C50.941 245.46 51.069 246.06 51.069 246.772ZM46.209 246.772C46.209 247.276 46.273 247.716 46.401 248.092C46.537 248.46 46.745 248.744 47.025 248.944C47.305 249.144 47.661 249.244 48.093 249.244C48.525 249.244 48.881 249.144 49.161 248.944C49.441 248.744 49.645 248.46 49.773 248.092C49.909 247.716 49.977 247.276 49.977 246.772C49.977 246.26 49.909 245.824 49.773 245.464C49.637 245.104 49.429 244.828 49.149 244.636C48.877 244.436 48.521 244.336 48.081 244.336C47.425 244.336 46.949 244.552 46.653 244.984C46.357 245.416 46.209 246.012 46.209 246.772ZM55.7427 243.448C55.8627 243.448 55.9907 243.456 56.1267 243.472C56.2707 243.48 56.3947 243.496 56.4987 243.52L56.3667 244.492C56.2627 244.468 56.1467 244.448 56.0187 244.432C55.8987 244.416 55.7827 244.408 55.6707 244.408C55.4227 244.408 55.1867 244.46 54.9627 244.564C54.7387 244.668 54.5387 244.816 54.3627 245.008C54.1867 245.192 54.0467 245.416 53.9427 245.68C53.8467 245.944 53.7987 246.24 53.7987 246.568V250H52.7427V243.568H53.6067L53.7267 244.744H53.7747C53.9107 244.504 54.0747 244.288 54.2667 244.096C54.4587 243.896 54.6787 243.74 54.9267 243.628C55.1747 243.508 55.4467 243.448 55.7427 243.448ZM60.0453 250.12C59.4773 250.12 58.9693 250.004 58.5213 249.772C58.0813 249.54 57.7333 249.18 57.4773 248.692C57.2293 248.204 57.1053 247.58 57.1053 246.82C57.1053 246.028 57.2373 245.384 57.5013 244.888C57.7653 244.392 58.1213 244.028 58.5693 243.796C59.0253 243.564 59.5413 243.448 60.1173 243.448C60.4453 243.448 60.7613 243.484 61.0653 243.556C61.3693 243.62 61.6173 243.7 61.8093 243.796L61.4853 244.672C61.2933 244.6 61.0693 244.532 60.8133 244.468C60.5573 244.404 60.3173 244.372 60.0933 244.372C59.6613 244.372 59.3053 244.464 59.0253 244.648C58.7453 244.832 58.5373 245.104 58.4013 245.464C58.2653 245.824 58.1973 246.272 58.1973 246.808C58.1973 247.32 58.2653 247.756 58.4013 248.116C58.5373 248.476 58.7413 248.748 59.0133 248.932C59.2853 249.116 59.6253 249.208 60.0333 249.208C60.3853 249.208 60.6933 249.172 60.9573 249.1C61.2293 249.028 61.4773 248.94 61.7013 248.836V249.772C61.4853 249.884 61.2453 249.968 60.9813 250.024C60.7253 250.088 60.4133 250.12 60.0453 250.12ZM65.7149 243.448C66.2669 243.448 66.7389 243.568 67.1309 243.808C67.5309 244.048 67.8349 244.388 68.0429 244.828C68.2589 245.26 68.3669 245.768 68.3669 246.352V246.988H63.9629C63.9789 247.716 64.1629 248.272 64.5149 248.656C64.8749 249.032 65.3749 249.22 66.0149 249.22C66.4229 249.22 66.7829 249.184 67.0949 249.112C67.4149 249.032 67.7429 248.92 68.0789 248.776V249.7C67.7509 249.844 67.4269 249.948 67.1069 250.012C66.7869 250.084 66.4069 250.12 65.9669 250.12C65.3589 250.12 64.8189 249.996 64.3469 249.748C63.8829 249.5 63.5189 249.132 63.2549 248.644C62.9989 248.148 62.8709 247.544 62.8709 246.832C62.8709 246.128 62.9869 245.524 63.2189 245.02C63.4589 244.516 63.7909 244.128 64.2149 243.856C64.6469 243.584 65.1469 243.448 65.7149 243.448ZM65.7029 244.312C65.1989 244.312 64.7989 244.476 64.5029 244.804C64.2149 245.124 64.0429 245.572 63.9869 246.148H67.2629C67.2629 245.78 67.2069 245.46 67.0949 245.188C66.9829 244.916 66.8109 244.704 66.5789 244.552C66.3549 244.392 66.0629 244.312 65.7029 244.312ZM76.8748 252.292V245.488C76.8748 244.944 76.7548 244.528 76.5148 244.24C76.2748 243.944 75.9388 243.796 75.5068 243.796H72.7348L72.8548 242.884H75.5428C76.3348 242.884 76.9388 243.112 77.3548 243.568C77.7708 244.016 77.9788 244.656 77.9788 245.488V252.232L76.8748 252.292ZM82.3545 250.12C81.3305 250.12 80.5665 249.824 80.0625 249.232C79.5665 248.64 79.3185 247.768 79.3185 246.616V246.484C79.3185 245.932 79.4025 245.428 79.5705 244.972C79.7465 244.516 79.9625 244.144 80.2185 243.856V243.712L81.2625 243.64L81.1305 243.832C80.8985 244.096 80.7225 244.452 80.6025 244.9C80.4825 245.348 80.4225 245.84 80.4225 246.376C80.4225 247.328 80.5745 248.044 80.8785 248.524C81.1905 249.004 81.6825 249.244 82.3545 249.244C83.0665 249.244 83.5865 248.976 83.9145 248.44C84.2425 247.896 84.4065 247.112 84.4065 246.088C84.4065 245.344 84.2825 244.776 84.0345 244.384C83.7865 243.992 83.3625 243.796 82.7625 243.796H78.9225L79.0545 242.884H82.7985C83.7345 242.884 84.4185 243.16 84.8505 243.712C85.2905 244.256 85.5105 245.044 85.5105 246.076C85.5105 247.38 85.2505 248.38 84.7305 249.076C84.2105 249.772 83.4185 250.12 82.3545 250.12ZM86.5677 250L87.3957 245.74L86.4117 242.884H87.5157L88.1037 244.78H88.1397C88.2277 244.516 88.3317 244.264 88.4517 244.024C88.5717 243.784 88.7277 243.572 88.9197 243.388C89.1117 243.196 89.3477 243.044 89.6277 242.932C89.9077 242.82 90.2357 242.764 90.6117 242.764C91.1477 242.764 91.6157 242.892 92.0157 243.148C92.4157 243.396 92.7277 243.772 92.9517 244.276C93.1837 244.772 93.2997 245.404 93.2997 246.172V246.34C93.2997 247.076 93.1797 247.72 92.9397 248.272C92.7077 248.816 92.3637 249.24 91.9077 249.544C91.4597 249.848 90.9077 250 90.2517 250H89.0517L89.1717 249.088H90.2037C90.8437 249.088 91.3357 248.836 91.6797 248.332C92.0237 247.828 92.1957 247.164 92.1957 246.34V246.172C92.1957 245.596 92.1157 245.128 91.9557 244.768C91.8037 244.4 91.5957 244.128 91.3317 243.952C91.0677 243.776 90.7637 243.688 90.4197 243.688C90.0837 243.688 89.7997 243.748 89.5677 243.868C89.3357 243.988 89.1477 244.152 89.0037 244.36C88.8597 244.56 88.7437 244.784 88.6557 245.032C88.5757 245.272 88.5157 245.52 88.4757 245.776L87.7077 250H86.5677ZM100.964 250.12C99.9399 250.12 99.1759 249.824 98.6719 249.232C98.1759 248.64 97.9279 247.768 97.9279 246.616V246.484C97.9279 245.932 98.0119 245.428 98.1799 244.972C98.3559 244.516 98.5719 244.144 98.8279 243.856V243.712L99.8719 243.64L99.7399 243.832C99.5079 244.096 99.3319 244.452 99.2119 244.9C99.0919 245.348 99.0319 245.84 99.0319 246.376C99.0319 247.328 99.1839 248.044 99.4879 248.524C99.7999 249.004 100.292 249.244 100.964 249.244C101.676 249.244 102.196 248.976 102.524 248.44C102.852 247.896 103.016 247.112 103.016 246.088C103.016 245.344 102.892 244.776 102.644 244.384C102.396 243.992 101.972 243.796 101.372 243.796H97.5319L97.6639 242.884H101.408C102.344 242.884 103.028 243.16 103.46 243.712C103.9 244.256 104.12 245.044 104.12 246.076C104.12 247.38 103.86 248.38 103.34 249.076C102.82 249.772 102.028 250.12 100.964 250.12ZM106.169 246.856V242.884H107.273V246.856H106.169ZM105.077 243.796L105.209 242.884H106.793V243.796H105.077ZM111.952 250.12C110.96 250.12 110.192 249.784 109.648 249.112C109.112 248.432 108.844 247.432 108.844 246.112V242.884H109.948V246.112C109.948 247.136 110.124 247.916 110.476 248.452C110.828 248.98 111.312 249.244 111.928 249.244C112.592 249.244 113.112 248.98 113.488 248.452C113.864 247.916 114.052 247.136 114.052 246.112C114.052 245.344 113.948 244.752 113.74 244.336C113.532 243.912 113.172 243.704 112.66 243.712C112.484 243.712 112.316 243.724 112.156 243.748C112.004 243.772 111.844 243.804 111.676 243.844V242.956C111.876 242.916 112.068 242.884 112.252 242.86C112.444 242.836 112.64 242.824 112.84 242.824C113.664 242.816 114.256 243.1 114.616 243.676C114.976 244.244 115.156 245.056 115.156 246.112C115.156 247.432 114.876 248.432 114.316 249.112C113.756 249.784 112.968 250.12 111.952 250.12ZM119.803 250V245.176C119.803 244.712 119.691 244.368 119.467 244.144C119.251 243.912 118.923 243.796 118.483 243.796H116.011L116.143 242.884H118.555C119.331 242.884 119.915 243.076 120.307 243.46C120.707 243.836 120.907 244.396 120.907 245.14V250H119.803ZM122.353 250V249.088H124.321C124.985 249.088 125.481 248.864 125.809 248.416C126.145 247.968 126.313 247.32 126.313 246.472C126.313 245.6 126.145 244.936 125.809 244.48C125.481 244.024 124.985 243.796 124.321 243.796H122.353L122.485 242.884H124.321C125.345 242.884 126.121 243.192 126.649 243.808C127.185 244.424 127.453 245.312 127.453 246.472C127.453 247.616 127.185 248.492 126.649 249.1C126.121 249.7 125.345 250 124.321 250H122.353ZM133.527 248.74C133.455 249.02 133.363 249.324 133.251 249.652C133.139 249.98 133.015 250.304 132.879 250.624C132.751 250.952 132.623 251.26 132.495 251.548H131.715C131.795 251.244 131.871 250.916 131.943 250.564C132.023 250.22 132.095 249.88 132.159 249.544C132.223 249.2 132.275 248.888 132.315 248.608H133.443L133.527 248.74ZM140.974 250L139.942 247.348H136.546L135.526 250H134.434L137.782 241.396H138.754L142.09 250H140.974ZM138.658 243.796C138.634 243.732 138.594 243.616 138.538 243.448C138.482 243.28 138.426 243.108 138.37 242.932C138.322 242.748 138.282 242.608 138.25 242.512C138.21 242.672 138.166 242.836 138.118 243.004C138.078 243.164 138.034 243.312 137.986 243.448C137.946 243.584 137.91 243.7 137.878 243.796L136.906 246.388H139.618L138.658 243.796ZM147.306 248.224C147.306 248.64 147.202 248.988 146.994 249.268C146.786 249.548 146.49 249.76 146.106 249.904C145.722 250.048 145.266 250.12 144.738 250.12C144.29 250.12 143.902 250.084 143.574 250.012C143.254 249.94 142.97 249.84 142.722 249.712V248.752C142.978 248.88 143.286 249 143.646 249.112C144.014 249.216 144.386 249.268 144.762 249.268C145.298 249.268 145.686 249.184 145.926 249.016C146.166 248.84 146.286 248.608 146.286 248.32C146.286 248.16 146.242 248.016 146.154 247.888C146.066 247.76 145.906 247.632 145.674 247.504C145.45 247.376 145.126 247.232 144.702 247.072C144.286 246.912 143.93 246.752 143.634 246.592C143.338 246.432 143.11 246.24 142.95 246.016C142.79 245.792 142.71 245.504 142.71 245.152C142.71 244.608 142.93 244.188 143.37 243.892C143.818 243.596 144.402 243.448 145.122 243.448C145.514 243.448 145.878 243.488 146.214 243.568C146.558 243.64 146.878 243.744 147.174 243.88L146.814 244.72C146.638 244.64 146.45 244.572 146.25 244.516C146.058 244.452 145.862 244.404 145.662 244.372C145.462 244.332 145.258 244.312 145.05 244.312C144.618 244.312 144.286 244.384 144.054 244.528C143.83 244.664 143.718 244.852 143.718 245.092C143.718 245.268 143.77 245.42 143.874 245.548C143.978 245.668 144.15 245.788 144.39 245.908C144.638 246.02 144.966 246.156 145.374 246.316C145.782 246.468 146.13 246.624 146.418 246.784C146.706 246.944 146.926 247.14 147.078 247.372C147.23 247.596 147.306 247.88 147.306 248.224ZM154.236 243.568V250H153.372L153.216 249.148H153.168C153.032 249.372 152.856 249.556 152.64 249.7C152.424 249.844 152.188 249.948 151.932 250.012C151.676 250.084 151.408 250.12 151.128 250.12C150.616 250.12 150.184 250.04 149.832 249.88C149.488 249.712 149.228 249.456 149.052 249.112C148.876 248.768 148.788 248.324 148.788 247.78V243.568H149.856V247.708C149.856 248.22 149.972 248.604 150.204 248.86C150.436 249.116 150.796 249.244 151.284 249.244C151.764 249.244 152.14 249.156 152.412 248.98C152.692 248.796 152.888 248.532 153 248.188C153.12 247.836 153.18 247.412 153.18 246.916V243.568H154.236ZM160.466 248.224C160.466 248.64 160.362 248.988 160.154 249.268C159.946 249.548 159.65 249.76 159.266 249.904C158.882 250.048 158.426 250.12 157.898 250.12C157.45 250.12 157.062 250.084 156.734 250.012C156.414 249.94 156.13 249.84 155.882 249.712V248.752C156.138 248.88 156.446 249 156.806 249.112C157.174 249.216 157.546 249.268 157.922 249.268C158.458 249.268 158.846 249.184 159.086 249.016C159.326 248.84 159.446 248.608 159.446 248.32C159.446 248.16 159.402 248.016 159.314 247.888C159.226 247.76 159.066 247.632 158.834 247.504C158.61 247.376 158.286 247.232 157.862 247.072C157.446 246.912 157.09 246.752 156.794 246.592C156.498 246.432 156.27 246.24 156.11 246.016C155.95 245.792 155.87 245.504 155.87 245.152C155.87 244.608 156.09 244.188 156.53 243.892C156.978 243.596 157.562 243.448 158.282 243.448C158.674 243.448 159.038 243.488 159.374 243.568C159.718 243.64 160.038 243.744 160.334 243.88L159.974 244.72C159.798 244.64 159.61 244.572 159.41 244.516C159.218 244.452 159.022 244.404 158.822 244.372C158.622 244.332 158.418 244.312 158.21 244.312C157.778 244.312 157.446 244.384 157.214 244.528C156.99 244.664 156.878 244.852 156.878 245.092C156.878 245.268 156.93 245.42 157.034 245.548C157.138 245.668 157.31 245.788 157.55 245.908C157.798 246.02 158.126 246.156 158.534 246.316C158.942 246.468 159.29 246.624 159.578 246.784C159.866 246.944 160.086 247.14 160.238 247.372C160.39 247.596 160.466 247.88 160.466 248.224ZM80.2663 265.352C80.2663 265.056 80.3383 264.848 80.4823 264.728C80.6263 264.608 80.7983 264.548 80.9983 264.548C81.2063 264.548 81.3823 264.608 81.5263 264.728C81.6783 264.848 81.7543 265.056 81.7543 265.352C81.7543 265.64 81.6783 265.848 81.5263 265.976C81.3823 266.104 81.2063 266.168 80.9983 266.168C80.7983 266.168 80.6263 266.104 80.4823 265.976C80.3383 265.848 80.2663 265.64 80.2663 265.352ZM83.4773 265.352C83.4773 265.056 83.5493 264.848 83.6933 264.728C83.8373 264.608 84.0093 264.548 84.2093 264.548C84.4173 264.548 84.5933 264.608 84.7373 264.728C84.8893 264.848 84.9653 265.056 84.9653 265.352C84.9653 265.64 84.8893 265.848 84.7373 265.976C84.5933 266.104 84.4173 266.168 84.2093 266.168C84.0093 266.168 83.8373 266.104 83.6933 265.976C83.5493 265.848 83.4773 265.64 83.4773 265.352ZM86.6882 265.352C86.6882 265.056 86.7602 264.848 86.9042 264.728C87.0482 264.608 87.2202 264.548 87.4202 264.548C87.6282 264.548 87.8042 264.608 87.9482 264.728C88.1002 264.848 88.1762 265.056 88.1762 265.352C88.1762 265.64 88.1002 265.848 87.9482 265.976C87.8042 266.104 87.6282 266.168 87.4202 266.168C87.2202 266.168 87.0482 266.104 86.9042 265.976C86.7602 265.848 86.6882 265.64 86.6882 265.352ZM93.9192 261.476H96.8832V265.676C96.4192 265.828 95.9512 265.94 95.4792 266.012C95.0072 266.084 94.4712 266.12 93.8712 266.12C92.9832 266.12 92.2352 265.944 91.6272 265.592C91.0192 265.232 90.5552 264.724 90.2352 264.068C89.9232 263.404 89.7672 262.62 89.7672 261.716C89.7672 260.82 89.9432 260.044 90.2952 259.388C90.6472 258.732 91.1512 258.224 91.8072 257.864C92.4712 257.496 93.2712 257.312 94.2072 257.312C94.6872 257.312 95.1392 257.356 95.5632 257.444C95.9952 257.532 96.3952 257.656 96.7632 257.816L96.3552 258.752C96.0512 258.616 95.7072 258.5 95.3232 258.404C94.9472 258.308 94.5552 258.26 94.1472 258.26C93.4672 258.26 92.8832 258.4 92.3952 258.68C91.9072 258.96 91.5352 259.36 91.2792 259.88C91.0232 260.392 90.8952 261.004 90.8952 261.716C90.8952 262.396 91.0032 263 91.2192 263.528C91.4432 264.048 91.7912 264.456 92.2632 264.752C92.7352 265.04 93.3552 265.184 94.1232 265.184C94.3792 265.184 94.6032 265.176 94.7952 265.16C94.9952 265.136 95.1752 265.108 95.3352 265.076C95.5032 265.044 95.6592 265.012 95.8032 264.98V262.436H93.9192V261.476ZM101.642 266H100.562V258.38H97.8856V257.432H104.306V258.38H101.642V266ZM111.418 266H110.194L107.926 262.28L105.622 266H104.482L107.326 261.536L104.662 257.432H105.862L107.962 260.792L110.074 257.432H111.214L108.562 261.512L111.418 266ZM118.959 266H117.927V260.012C117.927 259.78 117.927 259.584 117.927 259.424C117.935 259.264 117.943 259.116 117.951 258.98C117.959 258.836 117.967 258.688 117.975 258.536C117.847 258.664 117.731 258.772 117.627 258.86C117.523 258.948 117.391 259.06 117.231 259.196L116.319 259.94L115.767 259.232L118.083 257.432H118.959V266ZM122.226 262.34C122.226 261.844 122.258 261.356 122.322 260.876C122.394 260.396 122.514 259.944 122.682 259.52C122.85 259.088 123.082 258.708 123.378 258.38C123.674 258.044 124.046 257.784 124.494 257.6C124.95 257.408 125.502 257.312 126.15 257.312C126.318 257.312 126.502 257.32 126.702 257.336C126.91 257.352 127.078 257.38 127.206 257.42V258.32C127.062 258.272 126.898 258.236 126.714 258.212C126.538 258.188 126.358 258.176 126.174 258.176C125.622 258.176 125.162 258.268 124.794 258.452C124.426 258.636 124.134 258.888 123.918 259.208C123.71 259.528 123.558 259.896 123.462 260.312C123.366 260.728 123.306 261.172 123.282 261.644H123.354C123.474 261.452 123.626 261.28 123.81 261.128C123.994 260.976 124.214 260.856 124.47 260.768C124.734 260.68 125.038 260.636 125.382 260.636C125.878 260.636 126.31 260.74 126.678 260.948C127.054 261.148 127.346 261.444 127.554 261.836C127.762 262.22 127.866 262.688 127.866 263.24C127.866 263.832 127.754 264.344 127.53 264.776C127.306 265.208 126.99 265.54 126.582 265.772C126.182 266.004 125.702 266.12 125.142 266.12C124.734 266.12 124.354 266.044 124.002 265.892C123.65 265.74 123.338 265.508 123.066 265.196C122.802 264.884 122.594 264.492 122.442 264.02C122.298 263.54 122.226 262.98 122.226 262.34ZM125.13 265.232C125.634 265.232 126.042 265.072 126.354 264.752C126.666 264.424 126.822 263.92 126.822 263.24C126.822 262.696 126.682 262.264 126.402 261.944C126.13 261.624 125.718 261.464 125.166 261.464C124.79 261.464 124.462 261.544 124.182 261.704C123.902 261.856 123.682 262.052 123.522 262.292C123.37 262.532 123.294 262.78 123.294 263.036C123.294 263.3 123.33 263.56 123.402 263.816C123.482 264.072 123.598 264.308 123.75 264.524C123.91 264.74 124.102 264.912 124.326 265.04C124.558 265.168 124.826 265.232 125.13 265.232ZM134.35 259.436C134.35 259.82 134.278 260.152 134.134 260.432C133.99 260.712 133.782 260.94 133.51 261.116C133.246 261.292 132.934 261.416 132.574 261.488V261.536C133.262 261.616 133.774 261.832 134.11 262.184C134.446 262.536 134.614 262.996 134.614 263.564C134.614 264.06 134.498 264.504 134.266 264.896C134.034 265.28 133.674 265.58 133.186 265.796C132.706 266.012 132.086 266.12 131.326 266.12C130.878 266.12 130.462 266.084 130.078 266.012C129.694 265.948 129.326 265.828 128.974 265.652V264.668C129.334 264.844 129.722 264.984 130.138 265.088C130.554 265.184 130.954 265.232 131.338 265.232C132.106 265.232 132.658 265.084 132.994 264.788C133.338 264.484 133.51 264.068 133.51 263.54C133.51 263.18 133.414 262.892 133.222 262.676C133.038 262.452 132.766 262.288 132.406 262.184C132.046 262.08 131.614 262.028 131.11 262.028H130.282V261.128H131.122C131.594 261.128 131.986 261.06 132.298 260.924C132.618 260.788 132.858 260.6 133.018 260.36C133.186 260.112 133.27 259.828 133.27 259.508C133.27 259.092 133.13 258.772 132.85 258.548C132.57 258.316 132.19 258.2 131.71 258.2C131.406 258.2 131.13 258.232 130.882 258.296C130.634 258.352 130.402 258.436 130.186 258.548C129.978 258.652 129.766 258.776 129.55 258.92L129.022 258.2C129.23 258.04 129.466 257.892 129.73 257.756C130.002 257.62 130.302 257.512 130.63 257.432C130.958 257.352 131.314 257.312 131.698 257.312C132.594 257.312 133.258 257.512 133.69 257.912C134.13 258.312 134.35 258.82 134.35 259.436ZM141.577 261.704C141.577 262.4 141.525 263.02 141.421 263.564C141.317 264.108 141.149 264.572 140.917 264.956C140.693 265.332 140.397 265.62 140.029 265.82C139.669 266.02 139.233 266.12 138.721 266.12C138.081 266.12 137.549 265.944 137.125 265.592C136.709 265.24 136.397 264.736 136.189 264.08C135.989 263.416 135.889 262.624 135.889 261.704C135.889 260.776 135.981 259.984 136.165 259.328C136.357 258.672 136.661 258.172 137.077 257.828C137.493 257.476 138.041 257.3 138.721 257.3C139.361 257.3 139.893 257.476 140.317 257.828C140.741 258.172 141.057 258.672 141.265 259.328C141.473 259.984 141.577 260.776 141.577 261.704ZM136.945 261.704C136.945 262.488 137.001 263.14 137.113 263.66C137.233 264.18 137.421 264.572 137.677 264.836C137.941 265.092 138.289 265.22 138.721 265.22C139.153 265.22 139.497 265.092 139.753 264.836C140.017 264.58 140.209 264.192 140.329 263.672C140.449 263.144 140.509 262.488 140.509 261.704C140.509 260.92 140.449 260.272 140.329 259.76C140.209 259.24 140.017 258.852 139.753 258.596C139.497 258.332 139.153 258.2 138.721 258.2C138.289 258.2 137.941 258.332 137.677 258.596C137.421 258.852 137.233 259.24 137.113 259.76C137.001 260.272 136.945 260.92 136.945 261.704ZM152.026 264.056H150.778V266H149.758V264.056H145.654V263.156L149.686 257.384H150.778V263.108H152.026V264.056ZM149.758 260.408C149.758 260.2 149.758 260.012 149.758 259.844C149.766 259.668 149.774 259.504 149.782 259.352C149.79 259.2 149.794 259.056 149.794 258.92C149.802 258.776 149.81 258.64 149.818 258.512H149.77C149.706 258.664 149.626 258.828 149.53 259.004C149.434 259.18 149.342 259.328 149.254 259.448L146.686 263.108H149.758V260.408ZM157.154 261.476H160.118V265.676C159.654 265.828 159.186 265.94 158.714 266.012C158.242 266.084 157.706 266.12 157.106 266.12C156.218 266.12 155.47 265.944 154.862 265.592C154.254 265.232 153.79 264.724 153.47 264.068C153.158 263.404 153.002 262.62 153.002 261.716C153.002 260.82 153.178 260.044 153.53 259.388C153.882 258.732 154.386 258.224 155.042 257.864C155.706 257.496 156.506 257.312 157.442 257.312C157.922 257.312 158.374 257.356 158.798 257.444C159.23 257.532 159.63 257.656 159.998 257.816L159.59 258.752C159.286 258.616 158.942 258.5 158.558 258.404C158.182 258.308 157.79 258.26 157.382 258.26C156.702 258.26 156.118 258.4 155.63 258.68C155.142 258.96 154.77 259.36 154.514 259.88C154.258 260.392 154.13 261.004 154.13 261.716C154.13 262.396 154.238 263 154.454 263.528C154.678 264.048 155.026 264.456 155.498 264.752C155.97 265.04 156.59 265.184 157.358 265.184C157.614 265.184 157.838 265.176 158.03 265.16C158.23 265.136 158.41 265.108 158.57 265.076C158.738 265.044 158.894 265.012 159.038 264.98V262.436H157.154V261.476Z" fill="#4D4D4D"/>
<defs>
<linearGradient id="paint0_linear_1426_10673" x1="29.3437" y1="331.6" x2="127.609" y2="319.228" gradientUnits="userSpaceOnUse">
<stop stop-color="#FF934C"/>
<stop offset="1" stop-color="#FF5F61"/>
</linearGradient>
</defs>
</svg>
