<svg width="346" height="528" viewBox="0 0 346 528" fill="none" xmlns="http://www.w3.org/2000/svg">
<rect width="346" height="528" rx="16" fill="#DBF2F4"/>
<rect x="24" y="24" width="298" height="250" rx="16" fill="white"/>
<path d="M111.337 290.2C112.633 290.2 113.611 290.512 114.271 291.136C114.943 291.748 115.279 292.66 115.279 293.872V301H105.757V293.782C105.757 293.626 105.775 293.446 105.811 293.242C105.859 293.026 105.937 292.822 106.045 292.63C106.153 292.426 106.309 292.27 106.513 292.162H104.713L104.983 290.2H111.337ZM112.903 299.038V293.926C112.903 293.338 112.759 292.9 112.471 292.612C112.183 292.312 111.763 292.162 111.211 292.162H108.277C108.217 292.318 108.175 292.492 108.151 292.684C108.139 292.864 108.133 293.05 108.133 293.242V299.038H112.903ZM123.565 290.2C124.861 290.2 125.839 290.512 126.499 291.136C127.171 291.748 127.507 292.66 127.507 293.872V301H125.131V293.926C125.131 293.338 124.987 292.9 124.699 292.612C124.411 292.312 123.991 292.162 123.439 292.162H120.703C120.643 292.258 120.577 292.432 120.505 292.684C120.445 292.936 120.415 293.344 120.415 293.908V301H118.039V294.61C118.039 294.106 118.087 293.656 118.183 293.26C118.279 292.852 118.453 292.504 118.705 292.216L118.489 292.09V290.2H123.565ZM117.121 292.162L117.391 290.2H122.071V292.162H117.121ZM139.607 301V293.926C139.607 293.338 139.463 292.9 139.175 292.612C138.887 292.312 138.467 292.162 137.915 292.162H134.225L134.477 290.2H138.041C139.337 290.2 140.315 290.512 140.975 291.136C141.647 291.748 141.983 292.66 141.983 293.872V301H139.607ZM150.607 300.946L143.785 290.2H146.557L149.509 295.132L152.389 299.578L150.607 300.946ZM143.929 301V299.038H151.651L152.389 299.578L152.155 301H143.929ZM149.293 296.734L148.627 295.168C148.963 295.06 149.233 294.886 149.437 294.646C149.653 294.394 149.821 294.112 149.941 293.8C150.061 293.488 150.151 293.176 150.211 292.864C150.271 292.54 150.319 292.24 150.355 291.964L150.571 290.2H152.929L152.731 292.18C152.683 292.576 152.587 293.002 152.443 293.458C152.311 293.914 152.113 294.364 151.849 294.808C151.597 295.24 151.261 295.624 150.841 295.96C150.421 296.296 149.905 296.554 149.293 296.734ZM155.811 301V290.2H158.187V301H155.811ZM154.299 292.162L154.551 290.2H157.377V292.162H154.299ZM160.458 301L161.682 294.628L160.17 290.2H162.546L163.302 292.792H163.374C163.53 292.372 163.71 291.994 163.914 291.658C164.118 291.322 164.364 291.034 164.652 290.794C164.952 290.554 165.3 290.368 165.696 290.236C166.104 290.104 166.572 290.038 167.1 290.038C167.94 290.038 168.672 290.236 169.296 290.632C169.92 291.028 170.412 291.616 170.772 292.396C171.132 293.164 171.312 294.118 171.312 295.258V295.492C171.312 296.596 171.12 297.562 170.736 298.39C170.364 299.206 169.818 299.848 169.098 300.316C168.378 300.772 167.502 301 166.47 301H164.706L164.994 299.038H166.344C167.172 299.038 167.808 298.714 168.252 298.066C168.708 297.406 168.936 296.548 168.936 295.492V295.258C168.936 294.526 168.834 293.926 168.63 293.458C168.426 292.978 168.15 292.618 167.802 292.378C167.454 292.138 167.064 292.018 166.632 292.018C166.176 292.018 165.792 292.096 165.48 292.252C165.18 292.396 164.928 292.6 164.724 292.864C164.532 293.128 164.376 293.44 164.256 293.8C164.136 294.148 164.04 294.532 163.968 294.952L162.906 301H160.458ZM179.61 290.2H185.964L185.784 291.622L182.544 301H180.078L183.192 292.162H177.234V287.572L179.61 287.32V290.2ZM193.415 301.108C192.203 301.108 191.165 300.868 190.301 300.388C189.437 299.896 188.777 299.17 188.321 298.21C187.865 297.25 187.637 296.05 187.637 294.61V290.2H189.995V294.592C189.995 295.66 190.127 296.536 190.391 297.22C190.655 297.892 191.033 298.396 191.525 298.732C192.029 299.056 192.641 299.218 193.361 299.218H193.469C194.213 299.206 194.837 299.038 195.341 298.714C195.857 298.39 196.241 297.892 196.493 297.22C196.757 296.536 196.889 295.672 196.889 294.628V290.2H199.265V294.628C199.265 296.056 199.037 297.25 198.581 298.21C198.125 299.17 197.471 299.89 196.619 300.37C195.767 300.85 194.741 301.096 193.541 301.108H193.415ZM189.329 296.77L189.203 295.168C189.983 295.216 190.595 295.12 191.039 294.88C191.483 294.628 191.801 294.25 191.993 293.746C192.185 293.23 192.281 292.594 192.281 291.838V290.2H194.639V291.73C194.639 292.51 194.543 293.224 194.351 293.872C194.159 294.508 193.853 295.048 193.433 295.492C193.025 295.924 192.479 296.254 191.795 296.482C191.123 296.71 190.301 296.806 189.329 296.77ZM212.605 290.2C213.901 290.2 214.879 290.512 215.539 291.136C216.211 291.748 216.547 292.66 216.547 293.872V301H207.025V293.782C207.025 293.626 207.043 293.446 207.079 293.242C207.127 293.026 207.205 292.822 207.313 292.63C207.421 292.426 207.577 292.27 207.781 292.162H205.981L206.251 290.2H212.605ZM214.171 299.038V293.926C214.171 293.338 214.027 292.9 213.739 292.612C213.451 292.312 213.031 292.162 212.479 292.162H209.545C209.485 292.318 209.443 292.492 209.419 292.684C209.407 292.864 209.401 293.05 209.401 293.242V299.038H214.171ZM224.388 301.108C223.176 301.108 222.138 300.868 221.274 300.388C220.41 299.896 219.75 299.17 219.294 298.21C218.838 297.25 218.61 296.05 218.61 294.61V290.2H220.968V294.592C220.968 295.66 221.1 296.536 221.364 297.22C221.628 297.892 222.006 298.396 222.498 298.732C223.002 299.056 223.614 299.218 224.334 299.218H224.442C225.186 299.206 225.81 299.038 226.314 298.714C226.83 298.39 227.214 297.892 227.466 297.22C227.73 296.536 227.862 295.672 227.862 294.628V290.2H230.238V294.628C230.238 296.056 230.01 297.25 229.554 298.21C229.098 299.17 228.444 299.89 227.592 300.37C226.74 300.85 225.714 301.096 224.514 301.108H224.388ZM220.302 296.77L220.176 295.168C220.956 295.216 221.568 295.12 222.012 294.88C222.456 294.628 222.774 294.25 222.966 293.746C223.158 293.23 223.254 292.594 223.254 291.838V290.2H225.612V291.73C225.612 292.51 225.516 293.224 225.324 293.872C225.132 294.508 224.826 295.048 224.406 295.492C223.998 295.924 223.452 296.254 222.768 296.482C222.096 296.71 221.274 296.806 220.302 296.77ZM239.482 301V293.926C239.482 293.338 239.338 292.9 239.05 292.612C238.762 292.312 238.342 292.162 237.79 292.162H232.264L232.516 290.2H237.916C239.212 290.2 240.19 290.512 240.85 291.136C241.522 291.748 241.858 292.66 241.858 293.872V301H239.482ZM232.498 301V295.078L234.874 294.934V301H232.498Z" fill="black"/>
<path d="M76.9274 331V324.568C76.9274 323.949 76.7781 323.491 76.4794 323.192C76.1914 322.883 75.7488 322.728 75.1514 322.728H72.1594L72.3194 321.512H75.2634C76.2981 321.512 77.0768 321.768 77.5994 322.28C78.1328 322.781 78.3994 323.528 78.3994 324.52V329.944C78.3568 330.136 78.2768 330.317 78.1594 330.488C78.0528 330.659 77.9301 330.829 77.7914 331H76.9274ZM71.6794 331V329.784H79.5834L79.4074 331H71.6794ZM81.2124 326.808V321.512H82.6844V326.808H81.2124ZM79.7564 322.728L79.9324 321.512H82.0444V322.728H79.7564ZM87.0564 331V323.88C87.0564 323.613 87.0138 323.395 86.9284 323.224C86.8538 323.043 86.7364 322.915 86.5764 322.84C86.4164 322.765 86.2191 322.728 85.9844 322.728H84.8964L85.0564 321.512H86.3524C87.0564 321.512 87.5951 321.704 87.9684 322.088C88.3418 322.461 88.5284 323.011 88.5284 323.736V331H87.0564ZM84.4164 331V329.784H87.7604V331H84.4164ZM94.0149 331.08L93.4069 328.952H93.2949C93.1029 329.283 92.9003 329.576 92.6869 329.832C92.4843 330.077 92.2603 330.291 92.0149 330.472C91.7803 330.643 91.5243 330.776 91.2469 330.872C90.9696 330.957 90.6603 331 90.3189 331H90.0789V329.752H90.2869C90.6176 329.752 90.9323 329.693 91.2309 329.576C91.5403 329.448 91.8229 329.283 92.0789 329.08C92.3456 328.877 92.5696 328.669 92.7509 328.456C92.9429 328.232 93.0869 328.019 93.1829 327.816V323.896C93.1829 323.48 93.0869 323.181 92.8949 323C92.7029 322.819 92.3883 322.728 91.9509 322.728H90.9589L91.1189 321.512H92.3189C92.8416 321.512 93.2736 321.597 93.6149 321.768C93.9563 321.939 94.2123 322.189 94.3829 322.52C94.5643 322.851 94.6549 323.261 94.6549 323.752V328.424L95.3269 330.792L94.0149 331.08ZM96.6553 331L97.7593 325.32L96.4473 321.512H97.9193L98.7033 324.04H98.7513C98.8686 323.688 99.0073 323.352 99.1673 323.032C99.3273 322.712 99.5353 322.429 99.7913 322.184C100.047 321.928 100.362 321.725 100.735 321.576C101.109 321.427 101.546 321.352 102.047 321.352C102.762 321.352 103.386 321.523 103.919 321.864C104.453 322.195 104.869 322.696 105.167 323.368C105.477 324.029 105.631 324.872 105.631 325.896V326.12C105.631 327.101 105.471 327.96 105.151 328.696C104.842 329.421 104.383 329.987 103.775 330.392C103.178 330.797 102.442 331 101.567 331H99.9673L100.127 329.784H101.503C102.357 329.784 103.013 329.448 103.471 328.776C103.93 328.104 104.159 327.219 104.159 326.12V325.896C104.159 325.128 104.053 324.504 103.839 324.024C103.637 323.533 103.359 323.171 103.007 322.936C102.655 322.701 102.25 322.584 101.791 322.584C101.343 322.584 100.965 322.664 100.655 322.824C100.346 322.984 100.095 323.203 99.9033 323.48C99.7113 323.747 99.5566 324.045 99.4393 324.376C99.3326 324.696 99.2526 325.027 99.1993 325.368L98.1753 331H96.6553ZM108.322 331V321.512H109.794V331H108.322ZM106.866 322.728L107.042 321.512H109.282V322.728H106.866ZM122.007 321.512C123.041 321.512 123.82 321.768 124.343 322.28C124.876 322.781 125.143 323.528 125.143 324.52V331H117.159V323.896C117.159 323.768 117.175 323.629 117.207 323.48C117.239 323.32 117.287 323.171 117.351 323.032C117.425 322.893 117.527 322.792 117.655 322.728H116.167L116.327 321.512H122.007ZM123.671 329.784V324.568C123.671 323.949 123.521 323.491 123.223 323.192C122.935 322.883 122.492 322.728 121.895 322.728H118.743C118.7 322.835 118.668 322.968 118.647 323.128C118.636 323.288 118.631 323.448 118.631 323.608V329.784H123.671ZM132.592 321.512C133.627 321.512 134.406 321.768 134.928 322.28C135.462 322.781 135.728 323.528 135.728 324.52V331H134.256V324.568C134.256 323.949 134.107 323.491 133.808 323.192C133.52 322.883 133.083 322.728 132.496 322.728H129.648C129.584 322.824 129.515 323.005 129.44 323.272C129.366 323.539 129.328 323.955 129.328 324.52V331H127.856V324.888C127.856 324.419 127.904 323.997 128 323.624C128.096 323.24 128.235 322.947 128.416 322.744L128.096 322.68V321.512H132.592ZM127.024 322.728L127.184 321.512H130.704V322.728H127.024ZM146.971 331.048C145.968 331.048 145.115 330.835 144.411 330.408C143.717 329.981 143.184 329.357 142.811 328.536C142.437 327.704 142.251 326.685 142.251 325.48V321.512H143.723V325.48C143.723 326.451 143.845 327.267 144.091 327.928C144.347 328.579 144.715 329.069 145.195 329.4C145.675 329.72 146.261 329.88 146.955 329.88H147.115C147.829 329.88 148.432 329.72 148.923 329.4C149.413 329.069 149.781 328.579 150.027 327.928C150.283 327.277 150.411 326.467 150.411 325.496V321.512H151.867V325.48C151.867 326.685 151.68 327.704 151.307 328.536C150.944 329.357 150.411 329.981 149.707 330.408C149.003 330.835 148.149 331.048 147.147 331.048H146.971ZM143.339 327.32L143.227 326.296C143.941 326.328 144.528 326.232 144.987 326.008C145.445 325.773 145.781 325.416 145.995 324.936C146.219 324.456 146.331 323.875 146.331 323.192V321.512H147.803V323.096C147.803 323.768 147.712 324.371 147.531 324.904C147.349 325.427 147.072 325.875 146.699 326.248C146.336 326.611 145.872 326.883 145.307 327.064C144.752 327.245 144.096 327.331 143.339 327.32ZM153.874 331L154.978 325.32L153.666 321.512H155.138L155.922 324.04H155.97C156.087 323.688 156.226 323.352 156.386 323.032C156.546 322.712 156.754 322.429 157.01 322.184C157.266 321.928 157.581 321.725 157.954 321.576C158.327 321.427 158.765 321.352 159.266 321.352C159.981 321.352 160.605 321.523 161.138 321.864C161.671 322.195 162.087 322.696 162.386 323.368C162.695 324.029 162.85 324.872 162.85 325.896V326.12C162.85 327.101 162.69 327.96 162.37 328.696C162.061 329.421 161.602 329.987 160.994 330.392C160.397 330.797 159.661 331 158.786 331H157.186L157.346 329.784H158.722C159.575 329.784 160.231 329.448 160.69 328.776C161.149 328.104 161.378 327.219 161.378 326.12V325.896C161.378 325.128 161.271 324.504 161.058 324.024C160.855 323.533 160.578 323.171 160.226 322.936C159.874 322.701 159.469 322.584 159.01 322.584C158.562 322.584 158.183 322.664 157.874 322.824C157.565 322.984 157.314 323.203 157.122 323.48C156.93 323.747 156.775 324.045 156.658 324.376C156.551 324.696 156.471 325.027 156.418 325.368L155.394 331H153.874ZM164.124 331L165.228 325.32L163.916 321.512H165.388L166.172 324.04H166.22C166.337 323.688 166.476 323.352 166.636 323.032C166.796 322.712 167.004 322.429 167.26 322.184C167.516 321.928 167.831 321.725 168.204 321.576C168.577 321.427 169.015 321.352 169.516 321.352C170.231 321.352 170.855 321.523 171.388 321.864C171.921 322.195 172.337 322.696 172.636 323.368C172.945 324.029 173.1 324.872 173.1 325.896V326.12C173.1 327.101 172.94 327.96 172.62 328.696C172.311 329.421 171.852 329.987 171.244 330.392C170.647 330.797 169.911 331 169.036 331H167.436L167.596 329.784H168.972C169.825 329.784 170.481 329.448 170.94 328.776C171.399 328.104 171.628 327.219 171.628 326.12V325.896C171.628 325.128 171.521 324.504 171.308 324.024C171.105 323.533 170.828 323.171 170.476 322.936C170.124 322.701 169.719 322.584 169.26 322.584C168.812 322.584 168.433 322.664 168.124 322.824C167.815 322.984 167.564 323.203 167.372 323.48C167.18 323.747 167.025 324.045 166.908 324.376C166.801 324.696 166.721 325.027 166.668 325.368L165.644 331H164.124ZM183.735 331V324.568C183.735 323.949 183.586 323.491 183.287 323.192C182.999 322.883 182.562 322.728 181.975 322.728H178.679L178.855 321.512H182.071C183.106 321.512 183.884 321.768 184.407 322.28C184.94 322.781 185.207 323.528 185.207 324.52V331H183.735ZM193.086 330.92L187.118 321.512H188.846L191.774 326.312L194.19 330.072L193.086 330.92ZM187.102 331V329.784H193.678L194.19 330.072L194.014 331H187.102ZM191.566 327.256L191.134 326.248C191.475 326.131 191.753 325.944 191.966 325.688C192.19 325.421 192.366 325.123 192.494 324.792C192.622 324.461 192.713 324.136 192.766 323.816C192.83 323.485 192.878 323.197 192.91 322.952L193.086 321.512H194.558L194.382 323.112C194.35 323.443 194.275 323.811 194.158 324.216C194.051 324.621 193.891 325.027 193.678 325.432C193.465 325.837 193.182 326.205 192.83 326.536C192.489 326.856 192.067 327.096 191.566 327.256ZM197.369 331V321.512H198.841V331H197.369ZM195.913 322.728L196.089 321.512H198.329V322.728H195.913ZM201.077 331L202.181 325.32L200.869 321.512H202.341L203.125 324.04H203.173C203.291 323.688 203.429 323.352 203.589 323.032C203.749 322.712 203.957 322.429 204.213 322.184C204.469 321.928 204.784 321.725 205.157 321.576C205.531 321.427 205.968 321.352 206.469 321.352C207.184 321.352 207.808 321.523 208.341 321.864C208.875 322.195 209.291 322.696 209.589 323.368C209.899 324.029 210.053 324.872 210.053 325.896V326.12C210.053 327.101 209.893 327.96 209.573 328.696C209.264 329.421 208.805 329.987 208.197 330.392C207.6 330.797 206.864 331 205.989 331H204.389L204.549 329.784H205.925C206.779 329.784 207.435 329.448 207.893 328.776C208.352 328.104 208.581 327.219 208.581 326.12V325.896C208.581 325.128 208.475 324.504 208.261 324.024C208.059 323.533 207.781 323.171 207.429 322.936C207.077 322.701 206.672 322.584 206.213 322.584C205.765 322.584 205.387 322.664 205.077 322.824C204.768 322.984 204.517 323.203 204.325 323.48C204.133 323.747 203.979 324.045 203.861 324.376C203.755 324.696 203.675 325.027 203.621 325.368L202.597 331H201.077ZM217.008 321.512H222.784L222.624 322.44L219.76 331H218.24L221.04 322.728H215.536V319.016L217.008 318.84V321.512ZM229.096 331.048C228.093 331.048 227.24 330.835 226.536 330.408C225.842 329.981 225.309 329.357 224.936 328.536C224.562 327.704 224.376 326.685 224.376 325.48V321.512H225.848V325.48C225.848 326.451 225.97 327.267 226.216 327.928C226.472 328.579 226.84 329.069 227.32 329.4C227.8 329.72 228.386 329.88 229.08 329.88H229.24C229.954 329.88 230.557 329.72 231.048 329.4C231.538 329.069 231.906 328.579 232.152 327.928C232.408 327.277 232.536 326.467 232.536 325.496V321.512H233.992V325.48C233.992 326.685 233.805 327.704 233.432 328.536C233.069 329.357 232.536 329.981 231.832 330.408C231.128 330.835 230.274 331.048 229.272 331.048H229.096ZM225.464 327.32L225.352 326.296C226.066 326.328 226.653 326.232 227.112 326.008C227.57 325.773 227.906 325.416 228.12 324.936C228.344 324.456 228.456 323.875 228.456 323.192V321.512H229.928V323.096C229.928 323.768 229.837 324.371 229.656 324.904C229.474 325.427 229.197 325.875 228.824 326.248C228.461 326.611 227.997 326.883 227.432 327.064C226.877 327.245 226.221 327.331 225.464 327.32ZM245.976 321.512C247.01 321.512 247.789 321.768 248.312 322.28C248.845 322.781 249.112 323.528 249.112 324.52V331H241.128V323.896C241.128 323.768 241.144 323.629 241.176 323.48C241.208 323.32 241.256 323.171 241.32 323.032C241.394 322.893 241.496 322.792 241.624 322.728H240.136L240.296 321.512H245.976ZM247.64 329.784V324.568C247.64 323.949 247.49 323.491 247.192 323.192C246.904 322.883 246.461 322.728 245.864 322.728H242.712C242.669 322.835 242.637 322.968 242.616 323.128C242.605 323.288 242.6 323.448 242.6 323.608V329.784H247.64ZM254.593 331.08L253.985 328.952H253.873C253.681 329.283 253.478 329.576 253.265 329.832C253.062 330.077 252.838 330.291 252.593 330.472C252.358 330.643 252.102 330.776 251.825 330.872C251.548 330.957 251.238 331 250.897 331H250.657V329.752H250.865C251.196 329.752 251.51 329.693 251.809 329.576C252.118 329.448 252.401 329.283 252.657 329.08C252.924 328.877 253.148 328.669 253.329 328.456C253.521 328.232 253.665 328.019 253.761 327.816V323.896C253.761 323.48 253.665 323.181 253.473 323C253.281 322.819 252.966 322.728 252.529 322.728H251.537L251.697 321.512H252.897C253.42 321.512 253.852 321.597 254.193 321.768C254.534 321.939 254.79 322.189 254.961 322.52C255.142 322.851 255.233 323.261 255.233 323.752V328.424L255.905 330.792L254.593 331.08ZM256.881 322.728V321.512H264.449L264.289 322.728H256.881ZM261.425 331V323.896C261.425 323.768 261.441 323.629 261.473 323.48C261.505 323.32 261.553 323.171 261.617 323.032C261.692 322.893 261.793 322.792 261.921 322.728H263.073C262.999 322.803 262.951 322.92 262.929 323.08C262.908 323.24 262.897 323.416 262.897 323.608V331H261.425ZM272.353 331V324.568C272.353 323.949 272.204 323.491 271.905 323.192C271.617 322.883 271.175 322.728 270.577 322.728H265.793L265.969 321.512H270.689C271.724 321.512 272.503 321.768 273.025 322.28C273.559 322.781 273.825 323.528 273.825 324.52V331H272.353ZM266.049 331V325.608L267.521 325.496V331H266.049Z" fill="#5A5A5A"/>
<path d="M144.86 373V364.98H146.82V370.48H148.9C149.567 370.48 150.093 370.4 150.48 370.24C150.88 370.067 151.167 369.76 151.34 369.32C151.527 368.88 151.62 368.253 151.62 367.44V360.94H154.64V367.44C154.64 368.787 154.46 369.867 154.1 370.68C153.753 371.493 153.2 372.087 152.44 372.46C151.693 372.82 150.713 373 149.5 373H144.86ZM140.42 373V360.94H146.28C147.28 360.94 148.06 361.08 148.62 361.36C149.193 361.627 149.6 362.04 149.84 362.6C150.08 363.16 150.2 363.867 150.2 364.72V368.96H148.24V365.16C148.24 364.573 148.12 364.147 147.88 363.88C147.653 363.6 147.313 363.46 146.86 363.46H143.42V373H140.42ZM172.296 373H162.316V370.9L165.896 367.28C166.616 366.533 167.196 365.913 167.636 365.42C168.076 364.913 168.396 364.46 168.596 364.06C168.796 363.647 168.896 363.207 168.896 362.74C168.896 362.167 168.736 361.74 168.416 361.46C168.109 361.18 167.689 361.04 167.156 361.04C166.609 361.04 166.076 361.167 165.556 361.42C165.036 361.673 164.489 362.033 163.916 362.5L162.276 360.56C162.689 360.2 163.122 359.867 163.576 359.56C164.042 359.253 164.576 359.007 165.176 358.82C165.789 358.62 166.522 358.52 167.376 358.52C168.309 358.52 169.109 358.693 169.776 359.04C170.456 359.373 170.976 359.833 171.336 360.42C171.709 360.993 171.896 361.647 171.896 362.38C171.896 362.98 171.802 363.533 171.616 364.04C171.442 364.547 171.182 365.04 170.836 365.52C170.502 365.987 170.089 366.473 169.596 366.98C169.102 367.473 168.542 368.013 167.916 368.6L166.076 370.32V370.46H172.296V373ZM177.441 370.9C177.321 371.367 177.168 371.873 176.981 372.42C176.794 372.953 176.594 373.487 176.381 374.02C176.168 374.567 175.948 375.087 175.721 375.58H173.581C173.714 375.047 173.841 374.487 173.961 373.9C174.081 373.327 174.194 372.76 174.301 372.2C174.408 371.64 174.494 371.133 174.561 370.68H177.301L177.441 370.9ZM184.384 358.54C185.211 358.54 185.964 358.667 186.644 358.92C187.337 359.173 187.891 359.553 188.304 360.06C188.731 360.567 188.944 361.207 188.944 361.98C188.944 362.553 188.831 363.06 188.604 363.5C188.377 363.927 188.071 364.3 187.684 364.62C187.311 364.94 186.877 365.22 186.384 365.46C186.891 365.727 187.371 366.04 187.824 366.4C188.291 366.747 188.664 367.16 188.944 367.64C189.237 368.107 189.384 368.66 189.384 369.3C189.384 370.087 189.171 370.773 188.744 371.36C188.331 371.947 187.744 372.4 186.984 372.72C186.237 373.04 185.371 373.2 184.384 373.2C183.317 373.2 182.411 373.047 181.664 372.74C180.917 372.433 180.344 371.993 179.944 371.42C179.557 370.847 179.364 370.167 179.364 369.38C179.364 368.727 179.484 368.16 179.724 367.68C179.977 367.2 180.311 366.787 180.724 366.44C181.137 366.08 181.597 365.78 182.104 365.54C181.677 365.273 181.291 364.973 180.944 364.64C180.597 364.293 180.317 363.907 180.104 363.48C179.904 363.04 179.804 362.533 179.804 361.96C179.804 361.2 180.017 360.567 180.444 360.06C180.871 359.553 181.431 359.173 182.124 358.92C182.831 358.667 183.584 358.54 184.384 358.54ZM182.164 369.2C182.164 369.72 182.344 370.147 182.704 370.48C183.077 370.813 183.624 370.98 184.344 370.98C184.851 370.98 185.264 370.907 185.584 370.76C185.917 370.613 186.164 370.407 186.324 370.14C186.497 369.873 186.584 369.567 186.584 369.22C186.584 368.86 186.477 368.547 186.264 368.28C186.051 368 185.784 367.753 185.464 367.54C185.157 367.313 184.837 367.107 184.504 366.92L184.244 366.78C183.831 366.967 183.464 367.18 183.144 367.42C182.837 367.66 182.597 367.927 182.424 368.22C182.251 368.5 182.164 368.827 182.164 369.2ZM184.364 360.74C183.871 360.74 183.457 360.867 183.124 361.12C182.804 361.373 182.644 361.733 182.644 362.2C182.644 362.52 182.724 362.807 182.884 363.06C183.044 363.3 183.257 363.513 183.524 363.7C183.791 363.873 184.077 364.04 184.384 364.2C184.691 364.053 184.971 363.893 185.224 363.72C185.491 363.547 185.704 363.34 185.864 363.1C186.024 362.847 186.104 362.547 186.104 362.2C186.104 361.733 185.937 361.373 185.604 361.12C185.284 360.867 184.871 360.74 184.364 360.74ZM201.209 370.04H199.489V373H196.549V370.04H190.449V367.94L196.709 358.72H199.489V367.7H201.209V370.04ZM196.549 365.28C196.549 365.053 196.549 364.787 196.549 364.48C196.563 364.16 196.576 363.847 196.589 363.54C196.603 363.22 196.616 362.94 196.629 362.7C196.643 362.447 196.656 362.273 196.669 362.18H196.589C196.469 362.447 196.343 362.707 196.209 362.96C196.076 363.213 195.916 363.473 195.729 363.74L193.109 367.7H196.549V365.28ZM212.275 364.82C212.275 365.633 212.215 366.447 212.095 367.26C211.975 368.06 211.761 368.82 211.455 369.54C211.161 370.247 210.741 370.88 210.195 371.44C209.661 371.987 208.975 372.42 208.135 372.74C207.308 373.047 206.301 373.2 205.115 373.2C204.835 373.2 204.508 373.187 204.135 373.16C203.761 373.147 203.448 373.113 203.195 373.06V370.64C203.461 370.693 203.741 370.74 204.035 370.78C204.328 370.82 204.621 370.84 204.915 370.84C205.808 370.84 206.541 370.733 207.115 370.52C207.701 370.307 208.161 370 208.495 369.6C208.828 369.2 209.068 368.727 209.215 368.18C209.375 367.633 209.468 367.033 209.495 366.38H209.375C209.188 366.687 208.961 366.967 208.695 367.22C208.441 367.473 208.115 367.673 207.715 367.82C207.328 367.967 206.828 368.04 206.215 368.04C205.401 368.04 204.695 367.867 204.095 367.52C203.495 367.16 203.028 366.647 202.695 365.98C202.361 365.3 202.195 364.48 202.195 363.52C202.195 362.48 202.388 361.593 202.775 360.86C203.175 360.113 203.741 359.547 204.475 359.16C205.208 358.76 206.068 358.56 207.055 358.56C207.788 358.56 208.468 358.687 209.095 358.94C209.735 359.193 210.288 359.58 210.755 360.1C211.235 360.607 211.608 361.253 211.875 362.04C212.141 362.827 212.275 363.753 212.275 364.82ZM207.115 360.98C206.528 360.98 206.048 361.18 205.675 361.58C205.301 361.98 205.115 362.613 205.115 363.48C205.115 364.173 205.275 364.72 205.595 365.12C205.915 365.52 206.401 365.72 207.055 365.72C207.508 365.72 207.895 365.62 208.215 365.42C208.548 365.22 208.808 364.973 208.995 364.68C209.181 364.373 209.275 364.06 209.275 363.74C209.275 363.407 209.228 363.08 209.135 362.76C209.041 362.427 208.901 362.127 208.715 361.86C208.541 361.593 208.321 361.38 208.055 361.22C207.788 361.06 207.475 360.98 207.115 360.98Z" fill="#FF5F61"/>
<rect x="32" y="236" width="100" height="30" rx="8" fill="#D9D9D9"/>
<rect x="93" y="464" width="160" height="40" rx="8" fill="url(#paint0_linear_1426_10672)"/>
<path d="M135.443 490V483.712C135.443 483.189 135.315 482.8 135.059 482.544C134.803 482.277 134.43 482.144 133.939 482.144H129.027L129.251 480.4H134.051C135.203 480.4 136.073 480.677 136.659 481.232C137.257 481.776 137.555 482.587 137.555 483.664V490H135.443ZM129.235 490V484.736L131.347 484.608V490H129.235ZM140.194 485.904V480.4H142.306V485.904H140.194ZM138.85 482.144L139.074 480.4H141.394V482.144H138.85ZM145.319 485.904V480.4H147.431V485.904H145.319ZM143.975 482.144L144.199 480.4H146.519V482.144H143.975ZM151.426 490V483.216C151.426 482.949 151.383 482.741 151.298 482.592C151.223 482.432 151.106 482.32 150.946 482.256C150.786 482.181 150.578 482.144 150.322 482.144H149.362L149.586 480.4H150.882C151.767 480.4 152.428 480.624 152.866 481.072C153.314 481.509 153.538 482.155 153.538 483.008V490H151.426ZM148.946 490V488.256H152.434V490H148.946ZM159.738 490L162.074 482.128H155.45L155.674 480.4H164.474L164.33 481.68L161.85 490H159.738ZM155.85 492.992V484.272L157.962 484.144V492.864L155.85 492.992ZM166.85 490V480.4H168.962V490H166.85ZM165.506 482.144L165.73 480.4H168.242V482.144H165.506ZM181.006 480.4C182.158 480.4 183.027 480.677 183.614 481.232C184.211 481.776 184.51 482.587 184.51 483.664V490H176.046V483.584C176.046 483.445 176.062 483.285 176.094 483.104C176.136 482.912 176.206 482.731 176.302 482.56C176.398 482.379 176.536 482.24 176.718 482.144H175.118L175.358 480.4H181.006ZM182.398 488.256V483.712C182.398 483.189 182.27 482.8 182.014 482.544C181.758 482.277 181.384 482.144 180.894 482.144H178.286C178.232 482.283 178.195 482.437 178.174 482.608C178.163 482.768 178.158 482.933 178.158 483.104V488.256H182.398ZM187.022 485.904V480.4H189.134V485.904H187.022ZM185.678 482.144L185.902 480.4H188.222V482.144H185.678ZM195.427 490.144C194.008 490.144 192.91 489.691 192.131 488.784C191.363 487.877 190.979 486.544 190.979 484.784V480.4H193.091V484.784C193.091 485.989 193.294 486.907 193.699 487.536C194.104 488.155 194.67 488.464 195.395 488.464C196.152 488.464 196.744 488.155 197.171 487.536C197.608 486.907 197.827 485.989 197.827 484.784C197.827 483.899 197.715 483.216 197.491 482.736C197.267 482.245 196.872 482 196.307 482C196.083 481.989 195.87 482.005 195.667 482.048C195.464 482.091 195.246 482.139 195.011 482.192V480.512C195.31 480.448 195.587 480.4 195.843 480.368C196.11 480.325 196.392 480.304 196.691 480.304C197.811 480.315 198.627 480.704 199.139 481.472C199.662 482.24 199.923 483.344 199.923 484.784C199.923 486.544 199.534 487.877 198.755 488.784C197.976 489.691 196.867 490.144 195.427 490.144ZM205.712 490V483.712C205.712 483.189 205.584 482.8 205.328 482.544C205.072 482.277 204.699 482.144 204.208 482.144H200.928L201.152 480.4H204.32C205.472 480.4 206.342 480.677 206.928 481.232C207.526 481.776 207.824 482.587 207.824 483.664V490H205.712ZM209.874 490V488.256H213.122C213.73 488.256 214.248 488.128 214.674 487.872C215.101 487.616 215.426 487.253 215.65 486.784C215.874 486.304 215.986 485.749 215.986 485.12C215.986 484.139 215.794 483.371 215.41 482.816C215.026 482.261 214.418 481.984 213.586 481.984C212.925 481.984 212.434 482.139 212.114 482.448C211.794 482.747 211.634 483.141 211.634 483.632C211.634 483.984 211.714 484.288 211.874 484.544C212.045 484.8 212.306 484.96 212.658 485.024C212.744 485.056 212.829 485.083 212.914 485.104C213.01 485.125 213.09 485.136 213.154 485.136L212.978 486.672C212.85 486.693 212.701 486.699 212.53 486.688C212.36 486.667 212.141 486.629 211.874 486.576C211.16 486.448 210.6 486.117 210.194 485.584C209.8 485.051 209.602 484.379 209.602 483.568C209.602 482.917 209.752 482.341 210.05 481.84C210.349 481.339 210.797 480.949 211.394 480.672C211.992 480.384 212.722 480.24 213.586 480.24C215.037 480.24 216.157 480.677 216.946 481.552C217.746 482.416 218.146 483.605 218.146 485.12C218.146 486.123 217.938 486.992 217.522 487.728C217.117 488.453 216.525 489.013 215.746 489.408C214.968 489.803 214.024 490 212.914 490H209.874Z" fill="white"/>
<defs>
<linearGradient id="paint0_linear_1426_10672" x1="104.5" y1="493.5" x2="225.5" y2="478.5" gradientUnits="userSpaceOnUse">
<stop stop-color="#FF934C"/>
<stop offset="1" stop-color="#FF5F61"/>
</linearGradient>
</defs>
</svg>
