<svg width="186" height="134" viewBox="0 0 186 134" fill="none" xmlns="http://www.w3.org/2000/svg">
<path d="M7.72938 128V119.96C7.72938 119.187 7.54271 118.613 7.16938 118.24C6.80938 117.853 6.26271 117.66 5.52938 117.66H1.40938L1.62938 116.14H5.64938C6.94271 116.14 7.91604 116.46 8.56938 117.1C9.23604 117.727 9.56938 118.66 9.56938 119.9V128H7.72938ZM13.5981 116.14H20.8181L20.6181 117.3L17.0381 128H15.1381L18.6381 117.66H11.7581V113.02L13.5981 112.8V116.14ZM24.1073 128V116.14H25.9473V128H24.1073ZM22.2873 117.66L22.5073 116.14H25.3073V117.66H22.2873ZM30.063 116.14H37.283L37.083 117.3L33.503 128H31.603L35.103 117.66H28.223V113.02L30.063 112.8V116.14ZM44.5141 128.2C42.8074 128.2 41.5341 127.707 40.6941 126.72C39.8674 125.733 39.4541 124.28 39.4541 122.36V122.14C39.4541 121.22 39.5941 120.38 39.8741 119.62C40.1674 118.86 40.5274 118.24 40.9541 117.76V117.52L42.6941 117.4L42.4741 117.72C42.0874 118.16 41.7941 118.753 41.5941 119.5C41.3941 120.247 41.2941 121.067 41.2941 121.96C41.2941 123.547 41.5474 124.74 42.0541 125.54C42.5741 126.34 43.3941 126.74 44.5141 126.74C45.7007 126.74 46.5674 126.293 47.1141 125.4C47.6607 124.493 47.9341 123.187 47.9341 121.48C47.9341 120.24 47.7274 119.293 47.3141 118.64C46.9007 117.987 46.1941 117.66 45.1941 117.66H38.7941L39.0141 116.14H45.2541C46.8141 116.14 47.9541 116.6 48.6741 117.52C49.4074 118.427 49.7741 119.74 49.7741 121.46C49.7741 123.633 49.3407 125.3 48.4741 126.46C47.6074 127.62 46.2874 128.2 44.5141 128.2ZM53.1894 128V116.14H55.0294V128H53.1894ZM51.3694 117.66L51.5894 116.14H54.3894V117.66H51.3694ZM70.2956 116.14C71.589 116.14 72.5623 116.46 73.2156 117.1C73.8823 117.727 74.2156 118.66 74.2156 119.9V128H64.2356V119.12C64.2356 118.96 64.2556 118.787 64.2956 118.6C64.3356 118.4 64.3956 118.213 64.4756 118.04C64.569 117.867 64.6956 117.74 64.8556 117.66H62.9956L63.1956 116.14H70.2956ZM72.3756 126.48V119.96C72.3756 119.187 72.189 118.613 71.8156 118.24C71.4556 117.853 70.9023 117.66 70.1556 117.66H66.2156C66.1623 117.793 66.1223 117.96 66.0956 118.16C66.0823 118.36 66.0756 118.56 66.0756 118.76V126.48H72.3756ZM77.662 122.76V116.14H79.502V122.76H77.662ZM75.842 117.66L76.062 116.14H78.702V117.66H75.842ZM88.3605 128V119.96C88.3605 119.187 88.1738 118.613 87.8005 118.24C87.4405 117.853 86.8871 117.66 86.1405 117.66H82.4005L82.6005 116.14H86.2805C87.5738 116.14 88.5471 116.46 89.2005 117.1C89.8671 117.727 90.2005 118.66 90.2005 119.9V126.68C90.1471 126.92 90.0471 127.147 89.9005 127.36C89.7671 127.573 89.6138 127.787 89.4405 128H88.3605ZM81.8005 128V126.48H91.6805L91.4605 128H81.8005ZM99.137 128.06C97.8837 128.06 96.817 127.793 95.937 127.26C95.0704 126.727 94.4037 125.947 93.937 124.92C93.4704 123.88 93.237 122.607 93.237 121.1V116.14H95.077V121.1C95.077 122.313 95.2304 123.333 95.537 124.16C95.857 124.973 96.317 125.587 96.917 126C97.517 126.4 98.2504 126.6 99.117 126.6H99.317C100.21 126.6 100.964 126.4 101.577 126C102.19 125.587 102.65 124.973 102.957 124.16C103.277 123.347 103.437 122.333 103.437 121.12V116.14H105.257V121.1C105.257 122.607 105.024 123.88 104.557 124.92C104.104 125.947 103.437 126.727 102.557 127.26C101.677 127.793 100.61 128.06 99.357 128.06H99.137ZM94.597 123.4L94.457 122.12C95.3504 122.16 96.0837 122.04 96.657 121.76C97.2304 121.467 97.6504 121.02 97.917 120.42C98.197 119.82 98.337 119.093 98.337 118.24V116.14H100.177V118.12C100.177 118.96 100.064 119.713 99.837 120.38C99.6104 121.033 99.2637 121.593 98.797 122.06C98.3437 122.513 97.7637 122.853 97.057 123.08C96.3637 123.307 95.5437 123.413 94.597 123.4ZM114.406 116.14C115.7 116.14 116.673 116.46 117.326 117.1C117.993 117.727 118.326 118.66 118.326 119.9V128H116.486V119.96C116.486 119.187 116.3 118.613 115.926 118.24C115.566 117.853 115.02 117.66 114.286 117.66H110.726C110.646 117.78 110.56 118.007 110.466 118.34C110.373 118.673 110.326 119.193 110.326 119.9V128H108.486V120.36C108.486 119.773 108.546 119.247 108.666 118.78C108.786 118.3 108.96 117.933 109.186 117.68L108.786 117.6V116.14H114.406ZM107.446 117.66L107.646 116.14H112.046V117.66H107.446ZM121.009 128L122.389 120.9L120.749 116.14H122.589L123.569 119.3H123.629C123.775 118.86 123.949 118.44 124.149 118.04C124.349 117.64 124.609 117.287 124.929 116.98C125.249 116.66 125.642 116.407 126.109 116.22C126.575 116.033 127.122 115.94 127.749 115.94C128.642 115.94 129.422 116.153 130.089 116.58C130.755 116.993 131.275 117.62 131.649 118.46C132.035 119.287 132.229 120.34 132.229 121.62V121.9C132.229 123.127 132.029 124.2 131.629 125.12C131.242 126.027 130.669 126.733 129.909 127.24C129.162 127.747 128.242 128 127.149 128H125.149L125.349 126.48H127.069C128.135 126.48 128.955 126.06 129.529 125.22C130.102 124.38 130.389 123.273 130.389 121.9V121.62C130.389 120.66 130.255 119.88 129.989 119.28C129.735 118.667 129.389 118.213 128.949 117.92C128.509 117.627 128.002 117.48 127.429 117.48C126.869 117.48 126.395 117.58 126.009 117.78C125.622 117.98 125.309 118.253 125.069 118.6C124.829 118.933 124.635 119.307 124.489 119.72C124.355 120.12 124.255 120.533 124.189 120.96L122.909 128H121.009ZM139.842 126.92C139.842 126.427 139.962 126.08 140.202 125.88C140.442 125.68 140.729 125.58 141.062 125.58C141.409 125.58 141.702 125.68 141.942 125.88C142.196 126.08 142.322 126.427 142.322 126.92C142.322 127.4 142.196 127.747 141.942 127.96C141.702 128.173 141.409 128.28 141.062 128.28C140.729 128.28 140.442 128.173 140.202 127.96C139.962 127.747 139.842 127.4 139.842 126.92ZM146.334 122.76V116.14H148.174V122.76H146.334ZM144.514 117.66L144.734 116.14H147.374V117.66H144.514ZM156.252 128.2C154.546 128.2 153.272 127.707 152.432 126.72C151.606 125.733 151.192 124.28 151.192 122.36V122.14C151.192 121.22 151.332 120.38 151.612 119.62C151.906 118.86 152.266 118.24 152.692 117.76V117.52L154.432 117.4L154.212 117.72C153.826 118.16 153.532 118.753 153.332 119.5C153.132 120.247 153.032 121.067 153.032 121.96C153.032 123.547 153.286 124.74 153.792 125.54C154.312 126.34 155.132 126.74 156.252 126.74C157.439 126.74 158.306 126.293 158.852 125.4C159.399 124.493 159.672 123.187 159.672 121.48C159.672 120.24 159.466 119.293 159.052 118.64C158.639 117.987 157.932 117.66 156.932 117.66H150.532L150.752 116.14H156.992C158.552 116.14 159.692 116.6 160.412 117.52C161.146 118.427 161.512 119.74 161.512 121.46C161.512 123.633 161.079 125.3 160.212 126.46C159.346 127.62 158.026 128.2 156.252 128.2ZM163.944 126.92C163.944 126.427 164.064 126.08 164.304 125.88C164.544 125.68 164.831 125.58 165.164 125.58C165.511 125.58 165.804 125.68 166.044 125.88C166.297 126.08 166.424 126.427 166.424 126.92C166.424 127.4 166.297 127.747 166.044 127.96C165.804 128.173 165.511 128.28 165.164 128.28C164.831 128.28 164.544 128.173 164.304 127.96C164.064 127.747 163.944 127.4 163.944 126.92ZM170.435 122.76V116.14H172.275V122.76H170.435ZM168.615 117.66L168.835 116.14H171.475V117.66H168.615ZM183.183 128C182.597 127 181.997 126.033 181.383 125.1C180.77 124.167 180.157 123.287 179.543 122.46C178.943 121.62 178.35 120.84 177.763 120.12C177.43 119.707 177.103 119.307 176.783 118.92C176.463 118.52 176.163 118.147 175.883 117.8C175.617 117.453 175.363 117.14 175.123 116.86C174.897 116.58 174.697 116.34 174.523 116.14H176.743C176.997 116.433 177.263 116.76 177.543 117.12C177.823 117.48 178.13 117.873 178.463 118.3C178.797 118.713 179.163 119.173 179.563 119.68C180.137 120.467 180.75 121.313 181.403 122.22C182.057 123.127 182.717 124.067 183.383 125.04C184.05 126.013 184.683 127 185.283 128H183.183ZM174.083 128L174.563 124.68C174.67 123.907 174.837 123.2 175.063 122.56C175.303 121.907 175.65 121.34 176.103 120.86C176.557 120.367 177.163 119.967 177.923 119.66L178.523 120.86C178.043 121.087 177.663 121.393 177.383 121.78C177.103 122.153 176.89 122.593 176.743 123.1C176.597 123.593 176.477 124.14 176.383 124.74L175.903 128H174.083ZM181.443 123.08L180.843 121.88C181.35 121.64 181.763 121.333 182.083 120.96C182.403 120.587 182.643 120.153 182.803 119.66C182.977 119.167 183.09 118.62 183.143 118.02L183.323 116.14H185.163L184.983 118.08C184.917 118.853 184.75 119.56 184.483 120.2C184.217 120.84 183.83 121.4 183.323 121.88C182.83 122.36 182.203 122.76 181.443 123.08Z" fill="#403E3E"/>
<path fill-rule="evenodd" clip-rule="evenodd" d="M48.2632 63.1579C45.3564 63.1579 43 60.8015 43 57.8947V5.26316C43 2.3564 45.3564 0 48.2632 0H137.737C140.644 0 143 2.35639 143 5.26315V57.8947C143 60.8015 140.644 63.1579 137.737 63.1579H136.725C133.818 63.1579 131.462 60.8015 131.462 57.8947V12.9552C131.462 10.0485 129.105 7.69206 126.198 7.69206H59.8017C56.8949 7.69206 54.5385 10.0485 54.5385 12.9552V57.8947C54.5385 60.8015 52.1821 63.1579 49.2753 63.1579H48.2632Z" fill="#403E3E"/>
<path fill-rule="evenodd" clip-rule="evenodd" d="M64.2085 57.8946C64.2085 60.8013 66.5649 63.1577 69.4716 63.1577L118.481 63.1577C120.396 63.1577 121.949 61.6051 121.949 59.6899V59.6899C121.949 57.7746 120.396 56.222 118.481 56.222L83.9065 56.222C80.9997 56.222 78.6433 53.8656 78.6433 50.9588L78.6433 31.4302C78.6433 28.5234 80.9997 26.167 83.9065 26.167L118.481 26.167C120.396 26.167 121.949 24.6144 121.949 22.6991V22.6991C121.949 20.7838 120.396 19.2312 118.481 19.2312L69.4717 19.2312C66.5649 19.2312 64.2085 21.5876 64.2085 24.4943L64.2085 57.8946Z" fill="#403E3E"/>
<rect x="43" y="78.9468" width="5.26316" height="5.26316" rx="1.05263" fill="#403E3E"/>
<rect x="43" y="86.8423" width="5.26316" height="5.26316" rx="1.05263" fill="#403E3E"/>
<rect x="43" y="94.7363" width="5.26316" height="5.26316" rx="1.05263" fill="#403E3E"/>
<rect x="50.8931" y="78.9468" width="5.26316" height="5.26316" rx="1.05263" fill="#403E3E"/>
<rect x="50.8931" y="86.8423" width="5.26316" height="5.26316" rx="1.05263" fill="#403E3E"/>
<rect x="50.8931" y="94.7363" width="5.26316" height="5.26316" rx="1.05263" fill="#403E3E"/>
<rect x="58.7902" y="78.9468" width="5.26316" height="5.26316" rx="1.05263" fill="#403E3E"/>
<rect x="58.7902" y="86.8423" width="5.26316" height="5.26316" rx="1.05263" fill="#403E3E"/>
<rect x="58.7902" y="94.7363" width="5.26316" height="5.26316" rx="1.05263" fill="#403E3E"/>
<rect x="66.6837" y="78.9468" width="5.26316" height="5.26316" rx="1.05263" fill="#403E3E"/>
<rect x="66.6837" y="86.8423" width="5.26316" height="5.26316" rx="1.05263" fill="#403E3E"/>
<rect x="66.6837" y="94.7363" width="5.26316" height="5.26316" rx="1.05263" fill="#403E3E"/>
<rect x="74.5804" y="78.9468" width="5.26316" height="5.26316" rx="1.05263" fill="#403E3E"/>
<rect x="74.5804" y="86.8423" width="5.26316" height="5.26316" rx="1.05263" fill="#403E3E"/>
<rect x="74.5804" y="94.7363" width="5.26316" height="5.26316" rx="1.05263" fill="#403E3E"/>
<rect x="82.4739" y="78.9468" width="5.26316" height="5.26316" rx="1.05263" fill="#403E3E"/>
<rect x="82.4739" y="86.8423" width="5.26316" height="5.26316" rx="1.05263" fill="#403E3E"/>
<rect x="82.4739" y="94.7363" width="5.26316" height="5.26316" rx="1.05263" fill="#403E3E"/>
<rect x="90.369" y="78.9468" width="5.26316" height="5.26316" rx="1.05263" fill="#403E3E"/>
<rect x="90.369" y="86.8423" width="5.26316" height="5.26316" rx="1.05263" fill="#403E3E"/>
<rect x="90.369" y="94.7363" width="5.26316" height="5.26316" rx="1.05263" fill="#403E3E"/>
<rect x="98.264" y="78.9468" width="5.26316" height="5.26316" rx="1.05263" fill="#403E3E"/>
<rect x="98.264" y="86.8423" width="5.26316" height="5.26316" rx="1.05263" fill="#403E3E"/>
<rect x="98.264" y="94.7363" width="5.26316" height="5.26316" rx="1.05263" fill="#403E3E"/>
<rect x="106.157" y="78.9468" width="5.26316" height="5.26316" rx="1.05263" fill="#403E3E"/>
<rect x="106.157" y="86.8423" width="5.26316" height="5.26316" rx="1.05263" fill="#403E3E"/>
<rect x="106.157" y="94.7363" width="5.26316" height="5.26316" rx="1.05263" fill="#403E3E"/>
<rect x="114.052" y="78.9468" width="5.26316" height="5.26316" rx="1.05263" fill="#403E3E"/>
<rect x="114.052" y="86.8423" width="5.26316" height="5.26316" rx="1.05263" fill="#403E3E"/>
<rect x="114.052" y="94.7363" width="5.26316" height="5.26316" rx="1.05263" fill="#403E3E"/>
<rect x="121.948" y="78.9468" width="5.26316" height="5.26316" rx="1.05263" fill="#403E3E"/>
<rect x="121.948" y="86.8423" width="5.26316" height="5.26316" rx="1.05263" fill="#403E3E"/>
<rect x="121.948" y="94.7363" width="5.26316" height="5.26316" rx="1.05263" fill="#403E3E"/>
<rect x="129.843" y="78.9468" width="5.26316" height="5.26316" rx="1.05263" fill="#403E3E"/>
<rect x="129.843" y="86.8423" width="5.26316" height="5.26316" rx="1.05263" fill="#403E3E"/>
<rect x="129.843" y="94.7363" width="5.26316" height="5.26316" rx="1.05263" fill="#403E3E"/>
<rect x="137.736" y="78.9468" width="5.26316" height="5.26316" rx="1.05263" fill="#403E3E"/>
<rect x="137.736" y="86.8423" width="5.26316" height="5.26316" rx="1.05263" fill="#403E3E"/>
<rect x="137.736" y="94.7363" width="5.26316" height="5.26316" rx="1.05263" fill="#403E3E"/>
</svg>
