<svg width="200" height="200" viewBox="0 0 200 200" fill="none" xmlns="http://www.w3.org/2000/svg">
<path fill-rule="evenodd" clip-rule="evenodd" d="M99.9972 174.395C141.086 174.395 174.395 141.086 174.395 99.9972C174.395 58.9084 141.086 25.5993 99.9972 25.5993C58.9084 25.5993 25.5993 58.9084 25.5993 99.9972C25.5993 141.086 58.9084 174.395 99.9972 174.395ZM99.9972 199.994C155.224 199.994 199.994 155.224 199.994 99.9972C199.994 44.7703 155.224 0 99.9972 0C44.7703 0 0 44.7703 0 99.9972C0 155.224 44.7703 199.994 99.9972 199.994Z" fill="white"/>
<mask id="path-2-inside-1_1093_8412" fill="white">
<path fill-rule="evenodd" clip-rule="evenodd" d="M0.927246 113.653C7.5879 162.418 49.4058 199.991 99.9993 199.991C155.226 199.991 199.997 155.221 199.997 99.9941C199.997 45.034 155.658 0.429846 100.799 0V25.6004C141.52 26.0294 174.397 59.1722 174.397 99.9941C174.397 141.083 141.088 174.392 99.9993 174.392C62.5056 174.392 31.4897 146.657 26.3493 110.583L0.927246 113.653Z"/>
</mask>
<path fill-rule="evenodd" clip-rule="evenodd" d="M0.927246 113.653C7.5879 162.418 49.4058 199.991 99.9993 199.991C155.226 199.991 199.997 155.221 199.997 99.9941C199.997 45.034 155.658 0.429846 100.799 0V25.6004C141.52 26.0294 174.397 59.1722 174.397 99.9941C174.397 141.083 141.088 174.392 99.9993 174.392C62.5056 174.392 31.4897 146.657 26.3493 110.583L0.927246 113.653Z" fill="#FF4061"/>
<path d="M0.927246 113.653L0.687497 111.668L-1.32927 111.911L-1.05435 113.924L0.927246 113.653ZM100.799 0L100.815 -1.99994L98.7993 -2.01573V0H100.799ZM100.799 25.6004H98.7993V27.5794L100.778 27.6003L100.799 25.6004ZM26.3493 110.583L28.3293 110.301L28.0531 108.363L26.1096 108.598L26.3493 110.583ZM-1.05435 113.924C5.73978 163.666 48.3922 201.991 99.9993 201.991V197.991C50.4193 197.991 9.43602 161.17 2.90885 113.382L-1.05435 113.924ZM99.9993 201.991C156.331 201.991 201.997 156.326 201.997 99.9941H197.997C197.997 154.116 154.122 197.991 99.9993 197.991V201.991ZM201.997 99.9941C201.997 43.9347 156.771 -1.56149 100.815 -1.99994L100.784 1.99994C154.545 2.42119 197.997 46.1334 197.997 99.9941H201.997ZM98.7993 0V25.6004H102.799V0H98.7993ZM176.397 99.9941C176.397 58.0747 142.636 24.041 100.82 23.6005L100.778 27.6003C140.403 28.0177 172.397 60.2697 172.397 99.9941H176.397ZM99.9993 176.392C142.193 176.392 176.397 142.187 176.397 99.9941H172.397C172.397 139.978 139.984 172.392 99.9993 172.392V176.392ZM24.3693 110.866C29.6482 147.91 61.4959 176.392 99.9993 176.392V172.392C63.5152 172.392 33.3313 145.403 28.3293 110.301L24.3693 110.866ZM26.1096 108.598L0.687497 111.668L1.16699 115.639L26.5891 112.569L26.1096 108.598Z" fill="white" mask="url(#path-2-inside-1_1093_8412)"/>
<path d="M71.8608 111.001V110.201C71.8608 109.454 71.9248 108.825 72.0528 108.313C72.1808 107.801 72.4262 107.193 72.7888 106.489L81.3328 91.289V90.937H68.0208V88.601H84.0528V91.673L75.1248 107.673C74.8688 108.121 74.6875 108.526 74.5808 108.889C74.4955 109.252 74.4528 109.71 74.4528 110.265V111.001H71.8608ZM94.7553 111.449C93.1767 111.449 91.758 111.15 90.4993 110.553C89.262 109.956 88.2807 109.092 87.5553 107.961C86.8513 106.83 86.4993 105.465 86.4993 103.865V103.257H89.0913V103.833C89.0913 105.476 89.614 106.766 90.6593 107.705C91.7047 108.644 93.07 109.113 94.7553 109.113C96.462 109.113 97.7847 108.676 98.7233 107.801C99.6833 106.905 100.163 105.785 100.163 104.441V104.185C100.163 103.204 99.9287 102.414 99.4593 101.817C98.99 101.198 98.35 100.75 97.5393 100.473C96.75 100.174 95.8753 100.025 94.9153 100.025H91.2673V96.793L99.8113 91.321V90.937H87.0433V88.601H102.563V92.217L94.2113 97.593V97.977H95.8113C97.07 97.977 98.222 98.2116 99.2673 98.681C100.334 99.129 101.177 99.8116 101.795 100.729C102.435 101.625 102.755 102.756 102.755 104.121V104.473C102.755 105.881 102.425 107.108 101.763 108.153C101.102 109.198 100.174 110.009 98.9793 110.585C97.7847 111.161 96.3767 111.449 94.7553 111.449ZM108.692 111.449L106.964 110.073L124.788 88.153L126.484 89.529L108.692 111.449ZM122.9 111.417C121.342 111.417 120.094 110.969 119.156 110.073C118.238 109.156 117.78 107.918 117.78 106.361V106.169C117.78 104.612 118.238 103.385 119.156 102.489C120.094 101.572 121.342 101.113 122.9 101.113C124.414 101.113 125.641 101.572 126.58 102.489C127.518 103.385 127.988 104.612 127.988 106.169V106.361C127.988 107.918 127.518 109.156 126.58 110.073C125.662 110.969 124.436 111.417 122.9 111.417ZM122.9 109.561C123.796 109.561 124.5 109.273 125.012 108.697C125.545 108.121 125.812 107.374 125.812 106.457V106.073C125.812 105.134 125.545 104.388 125.012 103.833C124.5 103.257 123.796 102.969 122.9 102.969C121.982 102.969 121.257 103.257 120.724 103.833C120.212 104.388 119.956 105.134 119.956 106.073V106.457C119.956 107.374 120.212 108.121 120.724 108.697C121.257 109.273 121.982 109.561 122.9 109.561ZM110.58 98.489C109.022 98.489 107.785 98.0303 106.868 97.113C105.95 96.1956 105.492 94.969 105.492 93.433V93.241C105.492 91.6836 105.95 90.457 106.868 89.561C107.785 88.6436 109.022 88.185 110.58 88.185C112.116 88.185 113.342 88.6436 114.26 89.561C115.198 90.457 115.668 91.6836 115.668 93.241V93.433C115.668 94.969 115.198 96.1956 114.26 97.113C113.342 98.0303 112.116 98.489 110.58 98.489ZM110.58 96.633C111.476 96.633 112.19 96.345 112.724 95.769C113.257 95.193 113.524 94.4463 113.524 93.529V93.145C113.524 92.2063 113.257 91.4596 112.724 90.905C112.19 90.329 111.476 90.041 110.58 90.041C109.662 90.041 108.937 90.329 108.404 90.905C107.892 91.4596 107.636 92.2063 107.636 93.145V93.529C107.636 94.4463 107.892 95.193 108.404 95.769C108.937 96.345 109.662 96.633 110.58 96.633Z" fill="#FF3D5F"/>
</svg>
