<svg width="200" height="200" viewBox="0 0 200 200" fill="none" xmlns="http://www.w3.org/2000/svg">
<path fill-rule="evenodd" clip-rule="evenodd" d="M99.9972 174.395C141.086 174.395 174.395 141.086 174.395 99.9972C174.395 58.9084 141.086 25.5993 99.9972 25.5993C58.9084 25.5993 25.5993 58.9084 25.5993 99.9972C25.5993 141.086 58.9084 174.395 99.9972 174.395ZM99.9972 199.994C155.224 199.994 199.994 155.224 199.994 99.9972C199.994 44.7703 155.224 0 99.9972 0C44.7703 0 0 44.7703 0 99.9972C0 155.224 44.7703 199.994 99.9972 199.994Z" fill="white"/>
<mask id="path-2-inside-1_1093_8418" fill="white">
<path fill-rule="evenodd" clip-rule="evenodd" d="M1.22072 84.3376C0.418632 89.4386 0.00219727 94.6677 0.00219727 99.9941C0.00219727 155.221 44.7725 199.991 99.9994 199.991C155.226 199.991 199.997 155.221 199.997 99.9941C199.997 45.034 155.658 0.429846 100.799 0V25.6004C141.52 26.0294 174.397 59.1722 174.397 99.9941C174.397 141.083 141.088 174.392 99.9994 174.392C58.9106 174.392 25.6015 141.083 25.6015 99.9941C25.6015 96.158 25.8918 92.3897 26.4517 88.71L1.22072 84.3376Z"/>
</mask>
<path fill-rule="evenodd" clip-rule="evenodd" d="M1.22072 84.3376C0.418632 89.4386 0.00219727 94.6677 0.00219727 99.9941C0.00219727 155.221 44.7725 199.991 99.9994 199.991C155.226 199.991 199.997 155.221 199.997 99.9941C199.997 45.034 155.658 0.429846 100.799 0V25.6004C141.52 26.0294 174.397 59.1722 174.397 99.9941C174.397 141.083 141.088 174.392 99.9994 174.392C58.9106 174.392 25.6015 141.083 25.6015 99.9941C25.6015 96.158 25.8918 92.3897 26.4517 88.71L1.22072 84.3376Z" fill="#FF4061"/>
<path d="M1.22072 84.3376L1.56222 82.367L-0.439449 82.0201L-0.755005 84.0269L1.22072 84.3376ZM100.799 0L100.815 -1.99994L98.7994 -2.01573V0H100.799ZM100.799 25.6004H98.7994V27.5794L100.778 27.6003L100.799 25.6004ZM26.4517 88.71L28.4289 89.0108L28.7237 87.0739L26.7932 86.7394L26.4517 88.71ZM-0.755005 84.0269C-1.57319 89.2304 -1.9978 94.5633 -1.9978 99.9941H2.0022C2.0022 94.7721 2.41046 89.6469 3.19644 84.6483L-0.755005 84.0269ZM-1.9978 99.9941C-1.9978 156.326 43.6679 201.991 99.9994 201.991V197.991C45.877 197.991 2.0022 154.116 2.0022 99.9941H-1.9978ZM99.9994 201.991C156.331 201.991 201.997 156.326 201.997 99.9941H197.997C197.997 154.116 154.122 197.991 99.9994 197.991V201.991ZM201.997 99.9941C201.997 43.9347 156.771 -1.56149 100.815 -1.99994L100.784 1.99994C154.545 2.42119 197.997 46.1334 197.997 99.9941H201.997ZM98.7994 0V25.6004H102.799V0H98.7994ZM176.397 99.9941C176.397 58.0747 142.636 24.041 100.82 23.6005L100.778 27.6003C140.404 28.0177 172.397 60.2697 172.397 99.9941H176.397ZM99.9994 176.392C142.193 176.392 176.397 142.187 176.397 99.9941H172.397C172.397 139.978 139.984 172.392 99.9994 172.392V176.392ZM23.6015 99.9941C23.6015 142.187 57.806 176.392 99.9994 176.392V172.392C60.0151 172.392 27.6015 139.978 27.6015 99.9941H23.6015ZM24.4745 88.4091C23.8995 92.1881 23.6015 96.0569 23.6015 99.9941H27.6015C27.6015 96.259 27.8842 92.5913 28.4289 89.0108L24.4745 88.4091ZM26.7932 86.7394L1.56222 82.367L0.879221 86.3082L26.1102 90.6806L26.7932 86.7394Z" fill="white" mask="url(#path-2-inside-1_1093_8418)"/>
<path d="M71.8608 111.001V110.201C71.8608 109.454 71.9248 108.825 72.0528 108.313C72.1808 107.801 72.4262 107.193 72.7888 106.489L81.3328 91.289V90.937H68.0208V88.601H84.0528V91.673L75.1248 107.673C74.8688 108.121 74.6875 108.526 74.5808 108.889C74.4955 109.252 74.4528 109.71 74.4528 110.265V111.001H71.8608ZM94.9176 111.449C93.1896 111.449 91.6856 111.193 90.4056 110.681C89.1469 110.148 88.1656 109.412 87.4616 108.473C86.7789 107.513 86.4376 106.393 86.4376 105.113V104.761C86.4376 103.652 86.6722 102.734 87.1416 102.009C87.6109 101.284 88.1762 100.729 88.8376 100.345C89.5202 99.9396 90.1496 99.6836 90.7256 99.577V99.161C90.1496 98.9903 89.5522 98.713 88.9336 98.329C88.3362 97.945 87.8349 97.4223 87.4296 96.761C87.0456 96.0996 86.8536 95.289 86.8536 94.329V93.977C86.8536 92.761 87.1949 91.7263 87.8776 90.873C88.5816 89.9983 89.5416 89.3263 90.7576 88.857C91.9736 88.3876 93.3602 88.153 94.9176 88.153C96.4962 88.153 97.8829 88.3876 99.0776 88.857C100.294 89.3263 101.243 89.9983 101.926 90.873C102.63 91.7263 102.982 92.761 102.982 93.977V94.329C102.982 95.289 102.79 96.0996 102.406 96.761C102.022 97.4223 101.531 97.945 100.934 98.329C100.336 98.713 99.7389 98.9903 99.1416 99.161V99.577C99.7389 99.6836 100.368 99.9396 101.03 100.345C101.691 100.729 102.246 101.284 102.694 102.009C103.163 102.734 103.398 103.652 103.398 104.761V105.113C103.398 106.393 103.056 107.513 102.374 108.473C101.691 109.412 100.71 110.148 99.4296 110.681C98.1709 111.193 96.6669 111.449 94.9176 111.449ZM94.9176 109.113C96.7309 109.113 98.1602 108.761 99.2056 108.057C100.272 107.353 100.806 106.329 100.806 104.985V104.729C100.806 103.385 100.283 102.361 99.2376 101.657C98.1922 100.953 96.7522 100.601 94.9176 100.601C93.1042 100.601 91.6749 100.953 90.6296 101.657C89.5842 102.361 89.0616 103.385 89.0616 104.729V104.985C89.0616 106.329 89.5842 107.353 90.6296 108.057C91.6962 108.761 93.1256 109.113 94.9176 109.113ZM94.9176 98.265C96.6242 98.265 97.9576 97.945 98.9176 97.305C99.8989 96.6436 100.39 95.7156 100.39 94.521V94.265C100.39 93.049 99.8989 92.121 98.9176 91.481C97.9362 90.8196 96.6029 90.489 94.9176 90.489C93.2322 90.489 91.8989 90.8196 90.9176 91.481C89.9362 92.121 89.4456 93.049 89.4456 94.265V94.521C89.4456 95.7156 89.9362 96.6436 90.9176 97.305C91.8989 97.945 93.2322 98.265 94.9176 98.265ZM109.223 111.449L107.495 110.073L125.319 88.153L127.015 89.529L109.223 111.449ZM123.431 111.417C121.874 111.417 120.626 110.969 119.687 110.073C118.77 109.156 118.311 107.918 118.311 106.361V106.169C118.311 104.612 118.77 103.385 119.687 102.489C120.626 101.572 121.874 101.113 123.431 101.113C124.946 101.113 126.172 101.572 127.111 102.489C128.05 103.385 128.519 104.612 128.519 106.169V106.361C128.519 107.918 128.05 109.156 127.111 110.073C126.194 110.969 124.967 111.417 123.431 111.417ZM123.431 109.561C124.327 109.561 125.031 109.273 125.543 108.697C126.076 108.121 126.343 107.374 126.343 106.457V106.073C126.343 105.134 126.076 104.388 125.543 103.833C125.031 103.257 124.327 102.969 123.431 102.969C122.514 102.969 121.788 103.257 121.255 103.833C120.743 104.388 120.487 105.134 120.487 106.073V106.457C120.487 107.374 120.743 108.121 121.255 108.697C121.788 109.273 122.514 109.561 123.431 109.561ZM111.111 98.489C109.554 98.489 108.316 98.0303 107.399 97.113C106.482 96.1956 106.023 94.969 106.023 93.433V93.241C106.023 91.6836 106.482 90.457 107.399 89.561C108.316 88.6436 109.554 88.185 111.111 88.185C112.647 88.185 113.874 88.6436 114.791 89.561C115.73 90.457 116.199 91.6836 116.199 93.241V93.433C116.199 94.969 115.73 96.1956 114.791 97.113C113.874 98.0303 112.647 98.489 111.111 98.489ZM111.111 96.633C112.007 96.633 112.722 96.345 113.255 95.769C113.788 95.193 114.055 94.4463 114.055 93.529V93.145C114.055 92.2063 113.788 91.4596 113.255 90.905C112.722 90.329 112.007 90.041 111.111 90.041C110.194 90.041 109.468 90.329 108.935 90.905C108.423 91.4596 108.167 92.2063 108.167 93.145V93.529C108.167 94.4463 108.423 95.193 108.935 95.769C109.468 96.345 110.194 96.633 111.111 96.633Z" fill="#FF3D5F"/>
</svg>
