<svg width="200" height="200" viewBox="0 0 200 200" fill="none" xmlns="http://www.w3.org/2000/svg">
<path fill-rule="evenodd" clip-rule="evenodd" d="M99.9972 174.395C141.086 174.395 174.395 141.086 174.395 99.9972C174.395 58.9084 141.086 25.5993 99.9972 25.5993C58.9084 25.5993 25.5993 58.9084 25.5993 99.9972C25.5993 141.086 58.9084 174.395 99.9972 174.395ZM99.9972 199.994C155.224 199.994 199.994 155.224 199.994 99.9972C199.994 44.7703 155.224 0 99.9972 0C44.7703 0 0 44.7703 0 99.9972C0 155.224 44.7703 199.994 99.9972 199.994Z" fill="white"/>
<mask id="path-2-inside-1_1093_8436" fill="white">
<path fill-rule="evenodd" clip-rule="evenodd" d="M0.224854 106.721C3.68475 158.811 47.033 199.991 99.9994 199.991C155.226 199.991 199.997 155.221 199.997 99.9941C199.997 45.034 155.658 0.429846 100.799 0V25.6004C141.52 26.0294 174.397 59.1722 174.397 99.9941C174.397 141.083 141.088 174.392 99.9994 174.392C60.7344 174.392 28.5738 143.974 25.7961 105.417L0.224854 106.721Z"/>
</mask>
<path fill-rule="evenodd" clip-rule="evenodd" d="M0.224854 106.721C3.68475 158.811 47.033 199.991 99.9994 199.991C155.226 199.991 199.997 155.221 199.997 99.9941C199.997 45.034 155.658 0.429846 100.799 0V25.6004C141.52 26.0294 174.397 59.1722 174.397 99.9941C174.397 141.083 141.088 174.392 99.9994 174.392C60.7344 174.392 28.5738 143.974 25.7961 105.417L0.224854 106.721Z" fill="#FF4061"/>
<path d="M0.224854 106.721L0.123037 104.723L-1.90536 104.827L-1.77075 106.853L0.224854 106.721ZM100.799 0L100.815 -1.99994L98.7994 -2.01573V0H100.799ZM100.799 25.6004H98.7994V27.5794L100.778 27.6003L100.799 25.6004ZM25.7961 105.417L27.7909 105.274L27.6502 103.32L25.6943 103.42L25.7961 105.417ZM-1.77075 106.853C1.75848 159.987 45.9728 201.991 99.9994 201.991V197.991C48.0931 197.991 5.61103 157.635 2.22046 106.588L-1.77075 106.853ZM99.9994 201.991C156.331 201.991 201.997 156.326 201.997 99.9941H197.997C197.997 154.116 154.122 197.991 99.9994 197.991V201.991ZM201.997 99.9941C201.997 43.9347 156.771 -1.56149 100.815 -1.99994L100.784 1.99994C154.545 2.42119 197.997 46.1334 197.997 99.9941H201.997ZM98.7994 0V25.6004H102.799V0H98.7994ZM176.397 99.9941C176.397 58.0747 142.636 24.041 100.82 23.6005L100.778 27.6003C140.403 28.0177 172.397 60.2697 172.397 99.9941H176.397ZM99.9994 176.392C142.193 176.392 176.397 142.187 176.397 99.9941H172.397C172.397 139.978 139.984 172.392 99.9994 172.392V176.392ZM23.8013 105.561C26.6538 145.156 59.678 176.392 99.9994 176.392V172.392C61.7908 172.392 30.4938 142.792 27.7909 105.274L23.8013 105.561ZM25.6943 103.42L0.123037 104.723L0.32667 108.718L25.8979 107.415L25.6943 103.42Z" fill="white" mask="url(#path-2-inside-1_1093_8436)"/>
<path d="M71.8608 111.001V110.201C71.8608 109.454 71.9248 108.825 72.0528 108.313C72.1808 107.801 72.4262 107.193 72.7888 106.489L81.3328 91.289V90.937H68.0208V88.601H84.0528V91.673L75.1248 107.673C74.8688 108.121 74.6875 108.526 74.5808 108.889C74.4955 109.252 74.4528 109.71 74.4528 110.265V111.001H71.8608ZM95.8571 111.001V106.425H84.1771V103.353L93.5851 88.601H98.4491V104.089H102.289V106.425H98.4491V111.001H95.8571ZM86.7691 104.089H95.8571V90.169H95.4091L86.7691 103.705V104.089ZM107.473 111.449L105.745 110.073L123.569 88.153L125.265 89.529L107.473 111.449ZM121.681 111.417C120.124 111.417 118.876 110.969 117.937 110.073C117.02 109.156 116.561 107.918 116.561 106.361V106.169C116.561 104.612 117.02 103.385 117.937 102.489C118.876 101.572 120.124 101.113 121.681 101.113C123.196 101.113 124.422 101.572 125.361 102.489C126.3 103.385 126.769 104.612 126.769 106.169V106.361C126.769 107.918 126.3 109.156 125.361 110.073C124.444 110.969 123.217 111.417 121.681 111.417ZM121.681 109.561C122.577 109.561 123.281 109.273 123.793 108.697C124.326 108.121 124.593 107.374 124.593 106.457V106.073C124.593 105.134 124.326 104.388 123.793 103.833C123.281 103.257 122.577 102.969 121.681 102.969C120.764 102.969 120.038 103.257 119.505 103.833C118.993 104.388 118.737 105.134 118.737 106.073V106.457C118.737 107.374 118.993 108.121 119.505 108.697C120.038 109.273 120.764 109.561 121.681 109.561ZM109.361 98.489C107.804 98.489 106.566 98.0303 105.649 97.113C104.732 96.1956 104.273 94.969 104.273 93.433V93.241C104.273 91.6836 104.732 90.457 105.649 89.561C106.566 88.6436 107.804 88.185 109.361 88.185C110.897 88.185 112.124 88.6436 113.041 89.561C113.98 90.457 114.449 91.6836 114.449 93.241V93.433C114.449 94.969 113.98 96.1956 113.041 97.113C112.124 98.0303 110.897 98.489 109.361 98.489ZM109.361 96.633C110.257 96.633 110.972 96.345 111.505 95.769C112.038 95.193 112.305 94.4463 112.305 93.529V93.145C112.305 92.2063 112.038 91.4596 111.505 90.905C110.972 90.329 110.257 90.041 109.361 90.041C108.444 90.041 107.718 90.329 107.185 90.905C106.673 91.4596 106.417 92.2063 106.417 93.145V93.529C106.417 94.4463 106.673 95.193 107.185 95.769C107.718 96.345 108.444 96.633 109.361 96.633Z" fill="#FF3D5F"/>
</svg>
