<svg width="200" height="200" viewBox="0 0 200 200" fill="none" xmlns="http://www.w3.org/2000/svg">
<path fill-rule="evenodd" clip-rule="evenodd" d="M99.9972 174.395C141.086 174.395 174.395 141.086 174.395 99.9972C174.395 58.9084 141.086 25.5993 99.9972 25.5993C58.9084 25.5993 25.5993 58.9084 25.5993 99.9972C25.5993 141.086 58.9084 174.395 99.9972 174.395ZM99.9972 199.994C155.224 199.994 199.994 155.224 199.994 99.9972C199.994 44.7703 155.224 0 99.9972 0C44.7703 0 0 44.7703 0 99.9972C0 155.224 44.7703 199.994 99.9972 199.994Z" fill="white"/>
<mask id="path-2-inside-1_1093_8442" fill="white">
<path fill-rule="evenodd" clip-rule="evenodd" d="M100.806 199.988C155.662 199.555 199.997 154.952 199.997 99.9941C199.997 45.034 155.658 0.429814 100.799 0V25.6004C141.52 26.0293 174.397 59.1722 174.397 99.9941C174.397 140.814 141.522 173.956 100.804 174.388L100.806 199.988Z"/>
</mask>
<path fill-rule="evenodd" clip-rule="evenodd" d="M100.806 199.988C155.662 199.555 199.997 154.952 199.997 99.9941C199.997 45.034 155.658 0.429814 100.799 0V25.6004C141.52 26.0293 174.397 59.1722 174.397 99.9941C174.397 140.814 141.522 173.956 100.804 174.388L100.806 199.988Z" fill="#FF4061"/>
<path d="M100.806 199.988L98.8059 199.988L98.8061 202.004L100.822 201.988L100.806 199.988ZM100.799 0L100.815 -1.99994L98.7993 -2.01573V0H100.799ZM100.799 25.6004H98.7993V27.5794L100.778 27.6003L100.799 25.6004ZM100.804 174.388L100.783 172.388L98.8041 172.409L98.8042 174.388L100.804 174.388ZM100.822 201.988C156.775 201.546 201.997 156.051 201.997 99.9941H197.997C197.997 153.853 154.548 197.563 100.79 197.988L100.822 201.988ZM201.997 99.9941C201.997 43.9347 156.771 -1.56153 100.815 -1.99994L100.784 1.99994C154.545 2.42115 197.997 46.1333 197.997 99.9941H201.997ZM98.7993 0V25.6004H102.799V0H98.7993ZM176.397 99.9941C176.397 58.0747 142.636 24.041 100.82 23.6005L100.778 27.6003C140.403 28.0177 172.397 60.2697 172.397 99.9941H176.397ZM100.825 176.388C142.639 175.944 176.397 141.912 176.397 99.9941H172.397C172.397 139.717 140.406 171.968 100.783 172.388L100.825 176.388ZM98.8042 174.388L98.8059 199.988L102.806 199.988L102.804 174.388L98.8042 174.388Z" fill="white" mask="url(#path-2-inside-1_1093_8442)"/>
<path d="M76.6608 111.449C75.0182 111.449 73.5995 111.14 72.4048 110.521C71.2102 109.881 70.2822 109.006 69.6208 107.897C68.9595 106.766 68.6288 105.465 68.6288 103.993V103.609H71.2208V103.897C71.2208 105.582 71.7115 106.873 72.6928 107.769C73.6742 108.665 74.9755 109.113 76.5968 109.113C78.3035 109.113 79.6368 108.633 80.5968 107.673C81.5568 106.713 82.0368 105.401 82.0368 103.737V103.449C82.0368 101.849 81.5675 100.58 80.6288 99.641C79.7115 98.681 78.5168 98.201 77.0448 98.201C76.1915 98.201 75.4875 98.3396 74.9328 98.617C74.3782 98.873 73.9408 99.2036 73.6208 99.609C73.3008 99.993 73.0342 100.366 72.8208 100.729H69.3008V88.601H84.0208V90.937H71.8928V98.681H72.3408C72.5755 98.2543 72.8955 97.8383 73.3008 97.433C73.7275 97.0276 74.2928 96.6863 74.9968 96.409C75.7008 96.1316 76.5755 95.993 77.6208 95.993C78.9222 95.993 80.0955 96.2916 81.1408 96.889C82.2075 97.4863 83.0502 98.3396 83.6688 99.449C84.3088 100.558 84.6288 101.881 84.6288 103.417V103.769C84.6288 105.284 84.3088 106.617 83.6688 107.769C83.0288 108.921 82.1115 109.828 80.9168 110.489C79.7222 111.129 78.3035 111.449 76.6608 111.449ZM96.3931 111.449C93.8544 111.449 91.8277 110.702 90.3131 109.209C88.8197 107.694 88.0731 105.433 88.0731 102.425V97.177C88.0731 94.1903 88.8197 91.9396 90.3131 90.425C91.8277 88.9103 93.8544 88.153 96.3931 88.153C98.9531 88.153 100.98 88.9103 102.473 90.425C103.988 91.9396 104.745 94.1903 104.745 97.177V102.425C104.745 105.433 103.988 107.694 102.473 109.209C100.98 110.702 98.9531 111.449 96.3931 111.449ZM96.3931 109.113C98.3131 109.113 99.7531 108.537 100.713 107.385C101.673 106.233 102.153 104.622 102.153 102.553V97.017C102.153 94.9476 101.662 93.3476 100.681 92.217C99.6997 91.065 98.2704 90.489 96.3931 90.489C94.5157 90.489 93.0864 91.065 92.1051 92.217C91.1451 93.369 90.6651 94.969 90.6651 97.017V102.553C90.6651 104.644 91.1451 106.265 92.1051 107.417C93.0651 108.548 94.4944 109.113 96.3931 109.113ZM110.973 111.449L109.245 110.073L127.069 88.153L128.765 89.529L110.973 111.449ZM125.181 111.417C123.624 111.417 122.376 110.969 121.437 110.073C120.52 109.156 120.061 107.918 120.061 106.361V106.169C120.061 104.612 120.52 103.385 121.437 102.489C122.376 101.572 123.624 101.113 125.181 101.113C126.696 101.113 127.922 101.572 128.861 102.489C129.8 103.385 130.269 104.612 130.269 106.169V106.361C130.269 107.918 129.8 109.156 128.861 110.073C127.944 110.969 126.717 111.417 125.181 111.417ZM125.181 109.561C126.077 109.561 126.781 109.273 127.293 108.697C127.826 108.121 128.093 107.374 128.093 106.457V106.073C128.093 105.134 127.826 104.388 127.293 103.833C126.781 103.257 126.077 102.969 125.181 102.969C124.264 102.969 123.538 103.257 123.005 103.833C122.493 104.388 122.237 105.134 122.237 106.073V106.457C122.237 107.374 122.493 108.121 123.005 108.697C123.538 109.273 124.264 109.561 125.181 109.561ZM112.861 98.489C111.304 98.489 110.066 98.0303 109.149 97.113C108.232 96.1956 107.773 94.969 107.773 93.433V93.241C107.773 91.6836 108.232 90.457 109.149 89.561C110.066 88.6436 111.304 88.185 112.861 88.185C114.397 88.185 115.624 88.6436 116.541 89.561C117.48 90.457 117.949 91.6836 117.949 93.241V93.433C117.949 94.969 117.48 96.1956 116.541 97.113C115.624 98.0303 114.397 98.489 112.861 98.489ZM112.861 96.633C113.757 96.633 114.472 96.345 115.005 95.769C115.538 95.193 115.805 94.4463 115.805 93.529V93.145C115.805 92.2063 115.538 91.4596 115.005 90.905C114.472 90.329 113.757 90.041 112.861 90.041C111.944 90.041 111.218 90.329 110.685 90.905C110.173 91.4596 109.917 92.2063 109.917 93.145V93.529C109.917 94.4463 110.173 95.193 110.685 95.769C111.218 96.345 111.944 96.633 112.861 96.633Z" fill="#FF3D5F"/>
</svg>
