<svg width="200" height="200" viewBox="0 0 200 200" fill="none" xmlns="http://www.w3.org/2000/svg">
<path fill-rule="evenodd" clip-rule="evenodd" d="M99.9972 174.395C141.086 174.395 174.395 141.086 174.395 99.9972C174.395 58.9084 141.086 25.5993 99.9972 25.5993C58.9084 25.5993 25.5993 58.9084 25.5993 99.9972C25.5993 141.086 58.9084 174.395 99.9972 174.395ZM99.9972 199.994C155.224 199.994 199.994 155.224 199.994 99.9972C199.994 44.7703 155.224 0 99.9972 0C44.7703 0 0 44.7703 0 99.9972C0 155.224 44.7703 199.994 99.9972 199.994Z" fill="white"/>
<mask id="path-2-inside-1_1093_8430" fill="white">
<path fill-rule="evenodd" clip-rule="evenodd" d="M3.35963 74.2037C1.1695 82.4315 0.00219727 91.0765 0.00219727 99.9941C0.00219727 155.221 44.7725 199.991 99.9994 199.991C155.226 199.991 199.997 155.221 199.997 99.9941C199.997 45.034 155.658 0.429842 100.799 0V25.6004C141.52 26.0293 174.397 59.1722 174.397 99.9941C174.397 141.083 141.088 174.392 99.9994 174.392C58.9106 174.392 25.6015 141.083 25.6015 99.9941C25.6015 93.4777 26.4393 87.157 28.013 81.1338L3.35963 74.2037Z"/>
</mask>
<path fill-rule="evenodd" clip-rule="evenodd" d="M3.35963 74.2037C1.1695 82.4315 0.00219727 91.0765 0.00219727 99.9941C0.00219727 155.221 44.7725 199.991 99.9994 199.991C155.226 199.991 199.997 155.221 199.997 99.9941C199.997 45.034 155.658 0.429842 100.799 0V25.6004C141.52 26.0293 174.397 59.1722 174.397 99.9941C174.397 141.083 141.088 174.392 99.9994 174.392C58.9106 174.392 25.6015 141.083 25.6015 99.9941C25.6015 93.4777 26.4393 87.157 28.013 81.1338L3.35963 74.2037Z" fill="#FF4061"/>
<path d="M3.35963 74.2037L3.90086 72.2783L1.94858 71.7295L1.42693 73.6892L3.35963 74.2037ZM100.799 0L100.815 -1.99994L98.7994 -2.01573V0H100.799ZM100.799 25.6004H98.7994V27.5794L100.778 27.6003L100.799 25.6004ZM28.013 81.1338L29.948 81.6393L30.4444 79.7397L28.5542 79.2084L28.013 81.1338ZM1.42693 73.6892C-0.807482 82.0834 -1.9978 90.9013 -1.9978 99.9941H2.0022C2.0022 91.2517 3.14648 82.7797 5.29233 74.7182L1.42693 73.6892ZM-1.9978 99.9941C-1.9978 156.326 43.6679 201.991 99.9994 201.991V197.991C45.877 197.991 2.0022 154.116 2.0022 99.9941H-1.9978ZM99.9994 201.991C156.331 201.991 201.997 156.326 201.997 99.9941H197.997C197.997 154.116 154.122 197.991 99.9994 197.991V201.991ZM201.997 99.9941C201.997 43.9347 156.771 -1.5615 100.815 -1.99994L100.784 1.99994C154.545 2.42118 197.997 46.1334 197.997 99.9941H201.997ZM98.7994 0V25.6004H102.799V0H98.7994ZM176.397 99.9941C176.397 58.0747 142.636 24.041 100.82 23.6005L100.778 27.6003C140.403 28.0177 172.397 60.2697 172.397 99.9941H176.397ZM99.9994 176.392C142.193 176.392 176.397 142.187 176.397 99.9941H172.397C172.397 139.978 139.984 172.392 99.9994 172.392V176.392ZM23.6015 99.9941C23.6015 142.187 57.806 176.392 99.9994 176.392V172.392C60.0151 172.392 27.6015 139.978 27.6015 99.9941H23.6015ZM26.0779 80.6282C24.4615 86.815 23.6015 93.3056 23.6015 99.9941H27.6015C27.6015 93.6498 28.4171 87.4989 29.948 81.6393L26.0779 80.6282ZM28.5542 79.2084L3.90086 72.2783L2.81841 76.1291L27.4718 83.0591L28.5542 79.2084Z" fill="white" mask="url(#path-2-inside-1_1093_8430)"/>
<path d="M71.8608 111.001V110.201C71.8608 109.454 71.9248 108.825 72.0528 108.313C72.1808 107.801 72.4262 107.193 72.7888 106.489L81.3328 91.289V90.937H68.0208V88.601H84.0528V91.673L75.1248 107.673C74.8688 108.121 74.6875 108.526 74.5808 108.889C74.4955 109.252 74.4528 109.71 74.4528 110.265V111.001H71.8608ZM94.5961 111.449C92.9534 111.449 91.5454 111.161 90.3721 110.585C89.2201 109.988 88.3454 109.177 87.7481 108.153C87.1507 107.129 86.8521 105.966 86.8521 104.665H89.4441C89.4441 105.988 89.8814 107.065 90.7561 107.897C91.6307 108.708 92.9107 109.113 94.5961 109.113C96.3667 109.113 97.7214 108.644 98.6601 107.705C99.6201 106.745 100.1 105.433 100.1 103.769V100.665H99.6841C99.2787 101.305 98.6281 101.902 97.7321 102.457C96.8574 102.99 95.6201 103.257 94.0201 103.257C92.6761 103.257 91.4387 102.958 90.3081 102.361C89.1987 101.764 88.3134 100.921 87.6521 99.833C86.9907 98.745 86.6601 97.4543 86.6601 95.961V95.577C86.6601 94.041 87.0121 92.729 87.7161 91.641C88.4201 90.5316 89.3694 89.6783 90.5641 89.081C91.7801 88.4623 93.1561 88.153 94.6921 88.153C96.2494 88.153 97.6254 88.4623 98.8201 89.081C100.036 89.6783 100.985 90.5423 101.668 91.673C102.351 92.7823 102.692 94.1263 102.692 95.705V103.513C102.692 105.177 102.361 106.606 101.7 107.801C101.06 108.974 100.132 109.881 98.9161 110.521C97.7001 111.14 96.2601 111.449 94.5961 111.449ZM94.6921 101.081C95.7587 101.081 96.6974 100.868 97.5081 100.441C98.3187 99.993 98.9481 99.385 99.3961 98.617C99.8654 97.8276 100.1 96.9103 100.1 95.865V95.609C100.1 94.009 99.5987 92.761 98.5961 91.865C97.6147 90.9476 96.3134 90.489 94.6921 90.489C93.0707 90.489 91.7587 90.9476 90.7561 91.865C89.7534 92.761 89.2521 94.009 89.2521 95.609V95.865C89.2521 96.9103 89.4761 97.8276 89.9241 98.617C90.3934 99.385 91.0334 99.993 91.8441 100.441C92.6761 100.868 93.6254 101.081 94.6921 101.081ZM108.942 111.449L107.214 110.073L125.038 88.153L126.734 89.529L108.942 111.449ZM123.15 111.417C121.592 111.417 120.344 110.969 119.406 110.073C118.488 109.156 118.03 107.918 118.03 106.361V106.169C118.03 104.612 118.488 103.385 119.406 102.489C120.344 101.572 121.592 101.113 123.15 101.113C124.664 101.113 125.891 101.572 126.83 102.489C127.768 103.385 128.238 104.612 128.238 106.169V106.361C128.238 107.918 127.768 109.156 126.83 110.073C125.912 110.969 124.686 111.417 123.15 111.417ZM123.15 109.561C124.046 109.561 124.75 109.273 125.262 108.697C125.795 108.121 126.062 107.374 126.062 106.457V106.073C126.062 105.134 125.795 104.388 125.262 103.833C124.75 103.257 124.046 102.969 123.15 102.969C122.232 102.969 121.507 103.257 120.974 103.833C120.462 104.388 120.206 105.134 120.206 106.073V106.457C120.206 107.374 120.462 108.121 120.974 108.697C121.507 109.273 122.232 109.561 123.15 109.561ZM110.83 98.489C109.272 98.489 108.035 98.0303 107.118 97.113C106.2 96.1956 105.742 94.969 105.742 93.433V93.241C105.742 91.6836 106.2 90.457 107.118 89.561C108.035 88.6436 109.272 88.185 110.83 88.185C112.366 88.185 113.592 88.6436 114.51 89.561C115.448 90.457 115.918 91.6836 115.918 93.241V93.433C115.918 94.969 115.448 96.1956 114.51 97.113C113.592 98.0303 112.366 98.489 110.83 98.489ZM110.83 96.633C111.726 96.633 112.44 96.345 112.974 95.769C113.507 95.193 113.774 94.4463 113.774 93.529V93.145C113.774 92.2063 113.507 91.4596 112.974 90.905C112.44 90.329 111.726 90.041 110.83 90.041C109.912 90.041 109.187 90.329 108.654 90.905C108.142 91.4596 107.886 92.2063 107.886 93.145V93.529C107.886 94.4463 108.142 95.193 108.654 95.769C109.187 96.345 109.912 96.633 110.83 96.633Z" fill="#FF3D5F"/>
</svg>
