<svg width="200" height="200" viewBox="0 0 200 200" fill="none" xmlns="http://www.w3.org/2000/svg">
<path fill-rule="evenodd" clip-rule="evenodd" d="M99.9972 174.395C141.086 174.395 174.395 141.086 174.395 99.9972C174.395 58.9084 141.086 25.5993 99.9972 25.5993C58.9084 25.5993 25.5993 58.9084 25.5993 99.9972C25.5993 141.086 58.9084 174.395 99.9972 174.395ZM99.9972 199.994C155.224 199.994 199.994 155.224 199.994 99.9972C199.994 44.7703 155.224 0 99.9972 0C44.7703 0 0 44.7703 0 99.9972C0 155.224 44.7703 199.994 99.9972 199.994Z" fill="white"/>
<mask id="path-2-inside-1_1093_8406" fill="white">
<path fill-rule="evenodd" clip-rule="evenodd" d="M91.3815 199.625C94.2219 199.868 97.0961 199.991 99.9993 199.991C155.226 199.991 199.997 155.221 199.997 99.9941C199.997 45.0341 155.658 0.42985 100.799 0V25.6004C141.52 26.0294 174.397 59.1722 174.397 99.9941C174.397 141.083 141.088 174.392 99.9993 174.392C97.9218 174.392 95.8642 174.307 93.8298 174.14L91.3815 199.625Z"/>
</mask>
<path fill-rule="evenodd" clip-rule="evenodd" d="M91.3815 199.625C94.2219 199.868 97.0961 199.991 99.9993 199.991C155.226 199.991 199.997 155.221 199.997 99.9941C199.997 45.0341 155.658 0.42985 100.799 0V25.6004C141.52 26.0294 174.397 59.1722 174.397 99.9941C174.397 141.083 141.088 174.392 99.9993 174.392C97.9218 174.392 95.8642 174.307 93.8298 174.14L91.3815 199.625Z" fill="#FF4061"/>
<path d="M91.3815 199.625L89.3906 199.434L89.1973 201.446L91.2114 201.618L91.3815 199.625ZM100.799 0L100.815 -1.99994L98.7993 -2.01573V0H100.799ZM100.799 25.6004H98.7993V27.5794L100.778 27.6003L100.799 25.6004ZM93.8298 174.14L93.9935 172.147L92.0276 171.985L91.839 173.949L93.8298 174.14ZM91.2114 201.618C94.1083 201.865 97.0393 201.991 99.9993 201.991V197.991C97.153 197.991 94.3355 197.87 91.5516 197.632L91.2114 201.618ZM99.9993 201.991C156.331 201.991 201.997 156.326 201.997 99.9941H197.997C197.997 154.116 154.122 197.991 99.9993 197.991V201.991ZM201.997 99.9941C201.997 43.9347 156.771 -1.56149 100.815 -1.99994L100.784 1.99994C154.545 2.42119 197.997 46.1334 197.997 99.9941H201.997ZM98.7993 0V25.6004H102.799V0H98.7993ZM176.397 99.9941C176.397 58.0747 142.636 24.041 100.82 23.6005L100.778 27.6003C140.403 28.0177 172.397 60.2697 172.397 99.9941H176.397ZM99.9993 176.392C142.193 176.392 176.397 142.187 176.397 99.9941H172.397C172.397 139.978 139.984 172.392 99.9993 172.392V176.392ZM93.6662 176.133C95.755 176.305 97.8672 176.392 99.9993 176.392V172.392C97.9765 172.392 95.9735 172.309 93.9935 172.147L93.6662 176.133ZM91.839 173.949L89.3906 199.434L93.3723 199.816L95.8207 174.331L91.839 173.949Z" fill="white" mask="url(#path-2-inside-1_1093_8406)"/>
<path d="M75.6608 111.449C74.0182 111.449 72.5995 111.14 71.4048 110.521C70.2102 109.881 69.2822 109.006 68.6208 107.897C67.9595 106.766 67.6288 105.465 67.6288 103.993V103.609H70.2208V103.897C70.2208 105.582 70.7115 106.873 71.6928 107.769C72.6742 108.665 73.9755 109.113 75.5968 109.113C77.3035 109.113 78.6368 108.633 79.5968 107.673C80.5568 106.713 81.0368 105.401 81.0368 103.737V103.449C81.0368 101.849 80.5675 100.58 79.6288 99.641C78.7115 98.681 77.5168 98.201 76.0448 98.201C75.1915 98.201 74.4875 98.3396 73.9328 98.617C73.3782 98.873 72.9408 99.2036 72.6208 99.609C72.3008 99.993 72.0342 100.366 71.8208 100.729H68.3008V88.601H83.0208V90.937H70.8928V98.681H71.3408C71.5755 98.2543 71.8955 97.8383 72.3008 97.433C72.7275 97.0276 73.2928 96.6863 73.9968 96.409C74.7008 96.1316 75.5755 95.993 76.6208 95.993C77.9222 95.993 79.0955 96.2916 80.1408 96.889C81.2075 97.4863 82.0502 98.3396 82.6688 99.449C83.3088 100.558 83.6288 101.881 83.6288 103.417V103.769C83.6288 105.284 83.3088 106.617 82.6688 107.769C82.0288 108.921 81.1115 109.828 79.9168 110.489C78.7222 111.129 77.3035 111.449 75.6608 111.449ZM95.0731 111.449C93.5371 111.449 92.1611 111.15 90.9451 110.553C89.7504 109.934 88.8011 109.06 88.0971 107.929C87.4144 106.798 87.0731 105.454 87.0731 103.897V96.089C87.0731 94.4036 87.4037 92.9743 88.0651 91.801C88.7264 90.6276 89.6544 89.7316 90.8491 89.113C92.0651 88.473 93.5051 88.153 95.1691 88.153C96.8117 88.153 98.2091 88.4516 99.3611 89.049C100.534 89.625 101.42 90.425 102.017 91.449C102.636 92.4516 102.945 93.6143 102.945 94.937H100.321C100.321 93.6143 99.8944 92.5476 99.0411 91.737C98.1877 90.905 96.8971 90.489 95.1691 90.489C93.4197 90.489 92.0651 90.969 91.1051 91.929C90.1451 92.8676 89.6651 94.169 89.6651 95.833V98.937H90.1131C90.4971 98.297 91.1371 97.7103 92.0331 97.177C92.9291 96.6223 94.1771 96.345 95.7771 96.345C97.1211 96.345 98.3477 96.6436 99.4571 97.241C100.566 97.8383 101.452 98.681 102.113 99.769C102.774 100.857 103.105 102.148 103.105 103.641V104.025C103.105 105.54 102.753 106.852 102.049 107.961C101.366 109.07 100.417 109.934 99.2011 110.553C97.9851 111.15 96.6091 111.449 95.0731 111.449ZM95.0731 109.113C96.6944 109.113 98.0064 108.654 99.0091 107.737C100.012 106.82 100.513 105.572 100.513 103.993V103.737C100.513 102.67 100.278 101.753 99.8091 100.985C99.3611 100.217 98.7317 99.6196 97.9211 99.193C97.1104 98.745 96.1611 98.521 95.0731 98.521C94.0064 98.521 93.0677 98.745 92.2571 99.193C91.4464 99.6196 90.8064 100.217 90.3371 100.985C89.8891 101.753 89.6651 102.67 89.6651 103.737V103.993C89.6651 105.572 90.1664 106.82 91.1691 107.737C92.1717 108.654 93.4731 109.113 95.0731 109.113ZM109.067 111.449L107.339 110.073L125.163 88.153L126.859 89.529L109.067 111.449ZM123.275 111.417C121.717 111.417 120.469 110.969 119.531 110.073C118.613 109.156 118.155 107.918 118.155 106.361V106.169C118.155 104.612 118.613 103.385 119.531 102.489C120.469 101.572 121.717 101.113 123.275 101.113C124.789 101.113 126.016 101.572 126.955 102.489C127.893 103.385 128.363 104.612 128.363 106.169V106.361C128.363 107.918 127.893 109.156 126.955 110.073C126.037 110.969 124.811 111.417 123.275 111.417ZM123.275 109.561C124.171 109.561 124.875 109.273 125.387 108.697C125.92 108.121 126.187 107.374 126.187 106.457V106.073C126.187 105.134 125.92 104.388 125.387 103.833C124.875 103.257 124.171 102.969 123.275 102.969C122.357 102.969 121.632 103.257 121.099 103.833C120.587 104.388 120.331 105.134 120.331 106.073V106.457C120.331 107.374 120.587 108.121 121.099 108.697C121.632 109.273 122.357 109.561 123.275 109.561ZM110.955 98.489C109.397 98.489 108.16 98.0303 107.243 97.113C106.325 96.1956 105.867 94.969 105.867 93.433V93.241C105.867 91.6836 106.325 90.457 107.243 89.561C108.16 88.6436 109.397 88.185 110.955 88.185C112.491 88.185 113.717 88.6436 114.635 89.561C115.573 90.457 116.043 91.6836 116.043 93.241V93.433C116.043 94.969 115.573 96.1956 114.635 97.113C113.717 98.0303 112.491 98.489 110.955 98.489ZM110.955 96.633C111.851 96.633 112.565 96.345 113.099 95.769C113.632 95.193 113.899 94.4463 113.899 93.529V93.145C113.899 92.2063 113.632 91.4596 113.099 90.905C112.565 90.329 111.851 90.041 110.955 90.041C110.037 90.041 109.312 90.329 108.779 90.905C108.267 91.4596 108.011 92.2063 108.011 93.145V93.529C108.011 94.4463 108.267 95.193 108.779 95.769C109.312 96.345 110.037 96.633 110.955 96.633Z" fill="#FF3D5F"/>
</svg>
