<svg width="126" height="78" viewBox="0 0 126 78" fill="none" xmlns="http://www.w3.org/2000/svg">
<rect width="126" height="31" rx="8" fill="url(#paint0_linear_1304_13)"/>
<path d="M22.7585 20V11.2727H26.2528C26.8949 11.2727 27.4304 11.3679 27.8594 11.5582C28.2884 11.7486 28.6108 12.0128 28.8267 12.3509C29.0426 12.6861 29.1506 13.0724 29.1506 13.5099C29.1506 13.8509 29.0824 14.1506 28.946 14.4091C28.8097 14.6648 28.6222 14.875 28.3835 15.0398C28.1477 15.2017 27.8778 15.3168 27.5739 15.3849V15.4702C27.9063 15.4844 28.2173 15.5781 28.5071 15.7514C28.7997 15.9247 29.0369 16.1676 29.2188 16.4801C29.4006 16.7898 29.4915 17.1591 29.4915 17.5881C29.4915 18.0511 29.3764 18.4645 29.1463 18.8281C28.919 19.1889 28.5824 19.4744 28.1364 19.6847C27.6903 19.8949 27.1406 20 26.4872 20H22.7585ZM24.6037 18.4915H26.108C26.6222 18.4915 26.9972 18.3935 27.233 18.1974C27.4688 17.9986 27.5866 17.7344 27.5866 17.4048C27.5866 17.1634 27.5284 16.9503 27.4119 16.7656C27.2955 16.581 27.1293 16.4361 26.9134 16.331C26.7003 16.2259 26.446 16.1733 26.1506 16.1733H24.6037V18.4915ZM24.6037 14.9247H25.9716C26.2244 14.9247 26.4489 14.8807 26.6449 14.7926C26.8438 14.7017 27 14.5739 27.1136 14.4091C27.2301 14.2443 27.2884 14.0469 27.2884 13.8168C27.2884 13.5014 27.1761 13.2472 26.9517 13.054C26.7301 12.8608 26.4148 12.7642 26.0057 12.7642H24.6037V14.9247ZM34.8555 17.2131V13.4545H36.6708V20H34.9279V18.8111H34.8597C34.712 19.1946 34.4663 19.5028 34.1225 19.7358C33.7816 19.9687 33.3654 20.0852 32.8739 20.0852C32.4364 20.0852 32.0515 19.9858 31.7191 19.7869C31.3867 19.5881 31.1268 19.3054 30.9393 18.9389C30.7546 18.5724 30.6609 18.1335 30.658 17.6222V13.4545H32.4734V17.2983C32.4762 17.6847 32.5799 17.9901 32.7844 18.2145C32.989 18.4389 33.2631 18.5511 33.6069 18.5511C33.8256 18.5511 34.0302 18.5014 34.2205 18.402C34.4109 18.2997 34.5643 18.1491 34.6808 17.9503C34.8001 17.7514 34.8583 17.5057 34.8555 17.2131ZM39.2436 22.4545C39.0135 22.4545 38.7976 22.4361 38.5959 22.3991C38.397 22.3651 38.2322 22.321 38.1016 22.267L38.5107 20.9119C38.7237 20.9773 38.9155 21.0128 39.0859 21.0185C39.2592 21.0241 39.4084 20.9844 39.5334 20.8991C39.6612 20.8139 39.7649 20.669 39.8445 20.4645L39.951 20.1875L37.603 13.4545H39.5121L40.8672 18.2614H40.9354L42.3033 13.4545H44.2251L41.6811 20.7074C41.5589 21.0597 41.3928 21.3665 41.1825 21.6278C40.9751 21.892 40.7124 22.0952 40.3942 22.2372C40.076 22.3821 39.6925 22.4545 39.2436 22.4545ZM47.9656 20V11.2727H53.744V12.794H49.8107V14.8736H53.3604V16.3949H49.8107V20H47.9656ZM57.4279 20.1278C56.766 20.1278 56.1935 19.9872 55.7106 19.706C55.2305 19.4219 54.8597 19.027 54.5984 18.5213C54.337 18.0128 54.2063 17.4233 54.2063 16.7528C54.2063 16.0767 54.337 15.4858 54.5984 14.9801C54.8597 14.4716 55.2305 14.0767 55.7106 13.7955C56.1935 13.5114 56.766 13.3693 57.4279 13.3693C58.0898 13.3693 58.6609 13.5114 59.141 13.7955C59.6239 14.0767 59.9961 14.4716 60.2575 14.9801C60.5188 15.4858 60.6495 16.0767 60.6495 16.7528C60.6495 17.4233 60.5188 18.0128 60.2575 18.5213C59.9961 19.027 59.6239 19.4219 59.141 19.706C58.6609 19.9872 58.0898 20.1278 57.4279 20.1278ZM57.4364 18.7216C57.7376 18.7216 57.989 18.6364 58.1907 18.4659C58.3924 18.2926 58.5444 18.0568 58.6467 17.7585C58.7518 17.4602 58.8043 17.1207 58.8043 16.7401C58.8043 16.3594 58.7518 16.0199 58.6467 15.7216C58.5444 15.4233 58.3924 15.1875 58.1907 15.0142C57.989 14.8409 57.7376 14.7543 57.4364 14.7543C57.1325 14.7543 56.8768 14.8409 56.6694 15.0142C56.4648 15.1875 56.31 15.4233 56.2049 15.7216C56.1026 16.0199 56.0515 16.3594 56.0515 16.7401C56.0515 17.1207 56.1026 17.4602 56.2049 17.7585C56.31 18.0568 56.4648 18.2926 56.6694 18.4659C56.8768 18.6364 57.1325 18.7216 57.4364 18.7216ZM61.8299 20V13.4545H63.5898V14.5966H63.658C63.7773 14.1903 63.9776 13.8835 64.2589 13.6761C64.5401 13.4659 64.864 13.3608 65.2305 13.3608C65.3214 13.3608 65.4194 13.3665 65.5245 13.3778C65.6296 13.3892 65.7219 13.4048 65.8015 13.4247V15.0355C65.7163 15.0099 65.5984 14.9872 65.4478 14.9673C65.2972 14.9474 65.1594 14.9375 65.0344 14.9375C64.7674 14.9375 64.5288 14.9957 64.3185 15.1122C64.1112 15.2259 63.9464 15.3849 63.8242 15.5895C63.7049 15.794 63.6452 16.0298 63.6452 16.2969V20H61.8299ZM72.658 11.1534C73.1069 11.1534 73.5387 11.2287 73.9535 11.3793C74.3711 11.5298 74.7433 11.7699 75.07 12.0994C75.3995 12.429 75.6594 12.8665 75.8498 13.4119C76.043 13.9545 76.141 14.6207 76.1438 15.4105C76.1438 16.152 76.06 16.8139 75.8924 17.3963C75.7276 17.9759 75.4904 18.4688 75.1808 18.875C74.8711 19.2812 74.4975 19.5909 74.06 19.804C73.6225 20.0142 73.1339 20.1193 72.5941 20.1193C72.0117 20.1193 71.4975 20.0071 71.0515 19.7827C70.6055 19.5554 70.2461 19.2472 69.9734 18.858C69.7035 18.4659 69.5401 18.0256 69.4833 17.5369H71.3029C71.3739 17.8551 71.5231 18.1023 71.7504 18.2784C71.9776 18.4517 72.2589 18.5384 72.5941 18.5384C73.1623 18.5384 73.5941 18.2912 73.8896 17.7969C74.185 17.2997 74.3342 16.6193 74.337 15.7557H74.2773C74.1467 16.0114 73.9705 16.2315 73.7489 16.4162C73.5273 16.598 73.2731 16.7386 72.9862 16.8381C72.7021 16.9375 72.3995 16.9872 72.0785 16.9872C71.5643 16.9872 71.1055 16.8665 70.7021 16.625C70.2987 16.3835 69.9805 16.0511 69.7475 15.6278C69.5146 15.2045 69.3981 14.7216 69.3981 14.179C69.3952 13.5938 69.5302 13.0724 69.8029 12.6151C70.0756 12.1577 70.4563 11.7997 70.945 11.5412C71.4364 11.2798 72.0075 11.1506 72.658 11.1534ZM72.6708 12.6023C72.3839 12.6023 72.1282 12.6705 71.9038 12.8068C71.6822 12.9432 71.506 13.1264 71.3754 13.3565C71.2475 13.5866 71.185 13.8437 71.1879 14.1278C71.1879 14.4148 71.2504 14.6733 71.3754 14.9034C71.5032 15.1307 71.6765 15.3125 71.8952 15.4489C72.1168 15.5824 72.3697 15.6491 72.6538 15.6491C72.8668 15.6491 73.0643 15.6094 73.2461 15.5298C73.4279 15.4503 73.5856 15.3409 73.7191 15.2017C73.8555 15.0597 73.962 14.8963 74.0387 14.7116C74.1154 14.527 74.1538 14.331 74.1538 14.1236C74.1509 13.848 74.0856 13.5952 73.9577 13.3651C73.8299 13.1349 73.6538 12.9503 73.4293 12.8111C73.2049 12.6719 72.9521 12.6023 72.6708 12.6023ZM78.1488 20.1108C77.8675 20.1108 77.6261 20.0114 77.4244 19.8125C77.2255 19.6108 77.1261 19.3693 77.1261 19.0881C77.1261 18.8097 77.2255 18.571 77.4244 18.3722C77.6261 18.1733 77.8675 18.0739 78.1488 18.0739C78.4215 18.0739 78.6602 18.1733 78.8647 18.3722C79.0692 18.571 79.1715 18.8097 79.1715 19.0881C79.1715 19.2756 79.1232 19.4474 79.0266 19.6037C78.9329 19.7571 78.8093 19.8807 78.6559 19.9744C78.5025 20.0653 78.3335 20.1108 78.1488 20.1108ZM83.6385 11.1534C84.0874 11.1534 84.5192 11.2287 84.9339 11.3793C85.3516 11.5298 85.7237 11.7699 86.0504 12.0994C86.38 12.429 86.6399 12.8665 86.8303 13.4119C87.0234 13.9545 87.1214 14.6207 87.1243 15.4105C87.1243 16.152 87.0405 16.8139 86.8729 17.3963C86.7081 17.9759 86.4709 18.4688 86.1612 18.875C85.8516 19.2812 85.478 19.5909 85.0405 19.804C84.603 20.0142 84.1143 20.1193 83.5746 20.1193C82.9922 20.1193 82.478 20.0071 82.032 19.7827C81.5859 19.5554 81.2266 19.2472 80.9538 18.858C80.6839 18.4659 80.5206 18.0256 80.4638 17.5369H82.2834C82.3544 17.8551 82.5036 18.1023 82.7308 18.2784C82.9581 18.4517 83.2393 18.5384 83.5746 18.5384C84.1428 18.5384 84.5746 18.2912 84.87 17.7969C85.1655 17.2997 85.3146 16.6193 85.3175 15.7557H85.2578C85.1271 16.0114 84.951 16.2315 84.7294 16.4162C84.5078 16.598 84.2536 16.7386 83.9666 16.8381C83.6825 16.9375 83.38 16.9872 83.0589 16.9872C82.5447 16.9872 82.0859 16.8665 81.6825 16.625C81.2791 16.3835 80.9609 16.0511 80.728 15.6278C80.495 15.2045 80.3786 14.7216 80.3786 14.179C80.3757 13.5938 80.5107 13.0724 80.7834 12.6151C81.0561 12.1577 81.4368 11.7997 81.9254 11.5412C82.4169 11.2798 82.9879 11.1506 83.6385 11.1534ZM83.6513 12.6023C83.3643 12.6023 83.1087 12.6705 82.8842 12.8068C82.6626 12.9432 82.4865 13.1264 82.3558 13.3565C82.228 13.5866 82.1655 13.8437 82.1683 14.1278C82.1683 14.4148 82.2308 14.6733 82.3558 14.9034C82.4837 15.1307 82.657 15.3125 82.8757 15.4489C83.0973 15.5824 83.3501 15.6491 83.6342 15.6491C83.8473 15.6491 84.0447 15.6094 84.2266 15.5298C84.4084 15.4503 84.5661 15.3409 84.6996 15.2017C84.8359 15.0597 84.9425 14.8963 85.0192 14.7116C85.0959 14.527 85.1342 14.331 85.1342 14.1236C85.1314 13.848 85.0661 13.5952 84.9382 13.3651C84.8104 13.1349 84.6342 12.9503 84.4098 12.8111C84.1854 12.6719 83.9325 12.6023 83.6513 12.6023ZM91.5604 11.1534C92.0092 11.1534 92.4411 11.2287 92.8558 11.3793C93.2734 11.5298 93.6456 11.7699 93.9723 12.0994C94.3018 12.429 94.5618 12.8665 94.7521 13.4119C94.9453 13.9545 95.0433 14.6207 95.0462 15.4105C95.0462 16.152 94.9624 16.8139 94.7947 17.3963C94.63 17.9759 94.3928 18.4688 94.0831 18.875C93.7734 19.2812 93.3999 19.5909 92.9624 19.804C92.5249 20.0142 92.0362 20.1193 91.4964 20.1193C90.9141 20.1193 90.3999 20.0071 89.9538 19.7827C89.5078 19.5554 89.1484 19.2472 88.8757 18.858C88.6058 18.4659 88.4425 18.0256 88.3857 17.5369H90.2053C90.2763 17.8551 90.4254 18.1023 90.6527 18.2784C90.88 18.4517 91.1612 18.5384 91.4964 18.5384C92.0646 18.5384 92.4964 18.2912 92.7919 17.7969C93.0874 17.2997 93.2365 16.6193 93.2393 15.7557H93.1797C93.049 16.0114 92.8729 16.2315 92.6513 16.4162C92.4297 16.598 92.1754 16.7386 91.8885 16.8381C91.6044 16.9375 91.3018 16.9872 90.9808 16.9872C90.4666 16.9872 90.0078 16.8665 89.6044 16.625C89.201 16.3835 88.8828 16.0511 88.6499 15.6278C88.4169 15.2045 88.3004 14.7216 88.3004 14.179C88.2976 13.5938 88.4325 13.0724 88.7053 12.6151C88.978 12.1577 89.3587 11.7997 89.8473 11.5412C90.3388 11.2798 90.9098 11.1506 91.5604 11.1534ZM91.5732 12.6023C91.2862 12.6023 91.0305 12.6705 90.8061 12.8068C90.5845 12.9432 90.4084 13.1264 90.2777 13.3565C90.1499 13.5866 90.0874 13.8437 90.0902 14.1278C90.0902 14.4148 90.1527 14.6733 90.2777 14.9034C90.4055 15.1307 90.5788 15.3125 90.7976 15.4489C91.0192 15.5824 91.272 15.6491 91.5561 15.6491C91.7692 15.6491 91.9666 15.6094 92.1484 15.5298C92.3303 15.4503 92.4879 15.3409 92.6214 15.2017C92.7578 15.0597 92.8643 14.8963 92.9411 14.7116C93.0178 14.527 93.0561 14.331 93.0561 14.1236C93.0533 13.848 92.9879 13.5952 92.8601 13.3651C92.7322 13.1349 92.5561 12.9503 92.3317 12.8111C92.1072 12.6719 91.8544 12.6023 91.5732 12.6023ZM99.2564 21.0909V10.1818H99.9553V21.0909H99.2564ZM101.11 13.7827C101.076 13.4389 100.93 13.1719 100.671 12.9815C100.413 12.7912 100.062 12.696 99.6186 12.696C99.3175 12.696 99.0632 12.7386 98.8558 12.8239C98.6484 12.9062 98.4893 13.0213 98.3786 13.169C98.2706 13.3168 98.2166 13.4844 98.2166 13.6719C98.2109 13.8281 98.2436 13.9645 98.3146 14.081C98.3885 14.1974 98.4893 14.2983 98.6172 14.3835C98.745 14.4659 98.8928 14.5384 99.0604 14.6009C99.228 14.6605 99.407 14.7116 99.5973 14.7543L100.381 14.9418C100.762 15.027 101.112 15.1406 101.43 15.2827C101.748 15.4247 102.023 15.5994 102.256 15.8068C102.489 16.0142 102.67 16.2585 102.798 16.5398C102.928 16.821 102.995 17.1435 102.998 17.5071C102.995 18.0412 102.859 18.5043 102.589 18.8963C102.322 19.2855 101.935 19.5881 101.43 19.804C100.927 20.017 100.32 20.1236 99.6101 20.1236C98.9055 20.1236 98.2919 20.0156 97.7692 19.7997C97.2493 19.5838 96.843 19.2642 96.5504 18.8409C96.2607 18.4148 96.1087 17.8878 96.0945 17.2599H97.88C97.8999 17.5526 97.9837 17.7969 98.1314 17.9929C98.282 18.1861 98.4822 18.3324 98.7322 18.4318C98.9851 18.5284 99.2706 18.5767 99.5888 18.5767C99.9013 18.5767 100.173 18.5312 100.403 18.4403C100.636 18.3494 100.816 18.223 100.944 18.0611C101.072 17.8991 101.136 17.7131 101.136 17.5028C101.136 17.3068 101.077 17.142 100.961 17.0085C100.847 16.875 100.68 16.7614 100.458 16.6676C100.239 16.5739 99.9709 16.4886 99.6527 16.4119L98.7024 16.1733C97.9666 15.9943 97.3857 15.7145 96.9595 15.3338C96.5334 14.9531 96.3217 14.4403 96.3246 13.7955C96.3217 13.267 96.4624 12.8054 96.7464 12.4105C97.0334 12.0156 97.4268 11.7074 97.9268 11.4858C98.4268 11.2642 98.995 11.1534 99.6314 11.1534C100.279 11.1534 100.844 11.2642 101.327 11.4858C101.813 11.7074 102.191 12.0156 102.461 12.4105C102.731 12.8054 102.87 13.2628 102.879 13.7827H101.11Z" fill="white"/>
<rect x="0.5" y="47.5" width="125" height="30" rx="7.5" fill="url(#paint1_linear_1304_13)"/>
<path d="M22.7585 67V58.2727H26.2528C26.8949 58.2727 27.4304 58.3679 27.8594 58.5582C28.2884 58.7486 28.6108 59.0128 28.8267 59.3509C29.0426 59.6861 29.1506 60.0724 29.1506 60.5099C29.1506 60.8509 29.0824 61.1506 28.946 61.4091C28.8097 61.6648 28.6222 61.875 28.3835 62.0398C28.1477 62.2017 27.8778 62.3168 27.5739 62.3849V62.4702C27.9063 62.4844 28.2173 62.5781 28.5071 62.7514C28.7997 62.9247 29.0369 63.1676 29.2188 63.4801C29.4006 63.7898 29.4915 64.1591 29.4915 64.5881C29.4915 65.0511 29.3764 65.4645 29.1463 65.8281C28.919 66.1889 28.5824 66.4744 28.1364 66.6847C27.6903 66.8949 27.1406 67 26.4872 67H22.7585ZM24.6037 65.4915H26.108C26.6222 65.4915 26.9972 65.3935 27.233 65.1974C27.4688 64.9986 27.5866 64.7344 27.5866 64.4048C27.5866 64.1634 27.5284 63.9503 27.4119 63.7656C27.2955 63.581 27.1293 63.4361 26.9134 63.331C26.7003 63.2259 26.446 63.1733 26.1506 63.1733H24.6037V65.4915ZM24.6037 61.9247H25.9716C26.2244 61.9247 26.4489 61.8807 26.6449 61.7926C26.8438 61.7017 27 61.5739 27.1136 61.4091C27.2301 61.2443 27.2884 61.0469 27.2884 60.8168C27.2884 60.5014 27.1761 60.2472 26.9517 60.054C26.7301 59.8608 26.4148 59.7642 26.0057 59.7642H24.6037V61.9247ZM34.8555 64.2131V60.4545H36.6708V67H34.9279V65.8111H34.8597C34.712 66.1946 34.4663 66.5028 34.1225 66.7358C33.7816 66.9687 33.3654 67.0852 32.8739 67.0852C32.4364 67.0852 32.0515 66.9858 31.7191 66.7869C31.3867 66.5881 31.1268 66.3054 30.9393 65.9389C30.7546 65.5724 30.6609 65.1335 30.658 64.6222V60.4545H32.4734V64.2983C32.4762 64.6847 32.5799 64.9901 32.7844 65.2145C32.989 65.4389 33.2631 65.5511 33.6069 65.5511C33.8256 65.5511 34.0302 65.5014 34.2205 65.402C34.4109 65.2997 34.5643 65.1491 34.6808 64.9503C34.8001 64.7514 34.8583 64.5057 34.8555 64.2131ZM39.2436 69.4545C39.0135 69.4545 38.7976 69.4361 38.5959 69.3991C38.397 69.3651 38.2322 69.321 38.1016 69.267L38.5107 67.9119C38.7237 67.9773 38.9155 68.0128 39.0859 68.0185C39.2592 68.0241 39.4084 67.9844 39.5334 67.8991C39.6612 67.8139 39.7649 67.669 39.8445 67.4645L39.951 67.1875L37.603 60.4545H39.5121L40.8672 65.2614H40.9354L42.3033 60.4545H44.2251L41.6811 67.7074C41.5589 68.0597 41.3928 68.3665 41.1825 68.6278C40.9751 68.892 40.7124 69.0952 40.3942 69.2372C40.076 69.3821 39.6925 69.4545 39.2436 69.4545ZM47.9656 67V58.2727H53.744V59.794H49.8107V61.8736H53.3604V63.3949H49.8107V67H47.9656ZM57.4279 67.1278C56.766 67.1278 56.1935 66.9872 55.7106 66.706C55.2305 66.4219 54.8597 66.027 54.5984 65.5213C54.337 65.0128 54.2063 64.4233 54.2063 63.7528C54.2063 63.0767 54.337 62.4858 54.5984 61.9801C54.8597 61.4716 55.2305 61.0767 55.7106 60.7955C56.1935 60.5114 56.766 60.3693 57.4279 60.3693C58.0898 60.3693 58.6609 60.5114 59.141 60.7955C59.6239 61.0767 59.9961 61.4716 60.2575 61.9801C60.5188 62.4858 60.6495 63.0767 60.6495 63.7528C60.6495 64.4233 60.5188 65.0128 60.2575 65.5213C59.9961 66.027 59.6239 66.4219 59.141 66.706C58.6609 66.9872 58.0898 67.1278 57.4279 67.1278ZM57.4364 65.7216C57.7376 65.7216 57.989 65.6364 58.1907 65.4659C58.3924 65.2926 58.5444 65.0568 58.6467 64.7585C58.7518 64.4602 58.8043 64.1207 58.8043 63.7401C58.8043 63.3594 58.7518 63.0199 58.6467 62.7216C58.5444 62.4233 58.3924 62.1875 58.1907 62.0142C57.989 61.8409 57.7376 61.7543 57.4364 61.7543C57.1325 61.7543 56.8768 61.8409 56.6694 62.0142C56.4648 62.1875 56.31 62.4233 56.2049 62.7216C56.1026 63.0199 56.0515 63.3594 56.0515 63.7401C56.0515 64.1207 56.1026 64.4602 56.2049 64.7585C56.31 65.0568 56.4648 65.2926 56.6694 65.4659C56.8768 65.6364 57.1325 65.7216 57.4364 65.7216ZM61.8299 67V60.4545H63.5898V61.5966H63.658C63.7773 61.1903 63.9776 60.8835 64.2589 60.6761C64.5401 60.4659 64.864 60.3608 65.2305 60.3608C65.3214 60.3608 65.4194 60.3665 65.5245 60.3778C65.6296 60.3892 65.7219 60.4048 65.8015 60.4247V62.0355C65.7163 62.0099 65.5984 61.9872 65.4478 61.9673C65.2972 61.9474 65.1594 61.9375 65.0344 61.9375C64.7674 61.9375 64.5288 61.9957 64.3185 62.1122C64.1112 62.2259 63.9464 62.3849 63.8242 62.5895C63.7049 62.794 63.6452 63.0298 63.6452 63.2969V67H61.8299ZM72.658 58.1534C73.1069 58.1534 73.5387 58.2287 73.9535 58.3793C74.3711 58.5298 74.7433 58.7699 75.07 59.0994C75.3995 59.429 75.6594 59.8665 75.8498 60.4119C76.043 60.9545 76.141 61.6207 76.1438 62.4105C76.1438 63.152 76.06 63.8139 75.8924 64.3963C75.7276 64.9759 75.4904 65.4688 75.1808 65.875C74.8711 66.2812 74.4975 66.5909 74.06 66.804C73.6225 67.0142 73.1339 67.1193 72.5941 67.1193C72.0117 67.1193 71.4975 67.0071 71.0515 66.7827C70.6055 66.5554 70.2461 66.2472 69.9734 65.858C69.7035 65.4659 69.5401 65.0256 69.4833 64.5369H71.3029C71.3739 64.8551 71.5231 65.1023 71.7504 65.2784C71.9776 65.4517 72.2589 65.5384 72.5941 65.5384C73.1623 65.5384 73.5941 65.2912 73.8896 64.7969C74.185 64.2997 74.3342 63.6193 74.337 62.7557H74.2773C74.1467 63.0114 73.9705 63.2315 73.7489 63.4162C73.5273 63.598 73.2731 63.7386 72.9862 63.8381C72.7021 63.9375 72.3995 63.9872 72.0785 63.9872C71.5643 63.9872 71.1055 63.8665 70.7021 63.625C70.2987 63.3835 69.9805 63.0511 69.7475 62.6278C69.5146 62.2045 69.3981 61.7216 69.3981 61.179C69.3952 60.5938 69.5302 60.0724 69.8029 59.6151C70.0756 59.1577 70.4563 58.7997 70.945 58.5412C71.4364 58.2798 72.0075 58.1506 72.658 58.1534ZM72.6708 59.6023C72.3839 59.6023 72.1282 59.6705 71.9038 59.8068C71.6822 59.9432 71.506 60.1264 71.3754 60.3565C71.2475 60.5866 71.185 60.8437 71.1879 61.1278C71.1879 61.4148 71.2504 61.6733 71.3754 61.9034C71.5032 62.1307 71.6765 62.3125 71.8952 62.4489C72.1168 62.5824 72.3697 62.6491 72.6538 62.6491C72.8668 62.6491 73.0643 62.6094 73.2461 62.5298C73.4279 62.4503 73.5856 62.3409 73.7191 62.2017C73.8555 62.0597 73.962 61.8963 74.0387 61.7116C74.1154 61.527 74.1538 61.331 74.1538 61.1236C74.1509 60.848 74.0856 60.5952 73.9577 60.3651C73.8299 60.1349 73.6538 59.9503 73.4293 59.8111C73.2049 59.6719 72.9521 59.6023 72.6708 59.6023ZM78.1488 67.1108C77.8675 67.1108 77.6261 67.0114 77.4244 66.8125C77.2255 66.6108 77.1261 66.3693 77.1261 66.0881C77.1261 65.8097 77.2255 65.571 77.4244 65.3722C77.6261 65.1733 77.8675 65.0739 78.1488 65.0739C78.4215 65.0739 78.6602 65.1733 78.8647 65.3722C79.0692 65.571 79.1715 65.8097 79.1715 66.0881C79.1715 66.2756 79.1232 66.4474 79.0266 66.6037C78.9329 66.7571 78.8093 66.8807 78.6559 66.9744C78.5025 67.0653 78.3335 67.1108 78.1488 67.1108ZM83.6385 58.1534C84.0874 58.1534 84.5192 58.2287 84.9339 58.3793C85.3516 58.5298 85.7237 58.7699 86.0504 59.0994C86.38 59.429 86.6399 59.8665 86.8303 60.4119C87.0234 60.9545 87.1214 61.6207 87.1243 62.4105C87.1243 63.152 87.0405 63.8139 86.8729 64.3963C86.7081 64.9759 86.4709 65.4688 86.1612 65.875C85.8516 66.2812 85.478 66.5909 85.0405 66.804C84.603 67.0142 84.1143 67.1193 83.5746 67.1193C82.9922 67.1193 82.478 67.0071 82.032 66.7827C81.5859 66.5554 81.2266 66.2472 80.9538 65.858C80.6839 65.4659 80.5206 65.0256 80.4638 64.5369H82.2834C82.3544 64.8551 82.5036 65.1023 82.7308 65.2784C82.9581 65.4517 83.2393 65.5384 83.5746 65.5384C84.1428 65.5384 84.5746 65.2912 84.87 64.7969C85.1655 64.2997 85.3146 63.6193 85.3175 62.7557H85.2578C85.1271 63.0114 84.951 63.2315 84.7294 63.4162C84.5078 63.598 84.2536 63.7386 83.9666 63.8381C83.6825 63.9375 83.38 63.9872 83.0589 63.9872C82.5447 63.9872 82.0859 63.8665 81.6825 63.625C81.2791 63.3835 80.9609 63.0511 80.728 62.6278C80.495 62.2045 80.3786 61.7216 80.3786 61.179C80.3757 60.5938 80.5107 60.0724 80.7834 59.6151C81.0561 59.1577 81.4368 58.7997 81.9254 58.5412C82.4169 58.2798 82.9879 58.1506 83.6385 58.1534ZM83.6513 59.6023C83.3643 59.6023 83.1087 59.6705 82.8842 59.8068C82.6626 59.9432 82.4865 60.1264 82.3558 60.3565C82.228 60.5866 82.1655 60.8437 82.1683 61.1278C82.1683 61.4148 82.2308 61.6733 82.3558 61.9034C82.4837 62.1307 82.657 62.3125 82.8757 62.4489C83.0973 62.5824 83.3501 62.6491 83.6342 62.6491C83.8473 62.6491 84.0447 62.6094 84.2266 62.5298C84.4084 62.4503 84.5661 62.3409 84.6996 62.2017C84.8359 62.0597 84.9425 61.8963 85.0192 61.7116C85.0959 61.527 85.1342 61.331 85.1342 61.1236C85.1314 60.848 85.0661 60.5952 84.9382 60.3651C84.8104 60.1349 84.6342 59.9503 84.4098 59.8111C84.1854 59.6719 83.9325 59.6023 83.6513 59.6023ZM91.5604 58.1534C92.0092 58.1534 92.4411 58.2287 92.8558 58.3793C93.2734 58.5298 93.6456 58.7699 93.9723 59.0994C94.3018 59.429 94.5618 59.8665 94.7521 60.4119C94.9453 60.9545 95.0433 61.6207 95.0462 62.4105C95.0462 63.152 94.9624 63.8139 94.7947 64.3963C94.63 64.9759 94.3928 65.4688 94.0831 65.875C93.7734 66.2812 93.3999 66.5909 92.9624 66.804C92.5249 67.0142 92.0362 67.1193 91.4964 67.1193C90.9141 67.1193 90.3999 67.0071 89.9538 66.7827C89.5078 66.5554 89.1484 66.2472 88.8757 65.858C88.6058 65.4659 88.4425 65.0256 88.3857 64.5369H90.2053C90.2763 64.8551 90.4254 65.1023 90.6527 65.2784C90.88 65.4517 91.1612 65.5384 91.4964 65.5384C92.0646 65.5384 92.4964 65.2912 92.7919 64.7969C93.0874 64.2997 93.2365 63.6193 93.2393 62.7557H93.1797C93.049 63.0114 92.8729 63.2315 92.6513 63.4162C92.4297 63.598 92.1754 63.7386 91.8885 63.8381C91.6044 63.9375 91.3018 63.9872 90.9808 63.9872C90.4666 63.9872 90.0078 63.8665 89.6044 63.625C89.201 63.3835 88.8828 63.0511 88.6499 62.6278C88.4169 62.2045 88.3004 61.7216 88.3004 61.179C88.2976 60.5938 88.4325 60.0724 88.7053 59.6151C88.978 59.1577 89.3587 58.7997 89.8473 58.5412C90.3388 58.2798 90.9098 58.1506 91.5604 58.1534ZM91.5732 59.6023C91.2862 59.6023 91.0305 59.6705 90.8061 59.8068C90.5845 59.9432 90.4084 60.1264 90.2777 60.3565C90.1499 60.5866 90.0874 60.8437 90.0902 61.1278C90.0902 61.4148 90.1527 61.6733 90.2777 61.9034C90.4055 62.1307 90.5788 62.3125 90.7976 62.4489C91.0192 62.5824 91.272 62.6491 91.5561 62.6491C91.7692 62.6491 91.9666 62.6094 92.1484 62.5298C92.3303 62.4503 92.4879 62.3409 92.6214 62.2017C92.7578 62.0597 92.8643 61.8963 92.9411 61.7116C93.0178 61.527 93.0561 61.331 93.0561 61.1236C93.0533 60.848 92.9879 60.5952 92.8601 60.3651C92.7322 60.1349 92.5561 59.9503 92.3317 59.8111C92.1072 59.6719 91.8544 59.6023 91.5732 59.6023ZM99.2564 68.0909V57.1818H99.9553V68.0909H99.2564ZM101.11 60.7827C101.076 60.4389 100.93 60.1719 100.671 59.9815C100.413 59.7912 100.062 59.696 99.6186 59.696C99.3175 59.696 99.0632 59.7386 98.8558 59.8239C98.6484 59.9062 98.4893 60.0213 98.3786 60.169C98.2706 60.3168 98.2166 60.4844 98.2166 60.6719C98.2109 60.8281 98.2436 60.9645 98.3146 61.081C98.3885 61.1974 98.4893 61.2983 98.6172 61.3835C98.745 61.4659 98.8928 61.5384 99.0604 61.6009C99.228 61.6605 99.407 61.7116 99.5973 61.7543L100.381 61.9418C100.762 62.027 101.112 62.1406 101.43 62.2827C101.748 62.4247 102.023 62.5994 102.256 62.8068C102.489 63.0142 102.67 63.2585 102.798 63.5398C102.928 63.821 102.995 64.1435 102.998 64.5071C102.995 65.0412 102.859 65.5043 102.589 65.8963C102.322 66.2855 101.935 66.5881 101.43 66.804C100.927 67.017 100.32 67.1236 99.6101 67.1236C98.9055 67.1236 98.2919 67.0156 97.7692 66.7997C97.2493 66.5838 96.843 66.2642 96.5504 65.8409C96.2607 65.4148 96.1087 64.8878 96.0945 64.2599H97.88C97.8999 64.5526 97.9837 64.7969 98.1314 64.9929C98.282 65.1861 98.4822 65.3324 98.7322 65.4318C98.9851 65.5284 99.2706 65.5767 99.5888 65.5767C99.9013 65.5767 100.173 65.5312 100.403 65.4403C100.636 65.3494 100.816 65.223 100.944 65.0611C101.072 64.8991 101.136 64.7131 101.136 64.5028C101.136 64.3068 101.077 64.142 100.961 64.0085C100.847 63.875 100.68 63.7614 100.458 63.6676C100.239 63.5739 99.9709 63.4886 99.6527 63.4119L98.7024 63.1733C97.9666 62.9943 97.3857 62.7145 96.9595 62.3338C96.5334 61.9531 96.3217 61.4403 96.3246 60.7955C96.3217 60.267 96.4624 59.8054 96.7464 59.4105C97.0334 59.0156 97.4268 58.7074 97.9268 58.4858C98.4268 58.2642 98.995 58.1534 99.6314 58.1534C100.279 58.1534 100.844 58.2642 101.327 58.4858C101.813 58.7074 102.191 59.0156 102.461 59.4105C102.731 59.8054 102.87 60.2628 102.879 60.7827H101.11Z" fill="black"/>
<rect x="0.5" y="47.5" width="125" height="30" rx="7.5" stroke="black"/>
<defs>
<linearGradient id="paint0_linear_1304_13" x1="-2.0543e-06" y1="26.1286" x2="184.148" y2="-19.7874" gradientUnits="userSpaceOnUse">
<stop stop-color="#FE1E14"/>
<stop offset="1" stop-color="#5A1411"/>
</linearGradient>
<linearGradient id="paint1_linear_1304_13" x1="-2.0543e-06" y1="73.1286" x2="184.148" y2="27.2126" gradientUnits="userSpaceOnUse">
<stop stop-color="white"/>
<stop offset="1" stop-color="#E6E6E6"/>
</linearGradient>
</defs>
</svg>
